%TF.GenerationSoftware,KiCad,Pcbnew,5.0.2-bee76a0~70~ubuntu18.04.1*%
%TF.CreationDate,2019-02-03T14:37:59+02:00*%
%TF.ProjectId,component_tester_adapter,636f6d70-6f6e-4656-9e74-5f7465737465,B*%
%TF.SameCoordinates,PX7e911f8PY6f6d640*%
%TF.FileFunction,Legend,Bot*%
%TF.FilePolarity,Positive*%
%FSLAX46Y46*%
G04 Gerber Fmt 4.6, Leading zero omitted, Abs format (unit mm)*
G04 Created by KiCad (PCBNEW 5.0.2-bee76a0~70~ubuntu18.04.1) date 2019 m. vasario 03 d. 14:37:59*
%MOMM*%
%LPD*%
G01*
G04 APERTURE LIST*
%ADD10C,0.150000*%
%ADD11C,0.300000*%
%ADD12C,0.010000*%
G04 APERTURE END LIST*
D10*
X7620000Y54680000D02*
X56125000Y54680000D01*
X-15875000Y54680000D02*
X7620000Y54680000D01*
X56125000Y-20320000D02*
X56125000Y54680000D01*
X56125000Y-20320000D02*
X-15875000Y-20320000D01*
X-15875000Y-20320000D02*
X-15875000Y54680000D01*
D11*
X52637142Y32346429D02*
X53494285Y32346429D01*
X53065714Y32346429D02*
X53065714Y33846429D01*
X53208571Y33632143D01*
X53351428Y33489286D01*
X53494285Y33417858D01*
X51922857Y32346429D02*
X51637142Y32346429D01*
X51494285Y32417858D01*
X51422857Y32489286D01*
X51280000Y32703572D01*
X51208571Y32989286D01*
X51208571Y33560715D01*
X51280000Y33703572D01*
X51351428Y33775000D01*
X51494285Y33846429D01*
X51780000Y33846429D01*
X51922857Y33775000D01*
X51994285Y33703572D01*
X52065714Y33560715D01*
X52065714Y33203572D01*
X51994285Y33060715D01*
X51922857Y32989286D01*
X51780000Y32917858D01*
X51494285Y32917858D01*
X51351428Y32989286D01*
X51280000Y33060715D01*
X51208571Y33203572D01*
X50565714Y32917858D02*
X49422857Y32917858D01*
X48422857Y33846429D02*
X48280000Y33846429D01*
X48137142Y33775000D01*
X48065714Y33703572D01*
X47994285Y33560715D01*
X47922857Y33275000D01*
X47922857Y32917858D01*
X47994285Y32632143D01*
X48065714Y32489286D01*
X48137142Y32417858D01*
X48280000Y32346429D01*
X48422857Y32346429D01*
X48565714Y32417858D01*
X48637142Y32489286D01*
X48708571Y32632143D01*
X48780000Y32917858D01*
X48780000Y33275000D01*
X48708571Y33560715D01*
X48637142Y33703572D01*
X48565714Y33775000D01*
X48422857Y33846429D01*
X47351428Y33703572D02*
X47280000Y33775000D01*
X47137142Y33846429D01*
X46780000Y33846429D01*
X46637142Y33775000D01*
X46565714Y33703572D01*
X46494285Y33560715D01*
X46494285Y33417858D01*
X46565714Y33203572D01*
X47422857Y32346429D01*
X46494285Y32346429D01*
X45851428Y32917858D02*
X44708571Y32917858D01*
X43708571Y33846429D02*
X43565714Y33846429D01*
X43422857Y33775000D01*
X43351428Y33703572D01*
X43280000Y33560715D01*
X43208571Y33275000D01*
X43208571Y32917858D01*
X43280000Y32632143D01*
X43351428Y32489286D01*
X43422857Y32417858D01*
X43565714Y32346429D01*
X43708571Y32346429D01*
X43851428Y32417858D01*
X43922857Y32489286D01*
X43994285Y32632143D01*
X44065714Y32917858D01*
X44065714Y33275000D01*
X43994285Y33560715D01*
X43922857Y33703572D01*
X43851428Y33775000D01*
X43708571Y33846429D01*
X42637142Y33703572D02*
X42565714Y33775000D01*
X42422857Y33846429D01*
X42065714Y33846429D01*
X41922857Y33775000D01*
X41851428Y33703572D01*
X41780000Y33560715D01*
X41780000Y33417858D01*
X41851428Y33203572D01*
X42708571Y32346429D01*
X41780000Y32346429D01*
X52565714Y29796429D02*
X53065714Y30510715D01*
X53422857Y29796429D02*
X53422857Y31296429D01*
X52851428Y31296429D01*
X52708571Y31225000D01*
X52637142Y31153572D01*
X52565714Y31010715D01*
X52565714Y30796429D01*
X52637142Y30653572D01*
X52708571Y30582143D01*
X52851428Y30510715D01*
X53422857Y30510715D01*
X51351428Y29867858D02*
X51494285Y29796429D01*
X51780000Y29796429D01*
X51922857Y29867858D01*
X51994285Y30010715D01*
X51994285Y30582143D01*
X51922857Y30725000D01*
X51780000Y30796429D01*
X51494285Y30796429D01*
X51351428Y30725000D01*
X51280000Y30582143D01*
X51280000Y30439286D01*
X51994285Y30296429D01*
X50780000Y30796429D02*
X50422857Y29796429D01*
X50065714Y30796429D01*
X47851428Y30582143D02*
X47637142Y30510715D01*
X47565714Y30439286D01*
X47494285Y30296429D01*
X47494285Y30082143D01*
X47565714Y29939286D01*
X47637142Y29867858D01*
X47780000Y29796429D01*
X48351428Y29796429D01*
X48351428Y31296429D01*
X47851428Y31296429D01*
X47708571Y31225000D01*
X47637142Y31153572D01*
X47565714Y31010715D01*
X47565714Y30867858D01*
X47637142Y30725000D01*
X47708571Y30653572D01*
X47851428Y30582143D01*
X48351428Y30582143D01*
X52565714Y45829286D02*
X52637142Y45757858D01*
X52851428Y45686429D01*
X52994285Y45686429D01*
X53208571Y45757858D01*
X53351428Y45900715D01*
X53422857Y46043572D01*
X53494285Y46329286D01*
X53494285Y46543572D01*
X53422857Y46829286D01*
X53351428Y46972143D01*
X53208571Y47115000D01*
X52994285Y47186429D01*
X52851428Y47186429D01*
X52637142Y47115000D01*
X52565714Y47043572D01*
X51708571Y45686429D02*
X51851428Y45757858D01*
X51922857Y45829286D01*
X51994285Y45972143D01*
X51994285Y46400715D01*
X51922857Y46543572D01*
X51851428Y46615000D01*
X51708571Y46686429D01*
X51494285Y46686429D01*
X51351428Y46615000D01*
X51280000Y46543572D01*
X51208571Y46400715D01*
X51208571Y45972143D01*
X51280000Y45829286D01*
X51351428Y45757858D01*
X51494285Y45686429D01*
X51708571Y45686429D01*
X50565714Y45686429D02*
X50565714Y46686429D01*
X50565714Y46543572D02*
X50494285Y46615000D01*
X50351428Y46686429D01*
X50137142Y46686429D01*
X49994285Y46615000D01*
X49922857Y46472143D01*
X49922857Y45686429D01*
X49922857Y46472143D02*
X49851428Y46615000D01*
X49708571Y46686429D01*
X49494285Y46686429D01*
X49351428Y46615000D01*
X49280000Y46472143D01*
X49280000Y45686429D01*
X48565714Y46686429D02*
X48565714Y45186429D01*
X48565714Y46615000D02*
X48422857Y46686429D01*
X48137142Y46686429D01*
X47994285Y46615000D01*
X47922857Y46543572D01*
X47851428Y46400715D01*
X47851428Y45972143D01*
X47922857Y45829286D01*
X47994285Y45757858D01*
X48137142Y45686429D01*
X48422857Y45686429D01*
X48565714Y45757858D01*
X46994285Y45686429D02*
X47137142Y45757858D01*
X47208571Y45829286D01*
X47280000Y45972143D01*
X47280000Y46400715D01*
X47208571Y46543572D01*
X47137142Y46615000D01*
X46994285Y46686429D01*
X46780000Y46686429D01*
X46637142Y46615000D01*
X46565714Y46543572D01*
X46494285Y46400715D01*
X46494285Y45972143D01*
X46565714Y45829286D01*
X46637142Y45757858D01*
X46780000Y45686429D01*
X46994285Y45686429D01*
X45851428Y46686429D02*
X45851428Y45686429D01*
X45851428Y46543572D02*
X45780000Y46615000D01*
X45637142Y46686429D01*
X45422857Y46686429D01*
X45280000Y46615000D01*
X45208571Y46472143D01*
X45208571Y45686429D01*
X43922857Y45757858D02*
X44065714Y45686429D01*
X44351428Y45686429D01*
X44494285Y45757858D01*
X44565714Y45900715D01*
X44565714Y46472143D01*
X44494285Y46615000D01*
X44351428Y46686429D01*
X44065714Y46686429D01*
X43922857Y46615000D01*
X43851428Y46472143D01*
X43851428Y46329286D01*
X44565714Y46186429D01*
X43208571Y46686429D02*
X43208571Y45686429D01*
X43208571Y46543572D02*
X43137142Y46615000D01*
X42994285Y46686429D01*
X42780000Y46686429D01*
X42637142Y46615000D01*
X42565714Y46472143D01*
X42565714Y45686429D01*
X42065714Y46686429D02*
X41494285Y46686429D01*
X41851428Y47186429D02*
X41851428Y45900715D01*
X41780000Y45757858D01*
X41637142Y45686429D01*
X41494285Y45686429D01*
X40065714Y46686429D02*
X39494285Y46686429D01*
X39851428Y47186429D02*
X39851428Y45900715D01*
X39780000Y45757858D01*
X39637142Y45686429D01*
X39494285Y45686429D01*
X38422857Y45757858D02*
X38565714Y45686429D01*
X38851428Y45686429D01*
X38994285Y45757858D01*
X39065714Y45900715D01*
X39065714Y46472143D01*
X38994285Y46615000D01*
X38851428Y46686429D01*
X38565714Y46686429D01*
X38422857Y46615000D01*
X38351428Y46472143D01*
X38351428Y46329286D01*
X39065714Y46186429D01*
X37780000Y45757858D02*
X37637142Y45686429D01*
X37351428Y45686429D01*
X37208571Y45757858D01*
X37137142Y45900715D01*
X37137142Y45972143D01*
X37208571Y46115000D01*
X37351428Y46186429D01*
X37565714Y46186429D01*
X37708571Y46257858D01*
X37780000Y46400715D01*
X37780000Y46472143D01*
X37708571Y46615000D01*
X37565714Y46686429D01*
X37351428Y46686429D01*
X37208571Y46615000D01*
X36708571Y46686429D02*
X36137142Y46686429D01*
X36494285Y47186429D02*
X36494285Y45900715D01*
X36422857Y45757858D01*
X36280000Y45686429D01*
X36137142Y45686429D01*
X35065714Y45757858D02*
X35208571Y45686429D01*
X35494285Y45686429D01*
X35637142Y45757858D01*
X35708571Y45900715D01*
X35708571Y46472143D01*
X35637142Y46615000D01*
X35494285Y46686429D01*
X35208571Y46686429D01*
X35065714Y46615000D01*
X34994285Y46472143D01*
X34994285Y46329286D01*
X35708571Y46186429D01*
X34351428Y45686429D02*
X34351428Y46686429D01*
X34351428Y46400715D02*
X34280000Y46543572D01*
X34208571Y46615000D01*
X34065714Y46686429D01*
X33922857Y46686429D01*
X52851428Y43207858D02*
X52994285Y43136429D01*
X53280000Y43136429D01*
X53422857Y43207858D01*
X53494285Y43350715D01*
X53494285Y43922143D01*
X53422857Y44065000D01*
X53280000Y44136429D01*
X52994285Y44136429D01*
X52851428Y44065000D01*
X52780000Y43922143D01*
X52780000Y43779286D01*
X53494285Y43636429D01*
X52280000Y43136429D02*
X51494285Y44136429D01*
X52280000Y44136429D02*
X51494285Y43136429D01*
X50922857Y44136429D02*
X50922857Y42636429D01*
X50922857Y44065000D02*
X50780000Y44136429D01*
X50494285Y44136429D01*
X50351428Y44065000D01*
X50280000Y43993572D01*
X50208571Y43850715D01*
X50208571Y43422143D01*
X50280000Y43279286D01*
X50351428Y43207858D01*
X50494285Y43136429D01*
X50780000Y43136429D01*
X50922857Y43207858D01*
X48922857Y43136429D02*
X48922857Y43922143D01*
X48994285Y44065000D01*
X49137142Y44136429D01*
X49422857Y44136429D01*
X49565714Y44065000D01*
X48922857Y43207858D02*
X49065714Y43136429D01*
X49422857Y43136429D01*
X49565714Y43207858D01*
X49637142Y43350715D01*
X49637142Y43493572D01*
X49565714Y43636429D01*
X49422857Y43707858D01*
X49065714Y43707858D01*
X48922857Y43779286D01*
X48208571Y44136429D02*
X48208571Y43136429D01*
X48208571Y43993572D02*
X48137142Y44065000D01*
X47994285Y44136429D01*
X47780000Y44136429D01*
X47637142Y44065000D01*
X47565714Y43922143D01*
X47565714Y43136429D01*
X46922857Y43207858D02*
X46780000Y43136429D01*
X46494285Y43136429D01*
X46351428Y43207858D01*
X46280000Y43350715D01*
X46280000Y43422143D01*
X46351428Y43565000D01*
X46494285Y43636429D01*
X46708571Y43636429D01*
X46851428Y43707858D01*
X46922857Y43850715D01*
X46922857Y43922143D01*
X46851428Y44065000D01*
X46708571Y44136429D01*
X46494285Y44136429D01*
X46351428Y44065000D01*
X45637142Y43136429D02*
X45637142Y44136429D01*
X45637142Y44636429D02*
X45708571Y44565000D01*
X45637142Y44493572D01*
X45565714Y44565000D01*
X45637142Y44636429D01*
X45637142Y44493572D01*
X44708571Y43136429D02*
X44851428Y43207858D01*
X44922857Y43279286D01*
X44994285Y43422143D01*
X44994285Y43850715D01*
X44922857Y43993572D01*
X44851428Y44065000D01*
X44708571Y44136429D01*
X44494285Y44136429D01*
X44351428Y44065000D01*
X44280000Y43993572D01*
X44208571Y43850715D01*
X44208571Y43422143D01*
X44280000Y43279286D01*
X44351428Y43207858D01*
X44494285Y43136429D01*
X44708571Y43136429D01*
X43565714Y44136429D02*
X43565714Y43136429D01*
X43565714Y43993572D02*
X43494285Y44065000D01*
X43351428Y44136429D01*
X43137142Y44136429D01*
X42994285Y44065000D01*
X42922857Y43922143D01*
X42922857Y43136429D01*
X41065714Y43136429D02*
X41065714Y44636429D01*
X41065714Y44065000D02*
X40922857Y44136429D01*
X40637142Y44136429D01*
X40494285Y44065000D01*
X40422857Y43993572D01*
X40351428Y43850715D01*
X40351428Y43422143D01*
X40422857Y43279286D01*
X40494285Y43207858D01*
X40637142Y43136429D01*
X40922857Y43136429D01*
X41065714Y43207858D01*
X39494285Y43136429D02*
X39637142Y43207858D01*
X39708571Y43279286D01*
X39780000Y43422143D01*
X39780000Y43850715D01*
X39708571Y43993572D01*
X39637142Y44065000D01*
X39494285Y44136429D01*
X39280000Y44136429D01*
X39137142Y44065000D01*
X39065714Y43993572D01*
X38994285Y43850715D01*
X38994285Y43422143D01*
X39065714Y43279286D01*
X39137142Y43207858D01*
X39280000Y43136429D01*
X39494285Y43136429D01*
X37708571Y43136429D02*
X37708571Y43922143D01*
X37780000Y44065000D01*
X37922857Y44136429D01*
X38208571Y44136429D01*
X38351428Y44065000D01*
X37708571Y43207858D02*
X37851428Y43136429D01*
X38208571Y43136429D01*
X38351428Y43207858D01*
X38422857Y43350715D01*
X38422857Y43493572D01*
X38351428Y43636429D01*
X38208571Y43707858D01*
X37851428Y43707858D01*
X37708571Y43779286D01*
X36994285Y43136429D02*
X36994285Y44136429D01*
X36994285Y43850715D02*
X36922857Y43993572D01*
X36851428Y44065000D01*
X36708571Y44136429D01*
X36565714Y44136429D01*
X35422857Y43136429D02*
X35422857Y44636429D01*
X35422857Y43207858D02*
X35565714Y43136429D01*
X35851428Y43136429D01*
X35994285Y43207858D01*
X36065714Y43279286D01*
X36137142Y43422143D01*
X36137142Y43850715D01*
X36065714Y43993572D01*
X35994285Y44065000D01*
X35851428Y44136429D01*
X35565714Y44136429D01*
X35422857Y44065000D01*
X34708571Y43279286D02*
X34637142Y43207858D01*
X34708571Y43136429D01*
X34780000Y43207858D01*
X34708571Y43279286D01*
X34708571Y43136429D01*
X52922857Y41372143D02*
X52708571Y41300715D01*
X52637142Y41229286D01*
X52565714Y41086429D01*
X52565714Y40872143D01*
X52637142Y40729286D01*
X52708571Y40657858D01*
X52851428Y40586429D01*
X53422857Y40586429D01*
X53422857Y42086429D01*
X52922857Y42086429D01*
X52780000Y42015000D01*
X52708571Y41943572D01*
X52637142Y41800715D01*
X52637142Y41657858D01*
X52708571Y41515000D01*
X52780000Y41443572D01*
X52922857Y41372143D01*
X53422857Y41372143D01*
X52065714Y41586429D02*
X51708571Y40586429D01*
X51351428Y41586429D02*
X51708571Y40586429D01*
X51851428Y40229286D01*
X51922857Y40157858D01*
X52065714Y40086429D01*
X49637142Y40586429D02*
X49637142Y42086429D01*
X49137142Y41015000D01*
X48637142Y42086429D01*
X48637142Y40586429D01*
X47280000Y40586429D02*
X47280000Y41372143D01*
X47351428Y41515000D01*
X47494285Y41586429D01*
X47780000Y41586429D01*
X47922857Y41515000D01*
X47280000Y40657858D02*
X47422857Y40586429D01*
X47780000Y40586429D01*
X47922857Y40657858D01*
X47994285Y40800715D01*
X47994285Y40943572D01*
X47922857Y41086429D01*
X47780000Y41157858D01*
X47422857Y41157858D01*
X47280000Y41229286D01*
X46565714Y40586429D02*
X46565714Y41586429D01*
X46565714Y41300715D02*
X46494285Y41443572D01*
X46422857Y41515000D01*
X46280000Y41586429D01*
X46137142Y41586429D01*
X45851428Y41586429D02*
X45280000Y41586429D01*
X45637142Y42086429D02*
X45637142Y40800715D01*
X45565714Y40657858D01*
X45422857Y40586429D01*
X45280000Y40586429D01*
X44922857Y41586429D02*
X44565714Y40586429D01*
X44208571Y41586429D02*
X44565714Y40586429D01*
X44708571Y40229286D01*
X44780000Y40157858D01*
X44922857Y40086429D01*
X43637142Y41586429D02*
X43637142Y40586429D01*
X43637142Y41443572D02*
X43565714Y41515000D01*
X43422857Y41586429D01*
X43208571Y41586429D01*
X43065714Y41515000D01*
X42994285Y41372143D01*
X42994285Y40586429D01*
X41637142Y40586429D02*
X41637142Y41372143D01*
X41708571Y41515000D01*
X41851428Y41586429D01*
X42137142Y41586429D01*
X42280000Y41515000D01*
X41637142Y40657858D02*
X41780000Y40586429D01*
X42137142Y40586429D01*
X42280000Y40657858D01*
X42351428Y40800715D01*
X42351428Y40943572D01*
X42280000Y41086429D01*
X42137142Y41157858D01*
X41780000Y41157858D01*
X41637142Y41229286D01*
X40994285Y40657858D02*
X40851428Y40586429D01*
X40565714Y40586429D01*
X40422857Y40657858D01*
X40351428Y40800715D01*
X40351428Y40872143D01*
X40422857Y41015000D01*
X40565714Y41086429D01*
X40780000Y41086429D01*
X40922857Y41157858D01*
X40994285Y41300715D01*
X40994285Y41372143D01*
X40922857Y41515000D01*
X40780000Y41586429D01*
X40565714Y41586429D01*
X40422857Y41515000D01*
X38137142Y42086429D02*
X38137142Y41015000D01*
X38208571Y40800715D01*
X38351428Y40657858D01*
X38565714Y40586429D01*
X38708571Y40586429D01*
X37422857Y40729286D02*
X37351428Y40657858D01*
X37422857Y40586429D01*
X37494285Y40657858D01*
X37422857Y40729286D01*
X37422857Y40586429D01*
D12*
G36*
X51058036Y22394982D02*
X51001188Y22093430D01*
X50581662Y21920488D01*
X50330016Y22091605D01*
X50259542Y22139250D01*
X50195837Y22181790D01*
X50141874Y22217285D01*
X50100627Y22243790D01*
X50075066Y22259364D01*
X50068105Y22262722D01*
X50055565Y22254086D01*
X50028769Y22230208D01*
X49990720Y22194141D01*
X49944421Y22148933D01*
X49892877Y22097636D01*
X49839091Y22043299D01*
X49786065Y21988972D01*
X49736805Y21937705D01*
X49694313Y21892549D01*
X49661593Y21856554D01*
X49641649Y21832770D01*
X49636881Y21824810D01*
X49643743Y21810135D01*
X49662980Y21777986D01*
X49692570Y21731508D01*
X49730490Y21673844D01*
X49774718Y21608140D01*
X49800346Y21570664D01*
X49847059Y21502232D01*
X49888568Y21440480D01*
X49922860Y21388481D01*
X49947920Y21349308D01*
X49961736Y21326035D01*
X49963812Y21321145D01*
X49959105Y21307245D01*
X49946277Y21274850D01*
X49927262Y21228515D01*
X49903997Y21172794D01*
X49878416Y21112242D01*
X49852455Y21051414D01*
X49828050Y20994864D01*
X49807137Y20947148D01*
X49791651Y20912819D01*
X49783528Y20896432D01*
X49783048Y20895788D01*
X49770293Y20892659D01*
X49736323Y20885679D01*
X49684660Y20875533D01*
X49618824Y20862908D01*
X49542336Y20848491D01*
X49497710Y20840177D01*
X49415979Y20824616D01*
X49342157Y20809808D01*
X49279979Y20796564D01*
X49233178Y20785695D01*
X49205491Y20778011D01*
X49199926Y20775573D01*
X49194474Y20759070D01*
X49190076Y20721800D01*
X49186728Y20668120D01*
X49184426Y20602388D01*
X49183168Y20528963D01*
X49182952Y20452204D01*
X49183773Y20376468D01*
X49185629Y20306114D01*
X49188518Y20245500D01*
X49192435Y20198984D01*
X49197378Y20170925D01*
X49200343Y20165084D01*
X49218066Y20158083D01*
X49255619Y20148073D01*
X49308036Y20136231D01*
X49370348Y20123733D01*
X49392100Y20119690D01*
X49496976Y20100480D01*
X49579820Y20085009D01*
X49643370Y20072663D01*
X49690363Y20062827D01*
X49723537Y20054886D01*
X49745629Y20048224D01*
X49759376Y20042227D01*
X49767516Y20036281D01*
X49768655Y20035106D01*
X49780023Y20016174D01*
X49797365Y19979331D01*
X49818950Y19929087D01*
X49843046Y19869954D01*
X49867921Y19806444D01*
X49891843Y19743068D01*
X49913081Y19684338D01*
X49929903Y19634765D01*
X49940578Y19598861D01*
X49943373Y19581138D01*
X49943140Y19580517D01*
X49933669Y19566030D01*
X49912182Y19534156D01*
X49880937Y19488211D01*
X49842193Y19431515D01*
X49798207Y19367383D01*
X49785681Y19349158D01*
X49741016Y19283086D01*
X49701712Y19222800D01*
X49669912Y19171765D01*
X49647755Y19133440D01*
X49637383Y19111289D01*
X49636881Y19108568D01*
X49645595Y19094264D01*
X49669675Y19065928D01*
X49706024Y19026604D01*
X49751547Y18979339D01*
X49803148Y18927177D01*
X49857733Y18873165D01*
X49912206Y18820347D01*
X49963471Y18771769D01*
X50008433Y18730477D01*
X50043996Y18699515D01*
X50067065Y18681930D01*
X50073446Y18679059D01*
X50088301Y18685822D01*
X50118714Y18704061D01*
X50159732Y18730703D01*
X50191291Y18752148D01*
X50248475Y18791497D01*
X50316194Y18837829D01*
X50384120Y18884087D01*
X50420639Y18908845D01*
X50544248Y18992453D01*
X50648009Y18936350D01*
X50695280Y18911772D01*
X50735477Y18892669D01*
X50762674Y18881773D01*
X50769598Y18880257D01*
X50777923Y18891451D01*
X50794346Y18923083D01*
X50817643Y18972235D01*
X50846586Y19035990D01*
X50879950Y19111429D01*
X50916509Y19195636D01*
X50955036Y19285692D01*
X50994306Y19378679D01*
X51033092Y19471680D01*
X51070170Y19561777D01*
X51104311Y19646052D01*
X51134292Y19721587D01*
X51158884Y19785466D01*
X51176864Y19834769D01*
X51187003Y19866579D01*
X51188634Y19877504D01*
X51175709Y19891439D01*
X51147411Y19914060D01*
X51109654Y19940667D01*
X51106485Y19942772D01*
X51008900Y20020886D01*
X50930214Y20112018D01*
X50871109Y20213255D01*
X50832268Y20321682D01*
X50814372Y20434386D01*
X50818103Y20548452D01*
X50844143Y20660966D01*
X50893175Y20769015D01*
X50907600Y20792655D01*
X50982631Y20888113D01*
X51071270Y20964768D01*
X51170451Y21022220D01*
X51277105Y21060071D01*
X51388164Y21077922D01*
X51500561Y21075375D01*
X51611227Y21052030D01*
X51717094Y21007490D01*
X51815095Y20941355D01*
X51845410Y20914513D01*
X51922562Y20830488D01*
X51978782Y20742034D01*
X52017347Y20642885D01*
X52038826Y20544697D01*
X52044128Y20434303D01*
X52026448Y20323360D01*
X51987581Y20215619D01*
X51929323Y20114831D01*
X51853469Y20024744D01*
X51761817Y19949108D01*
X51749772Y19941136D01*
X51711611Y19915026D01*
X51682601Y19892405D01*
X51668732Y19877961D01*
X51668531Y19877504D01*
X51671508Y19861879D01*
X51683311Y19826418D01*
X51702714Y19774038D01*
X51728488Y19707655D01*
X51759409Y19630186D01*
X51794249Y19544550D01*
X51831783Y19453663D01*
X51870783Y19360441D01*
X51910023Y19267803D01*
X51948276Y19178665D01*
X51984317Y19095945D01*
X52016917Y19022559D01*
X52044852Y18961425D01*
X52066895Y18915459D01*
X52081818Y18887579D01*
X52087828Y18880257D01*
X52106191Y18885959D01*
X52140552Y18901251D01*
X52184984Y18923401D01*
X52209417Y18936350D01*
X52313178Y18992453D01*
X52436787Y18908845D01*
X52499886Y18866013D01*
X52568970Y18818878D01*
X52633707Y18774497D01*
X52666134Y18752148D01*
X52711741Y18721523D01*
X52750360Y18697253D01*
X52776952Y18682413D01*
X52785590Y18679276D01*
X52798161Y18687739D01*
X52825984Y18711364D01*
X52866361Y18747698D01*
X52916595Y18794289D01*
X52973988Y18848683D01*
X53010286Y18883608D01*
X53073790Y18946004D01*
X53128673Y19001812D01*
X53172714Y19048646D01*
X53203695Y19084118D01*
X53219398Y19105839D01*
X53220905Y19110248D01*
X53213914Y19127015D01*
X53194594Y19160918D01*
X53165091Y19208524D01*
X53127545Y19266401D01*
X53084100Y19331116D01*
X53071745Y19349158D01*
X53026727Y19414733D01*
X52986340Y19473772D01*
X52952840Y19522958D01*
X52928486Y19558972D01*
X52915536Y19578498D01*
X52914285Y19580517D01*
X52916156Y19596078D01*
X52926087Y19630291D01*
X52942347Y19678645D01*
X52963205Y19736629D01*
X52986927Y19799730D01*
X53011784Y19863437D01*
X53036042Y19923239D01*
X53057971Y19974624D01*
X53075838Y20013081D01*
X53087913Y20034098D01*
X53088771Y20035106D01*
X53096154Y20041112D01*
X53108625Y20047052D01*
X53128920Y20053540D01*
X53159778Y20061191D01*
X53203934Y20070620D01*
X53264126Y20082441D01*
X53343093Y20097271D01*
X53443570Y20115723D01*
X53465325Y20119690D01*
X53529802Y20132147D01*
X53586011Y20144334D01*
X53628987Y20155074D01*
X53653760Y20163191D01*
X53657082Y20165084D01*
X53662556Y20181862D01*
X53667006Y20219355D01*
X53670428Y20273206D01*
X53672819Y20339056D01*
X53674177Y20412547D01*
X53674499Y20489320D01*
X53673781Y20565017D01*
X53672021Y20635280D01*
X53669216Y20695750D01*
X53665362Y20742070D01*
X53660457Y20769881D01*
X53657500Y20775573D01*
X53641037Y20781314D01*
X53603551Y20790655D01*
X53548775Y20802785D01*
X53480445Y20816893D01*
X53402294Y20832170D01*
X53359716Y20840177D01*
X53278929Y20855279D01*
X53206887Y20868960D01*
X53147111Y20880533D01*
X53103121Y20889313D01*
X53078439Y20894613D01*
X53074377Y20895788D01*
X53067511Y20909035D01*
X53052998Y20940943D01*
X53032771Y20986953D01*
X53008766Y21042508D01*
X52982918Y21103047D01*
X52957160Y21164014D01*
X52933427Y21220849D01*
X52913654Y21268994D01*
X52899776Y21303890D01*
X52893726Y21320979D01*
X52893614Y21321726D01*
X52900472Y21335207D01*
X52919698Y21366230D01*
X52949272Y21411711D01*
X52987173Y21468568D01*
X53031380Y21533717D01*
X53057079Y21571138D01*
X53103907Y21639753D01*
X53145499Y21702048D01*
X53179825Y21754871D01*
X53204857Y21795073D01*
X53218565Y21819500D01*
X53220544Y21824976D01*
X53212034Y21837722D01*
X53188507Y21864937D01*
X53152968Y21903572D01*
X53108423Y21950577D01*
X53057877Y22002905D01*
X53004336Y22057505D01*
X52950805Y22111330D01*
X52900289Y22161330D01*
X52855794Y22204457D01*
X52820325Y22237661D01*
X52796887Y22257894D01*
X52789046Y22262722D01*
X52776280Y22255933D01*
X52745744Y22236858D01*
X52700410Y22207439D01*
X52643244Y22169619D01*
X52577216Y22125339D01*
X52527410Y22091605D01*
X52275764Y21920488D01*
X52066001Y22006959D01*
X51856237Y22093430D01*
X51799389Y22394982D01*
X51742540Y22696534D01*
X51114885Y22696534D01*
X51058036Y22394982D01*
X51058036Y22394982D01*
G37*
X51058036Y22394982D02*
X51001188Y22093430D01*
X50581662Y21920488D01*
X50330016Y22091605D01*
X50259542Y22139250D01*
X50195837Y22181790D01*
X50141874Y22217285D01*
X50100627Y22243790D01*
X50075066Y22259364D01*
X50068105Y22262722D01*
X50055565Y22254086D01*
X50028769Y22230208D01*
X49990720Y22194141D01*
X49944421Y22148933D01*
X49892877Y22097636D01*
X49839091Y22043299D01*
X49786065Y21988972D01*
X49736805Y21937705D01*
X49694313Y21892549D01*
X49661593Y21856554D01*
X49641649Y21832770D01*
X49636881Y21824810D01*
X49643743Y21810135D01*
X49662980Y21777986D01*
X49692570Y21731508D01*
X49730490Y21673844D01*
X49774718Y21608140D01*
X49800346Y21570664D01*
X49847059Y21502232D01*
X49888568Y21440480D01*
X49922860Y21388481D01*
X49947920Y21349308D01*
X49961736Y21326035D01*
X49963812Y21321145D01*
X49959105Y21307245D01*
X49946277Y21274850D01*
X49927262Y21228515D01*
X49903997Y21172794D01*
X49878416Y21112242D01*
X49852455Y21051414D01*
X49828050Y20994864D01*
X49807137Y20947148D01*
X49791651Y20912819D01*
X49783528Y20896432D01*
X49783048Y20895788D01*
X49770293Y20892659D01*
X49736323Y20885679D01*
X49684660Y20875533D01*
X49618824Y20862908D01*
X49542336Y20848491D01*
X49497710Y20840177D01*
X49415979Y20824616D01*
X49342157Y20809808D01*
X49279979Y20796564D01*
X49233178Y20785695D01*
X49205491Y20778011D01*
X49199926Y20775573D01*
X49194474Y20759070D01*
X49190076Y20721800D01*
X49186728Y20668120D01*
X49184426Y20602388D01*
X49183168Y20528963D01*
X49182952Y20452204D01*
X49183773Y20376468D01*
X49185629Y20306114D01*
X49188518Y20245500D01*
X49192435Y20198984D01*
X49197378Y20170925D01*
X49200343Y20165084D01*
X49218066Y20158083D01*
X49255619Y20148073D01*
X49308036Y20136231D01*
X49370348Y20123733D01*
X49392100Y20119690D01*
X49496976Y20100480D01*
X49579820Y20085009D01*
X49643370Y20072663D01*
X49690363Y20062827D01*
X49723537Y20054886D01*
X49745629Y20048224D01*
X49759376Y20042227D01*
X49767516Y20036281D01*
X49768655Y20035106D01*
X49780023Y20016174D01*
X49797365Y19979331D01*
X49818950Y19929087D01*
X49843046Y19869954D01*
X49867921Y19806444D01*
X49891843Y19743068D01*
X49913081Y19684338D01*
X49929903Y19634765D01*
X49940578Y19598861D01*
X49943373Y19581138D01*
X49943140Y19580517D01*
X49933669Y19566030D01*
X49912182Y19534156D01*
X49880937Y19488211D01*
X49842193Y19431515D01*
X49798207Y19367383D01*
X49785681Y19349158D01*
X49741016Y19283086D01*
X49701712Y19222800D01*
X49669912Y19171765D01*
X49647755Y19133440D01*
X49637383Y19111289D01*
X49636881Y19108568D01*
X49645595Y19094264D01*
X49669675Y19065928D01*
X49706024Y19026604D01*
X49751547Y18979339D01*
X49803148Y18927177D01*
X49857733Y18873165D01*
X49912206Y18820347D01*
X49963471Y18771769D01*
X50008433Y18730477D01*
X50043996Y18699515D01*
X50067065Y18681930D01*
X50073446Y18679059D01*
X50088301Y18685822D01*
X50118714Y18704061D01*
X50159732Y18730703D01*
X50191291Y18752148D01*
X50248475Y18791497D01*
X50316194Y18837829D01*
X50384120Y18884087D01*
X50420639Y18908845D01*
X50544248Y18992453D01*
X50648009Y18936350D01*
X50695280Y18911772D01*
X50735477Y18892669D01*
X50762674Y18881773D01*
X50769598Y18880257D01*
X50777923Y18891451D01*
X50794346Y18923083D01*
X50817643Y18972235D01*
X50846586Y19035990D01*
X50879950Y19111429D01*
X50916509Y19195636D01*
X50955036Y19285692D01*
X50994306Y19378679D01*
X51033092Y19471680D01*
X51070170Y19561777D01*
X51104311Y19646052D01*
X51134292Y19721587D01*
X51158884Y19785466D01*
X51176864Y19834769D01*
X51187003Y19866579D01*
X51188634Y19877504D01*
X51175709Y19891439D01*
X51147411Y19914060D01*
X51109654Y19940667D01*
X51106485Y19942772D01*
X51008900Y20020886D01*
X50930214Y20112018D01*
X50871109Y20213255D01*
X50832268Y20321682D01*
X50814372Y20434386D01*
X50818103Y20548452D01*
X50844143Y20660966D01*
X50893175Y20769015D01*
X50907600Y20792655D01*
X50982631Y20888113D01*
X51071270Y20964768D01*
X51170451Y21022220D01*
X51277105Y21060071D01*
X51388164Y21077922D01*
X51500561Y21075375D01*
X51611227Y21052030D01*
X51717094Y21007490D01*
X51815095Y20941355D01*
X51845410Y20914513D01*
X51922562Y20830488D01*
X51978782Y20742034D01*
X52017347Y20642885D01*
X52038826Y20544697D01*
X52044128Y20434303D01*
X52026448Y20323360D01*
X51987581Y20215619D01*
X51929323Y20114831D01*
X51853469Y20024744D01*
X51761817Y19949108D01*
X51749772Y19941136D01*
X51711611Y19915026D01*
X51682601Y19892405D01*
X51668732Y19877961D01*
X51668531Y19877504D01*
X51671508Y19861879D01*
X51683311Y19826418D01*
X51702714Y19774038D01*
X51728488Y19707655D01*
X51759409Y19630186D01*
X51794249Y19544550D01*
X51831783Y19453663D01*
X51870783Y19360441D01*
X51910023Y19267803D01*
X51948276Y19178665D01*
X51984317Y19095945D01*
X52016917Y19022559D01*
X52044852Y18961425D01*
X52066895Y18915459D01*
X52081818Y18887579D01*
X52087828Y18880257D01*
X52106191Y18885959D01*
X52140552Y18901251D01*
X52184984Y18923401D01*
X52209417Y18936350D01*
X52313178Y18992453D01*
X52436787Y18908845D01*
X52499886Y18866013D01*
X52568970Y18818878D01*
X52633707Y18774497D01*
X52666134Y18752148D01*
X52711741Y18721523D01*
X52750360Y18697253D01*
X52776952Y18682413D01*
X52785590Y18679276D01*
X52798161Y18687739D01*
X52825984Y18711364D01*
X52866361Y18747698D01*
X52916595Y18794289D01*
X52973988Y18848683D01*
X53010286Y18883608D01*
X53073790Y18946004D01*
X53128673Y19001812D01*
X53172714Y19048646D01*
X53203695Y19084118D01*
X53219398Y19105839D01*
X53220905Y19110248D01*
X53213914Y19127015D01*
X53194594Y19160918D01*
X53165091Y19208524D01*
X53127545Y19266401D01*
X53084100Y19331116D01*
X53071745Y19349158D01*
X53026727Y19414733D01*
X52986340Y19473772D01*
X52952840Y19522958D01*
X52928486Y19558972D01*
X52915536Y19578498D01*
X52914285Y19580517D01*
X52916156Y19596078D01*
X52926087Y19630291D01*
X52942347Y19678645D01*
X52963205Y19736629D01*
X52986927Y19799730D01*
X53011784Y19863437D01*
X53036042Y19923239D01*
X53057971Y19974624D01*
X53075838Y20013081D01*
X53087913Y20034098D01*
X53088771Y20035106D01*
X53096154Y20041112D01*
X53108625Y20047052D01*
X53128920Y20053540D01*
X53159778Y20061191D01*
X53203934Y20070620D01*
X53264126Y20082441D01*
X53343093Y20097271D01*
X53443570Y20115723D01*
X53465325Y20119690D01*
X53529802Y20132147D01*
X53586011Y20144334D01*
X53628987Y20155074D01*
X53653760Y20163191D01*
X53657082Y20165084D01*
X53662556Y20181862D01*
X53667006Y20219355D01*
X53670428Y20273206D01*
X53672819Y20339056D01*
X53674177Y20412547D01*
X53674499Y20489320D01*
X53673781Y20565017D01*
X53672021Y20635280D01*
X53669216Y20695750D01*
X53665362Y20742070D01*
X53660457Y20769881D01*
X53657500Y20775573D01*
X53641037Y20781314D01*
X53603551Y20790655D01*
X53548775Y20802785D01*
X53480445Y20816893D01*
X53402294Y20832170D01*
X53359716Y20840177D01*
X53278929Y20855279D01*
X53206887Y20868960D01*
X53147111Y20880533D01*
X53103121Y20889313D01*
X53078439Y20894613D01*
X53074377Y20895788D01*
X53067511Y20909035D01*
X53052998Y20940943D01*
X53032771Y20986953D01*
X53008766Y21042508D01*
X52982918Y21103047D01*
X52957160Y21164014D01*
X52933427Y21220849D01*
X52913654Y21268994D01*
X52899776Y21303890D01*
X52893726Y21320979D01*
X52893614Y21321726D01*
X52900472Y21335207D01*
X52919698Y21366230D01*
X52949272Y21411711D01*
X52987173Y21468568D01*
X53031380Y21533717D01*
X53057079Y21571138D01*
X53103907Y21639753D01*
X53145499Y21702048D01*
X53179825Y21754871D01*
X53204857Y21795073D01*
X53218565Y21819500D01*
X53220544Y21824976D01*
X53212034Y21837722D01*
X53188507Y21864937D01*
X53152968Y21903572D01*
X53108423Y21950577D01*
X53057877Y22002905D01*
X53004336Y22057505D01*
X52950805Y22111330D01*
X52900289Y22161330D01*
X52855794Y22204457D01*
X52820325Y22237661D01*
X52796887Y22257894D01*
X52789046Y22262722D01*
X52776280Y22255933D01*
X52745744Y22236858D01*
X52700410Y22207439D01*
X52643244Y22169619D01*
X52577216Y22125339D01*
X52527410Y22091605D01*
X52275764Y21920488D01*
X52066001Y22006959D01*
X51856237Y22093430D01*
X51799389Y22394982D01*
X51742540Y22696534D01*
X51114885Y22696534D01*
X51058036Y22394982D01*
G36*
X49635540Y18226970D02*
X49592289Y18213755D01*
X49564442Y18197059D01*
X49555371Y18183855D01*
X49557868Y18168203D01*
X49574069Y18143615D01*
X49587768Y18126200D01*
X49616008Y18094717D01*
X49637225Y18081471D01*
X49655312Y18082336D01*
X49708965Y18095990D01*
X49748370Y18095370D01*
X49780368Y18079896D01*
X49791110Y18070839D01*
X49825495Y18038973D01*
X49825495Y17622821D01*
X49963812Y17622821D01*
X49963812Y18226386D01*
X49894653Y18226386D01*
X49853131Y18224744D01*
X49831709Y18218913D01*
X49825498Y18207539D01*
X49825495Y18207202D01*
X49822561Y18195287D01*
X49809296Y18196841D01*
X49790916Y18205437D01*
X49752954Y18221432D01*
X49722128Y18231055D01*
X49682464Y18233522D01*
X49635540Y18226970D01*
X49635540Y18226970D01*
G37*
X49635540Y18226970D02*
X49592289Y18213755D01*
X49564442Y18197059D01*
X49555371Y18183855D01*
X49557868Y18168203D01*
X49574069Y18143615D01*
X49587768Y18126200D01*
X49616008Y18094717D01*
X49637225Y18081471D01*
X49655312Y18082336D01*
X49708965Y18095990D01*
X49748370Y18095370D01*
X49780368Y18079896D01*
X49791110Y18070839D01*
X49825495Y18038973D01*
X49825495Y17622821D01*
X49963812Y17622821D01*
X49963812Y18226386D01*
X49894653Y18226386D01*
X49853131Y18224744D01*
X49831709Y18218913D01*
X49825498Y18207539D01*
X49825495Y18207202D01*
X49822561Y18195287D01*
X49809296Y18196841D01*
X49790916Y18205437D01*
X49752954Y18221432D01*
X49722128Y18231055D01*
X49682464Y18233522D01*
X49635540Y18226970D01*
G36*
X52189012Y18215998D02*
X52157717Y18201050D01*
X52127409Y18179459D01*
X52104318Y18154609D01*
X52087500Y18122913D01*
X52076006Y18080786D01*
X52068891Y18024642D01*
X52065207Y17950894D01*
X52064008Y17855956D01*
X52063989Y17846015D01*
X52063713Y17622821D01*
X52202030Y17622821D01*
X52202030Y17828582D01*
X52202128Y17904811D01*
X52202809Y17960061D01*
X52204651Y17998499D01*
X52208233Y18024294D01*
X52214132Y18041616D01*
X52222927Y18054632D01*
X52235180Y18067493D01*
X52278047Y18095127D01*
X52324843Y18100255D01*
X52369424Y18082783D01*
X52384928Y18069779D01*
X52396310Y18057553D01*
X52404481Y18044460D01*
X52409974Y18026385D01*
X52413320Y17999213D01*
X52415051Y17958830D01*
X52415697Y17901121D01*
X52415792Y17830868D01*
X52415792Y17622821D01*
X52554109Y17622821D01*
X52554109Y18226386D01*
X52484950Y18226386D01*
X52443428Y18224744D01*
X52422006Y18218913D01*
X52415795Y18207539D01*
X52415792Y18207202D01*
X52412910Y18196062D01*
X52400199Y18197326D01*
X52374926Y18209566D01*
X52317605Y18227576D01*
X52252037Y18229579D01*
X52189012Y18215998D01*
X52189012Y18215998D01*
G37*
X52189012Y18215998D02*
X52157717Y18201050D01*
X52127409Y18179459D01*
X52104318Y18154609D01*
X52087500Y18122913D01*
X52076006Y18080786D01*
X52068891Y18024642D01*
X52065207Y17950894D01*
X52064008Y17855956D01*
X52063989Y17846015D01*
X52063713Y17622821D01*
X52202030Y17622821D01*
X52202030Y17828582D01*
X52202128Y17904811D01*
X52202809Y17960061D01*
X52204651Y17998499D01*
X52208233Y18024294D01*
X52214132Y18041616D01*
X52222927Y18054632D01*
X52235180Y18067493D01*
X52278047Y18095127D01*
X52324843Y18100255D01*
X52369424Y18082783D01*
X52384928Y18069779D01*
X52396310Y18057553D01*
X52404481Y18044460D01*
X52409974Y18026385D01*
X52413320Y17999213D01*
X52415051Y17958830D01*
X52415697Y17901121D01*
X52415792Y17830868D01*
X52415792Y17622821D01*
X52554109Y17622821D01*
X52554109Y18226386D01*
X52484950Y18226386D01*
X52443428Y18224744D01*
X52422006Y18218913D01*
X52415795Y18207539D01*
X52415792Y18207202D01*
X52412910Y18196062D01*
X52400199Y18197326D01*
X52374926Y18209566D01*
X52317605Y18227576D01*
X52252037Y18229579D01*
X52189012Y18215998D01*
G36*
X48757102Y18228543D02*
X48724904Y18220721D01*
X48663175Y18192079D01*
X48610390Y18148333D01*
X48573859Y18095883D01*
X48568840Y18084107D01*
X48561955Y18053260D01*
X48557136Y18007629D01*
X48555495Y17961508D01*
X48555495Y17874307D01*
X48737822Y17874307D01*
X48813021Y17874022D01*
X48865997Y17872296D01*
X48899675Y17867819D01*
X48916980Y17859280D01*
X48920837Y17845370D01*
X48914171Y17824778D01*
X48902230Y17800685D01*
X48868920Y17760475D01*
X48822632Y17740442D01*
X48766056Y17741095D01*
X48701969Y17762899D01*
X48646583Y17789807D01*
X48600625Y17753468D01*
X48554667Y17717128D01*
X48597904Y17677181D01*
X48655626Y17639437D01*
X48726614Y17616680D01*
X48802971Y17610312D01*
X48876801Y17621732D01*
X48888713Y17625607D01*
X48953601Y17659494D01*
X49001870Y17710014D01*
X49034535Y17778675D01*
X49052615Y17866986D01*
X49052825Y17868879D01*
X49054444Y17965122D01*
X49047900Y17999458D01*
X48920148Y17999458D01*
X48908416Y17994178D01*
X48876562Y17990133D01*
X48829603Y17987824D01*
X48799846Y17987475D01*
X48744352Y17987694D01*
X48709654Y17989084D01*
X48691399Y17992749D01*
X48685234Y17999790D01*
X48686805Y18011310D01*
X48688122Y18015767D01*
X48710618Y18057645D01*
X48745997Y18091396D01*
X48777220Y18106227D01*
X48818699Y18105332D01*
X48860731Y18086836D01*
X48895988Y18056214D01*
X48917146Y18018938D01*
X48920148Y17999458D01*
X49047900Y17999458D01*
X49038310Y18049771D01*
X49006302Y18120809D01*
X48960299Y18176221D01*
X48902179Y18213991D01*
X48833820Y18232104D01*
X48757102Y18228543D01*
X48757102Y18228543D01*
G37*
X48757102Y18228543D02*
X48724904Y18220721D01*
X48663175Y18192079D01*
X48610390Y18148333D01*
X48573859Y18095883D01*
X48568840Y18084107D01*
X48561955Y18053260D01*
X48557136Y18007629D01*
X48555495Y17961508D01*
X48555495Y17874307D01*
X48737822Y17874307D01*
X48813021Y17874022D01*
X48865997Y17872296D01*
X48899675Y17867819D01*
X48916980Y17859280D01*
X48920837Y17845370D01*
X48914171Y17824778D01*
X48902230Y17800685D01*
X48868920Y17760475D01*
X48822632Y17740442D01*
X48766056Y17741095D01*
X48701969Y17762899D01*
X48646583Y17789807D01*
X48600625Y17753468D01*
X48554667Y17717128D01*
X48597904Y17677181D01*
X48655626Y17639437D01*
X48726614Y17616680D01*
X48802971Y17610312D01*
X48876801Y17621732D01*
X48888713Y17625607D01*
X48953601Y17659494D01*
X49001870Y17710014D01*
X49034535Y17778675D01*
X49052615Y17866986D01*
X49052825Y17868879D01*
X49054444Y17965122D01*
X49047900Y17999458D01*
X48920148Y17999458D01*
X48908416Y17994178D01*
X48876562Y17990133D01*
X48829603Y17987824D01*
X48799846Y17987475D01*
X48744352Y17987694D01*
X48709654Y17989084D01*
X48691399Y17992749D01*
X48685234Y17999790D01*
X48686805Y18011310D01*
X48688122Y18015767D01*
X48710618Y18057645D01*
X48745997Y18091396D01*
X48777220Y18106227D01*
X48818699Y18105332D01*
X48860731Y18086836D01*
X48895988Y18056214D01*
X48917146Y18018938D01*
X48920148Y17999458D01*
X49047900Y17999458D01*
X49038310Y18049771D01*
X49006302Y18120809D01*
X48960299Y18176221D01*
X48902179Y18213991D01*
X48833820Y18232104D01*
X48757102Y18228543D01*
G36*
X49217774Y18221120D02*
X49144920Y18190170D01*
X49121973Y18175105D01*
X49092646Y18151952D01*
X49074236Y18133747D01*
X49071039Y18127817D01*
X49080065Y18114660D01*
X49103163Y18092333D01*
X49121656Y18076750D01*
X49172272Y18036074D01*
X49212240Y18069705D01*
X49243126Y18091416D01*
X49273241Y18098910D01*
X49307708Y18097080D01*
X49362439Y18083472D01*
X49400114Y18055228D01*
X49423009Y18009567D01*
X49433403Y17943711D01*
X49433405Y17943669D01*
X49432506Y17870061D01*
X49418537Y17816054D01*
X49390672Y17779284D01*
X49371675Y17766832D01*
X49321224Y17751327D01*
X49267337Y17751317D01*
X49220454Y17766362D01*
X49209356Y17773713D01*
X49181524Y17792489D01*
X49159764Y17795566D01*
X49136296Y17781591D01*
X49110351Y17756490D01*
X49069284Y17714120D01*
X49114879Y17676536D01*
X49185326Y17634118D01*
X49264767Y17613215D01*
X49347785Y17614728D01*
X49402306Y17628589D01*
X49466030Y17662865D01*
X49516995Y17716788D01*
X49540149Y17754851D01*
X49558901Y17809464D01*
X49568285Y17878631D01*
X49568357Y17953593D01*
X49559176Y18025591D01*
X49540801Y18085863D01*
X49537907Y18092042D01*
X49495048Y18152649D01*
X49437021Y18196776D01*
X49368409Y18223507D01*
X49293799Y18231927D01*
X49217774Y18221120D01*
X49217774Y18221120D01*
G37*
X49217774Y18221120D02*
X49144920Y18190170D01*
X49121973Y18175105D01*
X49092646Y18151952D01*
X49074236Y18133747D01*
X49071039Y18127817D01*
X49080065Y18114660D01*
X49103163Y18092333D01*
X49121656Y18076750D01*
X49172272Y18036074D01*
X49212240Y18069705D01*
X49243126Y18091416D01*
X49273241Y18098910D01*
X49307708Y18097080D01*
X49362439Y18083472D01*
X49400114Y18055228D01*
X49423009Y18009567D01*
X49433403Y17943711D01*
X49433405Y17943669D01*
X49432506Y17870061D01*
X49418537Y17816054D01*
X49390672Y17779284D01*
X49371675Y17766832D01*
X49321224Y17751327D01*
X49267337Y17751317D01*
X49220454Y17766362D01*
X49209356Y17773713D01*
X49181524Y17792489D01*
X49159764Y17795566D01*
X49136296Y17781591D01*
X49110351Y17756490D01*
X49069284Y17714120D01*
X49114879Y17676536D01*
X49185326Y17634118D01*
X49264767Y17613215D01*
X49347785Y17614728D01*
X49402306Y17628589D01*
X49466030Y17662865D01*
X49516995Y17716788D01*
X49540149Y17754851D01*
X49558901Y17809464D01*
X49568285Y17878631D01*
X49568357Y17953593D01*
X49559176Y18025591D01*
X49540801Y18085863D01*
X49537907Y18092042D01*
X49495048Y18152649D01*
X49437021Y18196776D01*
X49368409Y18223507D01*
X49293799Y18231927D01*
X49217774Y18221120D01*
G36*
X50441633Y18030658D02*
X50440445Y17938437D01*
X50436103Y17868390D01*
X50427442Y17817619D01*
X50413296Y17783228D01*
X50392500Y17762321D01*
X50363890Y17752000D01*
X50328465Y17749364D01*
X50291364Y17752318D01*
X50263182Y17763111D01*
X50242757Y17784640D01*
X50228921Y17819801D01*
X50220509Y17871490D01*
X50216357Y17942606D01*
X50215297Y18030658D01*
X50215297Y18226386D01*
X50076980Y18226386D01*
X50076980Y17622821D01*
X50146138Y17622821D01*
X50187830Y17624511D01*
X50209299Y17630444D01*
X50215297Y17641707D01*
X50218909Y17651739D01*
X50233286Y17649617D01*
X50262264Y17635420D01*
X50328681Y17613520D01*
X50399125Y17615072D01*
X50466623Y17638853D01*
X50498767Y17657638D01*
X50523285Y17677978D01*
X50541196Y17703427D01*
X50553521Y17737542D01*
X50561277Y17783879D01*
X50565484Y17845993D01*
X50567160Y17927439D01*
X50567376Y17990422D01*
X50567376Y18226386D01*
X50441633Y18226386D01*
X50441633Y18030658D01*
X50441633Y18030658D01*
G37*
X50441633Y18030658D02*
X50440445Y17938437D01*
X50436103Y17868390D01*
X50427442Y17817619D01*
X50413296Y17783228D01*
X50392500Y17762321D01*
X50363890Y17752000D01*
X50328465Y17749364D01*
X50291364Y17752318D01*
X50263182Y17763111D01*
X50242757Y17784640D01*
X50228921Y17819801D01*
X50220509Y17871490D01*
X50216357Y17942606D01*
X50215297Y18030658D01*
X50215297Y18226386D01*
X50076980Y18226386D01*
X50076980Y17622821D01*
X50146138Y17622821D01*
X50187830Y17624511D01*
X50209299Y17630444D01*
X50215297Y17641707D01*
X50218909Y17651739D01*
X50233286Y17649617D01*
X50262264Y17635420D01*
X50328681Y17613520D01*
X50399125Y17615072D01*
X50466623Y17638853D01*
X50498767Y17657638D01*
X50523285Y17677978D01*
X50541196Y17703427D01*
X50553521Y17737542D01*
X50561277Y17783879D01*
X50565484Y17845993D01*
X50567160Y17927439D01*
X50567376Y17990422D01*
X50567376Y18226386D01*
X50441633Y18226386D01*
X50441633Y18030658D01*
G36*
X50824238Y18218945D02*
X50760637Y18184308D01*
X50710877Y18129628D01*
X50687432Y18085158D01*
X50677366Y18045879D01*
X50670844Y17989884D01*
X50668049Y17925379D01*
X50669164Y17860571D01*
X50674374Y17803666D01*
X50680459Y17773273D01*
X50700986Y17731694D01*
X50736537Y17687532D01*
X50779381Y17648913D01*
X50821789Y17623966D01*
X50822823Y17623570D01*
X50875447Y17612669D01*
X50937812Y17612399D01*
X50997076Y17622324D01*
X51019960Y17630278D01*
X51078898Y17663700D01*
X51121110Y17707489D01*
X51148844Y17765462D01*
X51164349Y17841435D01*
X51167857Y17881229D01*
X51167410Y17931234D01*
X51032624Y17931234D01*
X51028083Y17858268D01*
X51015014Y17802666D01*
X50994244Y17767139D01*
X50979448Y17756980D01*
X50941536Y17749896D01*
X50896473Y17751993D01*
X50857513Y17762188D01*
X50847296Y17767796D01*
X50820341Y17800462D01*
X50802549Y17850455D01*
X50794976Y17911295D01*
X50798675Y17976503D01*
X50806943Y18015747D01*
X50830680Y18061195D01*
X50868151Y18089604D01*
X50913280Y18099427D01*
X50959989Y18089113D01*
X50995868Y18063888D01*
X51014723Y18043075D01*
X51025728Y18022561D01*
X51030974Y17994797D01*
X51032551Y17952238D01*
X51032624Y17931234D01*
X51167410Y17931234D01*
X51166906Y17987420D01*
X51149612Y18074499D01*
X51115971Y18142470D01*
X51065982Y18191336D01*
X50999644Y18221101D01*
X50985399Y18224552D01*
X50899790Y18232655D01*
X50824238Y18218945D01*
X50824238Y18218945D01*
G37*
X50824238Y18218945D02*
X50760637Y18184308D01*
X50710877Y18129628D01*
X50687432Y18085158D01*
X50677366Y18045879D01*
X50670844Y17989884D01*
X50668049Y17925379D01*
X50669164Y17860571D01*
X50674374Y17803666D01*
X50680459Y17773273D01*
X50700986Y17731694D01*
X50736537Y17687532D01*
X50779381Y17648913D01*
X50821789Y17623966D01*
X50822823Y17623570D01*
X50875447Y17612669D01*
X50937812Y17612399D01*
X50997076Y17622324D01*
X51019960Y17630278D01*
X51078898Y17663700D01*
X51121110Y17707489D01*
X51148844Y17765462D01*
X51164349Y17841435D01*
X51167857Y17881229D01*
X51167410Y17931234D01*
X51032624Y17931234D01*
X51028083Y17858268D01*
X51015014Y17802666D01*
X50994244Y17767139D01*
X50979448Y17756980D01*
X50941536Y17749896D01*
X50896473Y17751993D01*
X50857513Y17762188D01*
X50847296Y17767796D01*
X50820341Y17800462D01*
X50802549Y17850455D01*
X50794976Y17911295D01*
X50798675Y17976503D01*
X50806943Y18015747D01*
X50830680Y18061195D01*
X50868151Y18089604D01*
X50913280Y18099427D01*
X50959989Y18089113D01*
X50995868Y18063888D01*
X51014723Y18043075D01*
X51025728Y18022561D01*
X51030974Y17994797D01*
X51032551Y17952238D01*
X51032624Y17931234D01*
X51167410Y17931234D01*
X51166906Y17987420D01*
X51149612Y18074499D01*
X51115971Y18142470D01*
X51065982Y18191336D01*
X50999644Y18221101D01*
X50985399Y18224552D01*
X50899790Y18232655D01*
X50824238Y18218945D01*
G36*
X51420983Y18228548D02*
X51373366Y18219518D01*
X51323966Y18200630D01*
X51318688Y18198223D01*
X51281226Y18178524D01*
X51255283Y18160219D01*
X51246897Y18148492D01*
X51254883Y18129368D01*
X51274280Y18101150D01*
X51282890Y18090616D01*
X51318372Y18049153D01*
X51364115Y18076142D01*
X51407650Y18094122D01*
X51457950Y18103733D01*
X51506188Y18104340D01*
X51543533Y18095309D01*
X51552495Y18089673D01*
X51569563Y18063829D01*
X51571637Y18034059D01*
X51558866Y18010803D01*
X51551312Y18006292D01*
X51528675Y18000691D01*
X51488885Y17994108D01*
X51439834Y17987817D01*
X51430785Y17986830D01*
X51352004Y17973202D01*
X51294864Y17950054D01*
X51256970Y17915248D01*
X51235921Y17866646D01*
X51229365Y17807282D01*
X51238423Y17739802D01*
X51267836Y17686812D01*
X51317722Y17648217D01*
X51388200Y17623919D01*
X51466435Y17614333D01*
X51530234Y17614448D01*
X51581984Y17623155D01*
X51617327Y17635175D01*
X51661983Y17656120D01*
X51703253Y17680426D01*
X51717921Y17691124D01*
X51755643Y17721916D01*
X51710148Y17767951D01*
X51664653Y17813987D01*
X51612928Y17779757D01*
X51561048Y17754048D01*
X51505649Y17740601D01*
X51452395Y17739182D01*
X51406951Y17749557D01*
X51374984Y17771493D01*
X51364662Y17790002D01*
X51366211Y17819686D01*
X51391860Y17842385D01*
X51441540Y17858060D01*
X51495969Y17865305D01*
X51579736Y17879127D01*
X51641967Y17905204D01*
X51683493Y17944301D01*
X51705147Y17997180D01*
X51708147Y18059874D01*
X51693329Y18125358D01*
X51659546Y18174856D01*
X51606495Y18208592D01*
X51533874Y18226793D01*
X51480072Y18230361D01*
X51420983Y18228548D01*
X51420983Y18228548D01*
G37*
X51420983Y18228548D02*
X51373366Y18219518D01*
X51323966Y18200630D01*
X51318688Y18198223D01*
X51281226Y18178524D01*
X51255283Y18160219D01*
X51246897Y18148492D01*
X51254883Y18129368D01*
X51274280Y18101150D01*
X51282890Y18090616D01*
X51318372Y18049153D01*
X51364115Y18076142D01*
X51407650Y18094122D01*
X51457950Y18103733D01*
X51506188Y18104340D01*
X51543533Y18095309D01*
X51552495Y18089673D01*
X51569563Y18063829D01*
X51571637Y18034059D01*
X51558866Y18010803D01*
X51551312Y18006292D01*
X51528675Y18000691D01*
X51488885Y17994108D01*
X51439834Y17987817D01*
X51430785Y17986830D01*
X51352004Y17973202D01*
X51294864Y17950054D01*
X51256970Y17915248D01*
X51235921Y17866646D01*
X51229365Y17807282D01*
X51238423Y17739802D01*
X51267836Y17686812D01*
X51317722Y17648217D01*
X51388200Y17623919D01*
X51466435Y17614333D01*
X51530234Y17614448D01*
X51581984Y17623155D01*
X51617327Y17635175D01*
X51661983Y17656120D01*
X51703253Y17680426D01*
X51717921Y17691124D01*
X51755643Y17721916D01*
X51710148Y17767951D01*
X51664653Y17813987D01*
X51612928Y17779757D01*
X51561048Y17754048D01*
X51505649Y17740601D01*
X51452395Y17739182D01*
X51406951Y17749557D01*
X51374984Y17771493D01*
X51364662Y17790002D01*
X51366211Y17819686D01*
X51391860Y17842385D01*
X51441540Y17858060D01*
X51495969Y17865305D01*
X51579736Y17879127D01*
X51641967Y17905204D01*
X51683493Y17944301D01*
X51705147Y17997180D01*
X51708147Y18059874D01*
X51693329Y18125358D01*
X51659546Y18174856D01*
X51606495Y18208592D01*
X51533874Y18226793D01*
X51480072Y18230361D01*
X51420983Y18228548D01*
G36*
X52791699Y18212386D02*
X52779168Y18206486D01*
X52735799Y18174717D01*
X52694790Y18128354D01*
X52664168Y18077304D01*
X52655459Y18053834D01*
X52647512Y18011909D01*
X52642774Y17961243D01*
X52642199Y17940321D01*
X52642129Y17874307D01*
X53022083Y17874307D01*
X53013983Y17839727D01*
X52994104Y17798830D01*
X52959347Y17763486D01*
X52917998Y17740718D01*
X52891649Y17735990D01*
X52855916Y17741727D01*
X52813282Y17756118D01*
X52798799Y17762738D01*
X52745240Y17789487D01*
X52699533Y17754624D01*
X52673158Y17731045D01*
X52659124Y17711583D01*
X52658414Y17705871D01*
X52670951Y17692027D01*
X52698428Y17670988D01*
X52723366Y17654575D01*
X52790664Y17625070D01*
X52866110Y17611716D01*
X52940888Y17615188D01*
X53000495Y17633337D01*
X53061941Y17672216D01*
X53105608Y17723405D01*
X53132926Y17789633D01*
X53145322Y17873629D01*
X53146421Y17912064D01*
X53142022Y18000139D01*
X53141482Y18002701D01*
X53015582Y18002701D01*
X53012115Y17994442D01*
X52997863Y17989887D01*
X52968470Y17987935D01*
X52919575Y17987483D01*
X52900748Y17987475D01*
X52843467Y17988157D01*
X52807141Y17990636D01*
X52787604Y17995557D01*
X52780690Y18003566D01*
X52780445Y18006138D01*
X52788336Y18026577D01*
X52808085Y18055211D01*
X52816575Y18065237D01*
X52848094Y18093592D01*
X52880949Y18104741D01*
X52898651Y18105673D01*
X52946539Y18094019D01*
X52986699Y18062715D01*
X53012173Y18017248D01*
X53012625Y18015767D01*
X53015582Y18002701D01*
X53141482Y18002701D01*
X53127392Y18069490D01*
X53101038Y18124975D01*
X53068807Y18164361D01*
X53009217Y18207069D01*
X52939168Y18229891D01*
X52864661Y18231954D01*
X52791699Y18212386D01*
X52791699Y18212386D01*
G37*
X52791699Y18212386D02*
X52779168Y18206486D01*
X52735799Y18174717D01*
X52694790Y18128354D01*
X52664168Y18077304D01*
X52655459Y18053834D01*
X52647512Y18011909D01*
X52642774Y17961243D01*
X52642199Y17940321D01*
X52642129Y17874307D01*
X53022083Y17874307D01*
X53013983Y17839727D01*
X52994104Y17798830D01*
X52959347Y17763486D01*
X52917998Y17740718D01*
X52891649Y17735990D01*
X52855916Y17741727D01*
X52813282Y17756118D01*
X52798799Y17762738D01*
X52745240Y17789487D01*
X52699533Y17754624D01*
X52673158Y17731045D01*
X52659124Y17711583D01*
X52658414Y17705871D01*
X52670951Y17692027D01*
X52698428Y17670988D01*
X52723366Y17654575D01*
X52790664Y17625070D01*
X52866110Y17611716D01*
X52940888Y17615188D01*
X53000495Y17633337D01*
X53061941Y17672216D01*
X53105608Y17723405D01*
X53132926Y17789633D01*
X53145322Y17873629D01*
X53146421Y17912064D01*
X53142022Y18000139D01*
X53141482Y18002701D01*
X53015582Y18002701D01*
X53012115Y17994442D01*
X52997863Y17989887D01*
X52968470Y17987935D01*
X52919575Y17987483D01*
X52900748Y17987475D01*
X52843467Y17988157D01*
X52807141Y17990636D01*
X52787604Y17995557D01*
X52780690Y18003566D01*
X52780445Y18006138D01*
X52788336Y18026577D01*
X52808085Y18055211D01*
X52816575Y18065237D01*
X52848094Y18093592D01*
X52880949Y18104741D01*
X52898651Y18105673D01*
X52946539Y18094019D01*
X52986699Y18062715D01*
X53012173Y18017248D01*
X53012625Y18015767D01*
X53015582Y18002701D01*
X53141482Y18002701D01*
X53127392Y18069490D01*
X53101038Y18124975D01*
X53068807Y18164361D01*
X53009217Y18207069D01*
X52939168Y18229891D01*
X52864661Y18231954D01*
X52791699Y18212386D01*
G36*
X53973261Y18219852D02*
X53907479Y18190769D01*
X53857540Y18142207D01*
X53823374Y18074092D01*
X53804907Y17986349D01*
X53803583Y17972649D01*
X53802546Y17876061D01*
X53815993Y17791398D01*
X53843108Y17722779D01*
X53857627Y17700706D01*
X53908201Y17653989D01*
X53972609Y17623732D01*
X54044666Y17611176D01*
X54118185Y17617561D01*
X54174072Y17637228D01*
X54222132Y17670371D01*
X54261412Y17713825D01*
X54262092Y17714842D01*
X54278044Y17741662D01*
X54288410Y17768632D01*
X54294688Y17802668D01*
X54298373Y17850690D01*
X54299997Y17890069D01*
X54300672Y17925781D01*
X54174955Y17925781D01*
X54173726Y17890230D01*
X54169266Y17842906D01*
X54161397Y17812535D01*
X54147207Y17790928D01*
X54133917Y17778306D01*
X54086802Y17751878D01*
X54037505Y17748347D01*
X53991593Y17767361D01*
X53968638Y17788669D01*
X53952096Y17810141D01*
X53942421Y17830687D01*
X53938174Y17857426D01*
X53937920Y17897477D01*
X53939228Y17934362D01*
X53942043Y17987053D01*
X53946505Y18021228D01*
X53954548Y18043520D01*
X53968103Y18060558D01*
X53978845Y18070297D01*
X54023777Y18095877D01*
X54072249Y18097153D01*
X54112894Y18082001D01*
X54147567Y18050358D01*
X54168224Y17998380D01*
X54174955Y17925781D01*
X54300672Y17925781D01*
X54301479Y17968379D01*
X54298948Y18026944D01*
X54291362Y18070993D01*
X54277681Y18105752D01*
X54256865Y18136449D01*
X54249147Y18145564D01*
X54200889Y18190979D01*
X54149128Y18217507D01*
X54085828Y18228621D01*
X54054961Y18229529D01*
X53973261Y18219852D01*
X53973261Y18219852D01*
G37*
X53973261Y18219852D02*
X53907479Y18190769D01*
X53857540Y18142207D01*
X53823374Y18074092D01*
X53804907Y17986349D01*
X53803583Y17972649D01*
X53802546Y17876061D01*
X53815993Y17791398D01*
X53843108Y17722779D01*
X53857627Y17700706D01*
X53908201Y17653989D01*
X53972609Y17623732D01*
X54044666Y17611176D01*
X54118185Y17617561D01*
X54174072Y17637228D01*
X54222132Y17670371D01*
X54261412Y17713825D01*
X54262092Y17714842D01*
X54278044Y17741662D01*
X54288410Y17768632D01*
X54294688Y17802668D01*
X54298373Y17850690D01*
X54299997Y17890069D01*
X54300672Y17925781D01*
X54174955Y17925781D01*
X54173726Y17890230D01*
X54169266Y17842906D01*
X54161397Y17812535D01*
X54147207Y17790928D01*
X54133917Y17778306D01*
X54086802Y17751878D01*
X54037505Y17748347D01*
X53991593Y17767361D01*
X53968638Y17788669D01*
X53952096Y17810141D01*
X53942421Y17830687D01*
X53938174Y17857426D01*
X53937920Y17897477D01*
X53939228Y17934362D01*
X53942043Y17987053D01*
X53946505Y18021228D01*
X53954548Y18043520D01*
X53968103Y18060558D01*
X53978845Y18070297D01*
X54023777Y18095877D01*
X54072249Y18097153D01*
X54112894Y18082001D01*
X54147567Y18050358D01*
X54168224Y17998380D01*
X54174955Y17925781D01*
X54300672Y17925781D01*
X54301479Y17968379D01*
X54298948Y18026944D01*
X54291362Y18070993D01*
X54277681Y18105752D01*
X54256865Y18136449D01*
X54249147Y18145564D01*
X54200889Y18190979D01*
X54149128Y18217507D01*
X54085828Y18228621D01*
X54054961Y18229529D01*
X53973261Y18219852D01*
G36*
X49402419Y17280030D02*
X49342315Y17264403D01*
X49291979Y17232152D01*
X49267607Y17208060D01*
X49227655Y17151105D01*
X49204758Y17085035D01*
X49196892Y17003818D01*
X49196852Y16997252D01*
X49196782Y16931237D01*
X49576736Y16931237D01*
X49568637Y16896658D01*
X49554013Y16865341D01*
X49528419Y16832709D01*
X49523065Y16827500D01*
X49477057Y16799306D01*
X49424590Y16794525D01*
X49364197Y16813074D01*
X49353960Y16818069D01*
X49322561Y16833255D01*
X49301530Y16841906D01*
X49297861Y16842707D01*
X49285052Y16834937D01*
X49260622Y16815928D01*
X49248221Y16805540D01*
X49222524Y16781679D01*
X49214085Y16765923D01*
X49219942Y16751429D01*
X49223072Y16747466D01*
X49244275Y16730121D01*
X49279262Y16709041D01*
X49303663Y16696735D01*
X49372928Y16675054D01*
X49449612Y16668029D01*
X49522235Y16676353D01*
X49542574Y16682314D01*
X49605524Y16716048D01*
X49652185Y16767955D01*
X49682827Y16838541D01*
X49697718Y16928308D01*
X49699353Y16975247D01*
X49694579Y17043587D01*
X49574010Y17043587D01*
X49562348Y17038535D01*
X49531002Y17034571D01*
X49485429Y17032232D01*
X49454554Y17031831D01*
X49399019Y17032217D01*
X49363967Y17034025D01*
X49344738Y17038227D01*
X49336670Y17045797D01*
X49335099Y17056782D01*
X49345879Y17090619D01*
X49373020Y17124060D01*
X49408723Y17149728D01*
X49444440Y17160228D01*
X49492952Y17150914D01*
X49534947Y17123987D01*
X49564064Y17085173D01*
X49574010Y17043587D01*
X49694579Y17043587D01*
X49692401Y17074764D01*
X49670945Y17154051D01*
X49634530Y17213737D01*
X49582703Y17254451D01*
X49515010Y17276821D01*
X49478338Y17281129D01*
X49402419Y17280030D01*
X49402419Y17280030D01*
G37*
X49402419Y17280030D02*
X49342315Y17264403D01*
X49291979Y17232152D01*
X49267607Y17208060D01*
X49227655Y17151105D01*
X49204758Y17085035D01*
X49196892Y17003818D01*
X49196852Y16997252D01*
X49196782Y16931237D01*
X49576736Y16931237D01*
X49568637Y16896658D01*
X49554013Y16865341D01*
X49528419Y16832709D01*
X49523065Y16827500D01*
X49477057Y16799306D01*
X49424590Y16794525D01*
X49364197Y16813074D01*
X49353960Y16818069D01*
X49322561Y16833255D01*
X49301530Y16841906D01*
X49297861Y16842707D01*
X49285052Y16834937D01*
X49260622Y16815928D01*
X49248221Y16805540D01*
X49222524Y16781679D01*
X49214085Y16765923D01*
X49219942Y16751429D01*
X49223072Y16747466D01*
X49244275Y16730121D01*
X49279262Y16709041D01*
X49303663Y16696735D01*
X49372928Y16675054D01*
X49449612Y16668029D01*
X49522235Y16676353D01*
X49542574Y16682314D01*
X49605524Y16716048D01*
X49652185Y16767955D01*
X49682827Y16838541D01*
X49697718Y16928308D01*
X49699353Y16975247D01*
X49694579Y17043587D01*
X49574010Y17043587D01*
X49562348Y17038535D01*
X49531002Y17034571D01*
X49485429Y17032232D01*
X49454554Y17031831D01*
X49399019Y17032217D01*
X49363967Y17034025D01*
X49344738Y17038227D01*
X49336670Y17045797D01*
X49335099Y17056782D01*
X49345879Y17090619D01*
X49373020Y17124060D01*
X49408723Y17149728D01*
X49444440Y17160228D01*
X49492952Y17150914D01*
X49534947Y17123987D01*
X49564064Y17085173D01*
X49574010Y17043587D01*
X49694579Y17043587D01*
X49692401Y17074764D01*
X49670945Y17154051D01*
X49634530Y17213737D01*
X49582703Y17254451D01*
X49515010Y17276821D01*
X49478338Y17281129D01*
X49402419Y17280030D01*
G36*
X49799745Y17283514D02*
X49751405Y17273985D01*
X49723886Y17259875D01*
X49694936Y17236432D01*
X49736124Y17184429D01*
X49761518Y17152936D01*
X49778762Y17137572D01*
X49795898Y17135224D01*
X49820973Y17142783D01*
X49832743Y17147059D01*
X49880730Y17153369D01*
X49924676Y17139844D01*
X49956940Y17109290D01*
X49962181Y17099548D01*
X49967888Y17073742D01*
X49972294Y17026183D01*
X49975189Y16960242D01*
X49976369Y16879290D01*
X49976386Y16867774D01*
X49976386Y16667178D01*
X50114703Y16667178D01*
X50114703Y17283317D01*
X50045544Y17283317D01*
X50005667Y17282275D01*
X49984893Y17277642D01*
X49977211Y17267151D01*
X49976386Y17257255D01*
X49976386Y17231194D01*
X49943255Y17257255D01*
X49905265Y17275035D01*
X49854230Y17283826D01*
X49799745Y17283514D01*
X49799745Y17283514D01*
G37*
X49799745Y17283514D02*
X49751405Y17273985D01*
X49723886Y17259875D01*
X49694936Y17236432D01*
X49736124Y17184429D01*
X49761518Y17152936D01*
X49778762Y17137572D01*
X49795898Y17135224D01*
X49820973Y17142783D01*
X49832743Y17147059D01*
X49880730Y17153369D01*
X49924676Y17139844D01*
X49956940Y17109290D01*
X49962181Y17099548D01*
X49967888Y17073742D01*
X49972294Y17026183D01*
X49975189Y16960242D01*
X49976369Y16879290D01*
X49976386Y16867774D01*
X49976386Y16667178D01*
X50114703Y16667178D01*
X50114703Y17283317D01*
X50045544Y17283317D01*
X50005667Y17282275D01*
X49984893Y17277642D01*
X49977211Y17267151D01*
X49976386Y17257255D01*
X49976386Y17231194D01*
X49943255Y17257255D01*
X49905265Y17275035D01*
X49854230Y17283826D01*
X49799745Y17283514D01*
G36*
X50396589Y17279583D02*
X50343589Y17266710D01*
X50328269Y17259890D01*
X50298572Y17242026D01*
X50275780Y17221907D01*
X50258917Y17196038D01*
X50247002Y17160927D01*
X50239058Y17113080D01*
X50234106Y17049004D01*
X50231169Y16965206D01*
X50230053Y16909232D01*
X50225948Y16667178D01*
X50296068Y16667178D01*
X50338607Y16668962D01*
X50360524Y16675058D01*
X50366188Y16685294D01*
X50369179Y16696363D01*
X50382549Y16694246D01*
X50400767Y16685371D01*
X50446376Y16671767D01*
X50504993Y16668101D01*
X50566646Y16674097D01*
X50621362Y16689479D01*
X50626270Y16691614D01*
X50676277Y16726745D01*
X50709244Y16775581D01*
X50724413Y16832667D01*
X50723254Y16853176D01*
X50599492Y16853176D01*
X50588587Y16825575D01*
X50556255Y16805796D01*
X50504090Y16795181D01*
X50476213Y16793772D01*
X50429753Y16797380D01*
X50398871Y16811403D01*
X50391336Y16818069D01*
X50370924Y16854334D01*
X50366188Y16887227D01*
X50366188Y16931237D01*
X50427487Y16931237D01*
X50498744Y16927605D01*
X50548724Y16916182D01*
X50580304Y16896176D01*
X50587374Y16887257D01*
X50599492Y16853176D01*
X50723254Y16853176D01*
X50721029Y16892544D01*
X50698337Y16949756D01*
X50667376Y16988420D01*
X50648624Y17005136D01*
X50630267Y17016122D01*
X50606381Y17022820D01*
X50571043Y17026674D01*
X50518331Y17029127D01*
X50497423Y17029832D01*
X50366188Y17034121D01*
X50366380Y17073842D01*
X50371463Y17115595D01*
X50389838Y17140842D01*
X50426961Y17156970D01*
X50427957Y17157258D01*
X50480590Y17163600D01*
X50532094Y17155316D01*
X50570370Y17135173D01*
X50585728Y17125227D01*
X50602270Y17126603D01*
X50627725Y17141013D01*
X50642672Y17151183D01*
X50671909Y17172912D01*
X50690020Y17189200D01*
X50692926Y17193863D01*
X50680960Y17217995D01*
X50645604Y17246815D01*
X50630247Y17256539D01*
X50586099Y17273286D01*
X50526602Y17282773D01*
X50460513Y17284905D01*
X50396589Y17279583D01*
X50396589Y17279583D01*
G37*
X50396589Y17279583D02*
X50343589Y17266710D01*
X50328269Y17259890D01*
X50298572Y17242026D01*
X50275780Y17221907D01*
X50258917Y17196038D01*
X50247002Y17160927D01*
X50239058Y17113080D01*
X50234106Y17049004D01*
X50231169Y16965206D01*
X50230053Y16909232D01*
X50225948Y16667178D01*
X50296068Y16667178D01*
X50338607Y16668962D01*
X50360524Y16675058D01*
X50366188Y16685294D01*
X50369179Y16696363D01*
X50382549Y16694246D01*
X50400767Y16685371D01*
X50446376Y16671767D01*
X50504993Y16668101D01*
X50566646Y16674097D01*
X50621362Y16689479D01*
X50626270Y16691614D01*
X50676277Y16726745D01*
X50709244Y16775581D01*
X50724413Y16832667D01*
X50723254Y16853176D01*
X50599492Y16853176D01*
X50588587Y16825575D01*
X50556255Y16805796D01*
X50504090Y16795181D01*
X50476213Y16793772D01*
X50429753Y16797380D01*
X50398871Y16811403D01*
X50391336Y16818069D01*
X50370924Y16854334D01*
X50366188Y16887227D01*
X50366188Y16931237D01*
X50427487Y16931237D01*
X50498744Y16927605D01*
X50548724Y16916182D01*
X50580304Y16896176D01*
X50587374Y16887257D01*
X50599492Y16853176D01*
X50723254Y16853176D01*
X50721029Y16892544D01*
X50698337Y16949756D01*
X50667376Y16988420D01*
X50648624Y17005136D01*
X50630267Y17016122D01*
X50606381Y17022820D01*
X50571043Y17026674D01*
X50518331Y17029127D01*
X50497423Y17029832D01*
X50366188Y17034121D01*
X50366380Y17073842D01*
X50371463Y17115595D01*
X50389838Y17140842D01*
X50426961Y17156970D01*
X50427957Y17157258D01*
X50480590Y17163600D01*
X50532094Y17155316D01*
X50570370Y17135173D01*
X50585728Y17125227D01*
X50602270Y17126603D01*
X50627725Y17141013D01*
X50642672Y17151183D01*
X50671909Y17172912D01*
X50690020Y17189200D01*
X50692926Y17193863D01*
X50680960Y17217995D01*
X50645604Y17246815D01*
X50630247Y17256539D01*
X50586099Y17273286D01*
X50526602Y17282773D01*
X50460513Y17284905D01*
X50396589Y17279583D01*
G36*
X51153476Y17280763D02*
X51103745Y17277029D01*
X50973709Y16887227D01*
X50953322Y16956386D01*
X50941054Y16999126D01*
X50924915Y17056885D01*
X50907488Y17120375D01*
X50898274Y17154430D01*
X50863612Y17283317D01*
X50720609Y17283317D01*
X50763354Y17148143D01*
X50784404Y17081658D01*
X50809833Y17001461D01*
X50836390Y16917807D01*
X50860098Y16843218D01*
X50914098Y16673465D01*
X50972402Y16669672D01*
X51030705Y16665878D01*
X51062321Y16770266D01*
X51081818Y16835111D01*
X51103096Y16906600D01*
X51121692Y16969737D01*
X51122426Y16972250D01*
X51136316Y17015031D01*
X51148571Y17044221D01*
X51157154Y17055259D01*
X51158918Y17053982D01*
X51165109Y17036870D01*
X51176872Y17000213D01*
X51192775Y16948622D01*
X51211386Y16886706D01*
X51221457Y16852648D01*
X51275993Y16667178D01*
X51391736Y16667178D01*
X51484263Y16959529D01*
X51510256Y17041538D01*
X51533934Y17116013D01*
X51554180Y17179456D01*
X51569874Y17228368D01*
X51579898Y17259251D01*
X51582945Y17268274D01*
X51580533Y17277513D01*
X51561592Y17281559D01*
X51522177Y17281154D01*
X51516007Y17280848D01*
X51442914Y17277029D01*
X51395043Y17100990D01*
X51377447Y17036789D01*
X51361723Y16980351D01*
X51349254Y16936578D01*
X51341426Y16910370D01*
X51339980Y16906097D01*
X51333986Y16911010D01*
X51321899Y16936468D01*
X51305107Y16979003D01*
X51284997Y17035150D01*
X51267997Y17085870D01*
X51203206Y17284496D01*
X51153476Y17280763D01*
X51153476Y17280763D01*
G37*
X51153476Y17280763D02*
X51103745Y17277029D01*
X50973709Y16887227D01*
X50953322Y16956386D01*
X50941054Y16999126D01*
X50924915Y17056885D01*
X50907488Y17120375D01*
X50898274Y17154430D01*
X50863612Y17283317D01*
X50720609Y17283317D01*
X50763354Y17148143D01*
X50784404Y17081658D01*
X50809833Y17001461D01*
X50836390Y16917807D01*
X50860098Y16843218D01*
X50914098Y16673465D01*
X50972402Y16669672D01*
X51030705Y16665878D01*
X51062321Y16770266D01*
X51081818Y16835111D01*
X51103096Y16906600D01*
X51121692Y16969737D01*
X51122426Y16972250D01*
X51136316Y17015031D01*
X51148571Y17044221D01*
X51157154Y17055259D01*
X51158918Y17053982D01*
X51165109Y17036870D01*
X51176872Y17000213D01*
X51192775Y16948622D01*
X51211386Y16886706D01*
X51221457Y16852648D01*
X51275993Y16667178D01*
X51391736Y16667178D01*
X51484263Y16959529D01*
X51510256Y17041538D01*
X51533934Y17116013D01*
X51554180Y17179456D01*
X51569874Y17228368D01*
X51579898Y17259251D01*
X51582945Y17268274D01*
X51580533Y17277513D01*
X51561592Y17281559D01*
X51522177Y17281154D01*
X51516007Y17280848D01*
X51442914Y17277029D01*
X51395043Y17100990D01*
X51377447Y17036789D01*
X51361723Y16980351D01*
X51349254Y16936578D01*
X51341426Y16910370D01*
X51339980Y16906097D01*
X51333986Y16911010D01*
X51321899Y16936468D01*
X51305107Y16979003D01*
X51284997Y17035150D01*
X51267997Y17085870D01*
X51203206Y17284496D01*
X51153476Y17280763D01*
G36*
X51636188Y16667178D02*
X51705346Y16667178D01*
X51745488Y16668355D01*
X51766394Y16673228D01*
X51773922Y16683814D01*
X51774505Y16690971D01*
X51775774Y16705324D01*
X51783779Y16708077D01*
X51804815Y16699229D01*
X51821173Y16690971D01*
X51883977Y16671403D01*
X51952248Y16670271D01*
X52007752Y16684865D01*
X52059438Y16720123D01*
X52098838Y16772165D01*
X52120413Y16833550D01*
X52120962Y16836982D01*
X52124167Y16874429D01*
X52125761Y16928187D01*
X52125633Y16968845D01*
X51988279Y16968845D01*
X51985097Y16914806D01*
X51977859Y16870265D01*
X51968060Y16845112D01*
X51930989Y16810740D01*
X51886974Y16798418D01*
X51841584Y16808382D01*
X51802797Y16838105D01*
X51788108Y16858095D01*
X51779519Y16881950D01*
X51775496Y16916770D01*
X51774505Y16969070D01*
X51776278Y17020861D01*
X51780963Y17066366D01*
X51787603Y17096819D01*
X51788710Y17099548D01*
X51815491Y17132000D01*
X51854579Y17149817D01*
X51898315Y17152694D01*
X51939038Y17140326D01*
X51969087Y17112407D01*
X51972204Y17106852D01*
X51981961Y17072978D01*
X51987277Y17024272D01*
X51988279Y16968845D01*
X52125633Y16968845D01*
X52125568Y16989460D01*
X52124664Y17022437D01*
X52118514Y17104019D01*
X52105733Y17165270D01*
X52084471Y17210551D01*
X52052878Y17244221D01*
X52022207Y17263986D01*
X51979354Y17277880D01*
X51926056Y17282646D01*
X51871480Y17278764D01*
X51824792Y17266718D01*
X51800124Y17252307D01*
X51774505Y17229122D01*
X51774505Y17522227D01*
X51636188Y17522227D01*
X51636188Y16667178D01*
X51636188Y16667178D01*
G37*
X51636188Y16667178D02*
X51705346Y16667178D01*
X51745488Y16668355D01*
X51766394Y16673228D01*
X51773922Y16683814D01*
X51774505Y16690971D01*
X51775774Y16705324D01*
X51783779Y16708077D01*
X51804815Y16699229D01*
X51821173Y16690971D01*
X51883977Y16671403D01*
X51952248Y16670271D01*
X52007752Y16684865D01*
X52059438Y16720123D01*
X52098838Y16772165D01*
X52120413Y16833550D01*
X52120962Y16836982D01*
X52124167Y16874429D01*
X52125761Y16928187D01*
X52125633Y16968845D01*
X51988279Y16968845D01*
X51985097Y16914806D01*
X51977859Y16870265D01*
X51968060Y16845112D01*
X51930989Y16810740D01*
X51886974Y16798418D01*
X51841584Y16808382D01*
X51802797Y16838105D01*
X51788108Y16858095D01*
X51779519Y16881950D01*
X51775496Y16916770D01*
X51774505Y16969070D01*
X51776278Y17020861D01*
X51780963Y17066366D01*
X51787603Y17096819D01*
X51788710Y17099548D01*
X51815491Y17132000D01*
X51854579Y17149817D01*
X51898315Y17152694D01*
X51939038Y17140326D01*
X51969087Y17112407D01*
X51972204Y17106852D01*
X51981961Y17072978D01*
X51987277Y17024272D01*
X51988279Y16968845D01*
X52125633Y16968845D01*
X52125568Y16989460D01*
X52124664Y17022437D01*
X52118514Y17104019D01*
X52105733Y17165270D01*
X52084471Y17210551D01*
X52052878Y17244221D01*
X52022207Y17263986D01*
X51979354Y17277880D01*
X51926056Y17282646D01*
X51871480Y17278764D01*
X51824792Y17266718D01*
X51800124Y17252307D01*
X51774505Y17229122D01*
X51774505Y17522227D01*
X51636188Y17522227D01*
X51636188Y16667178D01*
G36*
X52428356Y17281980D02*
X52409539Y17276340D01*
X52403473Y17263947D01*
X52403218Y17258353D01*
X52402129Y17242770D01*
X52394632Y17240324D01*
X52374381Y17251007D01*
X52362351Y17258306D01*
X52324400Y17273937D01*
X52279072Y17281666D01*
X52231544Y17282260D01*
X52186995Y17276487D01*
X52150602Y17265116D01*
X52127543Y17248912D01*
X52122996Y17228645D01*
X52125291Y17223157D01*
X52142020Y17200374D01*
X52167963Y17172353D01*
X52172655Y17167823D01*
X52197383Y17146995D01*
X52218718Y17140265D01*
X52248555Y17144962D01*
X52260508Y17148083D01*
X52297705Y17155579D01*
X52323859Y17152208D01*
X52345946Y17140319D01*
X52366178Y17124365D01*
X52381079Y17104300D01*
X52391434Y17076298D01*
X52398029Y17036533D01*
X52401649Y16981177D01*
X52403078Y16906406D01*
X52403218Y16861260D01*
X52403218Y16667178D01*
X52528960Y16667178D01*
X52528960Y17283317D01*
X52466089Y17283317D01*
X52428356Y17281980D01*
X52428356Y17281980D01*
G37*
X52428356Y17281980D02*
X52409539Y17276340D01*
X52403473Y17263947D01*
X52403218Y17258353D01*
X52402129Y17242770D01*
X52394632Y17240324D01*
X52374381Y17251007D01*
X52362351Y17258306D01*
X52324400Y17273937D01*
X52279072Y17281666D01*
X52231544Y17282260D01*
X52186995Y17276487D01*
X52150602Y17265116D01*
X52127543Y17248912D01*
X52122996Y17228645D01*
X52125291Y17223157D01*
X52142020Y17200374D01*
X52167963Y17172353D01*
X52172655Y17167823D01*
X52197383Y17146995D01*
X52218718Y17140265D01*
X52248555Y17144962D01*
X52260508Y17148083D01*
X52297705Y17155579D01*
X52323859Y17152208D01*
X52345946Y17140319D01*
X52366178Y17124365D01*
X52381079Y17104300D01*
X52391434Y17076298D01*
X52398029Y17036533D01*
X52401649Y16981177D01*
X52403078Y16906406D01*
X52403218Y16861260D01*
X52403218Y16667178D01*
X52528960Y16667178D01*
X52528960Y17283317D01*
X52466089Y17283317D01*
X52428356Y17281980D01*
G36*
X52819210Y17278445D02*
X52760055Y17262661D01*
X52715023Y17234052D01*
X52683246Y17196581D01*
X52673366Y17180589D01*
X52666073Y17163837D01*
X52660974Y17142408D01*
X52657679Y17112384D01*
X52655797Y17069846D01*
X52654937Y17010878D01*
X52654707Y16931560D01*
X52654703Y16910516D01*
X52654703Y16667178D01*
X52715059Y16667178D01*
X52753557Y16669874D01*
X52782023Y16676705D01*
X52789155Y16680917D01*
X52808652Y16688187D01*
X52828566Y16680917D01*
X52861353Y16671840D01*
X52908978Y16668187D01*
X52961764Y16669772D01*
X53010036Y16676411D01*
X53038218Y16684928D01*
X53092753Y16719937D01*
X53126835Y16768521D01*
X53142157Y16833118D01*
X53142299Y16834777D01*
X53140955Y16863434D01*
X53019356Y16863434D01*
X53008726Y16830839D01*
X52991410Y16812495D01*
X52956652Y16798621D01*
X52910773Y16793083D01*
X52863988Y16795809D01*
X52826514Y16806726D01*
X52816015Y16813731D01*
X52797668Y16846096D01*
X52793020Y16882889D01*
X52793020Y16931237D01*
X52862582Y16931237D01*
X52928667Y16926150D01*
X52978764Y16911737D01*
X53009929Y16889271D01*
X53019356Y16863434D01*
X53140955Y16863434D01*
X53138987Y16905353D01*
X53115710Y16961155D01*
X53071948Y17003353D01*
X53065899Y17007192D01*
X53039907Y17019691D01*
X53007735Y17027260D01*
X52962760Y17030939D01*
X52909331Y17031784D01*
X52793020Y17031831D01*
X52793020Y17080589D01*
X52797953Y17118419D01*
X52810543Y17143764D01*
X52812017Y17145113D01*
X52840034Y17156200D01*
X52882326Y17160497D01*
X52929064Y17158385D01*
X52970418Y17150244D01*
X52994957Y17138035D01*
X53008253Y17128254D01*
X53022294Y17126387D01*
X53041671Y17134400D01*
X53070976Y17154261D01*
X53114803Y17187937D01*
X53118825Y17191091D01*
X53116764Y17202764D01*
X53099568Y17222178D01*
X53073433Y17243752D01*
X53044552Y17261904D01*
X53035478Y17266191D01*
X53002380Y17274744D01*
X52953880Y17280845D01*
X52899695Y17283292D01*
X52897161Y17283297D01*
X52819210Y17278445D01*
X52819210Y17278445D01*
G37*
X52819210Y17278445D02*
X52760055Y17262661D01*
X52715023Y17234052D01*
X52683246Y17196581D01*
X52673366Y17180589D01*
X52666073Y17163837D01*
X52660974Y17142408D01*
X52657679Y17112384D01*
X52655797Y17069846D01*
X52654937Y17010878D01*
X52654707Y16931560D01*
X52654703Y16910516D01*
X52654703Y16667178D01*
X52715059Y16667178D01*
X52753557Y16669874D01*
X52782023Y16676705D01*
X52789155Y16680917D01*
X52808652Y16688187D01*
X52828566Y16680917D01*
X52861353Y16671840D01*
X52908978Y16668187D01*
X52961764Y16669772D01*
X53010036Y16676411D01*
X53038218Y16684928D01*
X53092753Y16719937D01*
X53126835Y16768521D01*
X53142157Y16833118D01*
X53142299Y16834777D01*
X53140955Y16863434D01*
X53019356Y16863434D01*
X53008726Y16830839D01*
X52991410Y16812495D01*
X52956652Y16798621D01*
X52910773Y16793083D01*
X52863988Y16795809D01*
X52826514Y16806726D01*
X52816015Y16813731D01*
X52797668Y16846096D01*
X52793020Y16882889D01*
X52793020Y16931237D01*
X52862582Y16931237D01*
X52928667Y16926150D01*
X52978764Y16911737D01*
X53009929Y16889271D01*
X53019356Y16863434D01*
X53140955Y16863434D01*
X53138987Y16905353D01*
X53115710Y16961155D01*
X53071948Y17003353D01*
X53065899Y17007192D01*
X53039907Y17019691D01*
X53007735Y17027260D01*
X52962760Y17030939D01*
X52909331Y17031784D01*
X52793020Y17031831D01*
X52793020Y17080589D01*
X52797953Y17118419D01*
X52810543Y17143764D01*
X52812017Y17145113D01*
X52840034Y17156200D01*
X52882326Y17160497D01*
X52929064Y17158385D01*
X52970418Y17150244D01*
X52994957Y17138035D01*
X53008253Y17128254D01*
X53022294Y17126387D01*
X53041671Y17134400D01*
X53070976Y17154261D01*
X53114803Y17187937D01*
X53118825Y17191091D01*
X53116764Y17202764D01*
X53099568Y17222178D01*
X53073433Y17243752D01*
X53044552Y17261904D01*
X53035478Y17266191D01*
X53002380Y17274744D01*
X52953880Y17280845D01*
X52899695Y17283292D01*
X52897161Y17283297D01*
X52819210Y17278445D01*
G36*
X53343759Y18215816D02*
X53317247Y18202718D01*
X53284553Y18179894D01*
X53260725Y18155004D01*
X53244406Y18123751D01*
X53234240Y18081834D01*
X53228872Y18024956D01*
X53226944Y17948816D01*
X53226831Y17916083D01*
X53227161Y17844344D01*
X53228527Y17793073D01*
X53231500Y17757596D01*
X53236649Y17733237D01*
X53244543Y17715320D01*
X53252757Y17703098D01*
X53305187Y17651095D01*
X53366930Y17619816D01*
X53433536Y17610408D01*
X53500558Y17624020D01*
X53521792Y17633646D01*
X53572624Y17660141D01*
X53572624Y17244948D01*
X53535525Y17264132D01*
X53486643Y17278975D01*
X53426561Y17282778D01*
X53366564Y17275757D01*
X53321256Y17259987D01*
X53283675Y17229953D01*
X53251564Y17186976D01*
X53249150Y17182564D01*
X53238967Y17161779D01*
X53231530Y17140830D01*
X53226411Y17115452D01*
X53223181Y17081382D01*
X53221413Y17034359D01*
X53220677Y16970118D01*
X53220544Y16897824D01*
X53220544Y16667178D01*
X53358861Y16667178D01*
X53358861Y17092467D01*
X53397549Y17125021D01*
X53437738Y17151060D01*
X53475797Y17155795D01*
X53514066Y17143611D01*
X53534462Y17131680D01*
X53549642Y17114687D01*
X53560438Y17089005D01*
X53567683Y17051009D01*
X53572208Y16997074D01*
X53574844Y16923575D01*
X53575772Y16874653D01*
X53578911Y16673465D01*
X53644926Y16669664D01*
X53710940Y16665864D01*
X53710940Y17914350D01*
X53572624Y17914350D01*
X53569097Y17844746D01*
X53557215Y17796431D01*
X53535020Y17766369D01*
X53500559Y17751529D01*
X53465742Y17748564D01*
X53426329Y17751972D01*
X53400171Y17765383D01*
X53383814Y17783104D01*
X53370937Y17802165D01*
X53363272Y17823399D01*
X53359861Y17853151D01*
X53359749Y17897764D01*
X53360897Y17935120D01*
X53363532Y17991396D01*
X53367456Y18028342D01*
X53374063Y18051777D01*
X53384749Y18067520D01*
X53394833Y18076620D01*
X53436970Y18096463D01*
X53486840Y18099668D01*
X53515476Y18092832D01*
X53543828Y18068536D01*
X53562609Y18021272D01*
X53571712Y17951376D01*
X53572624Y17914350D01*
X53710940Y17914350D01*
X53710940Y18226386D01*
X53641782Y18226386D01*
X53600260Y18224744D01*
X53578838Y18218913D01*
X53572626Y18207539D01*
X53572624Y18207202D01*
X53569742Y18196062D01*
X53557030Y18197327D01*
X53531757Y18209567D01*
X53472869Y18228293D01*
X53406615Y18230261D01*
X53343759Y18215816D01*
X53343759Y18215816D01*
G37*
X53343759Y18215816D02*
X53317247Y18202718D01*
X53284553Y18179894D01*
X53260725Y18155004D01*
X53244406Y18123751D01*
X53234240Y18081834D01*
X53228872Y18024956D01*
X53226944Y17948816D01*
X53226831Y17916083D01*
X53227161Y17844344D01*
X53228527Y17793073D01*
X53231500Y17757596D01*
X53236649Y17733237D01*
X53244543Y17715320D01*
X53252757Y17703098D01*
X53305187Y17651095D01*
X53366930Y17619816D01*
X53433536Y17610408D01*
X53500558Y17624020D01*
X53521792Y17633646D01*
X53572624Y17660141D01*
X53572624Y17244948D01*
X53535525Y17264132D01*
X53486643Y17278975D01*
X53426561Y17282778D01*
X53366564Y17275757D01*
X53321256Y17259987D01*
X53283675Y17229953D01*
X53251564Y17186976D01*
X53249150Y17182564D01*
X53238967Y17161779D01*
X53231530Y17140830D01*
X53226411Y17115452D01*
X53223181Y17081382D01*
X53221413Y17034359D01*
X53220677Y16970118D01*
X53220544Y16897824D01*
X53220544Y16667178D01*
X53358861Y16667178D01*
X53358861Y17092467D01*
X53397549Y17125021D01*
X53437738Y17151060D01*
X53475797Y17155795D01*
X53514066Y17143611D01*
X53534462Y17131680D01*
X53549642Y17114687D01*
X53560438Y17089005D01*
X53567683Y17051009D01*
X53572208Y16997074D01*
X53574844Y16923575D01*
X53575772Y16874653D01*
X53578911Y16673465D01*
X53644926Y16669664D01*
X53710940Y16665864D01*
X53710940Y17914350D01*
X53572624Y17914350D01*
X53569097Y17844746D01*
X53557215Y17796431D01*
X53535020Y17766369D01*
X53500559Y17751529D01*
X53465742Y17748564D01*
X53426329Y17751972D01*
X53400171Y17765383D01*
X53383814Y17783104D01*
X53370937Y17802165D01*
X53363272Y17823399D01*
X53359861Y17853151D01*
X53359749Y17897764D01*
X53360897Y17935120D01*
X53363532Y17991396D01*
X53367456Y18028342D01*
X53374063Y18051777D01*
X53384749Y18067520D01*
X53394833Y18076620D01*
X53436970Y18096463D01*
X53486840Y18099668D01*
X53515476Y18092832D01*
X53543828Y18068536D01*
X53562609Y18021272D01*
X53571712Y17951376D01*
X53572624Y17914350D01*
X53710940Y17914350D01*
X53710940Y18226386D01*
X53641782Y18226386D01*
X53600260Y18224744D01*
X53578838Y18218913D01*
X53572626Y18207539D01*
X53572624Y18207202D01*
X53569742Y18196062D01*
X53557030Y18197327D01*
X53531757Y18209567D01*
X53472869Y18228293D01*
X53406615Y18230261D01*
X53343759Y18215816D01*
M02*
