%TF.GenerationSoftware,KiCad,Pcbnew,5.0.2-bee76a0~70~ubuntu18.04.1*%
%TF.CreationDate,2019-02-03T14:37:59+02:00*%
%TF.ProjectId,component_tester_adapter,636f6d70-6f6e-4656-9e74-5f7465737465,B*%
%TF.SameCoordinates,PX7e911f8PY6f6d640*%
%TF.FileFunction,Legend,Top*%
%TF.FilePolarity,Positive*%
%FSLAX46Y46*%
G04 Gerber Fmt 4.6, Leading zero omitted, Abs format (unit mm)*
G04 Created by KiCad (PCBNEW 5.0.2-bee76a0~70~ubuntu18.04.1) date 2019 m. vasario 03 d. 14:37:59*
%MOMM*%
%LPD*%
G01*
G04 APERTURE LIST*
%ADD10C,0.300000*%
%ADD11C,0.200000*%
%ADD12C,0.150000*%
%ADD13C,0.120000*%
G04 APERTURE END LIST*
D10*
X25852857Y50264286D02*
X25781428Y50192858D01*
X25567142Y50121429D01*
X25424285Y50121429D01*
X25210000Y50192858D01*
X25067142Y50335715D01*
X24995714Y50478572D01*
X24924285Y50764286D01*
X24924285Y50978572D01*
X24995714Y51264286D01*
X25067142Y51407143D01*
X25210000Y51550000D01*
X25424285Y51621429D01*
X25567142Y51621429D01*
X25781428Y51550000D01*
X25852857Y51478572D01*
X26495714Y50121429D02*
X26495714Y51621429D01*
X27138571Y50121429D02*
X27138571Y50907143D01*
X27067142Y51050000D01*
X26924285Y51121429D01*
X26710000Y51121429D01*
X26567142Y51050000D01*
X26495714Y50978572D01*
X28495714Y50121429D02*
X28495714Y50907143D01*
X28424285Y51050000D01*
X28281428Y51121429D01*
X27995714Y51121429D01*
X27852857Y51050000D01*
X28495714Y50192858D02*
X28352857Y50121429D01*
X27995714Y50121429D01*
X27852857Y50192858D01*
X27781428Y50335715D01*
X27781428Y50478572D01*
X27852857Y50621429D01*
X27995714Y50692858D01*
X28352857Y50692858D01*
X28495714Y50764286D01*
X29210000Y50121429D02*
X29210000Y51121429D01*
X29210000Y50835715D02*
X29281428Y50978572D01*
X29352857Y51050000D01*
X29495714Y51121429D01*
X29638571Y51121429D01*
X30781428Y51121429D02*
X30781428Y49907143D01*
X30710000Y49764286D01*
X30638571Y49692858D01*
X30495714Y49621429D01*
X30281428Y49621429D01*
X30138571Y49692858D01*
X30781428Y50192858D02*
X30638571Y50121429D01*
X30352857Y50121429D01*
X30210000Y50192858D01*
X30138571Y50264286D01*
X30067142Y50407143D01*
X30067142Y50835715D01*
X30138571Y50978572D01*
X30210000Y51050000D01*
X30352857Y51121429D01*
X30638571Y51121429D01*
X30781428Y51050000D01*
X32067142Y50192858D02*
X31924285Y50121429D01*
X31638571Y50121429D01*
X31495714Y50192858D01*
X31424285Y50335715D01*
X31424285Y50907143D01*
X31495714Y51050000D01*
X31638571Y51121429D01*
X31924285Y51121429D01*
X32067142Y51050000D01*
X32138571Y50907143D01*
X32138571Y50764286D01*
X31424285Y50621429D01*
X33424285Y50121429D02*
X33424285Y51621429D01*
X33424285Y50192858D02*
X33281428Y50121429D01*
X32995714Y50121429D01*
X32852857Y50192858D01*
X32781428Y50264286D01*
X32710000Y50407143D01*
X32710000Y50835715D01*
X32781428Y50978572D01*
X32852857Y51050000D01*
X32995714Y51121429D01*
X33281428Y51121429D01*
X33424285Y51050000D01*
X-13378572Y39445000D02*
X-13378572Y40159286D01*
X-11878572Y40159286D01*
X-13378572Y38730715D02*
X-13307143Y38873572D01*
X-13235715Y38945000D01*
X-13092858Y39016429D01*
X-12664286Y39016429D01*
X-12521429Y38945000D01*
X-12450000Y38873572D01*
X-12378572Y38730715D01*
X-12378572Y38516429D01*
X-12450000Y38373572D01*
X-12521429Y38302143D01*
X-12664286Y38230715D01*
X-13092858Y38230715D01*
X-13235715Y38302143D01*
X-13307143Y38373572D01*
X-13378572Y38516429D01*
X-13378572Y38730715D01*
X-12378572Y37730715D02*
X-13378572Y37445000D01*
X-12664286Y37159286D01*
X-13378572Y36873572D01*
X-12378572Y36587858D01*
X-11878572Y35087858D02*
X-13378572Y34587858D01*
X-11878572Y34087858D01*
X-13378572Y33587858D02*
X-12378572Y33587858D01*
X-11878572Y33587858D02*
X-11950000Y33659286D01*
X-12021429Y33587858D01*
X-11950000Y33516429D01*
X-11878572Y33587858D01*
X-12021429Y33587858D01*
X-12378572Y32873572D02*
X-13378572Y32873572D01*
X-12521429Y32873572D02*
X-12450000Y32802143D01*
X-12378572Y32659286D01*
X-12378572Y32445000D01*
X-12450000Y32302143D01*
X-12592858Y32230715D01*
X-13378572Y32230715D01*
X-1206429Y10687858D02*
X-63572Y10687858D01*
X-8826429Y10687858D02*
X-7683572Y10687858D01*
X-8255000Y10116429D02*
X-8255000Y11259286D01*
D11*
X46990000Y-16510000D02*
X4445000Y-16510000D01*
X46990000Y8255000D02*
X46990000Y-16510000D01*
X4445000Y8255000D02*
X46990000Y8255000D01*
X4445000Y-16510000D02*
X4445000Y8255000D01*
D10*
X24078571Y-5123571D02*
X23364285Y-5123571D01*
X23364285Y-3623571D01*
X24578571Y-5123571D02*
X24578571Y-4123571D01*
X24578571Y-3623571D02*
X24507142Y-3695000D01*
X24578571Y-3766428D01*
X24650000Y-3695000D01*
X24578571Y-3623571D01*
X24578571Y-3766428D01*
X25292857Y-5123571D02*
X25292857Y-3623571D01*
X25864285Y-3623571D01*
X26007142Y-3695000D01*
X26078571Y-3766428D01*
X26150000Y-3909285D01*
X26150000Y-4123571D01*
X26078571Y-4266428D01*
X26007142Y-4337857D01*
X25864285Y-4409285D01*
X25292857Y-4409285D01*
X27007142Y-5123571D02*
X26864285Y-5052142D01*
X26792857Y-4980714D01*
X26721428Y-4837857D01*
X26721428Y-4409285D01*
X26792857Y-4266428D01*
X26864285Y-4195000D01*
X27007142Y-4123571D01*
X27221428Y-4123571D01*
X27364285Y-4195000D01*
X27435714Y-4266428D01*
X27507142Y-4409285D01*
X27507142Y-4837857D01*
X27435714Y-4980714D01*
X27364285Y-5052142D01*
X27221428Y-5123571D01*
X27007142Y-5123571D01*
D12*
X7620000Y54680000D02*
X56125000Y54680000D01*
X-15875000Y54680000D02*
X7620000Y54680000D01*
X56125000Y-20320000D02*
X56125000Y54680000D01*
X56125000Y-20320000D02*
X-15875000Y-20320000D01*
X-15875000Y-20320000D02*
X-15875000Y54680000D01*
D13*
X-1885000Y44570000D02*
X-1885000Y49410000D01*
X3155000Y44570000D02*
X3155000Y49410000D01*
X-1885000Y44570000D02*
X-605000Y44570000D01*
X1875000Y44570000D02*
X3155000Y44570000D01*
X-1885000Y49410000D02*
X-1405000Y49410000D01*
X375000Y49410000D02*
X895000Y49410000D01*
X2675000Y49410000D02*
X3155000Y49410000D01*
X-1505000Y44570000D02*
X-1505000Y44570000D01*
X-1505000Y44570000D02*
X-605000Y44570000D01*
X-1505000Y44570000D02*
X-605000Y44570000D01*
X-7265000Y21150000D02*
X-7265000Y23810000D01*
X-9865000Y21150000D02*
X-7265000Y21150000D01*
X-9865000Y23810000D02*
X-7265000Y23810000D01*
X-9865000Y21150000D02*
X-9865000Y23810000D01*
X-11135000Y21150000D02*
X-12465000Y21150000D01*
X-12465000Y21150000D02*
X-12465000Y22480000D01*
X-7045000Y12125000D02*
X-7045000Y9465000D01*
X-4445000Y12125000D02*
X-7045000Y12125000D01*
X-4445000Y9465000D02*
X-7045000Y9465000D01*
X-4445000Y12125000D02*
X-4445000Y9465000D01*
X-3175000Y12125000D02*
X-1845000Y12125000D01*
X-1845000Y12125000D02*
X-1845000Y10795000D01*
X14346422Y30405000D02*
X14863578Y30405000D01*
X14346422Y31825000D02*
X14863578Y31825000D01*
X-9600000Y46731422D02*
X-9600000Y47248578D01*
X-8180000Y46731422D02*
X-8180000Y47248578D01*
X-7060000Y47248578D02*
X-7060000Y46731422D01*
X-5640000Y47248578D02*
X-5640000Y46731422D01*
X-4520000Y46731422D02*
X-4520000Y47248578D01*
X-3100000Y46731422D02*
X-3100000Y47248578D01*
X-5973578Y36120000D02*
X-5456422Y36120000D01*
X-5973578Y37540000D02*
X-5456422Y37540000D01*
X-9783578Y42620000D02*
X-9266422Y42620000D01*
X-9783578Y41200000D02*
X-9266422Y41200000D01*
X-10870000Y38993578D02*
X-10870000Y38476422D01*
X-9450000Y38993578D02*
X-9450000Y38476422D01*
X10536422Y31825000D02*
X11053578Y31825000D01*
X10536422Y30405000D02*
X11053578Y30405000D01*
X19082936Y32660000D02*
X20287064Y32660000D01*
X19082936Y30840000D02*
X20287064Y30840000D01*
X19082936Y39730000D02*
X20287064Y39730000D01*
X19082936Y41550000D02*
X20287064Y41550000D01*
X-11462936Y26395000D02*
X-12667064Y26395000D01*
X-11462936Y28215000D02*
X-12667064Y28215000D01*
X-12005000Y19745000D02*
X-14665000Y19745000D01*
X-12005000Y14605000D02*
X-12005000Y19745000D01*
X-14665000Y14605000D02*
X-14665000Y19745000D01*
X-12005000Y14605000D02*
X-14665000Y14605000D01*
X-12005000Y13335000D02*
X-12005000Y12005000D01*
X-12005000Y12005000D02*
X-13335000Y12005000D01*
X16510000Y50360000D02*
X16890000Y50360000D01*
X16510000Y54410000D02*
X16510000Y54670000D01*
X16510000Y50360000D02*
X16510000Y52130000D01*
X24130000Y50360000D02*
X23750000Y50360000D01*
X24130000Y52130000D02*
X24130000Y50360000D01*
X24130000Y54670000D02*
X24130000Y54410000D01*
X8525000Y33945000D02*
X10525000Y33945000D01*
X10525000Y33945000D02*
X10525000Y37845000D01*
X8525000Y33945000D02*
X8525000Y37845000D01*
X10418578Y39295000D02*
X9901422Y39295000D01*
X10418578Y40715000D02*
X9901422Y40715000D01*
X26255000Y52380000D02*
X28940000Y52380000D01*
X26255000Y54300000D02*
X26255000Y52380000D01*
X28940000Y54300000D02*
X26255000Y54300000D01*
X-13645000Y34892500D02*
X-13645000Y37577500D01*
X-13645000Y37577500D02*
X-15565000Y37577500D01*
X-15565000Y37577500D02*
X-15565000Y34892500D01*
X-4135000Y40765000D02*
X-4135000Y39305000D01*
X-7295000Y40765000D02*
X-7295000Y38605000D01*
X-7295000Y40765000D02*
X-6365000Y40765000D01*
X-4135000Y40765000D02*
X-5065000Y40765000D01*
X-1145000Y38425000D02*
X-1145000Y39355000D01*
X-1145000Y41585000D02*
X-1145000Y40655000D01*
X-1145000Y41585000D02*
X-3305000Y41585000D01*
X-1145000Y38425000D02*
X-2605000Y38425000D01*
X14235000Y37805000D02*
X11785000Y37805000D01*
X12435000Y34585000D02*
X14235000Y34585000D01*
X18710000Y37095000D02*
X18710000Y35295000D01*
X21930000Y35295000D02*
X21930000Y37745000D01*
X24388578Y34215000D02*
X23871422Y34215000D01*
X24388578Y35635000D02*
X23871422Y35635000D01*
X23871422Y36755000D02*
X24388578Y36755000D01*
X23871422Y38175000D02*
X24388578Y38175000D01*
X23871422Y40715000D02*
X24388578Y40715000D01*
X23871422Y39295000D02*
X24388578Y39295000D01*
D12*
X39761Y50982620D02*
X-293572Y51458810D01*
X-531667Y50982620D02*
X-531667Y51982620D01*
X-150715Y51982620D01*
X-55477Y51935000D01*
X-7858Y51887381D01*
X39761Y51792143D01*
X39761Y51649286D01*
X-7858Y51554048D01*
X-55477Y51506429D01*
X-150715Y51458810D01*
X-531667Y51458810D01*
X325476Y51982620D02*
X658809Y50982620D01*
X992142Y51982620D01*
X1849285Y50982620D02*
X1277857Y50982620D01*
X1563571Y50982620D02*
X1563571Y51982620D01*
X1468333Y51839762D01*
X1373095Y51744524D01*
X1277857Y51696905D01*
X-13798334Y23027620D02*
X-13798334Y22313334D01*
X-13845953Y22170477D01*
X-13941191Y22075239D01*
X-14084048Y22027620D01*
X-14179286Y22027620D01*
X-13417381Y23027620D02*
X-12798334Y23027620D01*
X-13131667Y22646667D01*
X-12988810Y22646667D01*
X-12893572Y22599048D01*
X-12845953Y22551429D01*
X-12798334Y22456191D01*
X-12798334Y22218096D01*
X-12845953Y22122858D01*
X-12893572Y22075239D01*
X-12988810Y22027620D01*
X-13274524Y22027620D01*
X-13369762Y22075239D01*
X-13417381Y22122858D01*
X-4778334Y13882620D02*
X-4778334Y13168334D01*
X-4825953Y13025477D01*
X-4921191Y12930239D01*
X-5064048Y12882620D01*
X-5159286Y12882620D01*
X-4349762Y13787381D02*
X-4302143Y13835000D01*
X-4206905Y13882620D01*
X-3968810Y13882620D01*
X-3873572Y13835000D01*
X-3825953Y13787381D01*
X-3778334Y13692143D01*
X-3778334Y13596905D01*
X-3825953Y13454048D01*
X-4397381Y12882620D01*
X-3778334Y12882620D01*
X13962142Y32312620D02*
X13628809Y32788810D01*
X13390714Y32312620D02*
X13390714Y33312620D01*
X13771666Y33312620D01*
X13866904Y33265000D01*
X13914523Y33217381D01*
X13962142Y33122143D01*
X13962142Y32979286D01*
X13914523Y32884048D01*
X13866904Y32836429D01*
X13771666Y32788810D01*
X13390714Y32788810D01*
X14914523Y32312620D02*
X14343095Y32312620D01*
X14628809Y32312620D02*
X14628809Y33312620D01*
X14533571Y33169762D01*
X14438333Y33074524D01*
X14343095Y33026905D01*
X15866904Y32312620D02*
X15295476Y32312620D01*
X15581190Y32312620D02*
X15581190Y33312620D01*
X15485952Y33169762D01*
X15390714Y33074524D01*
X15295476Y33026905D01*
X-9056667Y49077620D02*
X-9390000Y49553810D01*
X-9628096Y49077620D02*
X-9628096Y50077620D01*
X-9247143Y50077620D01*
X-9151905Y50030000D01*
X-9104286Y49982381D01*
X-9056667Y49887143D01*
X-9056667Y49744286D01*
X-9104286Y49649048D01*
X-9151905Y49601429D01*
X-9247143Y49553810D01*
X-9628096Y49553810D01*
X-8199524Y49744286D02*
X-8199524Y49077620D01*
X-8437620Y50125239D02*
X-8675715Y49410953D01*
X-8056667Y49410953D01*
X-6516667Y49077620D02*
X-6850000Y49553810D01*
X-7088096Y49077620D02*
X-7088096Y50077620D01*
X-6707143Y50077620D01*
X-6611905Y50030000D01*
X-6564286Y49982381D01*
X-6516667Y49887143D01*
X-6516667Y49744286D01*
X-6564286Y49649048D01*
X-6611905Y49601429D01*
X-6707143Y49553810D01*
X-7088096Y49553810D01*
X-5611905Y50077620D02*
X-6088096Y50077620D01*
X-6135715Y49601429D01*
X-6088096Y49649048D01*
X-5992858Y49696667D01*
X-5754762Y49696667D01*
X-5659524Y49649048D01*
X-5611905Y49601429D01*
X-5564286Y49506191D01*
X-5564286Y49268096D01*
X-5611905Y49172858D01*
X-5659524Y49125239D01*
X-5754762Y49077620D01*
X-5992858Y49077620D01*
X-6088096Y49125239D01*
X-6135715Y49172858D01*
X-3976667Y49077620D02*
X-4310000Y49553810D01*
X-4548096Y49077620D02*
X-4548096Y50077620D01*
X-4167143Y50077620D01*
X-4071905Y50030000D01*
X-4024286Y49982381D01*
X-3976667Y49887143D01*
X-3976667Y49744286D01*
X-4024286Y49649048D01*
X-4071905Y49601429D01*
X-4167143Y49553810D01*
X-4548096Y49553810D01*
X-3119524Y50077620D02*
X-3310000Y50077620D01*
X-3405239Y50030000D01*
X-3452858Y49982381D01*
X-3548096Y49839524D01*
X-3595715Y49649048D01*
X-3595715Y49268096D01*
X-3548096Y49172858D01*
X-3500477Y49125239D01*
X-3405239Y49077620D01*
X-3214762Y49077620D01*
X-3119524Y49125239D01*
X-3071905Y49172858D01*
X-3024286Y49268096D01*
X-3024286Y49506191D01*
X-3071905Y49601429D01*
X-3119524Y49649048D01*
X-3214762Y49696667D01*
X-3405239Y49696667D01*
X-3500477Y49649048D01*
X-3548096Y49601429D01*
X-3595715Y49506191D01*
X-5881667Y34472620D02*
X-6215000Y34948810D01*
X-6453096Y34472620D02*
X-6453096Y35472620D01*
X-6072143Y35472620D01*
X-5976905Y35425000D01*
X-5929286Y35377381D01*
X-5881667Y35282143D01*
X-5881667Y35139286D01*
X-5929286Y35044048D01*
X-5976905Y34996429D01*
X-6072143Y34948810D01*
X-6453096Y34948810D01*
X-5548334Y35472620D02*
X-4881667Y35472620D01*
X-5310239Y34472620D01*
X-9691667Y43107620D02*
X-10025000Y43583810D01*
X-10263096Y43107620D02*
X-10263096Y44107620D01*
X-9882143Y44107620D01*
X-9786905Y44060000D01*
X-9739286Y44012381D01*
X-9691667Y43917143D01*
X-9691667Y43774286D01*
X-9739286Y43679048D01*
X-9786905Y43631429D01*
X-9882143Y43583810D01*
X-10263096Y43583810D01*
X-9120239Y43679048D02*
X-9215477Y43726667D01*
X-9263096Y43774286D01*
X-9310715Y43869524D01*
X-9310715Y43917143D01*
X-9263096Y44012381D01*
X-9215477Y44060000D01*
X-9120239Y44107620D01*
X-8929762Y44107620D01*
X-8834524Y44060000D01*
X-8786905Y44012381D01*
X-8739286Y43917143D01*
X-8739286Y43869524D01*
X-8786905Y43774286D01*
X-8834524Y43726667D01*
X-8929762Y43679048D01*
X-9120239Y43679048D01*
X-9215477Y43631429D01*
X-9263096Y43583810D01*
X-9310715Y43488572D01*
X-9310715Y43298096D01*
X-9263096Y43202858D01*
X-9215477Y43155239D01*
X-9120239Y43107620D01*
X-8929762Y43107620D01*
X-8834524Y43155239D01*
X-8786905Y43202858D01*
X-8739286Y43298096D01*
X-8739286Y43488572D01*
X-8786905Y43583810D01*
X-8834524Y43631429D01*
X-8929762Y43679048D01*
X-10326667Y35742620D02*
X-10660000Y36218810D01*
X-10898096Y35742620D02*
X-10898096Y36742620D01*
X-10517143Y36742620D01*
X-10421905Y36695000D01*
X-10374286Y36647381D01*
X-10326667Y36552143D01*
X-10326667Y36409286D01*
X-10374286Y36314048D01*
X-10421905Y36266429D01*
X-10517143Y36218810D01*
X-10898096Y36218810D01*
X-9850477Y35742620D02*
X-9660000Y35742620D01*
X-9564762Y35790239D01*
X-9517143Y35837858D01*
X-9421905Y35980715D01*
X-9374286Y36171191D01*
X-9374286Y36552143D01*
X-9421905Y36647381D01*
X-9469524Y36695000D01*
X-9564762Y36742620D01*
X-9755239Y36742620D01*
X-9850477Y36695000D01*
X-9898096Y36647381D01*
X-9945715Y36552143D01*
X-9945715Y36314048D01*
X-9898096Y36218810D01*
X-9850477Y36171191D01*
X-9755239Y36123572D01*
X-9564762Y36123572D01*
X-9469524Y36171191D01*
X-9421905Y36218810D01*
X-9374286Y36314048D01*
X10152142Y32312620D02*
X9818809Y32788810D01*
X9580714Y32312620D02*
X9580714Y33312620D01*
X9961666Y33312620D01*
X10056904Y33265000D01*
X10104523Y33217381D01*
X10152142Y33122143D01*
X10152142Y32979286D01*
X10104523Y32884048D01*
X10056904Y32836429D01*
X9961666Y32788810D01*
X9580714Y32788810D01*
X11104523Y32312620D02*
X10533095Y32312620D01*
X10818809Y32312620D02*
X10818809Y33312620D01*
X10723571Y33169762D01*
X10628333Y33074524D01*
X10533095Y33026905D01*
X11723571Y33312620D02*
X11818809Y33312620D01*
X11914047Y33265000D01*
X11961666Y33217381D01*
X12009285Y33122143D01*
X12056904Y32931667D01*
X12056904Y32693572D01*
X12009285Y32503096D01*
X11961666Y32407858D01*
X11914047Y32360239D01*
X11818809Y32312620D01*
X11723571Y32312620D01*
X11628333Y32360239D01*
X11580714Y32407858D01*
X11533095Y32503096D01*
X11485476Y32693572D01*
X11485476Y32931667D01*
X11533095Y33122143D01*
X11580714Y33217381D01*
X11628333Y33265000D01*
X11723571Y33312620D01*
X19518333Y33212858D02*
X19470714Y33165239D01*
X19327857Y33117620D01*
X19232619Y33117620D01*
X19089761Y33165239D01*
X18994523Y33260477D01*
X18946904Y33355715D01*
X18899285Y33546191D01*
X18899285Y33689048D01*
X18946904Y33879524D01*
X18994523Y33974762D01*
X19089761Y34070000D01*
X19232619Y34117620D01*
X19327857Y34117620D01*
X19470714Y34070000D01*
X19518333Y34022381D01*
X20470714Y33117620D02*
X19899285Y33117620D01*
X20185000Y33117620D02*
X20185000Y34117620D01*
X20089761Y33974762D01*
X19994523Y33879524D01*
X19899285Y33831905D01*
X19518333Y42102858D02*
X19470714Y42055239D01*
X19327857Y42007620D01*
X19232619Y42007620D01*
X19089761Y42055239D01*
X18994523Y42150477D01*
X18946904Y42245715D01*
X18899285Y42436191D01*
X18899285Y42579048D01*
X18946904Y42769524D01*
X18994523Y42864762D01*
X19089761Y42960000D01*
X19232619Y43007620D01*
X19327857Y43007620D01*
X19470714Y42960000D01*
X19518333Y42912381D01*
X19899285Y42912381D02*
X19946904Y42960000D01*
X20042142Y43007620D01*
X20280238Y43007620D01*
X20375476Y42960000D01*
X20423095Y42912381D01*
X20470714Y42817143D01*
X20470714Y42721905D01*
X20423095Y42579048D01*
X19851666Y42007620D01*
X20470714Y42007620D01*
X-13501667Y28852858D02*
X-13549286Y28805239D01*
X-13692143Y28757620D01*
X-13787381Y28757620D01*
X-13930239Y28805239D01*
X-14025477Y28900477D01*
X-14073096Y28995715D01*
X-14120715Y29186191D01*
X-14120715Y29329048D01*
X-14073096Y29519524D01*
X-14025477Y29614762D01*
X-13930239Y29710000D01*
X-13787381Y29757620D01*
X-13692143Y29757620D01*
X-13549286Y29710000D01*
X-13501667Y29662381D01*
X-13168334Y29757620D02*
X-12549286Y29757620D01*
X-12882620Y29376667D01*
X-12739762Y29376667D01*
X-12644524Y29329048D01*
X-12596905Y29281429D01*
X-12549286Y29186191D01*
X-12549286Y28948096D01*
X-12596905Y28852858D01*
X-12644524Y28805239D01*
X-12739762Y28757620D01*
X-13025477Y28757620D01*
X-13120715Y28805239D01*
X-13168334Y28852858D01*
X-11493334Y18645239D02*
X-11350477Y18597620D01*
X-11112381Y18597620D01*
X-11017143Y18645239D01*
X-10969524Y18692858D01*
X-10921905Y18788096D01*
X-10921905Y18883334D01*
X-10969524Y18978572D01*
X-11017143Y19026191D01*
X-11112381Y19073810D01*
X-11302858Y19121429D01*
X-11398096Y19169048D01*
X-11445715Y19216667D01*
X-11493334Y19311905D01*
X-11493334Y19407143D01*
X-11445715Y19502381D01*
X-11398096Y19550000D01*
X-11302858Y19597620D01*
X-11064762Y19597620D01*
X-10921905Y19550000D01*
X-10588572Y19597620D02*
X-10350477Y18597620D01*
X-10160000Y19311905D01*
X-9969524Y18597620D01*
X-9731429Y19597620D01*
X-8826667Y18597620D02*
X-9398096Y18597620D01*
X-9112381Y18597620D02*
X-9112381Y19597620D01*
X-9207620Y19454762D01*
X-9302858Y19359524D01*
X-9398096Y19311905D01*
X19986666Y49317620D02*
X19986666Y48603334D01*
X19939047Y48460477D01*
X19843809Y48365239D01*
X19700952Y48317620D01*
X19605714Y48317620D01*
X20986666Y48317620D02*
X20415238Y48317620D01*
X20700952Y48317620D02*
X20700952Y49317620D01*
X20605714Y49174762D01*
X20510476Y49079524D01*
X20415238Y49031905D01*
X6786904Y35107620D02*
X6786904Y36107620D01*
X7025000Y36107620D01*
X7167857Y36060000D01*
X7263095Y35964762D01*
X7310714Y35869524D01*
X7358333Y35679048D01*
X7358333Y35536191D01*
X7310714Y35345715D01*
X7263095Y35250477D01*
X7167857Y35155239D01*
X7025000Y35107620D01*
X6786904Y35107620D01*
X7691666Y36107620D02*
X8310714Y36107620D01*
X7977380Y35726667D01*
X8120238Y35726667D01*
X8215476Y35679048D01*
X8263095Y35631429D01*
X8310714Y35536191D01*
X8310714Y35298096D01*
X8263095Y35202858D01*
X8215476Y35155239D01*
X8120238Y35107620D01*
X7834523Y35107620D01*
X7739285Y35155239D01*
X7691666Y35202858D01*
X9993333Y41457620D02*
X9517142Y41457620D01*
X9517142Y42457620D01*
X10850476Y41457620D02*
X10279047Y41457620D01*
X10564761Y41457620D02*
X10564761Y42457620D01*
X10469523Y42314762D01*
X10374285Y42219524D01*
X10279047Y42171905D01*
X30376904Y52887620D02*
X30376904Y53887620D01*
X30615000Y53887620D01*
X30757857Y53840000D01*
X30853095Y53744762D01*
X30900714Y53649524D01*
X30948333Y53459048D01*
X30948333Y53316191D01*
X30900714Y53125715D01*
X30853095Y53030477D01*
X30757857Y52935239D01*
X30615000Y52887620D01*
X30376904Y52887620D01*
X31900714Y52887620D02*
X31329285Y52887620D01*
X31615000Y52887620D02*
X31615000Y53887620D01*
X31519761Y53744762D01*
X31424523Y53649524D01*
X31329285Y53601905D01*
X-15343096Y38282620D02*
X-15343096Y39282620D01*
X-15105000Y39282620D01*
X-14962143Y39235000D01*
X-14866905Y39139762D01*
X-14819286Y39044524D01*
X-14771667Y38854048D01*
X-14771667Y38711191D01*
X-14819286Y38520715D01*
X-14866905Y38425477D01*
X-14962143Y38330239D01*
X-15105000Y38282620D01*
X-15343096Y38282620D01*
X-14390715Y39187381D02*
X-14343096Y39235000D01*
X-14247858Y39282620D01*
X-14009762Y39282620D01*
X-13914524Y39235000D01*
X-13866905Y39187381D01*
X-13819286Y39092143D01*
X-13819286Y38996905D01*
X-13866905Y38854048D01*
X-14438334Y38282620D01*
X-13819286Y38282620D01*
X-5810239Y41997381D02*
X-5905477Y42045000D01*
X-6000715Y42140239D01*
X-6143572Y42283096D01*
X-6238810Y42330715D01*
X-6334048Y42330715D01*
X-6286429Y42092620D02*
X-6381667Y42140239D01*
X-6476905Y42235477D01*
X-6524524Y42425953D01*
X-6524524Y42759286D01*
X-6476905Y42949762D01*
X-6381667Y43045000D01*
X-6286429Y43092620D01*
X-6095953Y43092620D01*
X-6000715Y43045000D01*
X-5905477Y42949762D01*
X-5857858Y42759286D01*
X-5857858Y42425953D01*
X-5905477Y42235477D01*
X-6000715Y42140239D01*
X-6095953Y42092620D01*
X-6286429Y42092620D01*
X-4905477Y42092620D02*
X-5476905Y42092620D01*
X-5191191Y42092620D02*
X-5191191Y43092620D01*
X-5286429Y42949762D01*
X-5381667Y42854524D01*
X-5476905Y42806905D01*
X-2000239Y41957381D02*
X-2095477Y42005000D01*
X-2190715Y42100239D01*
X-2333572Y42243096D01*
X-2428810Y42290715D01*
X-2524048Y42290715D01*
X-2476429Y42052620D02*
X-2571667Y42100239D01*
X-2666905Y42195477D01*
X-2714524Y42385953D01*
X-2714524Y42719286D01*
X-2666905Y42909762D01*
X-2571667Y43005000D01*
X-2476429Y43052620D01*
X-2285953Y43052620D01*
X-2190715Y43005000D01*
X-2095477Y42909762D01*
X-2047858Y42719286D01*
X-2047858Y42385953D01*
X-2095477Y42195477D01*
X-2190715Y42100239D01*
X-2285953Y42052620D01*
X-2476429Y42052620D01*
X-1666905Y42957381D02*
X-1619286Y43005000D01*
X-1524048Y43052620D01*
X-1285953Y43052620D01*
X-1190715Y43005000D01*
X-1143096Y42957381D01*
X-1095477Y42862143D01*
X-1095477Y42766905D01*
X-1143096Y42624048D01*
X-1714524Y42052620D01*
X-1095477Y42052620D01*
X12573095Y39282620D02*
X12573095Y38473096D01*
X12620714Y38377858D01*
X12668333Y38330239D01*
X12763571Y38282620D01*
X12954047Y38282620D01*
X13049285Y38330239D01*
X13096904Y38377858D01*
X13144523Y38473096D01*
X13144523Y39282620D01*
X13573095Y39187381D02*
X13620714Y39235000D01*
X13715952Y39282620D01*
X13954047Y39282620D01*
X14049285Y39235000D01*
X14096904Y39187381D01*
X14144523Y39092143D01*
X14144523Y38996905D01*
X14096904Y38854048D01*
X13525476Y38282620D01*
X14144523Y38282620D01*
X19558095Y39282620D02*
X19558095Y38473096D01*
X19605714Y38377858D01*
X19653333Y38330239D01*
X19748571Y38282620D01*
X19939047Y38282620D01*
X20034285Y38330239D01*
X20081904Y38377858D01*
X20129523Y38473096D01*
X20129523Y39282620D01*
X21129523Y38282620D02*
X20558095Y38282620D01*
X20843809Y38282620D02*
X20843809Y39282620D01*
X20748571Y39139762D01*
X20653333Y39044524D01*
X20558095Y38996905D01*
X27138333Y34472620D02*
X26805000Y34948810D01*
X26566904Y34472620D02*
X26566904Y35472620D01*
X26947857Y35472620D01*
X27043095Y35425000D01*
X27090714Y35377381D01*
X27138333Y35282143D01*
X27138333Y35139286D01*
X27090714Y35044048D01*
X27043095Y34996429D01*
X26947857Y34948810D01*
X26566904Y34948810D01*
X27519285Y35377381D02*
X27566904Y35425000D01*
X27662142Y35472620D01*
X27900238Y35472620D01*
X27995476Y35425000D01*
X28043095Y35377381D01*
X28090714Y35282143D01*
X28090714Y35186905D01*
X28043095Y35044048D01*
X27471666Y34472620D01*
X28090714Y34472620D01*
X27138333Y37012620D02*
X26805000Y37488810D01*
X26566904Y37012620D02*
X26566904Y38012620D01*
X26947857Y38012620D01*
X27043095Y37965000D01*
X27090714Y37917381D01*
X27138333Y37822143D01*
X27138333Y37679286D01*
X27090714Y37584048D01*
X27043095Y37536429D01*
X26947857Y37488810D01*
X26566904Y37488810D01*
X28090714Y37012620D02*
X27519285Y37012620D01*
X27805000Y37012620D02*
X27805000Y38012620D01*
X27709761Y37869762D01*
X27614523Y37774524D01*
X27519285Y37726905D01*
X27138333Y39552620D02*
X26805000Y40028810D01*
X26566904Y39552620D02*
X26566904Y40552620D01*
X26947857Y40552620D01*
X27043095Y40505000D01*
X27090714Y40457381D01*
X27138333Y40362143D01*
X27138333Y40219286D01*
X27090714Y40124048D01*
X27043095Y40076429D01*
X26947857Y40028810D01*
X26566904Y40028810D01*
X27471666Y40552620D02*
X28090714Y40552620D01*
X27757380Y40171667D01*
X27900238Y40171667D01*
X27995476Y40124048D01*
X28043095Y40076429D01*
X28090714Y39981191D01*
X28090714Y39743096D01*
X28043095Y39647858D01*
X27995476Y39600239D01*
X27900238Y39552620D01*
X27614523Y39552620D01*
X27519285Y39600239D01*
X27471666Y39647858D01*
M02*
