M48
INCH,TZ
T1C0.0157
T2C0.0276
T3C0.0394
T4C0.1181
%
G90
G05
T1
X-4000Y12500
X-2750Y9750
X-1500Y11500
X-1500Y9750
X-1000Y14500
X1250Y12500
X2250Y7750
X2250Y4250
X2750Y15000
X4000Y19000
X6500Y14250
X8500Y18250
X10000Y12500
X10250Y18250
X11750Y7750
T2
X0Y750
X0Y-4500
X4000Y4000
X4000Y-7250
X16250Y4000
X16250Y-7250
X19250Y750
X19250Y-4500
T3
X-2250Y4250
X-1250Y4250
X-4384Y8850
X-3384Y8850
X-5250Y7250
X-5250Y6250
X-5250Y5250
T4
X-5344Y20543
X-5344Y-7016
X21112Y20543
X21112Y-7016
T0
M30
