%TF.GenerationSoftware,KiCad,Pcbnew,5.0.2-bee76a0~70~ubuntu18.04.1*%
%TF.CreationDate,2019-02-03T14:37:59+02:00*%
%TF.ProjectId,component_tester_adapter,636f6d70-6f6e-4656-9e74-5f7465737465,B*%
%TF.SameCoordinates,PX7e911f8PY6f6d640*%
%TF.FileFunction,Copper,L2,Bot*%
%TF.FilePolarity,Positive*%
%FSLAX46Y46*%
G04 Gerber Fmt 4.6, Leading zero omitted, Abs format (unit mm)*
G04 Created by KiCad (PCBNEW 5.0.2-bee76a0~70~ubuntu18.04.1) date 2019 m. vasario 03 d. 14:37:59*
%MOMM*%
%LPD*%
G01*
G04 APERTURE LIST*
%ADD10C,0.150000*%
%ADD11R,1.700000X1.700000*%
%ADD12O,1.700000X1.700000*%
%ADD13C,3.500000*%
%ADD14C,0.800000*%
%ADD15C,1.200000*%
%ADD16C,0.250000*%
%ADD17C,0.200000*%
G04 APERTURE END LIST*
D10*
X7620000Y54680000D02*
X56125000Y54680000D01*
X-15875000Y54680000D02*
X7620000Y54680000D01*
X56125000Y-20320000D02*
X56125000Y54680000D01*
X56125000Y-20320000D02*
X-15875000Y-20320000D01*
X-15875000Y-20320000D02*
X-15875000Y54680000D01*
D11*
X-11135000Y22480000D03*
D12*
X-8595000Y22480000D03*
D11*
X-3175000Y10795000D03*
D12*
X-5715000Y10795000D03*
D11*
X-13335000Y13335000D03*
D12*
X-13335000Y15875000D03*
X-13335000Y18415000D03*
D13*
X-13575000Y52180000D03*
X53625000Y52180000D03*
X53625000Y-17820000D03*
X-13575000Y-17820000D03*
D14*
X5715000Y19685000D03*
X3175000Y31750000D03*
X-10160000Y31750000D03*
X-2540000Y36830000D03*
X10160000Y48260000D03*
X26035000Y46355000D03*
X25400000Y31750000D03*
X6985000Y38100000D03*
X29845000Y19685000D03*
X5715000Y10795000D03*
X-6985000Y24765000D03*
D15*
X10160000Y-18415000D03*
X41275000Y-18415000D03*
X41275000Y10160000D03*
X10160000Y10160000D03*
X48895000Y1905000D03*
X0Y1905000D03*
X0Y-11430000D03*
X48895000Y-11430000D03*
D14*
X-3810000Y24765000D03*
X-3810000Y29210000D03*
X21590000Y46355000D03*
X16510000Y36195000D03*
D16*
X-3810000Y24765000D02*
X-3810000Y28575000D01*
X-3810000Y28575000D02*
X-3810000Y29210000D01*
X21590000Y46355000D02*
X16510000Y41275000D01*
X16510000Y41275000D02*
X16510000Y36195000D01*
D17*
G36*
X52433180Y53963685D02*
X51841315Y53371820D01*
X51521000Y52598512D01*
X51521000Y51761488D01*
X51841315Y50988180D01*
X52433180Y50396315D01*
X53206488Y50076000D01*
X54043512Y50076000D01*
X54816820Y50396315D01*
X55408685Y50988180D01*
X55696001Y51681821D01*
X55696000Y-17321819D01*
X55408685Y-16628180D01*
X54816820Y-16036315D01*
X54043512Y-15716000D01*
X53206488Y-15716000D01*
X52433180Y-16036315D01*
X51841315Y-16628180D01*
X51521000Y-17401488D01*
X51521000Y-18238512D01*
X51841315Y-19011820D01*
X52433180Y-19603685D01*
X53126819Y-19891000D01*
X-13076819Y-19891000D01*
X-12383180Y-19603685D01*
X-11791315Y-19011820D01*
X-11471000Y-18238512D01*
X-11471000Y-17401488D01*
X-11791315Y-16628180D01*
X-12383180Y-16036315D01*
X-13156488Y-15716000D01*
X-13993512Y-15716000D01*
X-14766820Y-16036315D01*
X-15358685Y-16628180D01*
X-15446000Y-16838977D01*
X-15446000Y10795000D01*
X-6942587Y10795000D01*
X-6849143Y10325223D01*
X-6583035Y9926965D01*
X-6184777Y9660857D01*
X-5833580Y9591000D01*
X-5596420Y9591000D01*
X-5245223Y9660857D01*
X-4846965Y9926965D01*
X-4580857Y10325223D01*
X-4510388Y10679500D01*
X-4379000Y10679500D01*
X-4379000Y9874585D01*
X-4325107Y9744475D01*
X-4225525Y9644893D01*
X-4095415Y9591000D01*
X-3290500Y9591000D01*
X-3202000Y9679500D01*
X-3202000Y10768000D01*
X-3148000Y10768000D01*
X-3148000Y9679500D01*
X-3059500Y9591000D01*
X-2254585Y9591000D01*
X-2124475Y9644893D01*
X-2024893Y9744475D01*
X-1971000Y9874585D01*
X-1971000Y10679500D01*
X-2059500Y10768000D01*
X-3148000Y10768000D01*
X-3202000Y10768000D01*
X-4290500Y10768000D01*
X-4379000Y10679500D01*
X-4510388Y10679500D01*
X-4487413Y10795000D01*
X-4580857Y11264777D01*
X-4846965Y11663035D01*
X-4925357Y11715415D01*
X-4379000Y11715415D01*
X-4379000Y10910500D01*
X-4290500Y10822000D01*
X-3202000Y10822000D01*
X-3202000Y11910500D01*
X-3148000Y11910500D01*
X-3148000Y10822000D01*
X-2059500Y10822000D01*
X-1971000Y10910500D01*
X-1971000Y11715415D01*
X-2024893Y11845525D01*
X-2124475Y11945107D01*
X-2254585Y11999000D01*
X-3059500Y11999000D01*
X-3148000Y11910500D01*
X-3202000Y11910500D01*
X-3290500Y11999000D01*
X-4095415Y11999000D01*
X-4225525Y11945107D01*
X-4325107Y11845525D01*
X-4379000Y11715415D01*
X-4925357Y11715415D01*
X-5245223Y11929143D01*
X-5596420Y11999000D01*
X-5833580Y11999000D01*
X-6184777Y11929143D01*
X-6583035Y11663035D01*
X-6849143Y11264777D01*
X-6942587Y10795000D01*
X-15446000Y10795000D01*
X-15446000Y14185000D01*
X-14545935Y14185000D01*
X-14545935Y12485000D01*
X-14518460Y12346876D01*
X-14440220Y12229780D01*
X-14323124Y12151540D01*
X-14185000Y12124065D01*
X-12485000Y12124065D01*
X-12346876Y12151540D01*
X-12229780Y12229780D01*
X-12151540Y12346876D01*
X-12124065Y12485000D01*
X-12124065Y14185000D01*
X-12151540Y14323124D01*
X-12229780Y14440220D01*
X-12346876Y14518460D01*
X-12485000Y14545935D01*
X-14185000Y14545935D01*
X-14323124Y14518460D01*
X-14440220Y14440220D01*
X-14518460Y14323124D01*
X-14545935Y14185000D01*
X-15446000Y14185000D01*
X-15446000Y15875000D01*
X-14562587Y15875000D01*
X-14469143Y15405223D01*
X-14203035Y15006965D01*
X-13804777Y14740857D01*
X-13453580Y14671000D01*
X-13216420Y14671000D01*
X-12865223Y14740857D01*
X-12466965Y15006965D01*
X-12200857Y15405223D01*
X-12107413Y15875000D01*
X-12200857Y16344777D01*
X-12466965Y16743035D01*
X-12865223Y17009143D01*
X-13216420Y17079000D01*
X-13453580Y17079000D01*
X-13804777Y17009143D01*
X-14203035Y16743035D01*
X-14469143Y16344777D01*
X-14562587Y15875000D01*
X-15446000Y15875000D01*
X-15446000Y18415000D01*
X-14562587Y18415000D01*
X-14469143Y17945223D01*
X-14203035Y17546965D01*
X-13804777Y17280857D01*
X-13453580Y17211000D01*
X-13216420Y17211000D01*
X-12865223Y17280857D01*
X-12466965Y17546965D01*
X-12200857Y17945223D01*
X-12107413Y18415000D01*
X-12200857Y18884777D01*
X-12466965Y19283035D01*
X-12865223Y19549143D01*
X-13216420Y19619000D01*
X-13453580Y19619000D01*
X-13804777Y19549143D01*
X-14203035Y19283035D01*
X-14469143Y18884777D01*
X-14562587Y18415000D01*
X-15446000Y18415000D01*
X-15446000Y23330000D01*
X-12345935Y23330000D01*
X-12345935Y21630000D01*
X-12318460Y21491876D01*
X-12240220Y21374780D01*
X-12123124Y21296540D01*
X-11985000Y21269065D01*
X-10285000Y21269065D01*
X-10146876Y21296540D01*
X-10029780Y21374780D01*
X-9951540Y21491876D01*
X-9924065Y21630000D01*
X-9924065Y22265032D01*
X-9779657Y22265032D01*
X-9607216Y21828047D01*
X-9280674Y21490316D01*
X-8849745Y21303255D01*
X-8809967Y21295346D01*
X-8622000Y21364827D01*
X-8622000Y22453000D01*
X-8568000Y22453000D01*
X-8568000Y21364827D01*
X-8380033Y21295346D01*
X-8340255Y21303255D01*
X-7909326Y21490316D01*
X-7582784Y21828047D01*
X-7410343Y22265032D01*
X-7479800Y22453000D01*
X-8568000Y22453000D01*
X-8622000Y22453000D01*
X-9710200Y22453000D01*
X-9779657Y22265032D01*
X-9924065Y22265032D01*
X-9924065Y22694968D01*
X-9779657Y22694968D01*
X-9710200Y22507000D01*
X-8622000Y22507000D01*
X-8622000Y23595173D01*
X-8568000Y23595173D01*
X-8568000Y22507000D01*
X-7479800Y22507000D01*
X-7410343Y22694968D01*
X-7582784Y23131953D01*
X-7909326Y23469684D01*
X-8340255Y23656745D01*
X-8380033Y23664654D01*
X-8568000Y23595173D01*
X-8622000Y23595173D01*
X-8809967Y23664654D01*
X-8849745Y23656745D01*
X-9280674Y23469684D01*
X-9607216Y23131953D01*
X-9779657Y22694968D01*
X-9924065Y22694968D01*
X-9924065Y23330000D01*
X-9951540Y23468124D01*
X-10029780Y23585220D01*
X-10146876Y23663460D01*
X-10285000Y23690935D01*
X-11985000Y23690935D01*
X-12123124Y23663460D01*
X-12240220Y23585220D01*
X-12318460Y23468124D01*
X-12345935Y23330000D01*
X-15446000Y23330000D01*
X-15446000Y29359980D01*
X-4564000Y29359980D01*
X-4564000Y29060020D01*
X-4449211Y28782893D01*
X-4289000Y28622682D01*
X-4289000Y28527825D01*
X-4288999Y28527820D01*
X-4289000Y25352318D01*
X-4449211Y25192107D01*
X-4564000Y24914980D01*
X-4564000Y24615020D01*
X-4449211Y24337893D01*
X-4237107Y24125789D01*
X-3959980Y24011000D01*
X-3660020Y24011000D01*
X-3382893Y24125789D01*
X-3170789Y24337893D01*
X-3056000Y24615020D01*
X-3056000Y24914980D01*
X-3170789Y25192107D01*
X-3331000Y25352318D01*
X-3331000Y28622682D01*
X-3170789Y28782893D01*
X-3056000Y29060020D01*
X-3056000Y29359980D01*
X-3170789Y29637107D01*
X-3382893Y29849211D01*
X-3660020Y29964000D01*
X-3959980Y29964000D01*
X-4237107Y29849211D01*
X-4449211Y29637107D01*
X-4564000Y29359980D01*
X-15446000Y29359980D01*
X-15446000Y36344980D01*
X15756000Y36344980D01*
X15756000Y36045020D01*
X15870789Y35767893D01*
X16082893Y35555789D01*
X16360020Y35441000D01*
X16659980Y35441000D01*
X16937107Y35555789D01*
X17149211Y35767893D01*
X17264000Y36045020D01*
X17264000Y36344980D01*
X17149211Y36622107D01*
X16989000Y36782318D01*
X16989000Y41076593D01*
X21513408Y45601000D01*
X21739980Y45601000D01*
X22017107Y45715789D01*
X22229211Y45927893D01*
X22344000Y46205020D01*
X22344000Y46504980D01*
X22229211Y46782107D01*
X22017107Y46994211D01*
X21739980Y47109000D01*
X21440020Y47109000D01*
X21162893Y46994211D01*
X20950789Y46782107D01*
X20836000Y46504980D01*
X20836000Y46278408D01*
X16204660Y41647067D01*
X16164660Y41620340D01*
X16058792Y41461895D01*
X16032256Y41328491D01*
X16021616Y41275000D01*
X16031000Y41227825D01*
X16031001Y36782319D01*
X15870789Y36622107D01*
X15756000Y36344980D01*
X-15446000Y36344980D01*
X-15446000Y51198977D01*
X-15358685Y50988180D01*
X-14766820Y50396315D01*
X-13993512Y50076000D01*
X-13156488Y50076000D01*
X-12383180Y50396315D01*
X-11791315Y50988180D01*
X-11471000Y51761488D01*
X-11471000Y52598512D01*
X-11791315Y53371820D01*
X-12383180Y53963685D01*
X-13076819Y54251000D01*
X53126819Y54251000D01*
X52433180Y53963685D01*
X52433180Y53963685D01*
G37*
X52433180Y53963685D02*
X51841315Y53371820D01*
X51521000Y52598512D01*
X51521000Y51761488D01*
X51841315Y50988180D01*
X52433180Y50396315D01*
X53206488Y50076000D01*
X54043512Y50076000D01*
X54816820Y50396315D01*
X55408685Y50988180D01*
X55696001Y51681821D01*
X55696000Y-17321819D01*
X55408685Y-16628180D01*
X54816820Y-16036315D01*
X54043512Y-15716000D01*
X53206488Y-15716000D01*
X52433180Y-16036315D01*
X51841315Y-16628180D01*
X51521000Y-17401488D01*
X51521000Y-18238512D01*
X51841315Y-19011820D01*
X52433180Y-19603685D01*
X53126819Y-19891000D01*
X-13076819Y-19891000D01*
X-12383180Y-19603685D01*
X-11791315Y-19011820D01*
X-11471000Y-18238512D01*
X-11471000Y-17401488D01*
X-11791315Y-16628180D01*
X-12383180Y-16036315D01*
X-13156488Y-15716000D01*
X-13993512Y-15716000D01*
X-14766820Y-16036315D01*
X-15358685Y-16628180D01*
X-15446000Y-16838977D01*
X-15446000Y10795000D01*
X-6942587Y10795000D01*
X-6849143Y10325223D01*
X-6583035Y9926965D01*
X-6184777Y9660857D01*
X-5833580Y9591000D01*
X-5596420Y9591000D01*
X-5245223Y9660857D01*
X-4846965Y9926965D01*
X-4580857Y10325223D01*
X-4510388Y10679500D01*
X-4379000Y10679500D01*
X-4379000Y9874585D01*
X-4325107Y9744475D01*
X-4225525Y9644893D01*
X-4095415Y9591000D01*
X-3290500Y9591000D01*
X-3202000Y9679500D01*
X-3202000Y10768000D01*
X-3148000Y10768000D01*
X-3148000Y9679500D01*
X-3059500Y9591000D01*
X-2254585Y9591000D01*
X-2124475Y9644893D01*
X-2024893Y9744475D01*
X-1971000Y9874585D01*
X-1971000Y10679500D01*
X-2059500Y10768000D01*
X-3148000Y10768000D01*
X-3202000Y10768000D01*
X-4290500Y10768000D01*
X-4379000Y10679500D01*
X-4510388Y10679500D01*
X-4487413Y10795000D01*
X-4580857Y11264777D01*
X-4846965Y11663035D01*
X-4925357Y11715415D01*
X-4379000Y11715415D01*
X-4379000Y10910500D01*
X-4290500Y10822000D01*
X-3202000Y10822000D01*
X-3202000Y11910500D01*
X-3148000Y11910500D01*
X-3148000Y10822000D01*
X-2059500Y10822000D01*
X-1971000Y10910500D01*
X-1971000Y11715415D01*
X-2024893Y11845525D01*
X-2124475Y11945107D01*
X-2254585Y11999000D01*
X-3059500Y11999000D01*
X-3148000Y11910500D01*
X-3202000Y11910500D01*
X-3290500Y11999000D01*
X-4095415Y11999000D01*
X-4225525Y11945107D01*
X-4325107Y11845525D01*
X-4379000Y11715415D01*
X-4925357Y11715415D01*
X-5245223Y11929143D01*
X-5596420Y11999000D01*
X-5833580Y11999000D01*
X-6184777Y11929143D01*
X-6583035Y11663035D01*
X-6849143Y11264777D01*
X-6942587Y10795000D01*
X-15446000Y10795000D01*
X-15446000Y14185000D01*
X-14545935Y14185000D01*
X-14545935Y12485000D01*
X-14518460Y12346876D01*
X-14440220Y12229780D01*
X-14323124Y12151540D01*
X-14185000Y12124065D01*
X-12485000Y12124065D01*
X-12346876Y12151540D01*
X-12229780Y12229780D01*
X-12151540Y12346876D01*
X-12124065Y12485000D01*
X-12124065Y14185000D01*
X-12151540Y14323124D01*
X-12229780Y14440220D01*
X-12346876Y14518460D01*
X-12485000Y14545935D01*
X-14185000Y14545935D01*
X-14323124Y14518460D01*
X-14440220Y14440220D01*
X-14518460Y14323124D01*
X-14545935Y14185000D01*
X-15446000Y14185000D01*
X-15446000Y15875000D01*
X-14562587Y15875000D01*
X-14469143Y15405223D01*
X-14203035Y15006965D01*
X-13804777Y14740857D01*
X-13453580Y14671000D01*
X-13216420Y14671000D01*
X-12865223Y14740857D01*
X-12466965Y15006965D01*
X-12200857Y15405223D01*
X-12107413Y15875000D01*
X-12200857Y16344777D01*
X-12466965Y16743035D01*
X-12865223Y17009143D01*
X-13216420Y17079000D01*
X-13453580Y17079000D01*
X-13804777Y17009143D01*
X-14203035Y16743035D01*
X-14469143Y16344777D01*
X-14562587Y15875000D01*
X-15446000Y15875000D01*
X-15446000Y18415000D01*
X-14562587Y18415000D01*
X-14469143Y17945223D01*
X-14203035Y17546965D01*
X-13804777Y17280857D01*
X-13453580Y17211000D01*
X-13216420Y17211000D01*
X-12865223Y17280857D01*
X-12466965Y17546965D01*
X-12200857Y17945223D01*
X-12107413Y18415000D01*
X-12200857Y18884777D01*
X-12466965Y19283035D01*
X-12865223Y19549143D01*
X-13216420Y19619000D01*
X-13453580Y19619000D01*
X-13804777Y19549143D01*
X-14203035Y19283035D01*
X-14469143Y18884777D01*
X-14562587Y18415000D01*
X-15446000Y18415000D01*
X-15446000Y23330000D01*
X-12345935Y23330000D01*
X-12345935Y21630000D01*
X-12318460Y21491876D01*
X-12240220Y21374780D01*
X-12123124Y21296540D01*
X-11985000Y21269065D01*
X-10285000Y21269065D01*
X-10146876Y21296540D01*
X-10029780Y21374780D01*
X-9951540Y21491876D01*
X-9924065Y21630000D01*
X-9924065Y22265032D01*
X-9779657Y22265032D01*
X-9607216Y21828047D01*
X-9280674Y21490316D01*
X-8849745Y21303255D01*
X-8809967Y21295346D01*
X-8622000Y21364827D01*
X-8622000Y22453000D01*
X-8568000Y22453000D01*
X-8568000Y21364827D01*
X-8380033Y21295346D01*
X-8340255Y21303255D01*
X-7909326Y21490316D01*
X-7582784Y21828047D01*
X-7410343Y22265032D01*
X-7479800Y22453000D01*
X-8568000Y22453000D01*
X-8622000Y22453000D01*
X-9710200Y22453000D01*
X-9779657Y22265032D01*
X-9924065Y22265032D01*
X-9924065Y22694968D01*
X-9779657Y22694968D01*
X-9710200Y22507000D01*
X-8622000Y22507000D01*
X-8622000Y23595173D01*
X-8568000Y23595173D01*
X-8568000Y22507000D01*
X-7479800Y22507000D01*
X-7410343Y22694968D01*
X-7582784Y23131953D01*
X-7909326Y23469684D01*
X-8340255Y23656745D01*
X-8380033Y23664654D01*
X-8568000Y23595173D01*
X-8622000Y23595173D01*
X-8809967Y23664654D01*
X-8849745Y23656745D01*
X-9280674Y23469684D01*
X-9607216Y23131953D01*
X-9779657Y22694968D01*
X-9924065Y22694968D01*
X-9924065Y23330000D01*
X-9951540Y23468124D01*
X-10029780Y23585220D01*
X-10146876Y23663460D01*
X-10285000Y23690935D01*
X-11985000Y23690935D01*
X-12123124Y23663460D01*
X-12240220Y23585220D01*
X-12318460Y23468124D01*
X-12345935Y23330000D01*
X-15446000Y23330000D01*
X-15446000Y29359980D01*
X-4564000Y29359980D01*
X-4564000Y29060020D01*
X-4449211Y28782893D01*
X-4289000Y28622682D01*
X-4289000Y28527825D01*
X-4288999Y28527820D01*
X-4289000Y25352318D01*
X-4449211Y25192107D01*
X-4564000Y24914980D01*
X-4564000Y24615020D01*
X-4449211Y24337893D01*
X-4237107Y24125789D01*
X-3959980Y24011000D01*
X-3660020Y24011000D01*
X-3382893Y24125789D01*
X-3170789Y24337893D01*
X-3056000Y24615020D01*
X-3056000Y24914980D01*
X-3170789Y25192107D01*
X-3331000Y25352318D01*
X-3331000Y28622682D01*
X-3170789Y28782893D01*
X-3056000Y29060020D01*
X-3056000Y29359980D01*
X-3170789Y29637107D01*
X-3382893Y29849211D01*
X-3660020Y29964000D01*
X-3959980Y29964000D01*
X-4237107Y29849211D01*
X-4449211Y29637107D01*
X-4564000Y29359980D01*
X-15446000Y29359980D01*
X-15446000Y36344980D01*
X15756000Y36344980D01*
X15756000Y36045020D01*
X15870789Y35767893D01*
X16082893Y35555789D01*
X16360020Y35441000D01*
X16659980Y35441000D01*
X16937107Y35555789D01*
X17149211Y35767893D01*
X17264000Y36045020D01*
X17264000Y36344980D01*
X17149211Y36622107D01*
X16989000Y36782318D01*
X16989000Y41076593D01*
X21513408Y45601000D01*
X21739980Y45601000D01*
X22017107Y45715789D01*
X22229211Y45927893D01*
X22344000Y46205020D01*
X22344000Y46504980D01*
X22229211Y46782107D01*
X22017107Y46994211D01*
X21739980Y47109000D01*
X21440020Y47109000D01*
X21162893Y46994211D01*
X20950789Y46782107D01*
X20836000Y46504980D01*
X20836000Y46278408D01*
X16204660Y41647067D01*
X16164660Y41620340D01*
X16058792Y41461895D01*
X16032256Y41328491D01*
X16021616Y41275000D01*
X16031000Y41227825D01*
X16031001Y36782319D01*
X15870789Y36622107D01*
X15756000Y36344980D01*
X-15446000Y36344980D01*
X-15446000Y51198977D01*
X-15358685Y50988180D01*
X-14766820Y50396315D01*
X-13993512Y50076000D01*
X-13156488Y50076000D01*
X-12383180Y50396315D01*
X-11791315Y50988180D01*
X-11471000Y51761488D01*
X-11471000Y52598512D01*
X-11791315Y53371820D01*
X-12383180Y53963685D01*
X-13076819Y54251000D01*
X53126819Y54251000D01*
X52433180Y53963685D01*
M02*
