G04 #@! TF.GenerationSoftware,KiCad,Pcbnew,5.0.2-bee76a0~70~ubuntu18.04.1*
G04 #@! TF.CreationDate,2018-12-13T21:58:58+02:00*
G04 #@! TF.ProjectId,component_tester_adapter,636f6d70-6f6e-4656-9e74-5f7465737465,rev?*
G04 #@! TF.SameCoordinates,Original*
G04 #@! TF.FileFunction,Legend,Top*
G04 #@! TF.FilePolarity,Positive*
%FSLAX46Y46*%
G04 Gerber Fmt 4.6, Leading zero omitted, Abs format (unit mm)*
G04 Created by KiCad (PCBNEW 5.0.2-bee76a0~70~ubuntu18.04.1) date Thu 13 Dec 2018 09:58:58 PM EET*
%MOMM*%
%LPD*%
G01*
G04 APERTURE LIST*
%ADD10C,0.300000*%
%ADD11C,0.200000*%
%ADD12C,0.120000*%
%ADD13C,0.150000*%
G04 APERTURE END LIST*
D10*
X179130000Y-46255714D02*
X179058571Y-46327142D01*
X178844285Y-46398571D01*
X178701428Y-46398571D01*
X178487142Y-46327142D01*
X178344285Y-46184285D01*
X178272857Y-46041428D01*
X178201428Y-45755714D01*
X178201428Y-45541428D01*
X178272857Y-45255714D01*
X178344285Y-45112857D01*
X178487142Y-44970000D01*
X178701428Y-44898571D01*
X178844285Y-44898571D01*
X179058571Y-44970000D01*
X179130000Y-45041428D01*
X179772857Y-46398571D02*
X179772857Y-44898571D01*
X180415714Y-46398571D02*
X180415714Y-45612857D01*
X180344285Y-45470000D01*
X180201428Y-45398571D01*
X179987142Y-45398571D01*
X179844285Y-45470000D01*
X179772857Y-45541428D01*
X181772857Y-46398571D02*
X181772857Y-45612857D01*
X181701428Y-45470000D01*
X181558571Y-45398571D01*
X181272857Y-45398571D01*
X181130000Y-45470000D01*
X181772857Y-46327142D02*
X181630000Y-46398571D01*
X181272857Y-46398571D01*
X181130000Y-46327142D01*
X181058571Y-46184285D01*
X181058571Y-46041428D01*
X181130000Y-45898571D01*
X181272857Y-45827142D01*
X181630000Y-45827142D01*
X181772857Y-45755714D01*
X182487142Y-46398571D02*
X182487142Y-45398571D01*
X182487142Y-45684285D02*
X182558571Y-45541428D01*
X182630000Y-45470000D01*
X182772857Y-45398571D01*
X182915714Y-45398571D01*
X184058571Y-45398571D02*
X184058571Y-46612857D01*
X183987142Y-46755714D01*
X183915714Y-46827142D01*
X183772857Y-46898571D01*
X183558571Y-46898571D01*
X183415714Y-46827142D01*
X184058571Y-46327142D02*
X183915714Y-46398571D01*
X183630000Y-46398571D01*
X183487142Y-46327142D01*
X183415714Y-46255714D01*
X183344285Y-46112857D01*
X183344285Y-45684285D01*
X183415714Y-45541428D01*
X183487142Y-45470000D01*
X183630000Y-45398571D01*
X183915714Y-45398571D01*
X184058571Y-45470000D01*
X184772857Y-46398571D02*
X184772857Y-45398571D01*
X184772857Y-44898571D02*
X184701428Y-44970000D01*
X184772857Y-45041428D01*
X184844285Y-44970000D01*
X184772857Y-44898571D01*
X184772857Y-45041428D01*
X185487142Y-45398571D02*
X185487142Y-46398571D01*
X185487142Y-45541428D02*
X185558571Y-45470000D01*
X185701428Y-45398571D01*
X185915714Y-45398571D01*
X186058571Y-45470000D01*
X186130000Y-45612857D01*
X186130000Y-46398571D01*
X187487142Y-45398571D02*
X187487142Y-46612857D01*
X187415714Y-46755714D01*
X187344285Y-46827142D01*
X187201428Y-46898571D01*
X186987142Y-46898571D01*
X186844285Y-46827142D01*
X187487142Y-46327142D02*
X187344285Y-46398571D01*
X187058571Y-46398571D01*
X186915714Y-46327142D01*
X186844285Y-46255714D01*
X186772857Y-46112857D01*
X186772857Y-45684285D01*
X186844285Y-45541428D01*
X186915714Y-45470000D01*
X187058571Y-45398571D01*
X187344285Y-45398571D01*
X187487142Y-45470000D01*
X134545000Y-64178571D02*
X133830714Y-64178571D01*
X133830714Y-62678571D01*
X135259285Y-64178571D02*
X135116428Y-64107142D01*
X135045000Y-64035714D01*
X134973571Y-63892857D01*
X134973571Y-63464285D01*
X135045000Y-63321428D01*
X135116428Y-63250000D01*
X135259285Y-63178571D01*
X135473571Y-63178571D01*
X135616428Y-63250000D01*
X135687857Y-63321428D01*
X135759285Y-63464285D01*
X135759285Y-63892857D01*
X135687857Y-64035714D01*
X135616428Y-64107142D01*
X135473571Y-64178571D01*
X135259285Y-64178571D01*
X136259285Y-63178571D02*
X136545000Y-64178571D01*
X136830714Y-63464285D01*
X137116428Y-64178571D01*
X137402142Y-63178571D01*
X138902142Y-62678571D02*
X139402142Y-64178571D01*
X139902142Y-62678571D01*
X140402142Y-64178571D02*
X140402142Y-63178571D01*
X140402142Y-62678571D02*
X140330714Y-62750000D01*
X140402142Y-62821428D01*
X140473571Y-62750000D01*
X140402142Y-62678571D01*
X140402142Y-62821428D01*
X141116428Y-63178571D02*
X141116428Y-64178571D01*
X141116428Y-63321428D02*
X141187857Y-63250000D01*
X141330714Y-63178571D01*
X141545000Y-63178571D01*
X141687857Y-63250000D01*
X141759285Y-63392857D01*
X141759285Y-64178571D01*
X144843571Y-88372142D02*
X145986428Y-88372142D01*
X142303571Y-88372142D02*
X143446428Y-88372142D01*
X142875000Y-88943571D02*
X142875000Y-87800714D01*
D11*
X195580000Y-113030000D02*
X153035000Y-113030000D01*
X195580000Y-88265000D02*
X195580000Y-113030000D01*
X153035000Y-88265000D02*
X195580000Y-88265000D01*
X153035000Y-113030000D02*
X153035000Y-88265000D01*
D10*
X172668571Y-101643571D02*
X171954285Y-101643571D01*
X171954285Y-100143571D01*
X173168571Y-101643571D02*
X173168571Y-100643571D01*
X173168571Y-100143571D02*
X173097142Y-100215000D01*
X173168571Y-100286428D01*
X173240000Y-100215000D01*
X173168571Y-100143571D01*
X173168571Y-100286428D01*
X173882857Y-101643571D02*
X173882857Y-100143571D01*
X174454285Y-100143571D01*
X174597142Y-100215000D01*
X174668571Y-100286428D01*
X174740000Y-100429285D01*
X174740000Y-100643571D01*
X174668571Y-100786428D01*
X174597142Y-100857857D01*
X174454285Y-100929285D01*
X173882857Y-100929285D01*
X175597142Y-101643571D02*
X175454285Y-101572142D01*
X175382857Y-101500714D01*
X175311428Y-101357857D01*
X175311428Y-100929285D01*
X175382857Y-100786428D01*
X175454285Y-100715000D01*
X175597142Y-100643571D01*
X175811428Y-100643571D01*
X175954285Y-100715000D01*
X176025714Y-100786428D01*
X176097142Y-100929285D01*
X176097142Y-101357857D01*
X176025714Y-101500714D01*
X175954285Y-101572142D01*
X175811428Y-101643571D01*
X175597142Y-101643571D01*
D12*
G04 #@! TO.C,C1*
X167672936Y-63860000D02*
X168877064Y-63860000D01*
X167672936Y-65680000D02*
X168877064Y-65680000D01*
G04 #@! TO.C,C2*
X167672936Y-56790000D02*
X168877064Y-56790000D01*
X167672936Y-54970000D02*
X168877064Y-54970000D01*
G04 #@! TO.C,C3*
X137127064Y-70125000D02*
X135922936Y-70125000D01*
X137127064Y-68305000D02*
X135922936Y-68305000D01*
G04 #@! TO.C,J3*
X146745000Y-84395000D02*
X146745000Y-85725000D01*
X145415000Y-84395000D02*
X146745000Y-84395000D01*
X144145000Y-84395000D02*
X144145000Y-87055000D01*
X144145000Y-87055000D02*
X141545000Y-87055000D01*
X144145000Y-84395000D02*
X141545000Y-84395000D01*
X141545000Y-84395000D02*
X141545000Y-87055000D01*
G04 #@! TO.C,J4*
X133585000Y-72710000D02*
X133585000Y-75370000D01*
X136185000Y-72710000D02*
X133585000Y-72710000D01*
X136185000Y-75370000D02*
X133585000Y-75370000D01*
X136185000Y-72710000D02*
X136185000Y-75370000D01*
X137455000Y-72710000D02*
X138785000Y-72710000D01*
X138785000Y-72710000D02*
X138785000Y-74040000D01*
G04 #@! TO.C,SW1*
X136585000Y-76775000D02*
X133925000Y-76775000D01*
X136585000Y-81915000D02*
X136585000Y-76775000D01*
X133925000Y-81915000D02*
X133925000Y-76775000D01*
X136585000Y-81915000D02*
X133925000Y-81915000D01*
X136585000Y-83185000D02*
X136585000Y-84515000D01*
X136585000Y-84515000D02*
X135255000Y-84515000D01*
G04 #@! TO.C,J2*
X182045000Y-87710000D02*
X182045000Y-82510000D01*
X176905000Y-87710000D02*
X182045000Y-87710000D01*
X174305000Y-82510000D02*
X182045000Y-82510000D01*
X176905000Y-87710000D02*
X176905000Y-85110000D01*
X176905000Y-85110000D02*
X174305000Y-85110000D01*
X174305000Y-85110000D02*
X174305000Y-82510000D01*
X175635000Y-87710000D02*
X174305000Y-87710000D01*
X174305000Y-87710000D02*
X174305000Y-86380000D01*
G04 #@! TO.C,J1*
X165100000Y-46160000D02*
X165480000Y-46160000D01*
X165100000Y-42110000D02*
X165100000Y-41850000D01*
X165100000Y-46160000D02*
X165100000Y-44390000D01*
X172720000Y-46160000D02*
X172340000Y-46160000D01*
X172720000Y-44390000D02*
X172720000Y-46160000D01*
X172720000Y-41850000D02*
X172720000Y-42110000D01*
G04 #@! TO.C,D3*
X157115000Y-62575000D02*
X159115000Y-62575000D01*
X159115000Y-62575000D02*
X159115000Y-58675000D01*
X157115000Y-62575000D02*
X157115000Y-58675000D01*
G04 #@! TO.C,L1*
X159008578Y-57225000D02*
X158491422Y-57225000D01*
X159008578Y-55805000D02*
X158491422Y-55805000D01*
G04 #@! TO.C,D1*
X174845000Y-44140000D02*
X177530000Y-44140000D01*
X174845000Y-42220000D02*
X174845000Y-44140000D01*
X177530000Y-42220000D02*
X174845000Y-42220000D01*
G04 #@! TO.C,D2*
X134945000Y-61627500D02*
X134945000Y-58942500D01*
X134945000Y-58942500D02*
X133025000Y-58942500D01*
X133025000Y-58942500D02*
X133025000Y-61627500D01*
G04 #@! TO.C,Q1*
X144455000Y-55755000D02*
X144455000Y-57215000D01*
X141295000Y-55755000D02*
X141295000Y-57915000D01*
X141295000Y-55755000D02*
X142225000Y-55755000D01*
X144455000Y-55755000D02*
X143525000Y-55755000D01*
G04 #@! TO.C,Q2*
X147445000Y-58095000D02*
X147445000Y-57165000D01*
X147445000Y-54935000D02*
X147445000Y-55865000D01*
X147445000Y-54935000D02*
X145285000Y-54935000D01*
X147445000Y-58095000D02*
X145985000Y-58095000D01*
G04 #@! TO.C,U2*
X162825000Y-58715000D02*
X160375000Y-58715000D01*
X161025000Y-61935000D02*
X162825000Y-61935000D01*
G04 #@! TO.C,U1*
X167300000Y-59425000D02*
X167300000Y-61225000D01*
X170520000Y-61225000D02*
X170520000Y-58775000D01*
G04 #@! TO.C,RV1*
X146705000Y-51950000D02*
X146705000Y-47110000D01*
X151745000Y-51950000D02*
X151745000Y-47110000D01*
X146705000Y-51950000D02*
X147985000Y-51950000D01*
X150465000Y-51950000D02*
X151745000Y-51950000D01*
X146705000Y-47110000D02*
X147185000Y-47110000D01*
X148965000Y-47110000D02*
X149485000Y-47110000D01*
X151265000Y-47110000D02*
X151745000Y-47110000D01*
X147085000Y-51950000D02*
X147085000Y-51950000D01*
X147085000Y-51950000D02*
X147985000Y-51950000D01*
X147085000Y-51950000D02*
X147985000Y-51950000D01*
G04 #@! TO.C,R12*
X162936422Y-66115000D02*
X163453578Y-66115000D01*
X162936422Y-64695000D02*
X163453578Y-64695000D01*
G04 #@! TO.C,R2*
X172978578Y-62305000D02*
X172461422Y-62305000D01*
X172978578Y-60885000D02*
X172461422Y-60885000D01*
G04 #@! TO.C,R1*
X172461422Y-59765000D02*
X172978578Y-59765000D01*
X172461422Y-58345000D02*
X172978578Y-58345000D01*
G04 #@! TO.C,R3*
X172461422Y-55805000D02*
X172978578Y-55805000D01*
X172461422Y-57225000D02*
X172978578Y-57225000D01*
G04 #@! TO.C,R4*
X138473922Y-50875000D02*
X138991078Y-50875000D01*
X138473922Y-49455000D02*
X138991078Y-49455000D01*
G04 #@! TO.C,R5*
X141981422Y-49455000D02*
X142498578Y-49455000D01*
X141981422Y-50875000D02*
X142498578Y-50875000D01*
G04 #@! TO.C,R6*
X142616422Y-60400000D02*
X143133578Y-60400000D01*
X142616422Y-58980000D02*
X143133578Y-58980000D01*
G04 #@! TO.C,R7*
X138473922Y-51360000D02*
X138991078Y-51360000D01*
X138473922Y-52780000D02*
X138991078Y-52780000D01*
G04 #@! TO.C,R8*
X141981422Y-52780000D02*
X142498578Y-52780000D01*
X141981422Y-51360000D02*
X142498578Y-51360000D01*
G04 #@! TO.C,R9*
X138806422Y-53900000D02*
X139323578Y-53900000D01*
X138806422Y-55320000D02*
X139323578Y-55320000D01*
G04 #@! TO.C,R10*
X137720000Y-57526422D02*
X137720000Y-58043578D01*
X139140000Y-57526422D02*
X139140000Y-58043578D01*
G04 #@! TO.C,R11*
X159126422Y-64695000D02*
X159643578Y-64695000D01*
X159126422Y-66115000D02*
X159643578Y-66115000D01*
G04 #@! TO.C,C1*
D13*
X168108333Y-63307142D02*
X168060714Y-63354761D01*
X167917857Y-63402380D01*
X167822619Y-63402380D01*
X167679761Y-63354761D01*
X167584523Y-63259523D01*
X167536904Y-63164285D01*
X167489285Y-62973809D01*
X167489285Y-62830952D01*
X167536904Y-62640476D01*
X167584523Y-62545238D01*
X167679761Y-62450000D01*
X167822619Y-62402380D01*
X167917857Y-62402380D01*
X168060714Y-62450000D01*
X168108333Y-62497619D01*
X169060714Y-63402380D02*
X168489285Y-63402380D01*
X168775000Y-63402380D02*
X168775000Y-62402380D01*
X168679761Y-62545238D01*
X168584523Y-62640476D01*
X168489285Y-62688095D01*
G04 #@! TO.C,C2*
X168108333Y-54417142D02*
X168060714Y-54464761D01*
X167917857Y-54512380D01*
X167822619Y-54512380D01*
X167679761Y-54464761D01*
X167584523Y-54369523D01*
X167536904Y-54274285D01*
X167489285Y-54083809D01*
X167489285Y-53940952D01*
X167536904Y-53750476D01*
X167584523Y-53655238D01*
X167679761Y-53560000D01*
X167822619Y-53512380D01*
X167917857Y-53512380D01*
X168060714Y-53560000D01*
X168108333Y-53607619D01*
X168489285Y-53607619D02*
X168536904Y-53560000D01*
X168632142Y-53512380D01*
X168870238Y-53512380D01*
X168965476Y-53560000D01*
X169013095Y-53607619D01*
X169060714Y-53702857D01*
X169060714Y-53798095D01*
X169013095Y-53940952D01*
X168441666Y-54512380D01*
X169060714Y-54512380D01*
G04 #@! TO.C,C3*
X135088333Y-67667142D02*
X135040714Y-67714761D01*
X134897857Y-67762380D01*
X134802619Y-67762380D01*
X134659761Y-67714761D01*
X134564523Y-67619523D01*
X134516904Y-67524285D01*
X134469285Y-67333809D01*
X134469285Y-67190952D01*
X134516904Y-67000476D01*
X134564523Y-66905238D01*
X134659761Y-66810000D01*
X134802619Y-66762380D01*
X134897857Y-66762380D01*
X135040714Y-66810000D01*
X135088333Y-66857619D01*
X135421666Y-66762380D02*
X136040714Y-66762380D01*
X135707380Y-67143333D01*
X135850238Y-67143333D01*
X135945476Y-67190952D01*
X135993095Y-67238571D01*
X136040714Y-67333809D01*
X136040714Y-67571904D01*
X135993095Y-67667142D01*
X135945476Y-67714761D01*
X135850238Y-67762380D01*
X135564523Y-67762380D01*
X135469285Y-67714761D01*
X135421666Y-67667142D01*
G04 #@! TO.C,J3*
X141906666Y-82637380D02*
X141906666Y-83351666D01*
X141859047Y-83494523D01*
X141763809Y-83589761D01*
X141620952Y-83637380D01*
X141525714Y-83637380D01*
X142287619Y-82637380D02*
X142906666Y-82637380D01*
X142573333Y-83018333D01*
X142716190Y-83018333D01*
X142811428Y-83065952D01*
X142859047Y-83113571D01*
X142906666Y-83208809D01*
X142906666Y-83446904D01*
X142859047Y-83542142D01*
X142811428Y-83589761D01*
X142716190Y-83637380D01*
X142430476Y-83637380D01*
X142335238Y-83589761D01*
X142287619Y-83542142D01*
G04 #@! TO.C,J4*
X134286666Y-71207380D02*
X134286666Y-71921666D01*
X134239047Y-72064523D01*
X134143809Y-72159761D01*
X134000952Y-72207380D01*
X133905714Y-72207380D01*
X135191428Y-71540714D02*
X135191428Y-72207380D01*
X134953333Y-71159761D02*
X134715238Y-71874047D01*
X135334285Y-71874047D01*
G04 #@! TO.C,SW1*
X137096666Y-77874761D02*
X137239523Y-77922380D01*
X137477619Y-77922380D01*
X137572857Y-77874761D01*
X137620476Y-77827142D01*
X137668095Y-77731904D01*
X137668095Y-77636666D01*
X137620476Y-77541428D01*
X137572857Y-77493809D01*
X137477619Y-77446190D01*
X137287142Y-77398571D01*
X137191904Y-77350952D01*
X137144285Y-77303333D01*
X137096666Y-77208095D01*
X137096666Y-77112857D01*
X137144285Y-77017619D01*
X137191904Y-76970000D01*
X137287142Y-76922380D01*
X137525238Y-76922380D01*
X137668095Y-76970000D01*
X138001428Y-76922380D02*
X138239523Y-77922380D01*
X138430000Y-77208095D01*
X138620476Y-77922380D01*
X138858571Y-76922380D01*
X139763333Y-77922380D02*
X139191904Y-77922380D01*
X139477619Y-77922380D02*
X139477619Y-76922380D01*
X139382380Y-77065238D01*
X139287142Y-77160476D01*
X139191904Y-77208095D01*
G04 #@! TO.C,J2*
X174926666Y-80732380D02*
X174926666Y-81446666D01*
X174879047Y-81589523D01*
X174783809Y-81684761D01*
X174640952Y-81732380D01*
X174545714Y-81732380D01*
X175355238Y-80827619D02*
X175402857Y-80780000D01*
X175498095Y-80732380D01*
X175736190Y-80732380D01*
X175831428Y-80780000D01*
X175879047Y-80827619D01*
X175926666Y-80922857D01*
X175926666Y-81018095D01*
X175879047Y-81160952D01*
X175307619Y-81732380D01*
X175926666Y-81732380D01*
G04 #@! TO.C,J1*
X168576666Y-47202380D02*
X168576666Y-47916666D01*
X168529047Y-48059523D01*
X168433809Y-48154761D01*
X168290952Y-48202380D01*
X168195714Y-48202380D01*
X169576666Y-48202380D02*
X169005238Y-48202380D01*
X169290952Y-48202380D02*
X169290952Y-47202380D01*
X169195714Y-47345238D01*
X169100476Y-47440476D01*
X169005238Y-47488095D01*
G04 #@! TO.C,D3*
X156567380Y-61063095D02*
X155567380Y-61063095D01*
X155567380Y-60825000D01*
X155615000Y-60682142D01*
X155710238Y-60586904D01*
X155805476Y-60539285D01*
X155995952Y-60491666D01*
X156138809Y-60491666D01*
X156329285Y-60539285D01*
X156424523Y-60586904D01*
X156519761Y-60682142D01*
X156567380Y-60825000D01*
X156567380Y-61063095D01*
X155567380Y-60158333D02*
X155567380Y-59539285D01*
X155948333Y-59872619D01*
X155948333Y-59729761D01*
X155995952Y-59634523D01*
X156043571Y-59586904D01*
X156138809Y-59539285D01*
X156376904Y-59539285D01*
X156472142Y-59586904D01*
X156519761Y-59634523D01*
X156567380Y-59729761D01*
X156567380Y-60015476D01*
X156519761Y-60110714D01*
X156472142Y-60158333D01*
G04 #@! TO.C,L1*
X158583333Y-55062380D02*
X158107142Y-55062380D01*
X158107142Y-54062380D01*
X159440476Y-55062380D02*
X158869047Y-55062380D01*
X159154761Y-55062380D02*
X159154761Y-54062380D01*
X159059523Y-54205238D01*
X158964285Y-54300476D01*
X158869047Y-54348095D01*
G04 #@! TO.C,D1*
X178966904Y-43632380D02*
X178966904Y-42632380D01*
X179205000Y-42632380D01*
X179347857Y-42680000D01*
X179443095Y-42775238D01*
X179490714Y-42870476D01*
X179538333Y-43060952D01*
X179538333Y-43203809D01*
X179490714Y-43394285D01*
X179443095Y-43489523D01*
X179347857Y-43584761D01*
X179205000Y-43632380D01*
X178966904Y-43632380D01*
X180490714Y-43632380D02*
X179919285Y-43632380D01*
X180205000Y-43632380D02*
X180205000Y-42632380D01*
X180109761Y-42775238D01*
X180014523Y-42870476D01*
X179919285Y-42918095D01*
G04 #@! TO.C,D2*
X135151904Y-60777380D02*
X135151904Y-59777380D01*
X135390000Y-59777380D01*
X135532857Y-59825000D01*
X135628095Y-59920238D01*
X135675714Y-60015476D01*
X135723333Y-60205952D01*
X135723333Y-60348809D01*
X135675714Y-60539285D01*
X135628095Y-60634523D01*
X135532857Y-60729761D01*
X135390000Y-60777380D01*
X135151904Y-60777380D01*
X136104285Y-59872619D02*
X136151904Y-59825000D01*
X136247142Y-59777380D01*
X136485238Y-59777380D01*
X136580476Y-59825000D01*
X136628095Y-59872619D01*
X136675714Y-59967857D01*
X136675714Y-60063095D01*
X136628095Y-60205952D01*
X136056666Y-60777380D01*
X136675714Y-60777380D01*
G04 #@! TO.C,Q1*
X142779761Y-54522619D02*
X142684523Y-54475000D01*
X142589285Y-54379761D01*
X142446428Y-54236904D01*
X142351190Y-54189285D01*
X142255952Y-54189285D01*
X142303571Y-54427380D02*
X142208333Y-54379761D01*
X142113095Y-54284523D01*
X142065476Y-54094047D01*
X142065476Y-53760714D01*
X142113095Y-53570238D01*
X142208333Y-53475000D01*
X142303571Y-53427380D01*
X142494047Y-53427380D01*
X142589285Y-53475000D01*
X142684523Y-53570238D01*
X142732142Y-53760714D01*
X142732142Y-54094047D01*
X142684523Y-54284523D01*
X142589285Y-54379761D01*
X142494047Y-54427380D01*
X142303571Y-54427380D01*
X143684523Y-54427380D02*
X143113095Y-54427380D01*
X143398809Y-54427380D02*
X143398809Y-53427380D01*
X143303571Y-53570238D01*
X143208333Y-53665476D01*
X143113095Y-53713095D01*
G04 #@! TO.C,Q2*
X146589761Y-54562619D02*
X146494523Y-54515000D01*
X146399285Y-54419761D01*
X146256428Y-54276904D01*
X146161190Y-54229285D01*
X146065952Y-54229285D01*
X146113571Y-54467380D02*
X146018333Y-54419761D01*
X145923095Y-54324523D01*
X145875476Y-54134047D01*
X145875476Y-53800714D01*
X145923095Y-53610238D01*
X146018333Y-53515000D01*
X146113571Y-53467380D01*
X146304047Y-53467380D01*
X146399285Y-53515000D01*
X146494523Y-53610238D01*
X146542142Y-53800714D01*
X146542142Y-54134047D01*
X146494523Y-54324523D01*
X146399285Y-54419761D01*
X146304047Y-54467380D01*
X146113571Y-54467380D01*
X146923095Y-53562619D02*
X146970714Y-53515000D01*
X147065952Y-53467380D01*
X147304047Y-53467380D01*
X147399285Y-53515000D01*
X147446904Y-53562619D01*
X147494523Y-53657857D01*
X147494523Y-53753095D01*
X147446904Y-53895952D01*
X146875476Y-54467380D01*
X147494523Y-54467380D01*
G04 #@! TO.C,U2*
X161163095Y-57237380D02*
X161163095Y-58046904D01*
X161210714Y-58142142D01*
X161258333Y-58189761D01*
X161353571Y-58237380D01*
X161544047Y-58237380D01*
X161639285Y-58189761D01*
X161686904Y-58142142D01*
X161734523Y-58046904D01*
X161734523Y-57237380D01*
X162163095Y-57332619D02*
X162210714Y-57285000D01*
X162305952Y-57237380D01*
X162544047Y-57237380D01*
X162639285Y-57285000D01*
X162686904Y-57332619D01*
X162734523Y-57427857D01*
X162734523Y-57523095D01*
X162686904Y-57665952D01*
X162115476Y-58237380D01*
X162734523Y-58237380D01*
G04 #@! TO.C,U1*
X168148095Y-57237380D02*
X168148095Y-58046904D01*
X168195714Y-58142142D01*
X168243333Y-58189761D01*
X168338571Y-58237380D01*
X168529047Y-58237380D01*
X168624285Y-58189761D01*
X168671904Y-58142142D01*
X168719523Y-58046904D01*
X168719523Y-57237380D01*
X169719523Y-58237380D02*
X169148095Y-58237380D01*
X169433809Y-58237380D02*
X169433809Y-57237380D01*
X169338571Y-57380238D01*
X169243333Y-57475476D01*
X169148095Y-57523095D01*
G04 #@! TO.C,RV1*
X148629761Y-45537380D02*
X148296428Y-45061190D01*
X148058333Y-45537380D02*
X148058333Y-44537380D01*
X148439285Y-44537380D01*
X148534523Y-44585000D01*
X148582142Y-44632619D01*
X148629761Y-44727857D01*
X148629761Y-44870714D01*
X148582142Y-44965952D01*
X148534523Y-45013571D01*
X148439285Y-45061190D01*
X148058333Y-45061190D01*
X148915476Y-44537380D02*
X149248809Y-45537380D01*
X149582142Y-44537380D01*
X150439285Y-45537380D02*
X149867857Y-45537380D01*
X150153571Y-45537380D02*
X150153571Y-44537380D01*
X150058333Y-44680238D01*
X149963095Y-44775476D01*
X149867857Y-44823095D01*
G04 #@! TO.C,R12*
X162552142Y-64207380D02*
X162218809Y-63731190D01*
X161980714Y-64207380D02*
X161980714Y-63207380D01*
X162361666Y-63207380D01*
X162456904Y-63255000D01*
X162504523Y-63302619D01*
X162552142Y-63397857D01*
X162552142Y-63540714D01*
X162504523Y-63635952D01*
X162456904Y-63683571D01*
X162361666Y-63731190D01*
X161980714Y-63731190D01*
X163504523Y-64207380D02*
X162933095Y-64207380D01*
X163218809Y-64207380D02*
X163218809Y-63207380D01*
X163123571Y-63350238D01*
X163028333Y-63445476D01*
X162933095Y-63493095D01*
X163885476Y-63302619D02*
X163933095Y-63255000D01*
X164028333Y-63207380D01*
X164266428Y-63207380D01*
X164361666Y-63255000D01*
X164409285Y-63302619D01*
X164456904Y-63397857D01*
X164456904Y-63493095D01*
X164409285Y-63635952D01*
X163837857Y-64207380D01*
X164456904Y-64207380D01*
G04 #@! TO.C,R2*
X175728333Y-62047380D02*
X175395000Y-61571190D01*
X175156904Y-62047380D02*
X175156904Y-61047380D01*
X175537857Y-61047380D01*
X175633095Y-61095000D01*
X175680714Y-61142619D01*
X175728333Y-61237857D01*
X175728333Y-61380714D01*
X175680714Y-61475952D01*
X175633095Y-61523571D01*
X175537857Y-61571190D01*
X175156904Y-61571190D01*
X176109285Y-61142619D02*
X176156904Y-61095000D01*
X176252142Y-61047380D01*
X176490238Y-61047380D01*
X176585476Y-61095000D01*
X176633095Y-61142619D01*
X176680714Y-61237857D01*
X176680714Y-61333095D01*
X176633095Y-61475952D01*
X176061666Y-62047380D01*
X176680714Y-62047380D01*
G04 #@! TO.C,R1*
X175728333Y-59507380D02*
X175395000Y-59031190D01*
X175156904Y-59507380D02*
X175156904Y-58507380D01*
X175537857Y-58507380D01*
X175633095Y-58555000D01*
X175680714Y-58602619D01*
X175728333Y-58697857D01*
X175728333Y-58840714D01*
X175680714Y-58935952D01*
X175633095Y-58983571D01*
X175537857Y-59031190D01*
X175156904Y-59031190D01*
X176680714Y-59507380D02*
X176109285Y-59507380D01*
X176395000Y-59507380D02*
X176395000Y-58507380D01*
X176299761Y-58650238D01*
X176204523Y-58745476D01*
X176109285Y-58793095D01*
G04 #@! TO.C,R3*
X175728333Y-56967380D02*
X175395000Y-56491190D01*
X175156904Y-56967380D02*
X175156904Y-55967380D01*
X175537857Y-55967380D01*
X175633095Y-56015000D01*
X175680714Y-56062619D01*
X175728333Y-56157857D01*
X175728333Y-56300714D01*
X175680714Y-56395952D01*
X175633095Y-56443571D01*
X175537857Y-56491190D01*
X175156904Y-56491190D01*
X176061666Y-55967380D02*
X176680714Y-55967380D01*
X176347380Y-56348333D01*
X176490238Y-56348333D01*
X176585476Y-56395952D01*
X176633095Y-56443571D01*
X176680714Y-56538809D01*
X176680714Y-56776904D01*
X176633095Y-56872142D01*
X176585476Y-56919761D01*
X176490238Y-56967380D01*
X176204523Y-56967380D01*
X176109285Y-56919761D01*
X176061666Y-56872142D01*
G04 #@! TO.C,R4*
X138565833Y-48967380D02*
X138232500Y-48491190D01*
X137994404Y-48967380D02*
X137994404Y-47967380D01*
X138375357Y-47967380D01*
X138470595Y-48015000D01*
X138518214Y-48062619D01*
X138565833Y-48157857D01*
X138565833Y-48300714D01*
X138518214Y-48395952D01*
X138470595Y-48443571D01*
X138375357Y-48491190D01*
X137994404Y-48491190D01*
X139422976Y-48300714D02*
X139422976Y-48967380D01*
X139184880Y-47919761D02*
X138946785Y-48634047D01*
X139565833Y-48634047D01*
G04 #@! TO.C,R5*
X142073333Y-48967380D02*
X141740000Y-48491190D01*
X141501904Y-48967380D02*
X141501904Y-47967380D01*
X141882857Y-47967380D01*
X141978095Y-48015000D01*
X142025714Y-48062619D01*
X142073333Y-48157857D01*
X142073333Y-48300714D01*
X142025714Y-48395952D01*
X141978095Y-48443571D01*
X141882857Y-48491190D01*
X141501904Y-48491190D01*
X142978095Y-47967380D02*
X142501904Y-47967380D01*
X142454285Y-48443571D01*
X142501904Y-48395952D01*
X142597142Y-48348333D01*
X142835238Y-48348333D01*
X142930476Y-48395952D01*
X142978095Y-48443571D01*
X143025714Y-48538809D01*
X143025714Y-48776904D01*
X142978095Y-48872142D01*
X142930476Y-48919761D01*
X142835238Y-48967380D01*
X142597142Y-48967380D01*
X142501904Y-48919761D01*
X142454285Y-48872142D01*
G04 #@! TO.C,R6*
X140168333Y-60142380D02*
X139835000Y-59666190D01*
X139596904Y-60142380D02*
X139596904Y-59142380D01*
X139977857Y-59142380D01*
X140073095Y-59190000D01*
X140120714Y-59237619D01*
X140168333Y-59332857D01*
X140168333Y-59475714D01*
X140120714Y-59570952D01*
X140073095Y-59618571D01*
X139977857Y-59666190D01*
X139596904Y-59666190D01*
X141025476Y-59142380D02*
X140835000Y-59142380D01*
X140739761Y-59190000D01*
X140692142Y-59237619D01*
X140596904Y-59380476D01*
X140549285Y-59570952D01*
X140549285Y-59951904D01*
X140596904Y-60047142D01*
X140644523Y-60094761D01*
X140739761Y-60142380D01*
X140930238Y-60142380D01*
X141025476Y-60094761D01*
X141073095Y-60047142D01*
X141120714Y-59951904D01*
X141120714Y-59713809D01*
X141073095Y-59618571D01*
X141025476Y-59570952D01*
X140930238Y-59523333D01*
X140739761Y-59523333D01*
X140644523Y-59570952D01*
X140596904Y-59618571D01*
X140549285Y-59713809D01*
G04 #@! TO.C,R7*
X135723333Y-52522380D02*
X135390000Y-52046190D01*
X135151904Y-52522380D02*
X135151904Y-51522380D01*
X135532857Y-51522380D01*
X135628095Y-51570000D01*
X135675714Y-51617619D01*
X135723333Y-51712857D01*
X135723333Y-51855714D01*
X135675714Y-51950952D01*
X135628095Y-51998571D01*
X135532857Y-52046190D01*
X135151904Y-52046190D01*
X136056666Y-51522380D02*
X136723333Y-51522380D01*
X136294761Y-52522380D01*
G04 #@! TO.C,R8*
X145248333Y-52522380D02*
X144915000Y-52046190D01*
X144676904Y-52522380D02*
X144676904Y-51522380D01*
X145057857Y-51522380D01*
X145153095Y-51570000D01*
X145200714Y-51617619D01*
X145248333Y-51712857D01*
X145248333Y-51855714D01*
X145200714Y-51950952D01*
X145153095Y-51998571D01*
X145057857Y-52046190D01*
X144676904Y-52046190D01*
X145819761Y-51950952D02*
X145724523Y-51903333D01*
X145676904Y-51855714D01*
X145629285Y-51760476D01*
X145629285Y-51712857D01*
X145676904Y-51617619D01*
X145724523Y-51570000D01*
X145819761Y-51522380D01*
X146010238Y-51522380D01*
X146105476Y-51570000D01*
X146153095Y-51617619D01*
X146200714Y-51712857D01*
X146200714Y-51760476D01*
X146153095Y-51855714D01*
X146105476Y-51903333D01*
X146010238Y-51950952D01*
X145819761Y-51950952D01*
X145724523Y-51998571D01*
X145676904Y-52046190D01*
X145629285Y-52141428D01*
X145629285Y-52331904D01*
X145676904Y-52427142D01*
X145724523Y-52474761D01*
X145819761Y-52522380D01*
X146010238Y-52522380D01*
X146105476Y-52474761D01*
X146153095Y-52427142D01*
X146200714Y-52331904D01*
X146200714Y-52141428D01*
X146153095Y-52046190D01*
X146105476Y-51998571D01*
X146010238Y-51950952D01*
G04 #@! TO.C,R9*
X135723333Y-55062380D02*
X135390000Y-54586190D01*
X135151904Y-55062380D02*
X135151904Y-54062380D01*
X135532857Y-54062380D01*
X135628095Y-54110000D01*
X135675714Y-54157619D01*
X135723333Y-54252857D01*
X135723333Y-54395714D01*
X135675714Y-54490952D01*
X135628095Y-54538571D01*
X135532857Y-54586190D01*
X135151904Y-54586190D01*
X136199523Y-55062380D02*
X136390000Y-55062380D01*
X136485238Y-55014761D01*
X136532857Y-54967142D01*
X136628095Y-54824285D01*
X136675714Y-54633809D01*
X136675714Y-54252857D01*
X136628095Y-54157619D01*
X136580476Y-54110000D01*
X136485238Y-54062380D01*
X136294761Y-54062380D01*
X136199523Y-54110000D01*
X136151904Y-54157619D01*
X136104285Y-54252857D01*
X136104285Y-54490952D01*
X136151904Y-54586190D01*
X136199523Y-54633809D01*
X136294761Y-54681428D01*
X136485238Y-54681428D01*
X136580476Y-54633809D01*
X136628095Y-54586190D01*
X136675714Y-54490952D01*
G04 #@! TO.C,R10*
X135247142Y-57602380D02*
X134913809Y-57126190D01*
X134675714Y-57602380D02*
X134675714Y-56602380D01*
X135056666Y-56602380D01*
X135151904Y-56650000D01*
X135199523Y-56697619D01*
X135247142Y-56792857D01*
X135247142Y-56935714D01*
X135199523Y-57030952D01*
X135151904Y-57078571D01*
X135056666Y-57126190D01*
X134675714Y-57126190D01*
X136199523Y-57602380D02*
X135628095Y-57602380D01*
X135913809Y-57602380D02*
X135913809Y-56602380D01*
X135818571Y-56745238D01*
X135723333Y-56840476D01*
X135628095Y-56888095D01*
X136818571Y-56602380D02*
X136913809Y-56602380D01*
X137009047Y-56650000D01*
X137056666Y-56697619D01*
X137104285Y-56792857D01*
X137151904Y-56983333D01*
X137151904Y-57221428D01*
X137104285Y-57411904D01*
X137056666Y-57507142D01*
X137009047Y-57554761D01*
X136913809Y-57602380D01*
X136818571Y-57602380D01*
X136723333Y-57554761D01*
X136675714Y-57507142D01*
X136628095Y-57411904D01*
X136580476Y-57221428D01*
X136580476Y-56983333D01*
X136628095Y-56792857D01*
X136675714Y-56697619D01*
X136723333Y-56650000D01*
X136818571Y-56602380D01*
G04 #@! TO.C,R11*
X158742142Y-64207380D02*
X158408809Y-63731190D01*
X158170714Y-64207380D02*
X158170714Y-63207380D01*
X158551666Y-63207380D01*
X158646904Y-63255000D01*
X158694523Y-63302619D01*
X158742142Y-63397857D01*
X158742142Y-63540714D01*
X158694523Y-63635952D01*
X158646904Y-63683571D01*
X158551666Y-63731190D01*
X158170714Y-63731190D01*
X159694523Y-64207380D02*
X159123095Y-64207380D01*
X159408809Y-64207380D02*
X159408809Y-63207380D01*
X159313571Y-63350238D01*
X159218333Y-63445476D01*
X159123095Y-63493095D01*
X160646904Y-64207380D02*
X160075476Y-64207380D01*
X160361190Y-64207380D02*
X160361190Y-63207380D01*
X160265952Y-63350238D01*
X160170714Y-63445476D01*
X160075476Y-63493095D01*
G04 #@! TD*
M02*
