G04 #@! TF.GenerationSoftware,KiCad,Pcbnew,5.0.2-bee76a0~70~ubuntu18.04.1*
G04 #@! TF.CreationDate,2018-12-13T21:58:58+02:00*
G04 #@! TF.ProjectId,component_tester_adapter,636f6d70-6f6e-4656-9e74-5f7465737465,rev?*
G04 #@! TF.SameCoordinates,Original*
G04 #@! TF.FileFunction,Copper,L1,Top*
G04 #@! TF.FilePolarity,Positive*
%FSLAX46Y46*%
G04 Gerber Fmt 4.6, Leading zero omitted, Abs format (unit mm)*
G04 Created by KiCad (PCBNEW 5.0.2-bee76a0~70~ubuntu18.04.1) date Thu 13 Dec 2018 09:58:58 PM EET*
%MOMM*%
%LPD*%
G01*
G04 APERTURE LIST*
G04 #@! TA.AperFunction,Conductor*
%ADD10C,0.100000*%
G04 #@! TD*
G04 #@! TA.AperFunction,SMDPad,CuDef*
%ADD11C,1.425000*%
G04 #@! TD*
G04 #@! TA.AperFunction,ComponentPad*
%ADD12O,1.700000X1.700000*%
G04 #@! TD*
G04 #@! TA.AperFunction,ComponentPad*
%ADD13R,1.700000X1.700000*%
G04 #@! TD*
G04 #@! TA.AperFunction,SMDPad,CuDef*
%ADD14R,0.450000X1.380000*%
G04 #@! TD*
G04 #@! TA.AperFunction,SMDPad,CuDef*
%ADD15R,1.475000X2.100000*%
G04 #@! TD*
G04 #@! TA.AperFunction,SMDPad,CuDef*
%ADD16R,2.375000X1.900000*%
G04 #@! TD*
G04 #@! TA.AperFunction,SMDPad,CuDef*
%ADD17R,1.175000X1.900000*%
G04 #@! TD*
G04 #@! TA.AperFunction,SMDPad,CuDef*
%ADD18R,1.200000X0.900000*%
G04 #@! TD*
G04 #@! TA.AperFunction,SMDPad,CuDef*
%ADD19C,0.975000*%
G04 #@! TD*
G04 #@! TA.AperFunction,SMDPad,CuDef*
%ADD20R,0.800000X0.900000*%
G04 #@! TD*
G04 #@! TA.AperFunction,SMDPad,CuDef*
%ADD21R,0.900000X0.800000*%
G04 #@! TD*
G04 #@! TA.AperFunction,SMDPad,CuDef*
%ADD22R,1.060000X0.650000*%
G04 #@! TD*
G04 #@! TA.AperFunction,SMDPad,CuDef*
%ADD23R,0.650000X1.060000*%
G04 #@! TD*
G04 #@! TA.AperFunction,SMDPad,CuDef*
%ADD24R,1.300000X2.000000*%
G04 #@! TD*
G04 #@! TA.AperFunction,SMDPad,CuDef*
%ADD25R,2.000000X2.000000*%
G04 #@! TD*
G04 #@! TA.AperFunction,ViaPad*
%ADD26C,3.500000*%
G04 #@! TD*
G04 #@! TA.AperFunction,ViaPad*
%ADD27C,0.800000*%
G04 #@! TD*
G04 #@! TA.AperFunction,ViaPad*
%ADD28C,1.200000*%
G04 #@! TD*
G04 #@! TA.AperFunction,Conductor*
%ADD29C,0.250000*%
G04 #@! TD*
G04 #@! TA.AperFunction,Conductor*
%ADD30C,0.254000*%
G04 #@! TD*
G04 APERTURE END LIST*
D10*
G04 #@! TO.N,Net-(C1-Pad1)*
G04 #@! TO.C,C1*
G36*
X167274504Y-63896204D02*
X167298773Y-63899804D01*
X167322571Y-63905765D01*
X167345671Y-63914030D01*
X167367849Y-63924520D01*
X167388893Y-63937133D01*
X167408598Y-63951747D01*
X167426777Y-63968223D01*
X167443253Y-63986402D01*
X167457867Y-64006107D01*
X167470480Y-64027151D01*
X167480970Y-64049329D01*
X167489235Y-64072429D01*
X167495196Y-64096227D01*
X167498796Y-64120496D01*
X167500000Y-64145000D01*
X167500000Y-65395000D01*
X167498796Y-65419504D01*
X167495196Y-65443773D01*
X167489235Y-65467571D01*
X167480970Y-65490671D01*
X167470480Y-65512849D01*
X167457867Y-65533893D01*
X167443253Y-65553598D01*
X167426777Y-65571777D01*
X167408598Y-65588253D01*
X167388893Y-65602867D01*
X167367849Y-65615480D01*
X167345671Y-65625970D01*
X167322571Y-65634235D01*
X167298773Y-65640196D01*
X167274504Y-65643796D01*
X167250000Y-65645000D01*
X166325000Y-65645000D01*
X166300496Y-65643796D01*
X166276227Y-65640196D01*
X166252429Y-65634235D01*
X166229329Y-65625970D01*
X166207151Y-65615480D01*
X166186107Y-65602867D01*
X166166402Y-65588253D01*
X166148223Y-65571777D01*
X166131747Y-65553598D01*
X166117133Y-65533893D01*
X166104520Y-65512849D01*
X166094030Y-65490671D01*
X166085765Y-65467571D01*
X166079804Y-65443773D01*
X166076204Y-65419504D01*
X166075000Y-65395000D01*
X166075000Y-64145000D01*
X166076204Y-64120496D01*
X166079804Y-64096227D01*
X166085765Y-64072429D01*
X166094030Y-64049329D01*
X166104520Y-64027151D01*
X166117133Y-64006107D01*
X166131747Y-63986402D01*
X166148223Y-63968223D01*
X166166402Y-63951747D01*
X166186107Y-63937133D01*
X166207151Y-63924520D01*
X166229329Y-63914030D01*
X166252429Y-63905765D01*
X166276227Y-63899804D01*
X166300496Y-63896204D01*
X166325000Y-63895000D01*
X167250000Y-63895000D01*
X167274504Y-63896204D01*
X167274504Y-63896204D01*
G37*
D11*
G04 #@! TD*
G04 #@! TO.P,C1,1*
G04 #@! TO.N,Net-(C1-Pad1)*
X166787500Y-64770000D03*
D10*
G04 #@! TO.N,GND*
G04 #@! TO.C,C1*
G36*
X170249504Y-63896204D02*
X170273773Y-63899804D01*
X170297571Y-63905765D01*
X170320671Y-63914030D01*
X170342849Y-63924520D01*
X170363893Y-63937133D01*
X170383598Y-63951747D01*
X170401777Y-63968223D01*
X170418253Y-63986402D01*
X170432867Y-64006107D01*
X170445480Y-64027151D01*
X170455970Y-64049329D01*
X170464235Y-64072429D01*
X170470196Y-64096227D01*
X170473796Y-64120496D01*
X170475000Y-64145000D01*
X170475000Y-65395000D01*
X170473796Y-65419504D01*
X170470196Y-65443773D01*
X170464235Y-65467571D01*
X170455970Y-65490671D01*
X170445480Y-65512849D01*
X170432867Y-65533893D01*
X170418253Y-65553598D01*
X170401777Y-65571777D01*
X170383598Y-65588253D01*
X170363893Y-65602867D01*
X170342849Y-65615480D01*
X170320671Y-65625970D01*
X170297571Y-65634235D01*
X170273773Y-65640196D01*
X170249504Y-65643796D01*
X170225000Y-65645000D01*
X169300000Y-65645000D01*
X169275496Y-65643796D01*
X169251227Y-65640196D01*
X169227429Y-65634235D01*
X169204329Y-65625970D01*
X169182151Y-65615480D01*
X169161107Y-65602867D01*
X169141402Y-65588253D01*
X169123223Y-65571777D01*
X169106747Y-65553598D01*
X169092133Y-65533893D01*
X169079520Y-65512849D01*
X169069030Y-65490671D01*
X169060765Y-65467571D01*
X169054804Y-65443773D01*
X169051204Y-65419504D01*
X169050000Y-65395000D01*
X169050000Y-64145000D01*
X169051204Y-64120496D01*
X169054804Y-64096227D01*
X169060765Y-64072429D01*
X169069030Y-64049329D01*
X169079520Y-64027151D01*
X169092133Y-64006107D01*
X169106747Y-63986402D01*
X169123223Y-63968223D01*
X169141402Y-63951747D01*
X169161107Y-63937133D01*
X169182151Y-63924520D01*
X169204329Y-63914030D01*
X169227429Y-63905765D01*
X169251227Y-63899804D01*
X169275496Y-63896204D01*
X169300000Y-63895000D01*
X170225000Y-63895000D01*
X170249504Y-63896204D01*
X170249504Y-63896204D01*
G37*
D11*
G04 #@! TD*
G04 #@! TO.P,C1,2*
G04 #@! TO.N,GND*
X169762500Y-64770000D03*
D10*
G04 #@! TO.N,GND*
G04 #@! TO.C,C2*
G36*
X170249504Y-55006204D02*
X170273773Y-55009804D01*
X170297571Y-55015765D01*
X170320671Y-55024030D01*
X170342849Y-55034520D01*
X170363893Y-55047133D01*
X170383598Y-55061747D01*
X170401777Y-55078223D01*
X170418253Y-55096402D01*
X170432867Y-55116107D01*
X170445480Y-55137151D01*
X170455970Y-55159329D01*
X170464235Y-55182429D01*
X170470196Y-55206227D01*
X170473796Y-55230496D01*
X170475000Y-55255000D01*
X170475000Y-56505000D01*
X170473796Y-56529504D01*
X170470196Y-56553773D01*
X170464235Y-56577571D01*
X170455970Y-56600671D01*
X170445480Y-56622849D01*
X170432867Y-56643893D01*
X170418253Y-56663598D01*
X170401777Y-56681777D01*
X170383598Y-56698253D01*
X170363893Y-56712867D01*
X170342849Y-56725480D01*
X170320671Y-56735970D01*
X170297571Y-56744235D01*
X170273773Y-56750196D01*
X170249504Y-56753796D01*
X170225000Y-56755000D01*
X169300000Y-56755000D01*
X169275496Y-56753796D01*
X169251227Y-56750196D01*
X169227429Y-56744235D01*
X169204329Y-56735970D01*
X169182151Y-56725480D01*
X169161107Y-56712867D01*
X169141402Y-56698253D01*
X169123223Y-56681777D01*
X169106747Y-56663598D01*
X169092133Y-56643893D01*
X169079520Y-56622849D01*
X169069030Y-56600671D01*
X169060765Y-56577571D01*
X169054804Y-56553773D01*
X169051204Y-56529504D01*
X169050000Y-56505000D01*
X169050000Y-55255000D01*
X169051204Y-55230496D01*
X169054804Y-55206227D01*
X169060765Y-55182429D01*
X169069030Y-55159329D01*
X169079520Y-55137151D01*
X169092133Y-55116107D01*
X169106747Y-55096402D01*
X169123223Y-55078223D01*
X169141402Y-55061747D01*
X169161107Y-55047133D01*
X169182151Y-55034520D01*
X169204329Y-55024030D01*
X169227429Y-55015765D01*
X169251227Y-55009804D01*
X169275496Y-55006204D01*
X169300000Y-55005000D01*
X170225000Y-55005000D01*
X170249504Y-55006204D01*
X170249504Y-55006204D01*
G37*
D11*
G04 #@! TD*
G04 #@! TO.P,C2,2*
G04 #@! TO.N,GND*
X169762500Y-55880000D03*
D10*
G04 #@! TO.N,+BATT*
G04 #@! TO.C,C2*
G36*
X167274504Y-55006204D02*
X167298773Y-55009804D01*
X167322571Y-55015765D01*
X167345671Y-55024030D01*
X167367849Y-55034520D01*
X167388893Y-55047133D01*
X167408598Y-55061747D01*
X167426777Y-55078223D01*
X167443253Y-55096402D01*
X167457867Y-55116107D01*
X167470480Y-55137151D01*
X167480970Y-55159329D01*
X167489235Y-55182429D01*
X167495196Y-55206227D01*
X167498796Y-55230496D01*
X167500000Y-55255000D01*
X167500000Y-56505000D01*
X167498796Y-56529504D01*
X167495196Y-56553773D01*
X167489235Y-56577571D01*
X167480970Y-56600671D01*
X167470480Y-56622849D01*
X167457867Y-56643893D01*
X167443253Y-56663598D01*
X167426777Y-56681777D01*
X167408598Y-56698253D01*
X167388893Y-56712867D01*
X167367849Y-56725480D01*
X167345671Y-56735970D01*
X167322571Y-56744235D01*
X167298773Y-56750196D01*
X167274504Y-56753796D01*
X167250000Y-56755000D01*
X166325000Y-56755000D01*
X166300496Y-56753796D01*
X166276227Y-56750196D01*
X166252429Y-56744235D01*
X166229329Y-56735970D01*
X166207151Y-56725480D01*
X166186107Y-56712867D01*
X166166402Y-56698253D01*
X166148223Y-56681777D01*
X166131747Y-56663598D01*
X166117133Y-56643893D01*
X166104520Y-56622849D01*
X166094030Y-56600671D01*
X166085765Y-56577571D01*
X166079804Y-56553773D01*
X166076204Y-56529504D01*
X166075000Y-56505000D01*
X166075000Y-55255000D01*
X166076204Y-55230496D01*
X166079804Y-55206227D01*
X166085765Y-55182429D01*
X166094030Y-55159329D01*
X166104520Y-55137151D01*
X166117133Y-55116107D01*
X166131747Y-55096402D01*
X166148223Y-55078223D01*
X166166402Y-55061747D01*
X166186107Y-55047133D01*
X166207151Y-55034520D01*
X166229329Y-55024030D01*
X166252429Y-55015765D01*
X166276227Y-55009804D01*
X166300496Y-55006204D01*
X166325000Y-55005000D01*
X167250000Y-55005000D01*
X167274504Y-55006204D01*
X167274504Y-55006204D01*
G37*
D11*
G04 #@! TD*
G04 #@! TO.P,C2,1*
G04 #@! TO.N,+BATT*
X166787500Y-55880000D03*
D10*
G04 #@! TO.N,+9V*
G04 #@! TO.C,C3*
G36*
X138499504Y-68341204D02*
X138523773Y-68344804D01*
X138547571Y-68350765D01*
X138570671Y-68359030D01*
X138592849Y-68369520D01*
X138613893Y-68382133D01*
X138633598Y-68396747D01*
X138651777Y-68413223D01*
X138668253Y-68431402D01*
X138682867Y-68451107D01*
X138695480Y-68472151D01*
X138705970Y-68494329D01*
X138714235Y-68517429D01*
X138720196Y-68541227D01*
X138723796Y-68565496D01*
X138725000Y-68590000D01*
X138725000Y-69840000D01*
X138723796Y-69864504D01*
X138720196Y-69888773D01*
X138714235Y-69912571D01*
X138705970Y-69935671D01*
X138695480Y-69957849D01*
X138682867Y-69978893D01*
X138668253Y-69998598D01*
X138651777Y-70016777D01*
X138633598Y-70033253D01*
X138613893Y-70047867D01*
X138592849Y-70060480D01*
X138570671Y-70070970D01*
X138547571Y-70079235D01*
X138523773Y-70085196D01*
X138499504Y-70088796D01*
X138475000Y-70090000D01*
X137550000Y-70090000D01*
X137525496Y-70088796D01*
X137501227Y-70085196D01*
X137477429Y-70079235D01*
X137454329Y-70070970D01*
X137432151Y-70060480D01*
X137411107Y-70047867D01*
X137391402Y-70033253D01*
X137373223Y-70016777D01*
X137356747Y-69998598D01*
X137342133Y-69978893D01*
X137329520Y-69957849D01*
X137319030Y-69935671D01*
X137310765Y-69912571D01*
X137304804Y-69888773D01*
X137301204Y-69864504D01*
X137300000Y-69840000D01*
X137300000Y-68590000D01*
X137301204Y-68565496D01*
X137304804Y-68541227D01*
X137310765Y-68517429D01*
X137319030Y-68494329D01*
X137329520Y-68472151D01*
X137342133Y-68451107D01*
X137356747Y-68431402D01*
X137373223Y-68413223D01*
X137391402Y-68396747D01*
X137411107Y-68382133D01*
X137432151Y-68369520D01*
X137454329Y-68359030D01*
X137477429Y-68350765D01*
X137501227Y-68344804D01*
X137525496Y-68341204D01*
X137550000Y-68340000D01*
X138475000Y-68340000D01*
X138499504Y-68341204D01*
X138499504Y-68341204D01*
G37*
D11*
G04 #@! TD*
G04 #@! TO.P,C3,1*
G04 #@! TO.N,+9V*
X138012500Y-69215000D03*
D10*
G04 #@! TO.N,GND*
G04 #@! TO.C,C3*
G36*
X135524504Y-68341204D02*
X135548773Y-68344804D01*
X135572571Y-68350765D01*
X135595671Y-68359030D01*
X135617849Y-68369520D01*
X135638893Y-68382133D01*
X135658598Y-68396747D01*
X135676777Y-68413223D01*
X135693253Y-68431402D01*
X135707867Y-68451107D01*
X135720480Y-68472151D01*
X135730970Y-68494329D01*
X135739235Y-68517429D01*
X135745196Y-68541227D01*
X135748796Y-68565496D01*
X135750000Y-68590000D01*
X135750000Y-69840000D01*
X135748796Y-69864504D01*
X135745196Y-69888773D01*
X135739235Y-69912571D01*
X135730970Y-69935671D01*
X135720480Y-69957849D01*
X135707867Y-69978893D01*
X135693253Y-69998598D01*
X135676777Y-70016777D01*
X135658598Y-70033253D01*
X135638893Y-70047867D01*
X135617849Y-70060480D01*
X135595671Y-70070970D01*
X135572571Y-70079235D01*
X135548773Y-70085196D01*
X135524504Y-70088796D01*
X135500000Y-70090000D01*
X134575000Y-70090000D01*
X134550496Y-70088796D01*
X134526227Y-70085196D01*
X134502429Y-70079235D01*
X134479329Y-70070970D01*
X134457151Y-70060480D01*
X134436107Y-70047867D01*
X134416402Y-70033253D01*
X134398223Y-70016777D01*
X134381747Y-69998598D01*
X134367133Y-69978893D01*
X134354520Y-69957849D01*
X134344030Y-69935671D01*
X134335765Y-69912571D01*
X134329804Y-69888773D01*
X134326204Y-69864504D01*
X134325000Y-69840000D01*
X134325000Y-68590000D01*
X134326204Y-68565496D01*
X134329804Y-68541227D01*
X134335765Y-68517429D01*
X134344030Y-68494329D01*
X134354520Y-68472151D01*
X134367133Y-68451107D01*
X134381747Y-68431402D01*
X134398223Y-68413223D01*
X134416402Y-68396747D01*
X134436107Y-68382133D01*
X134457151Y-68369520D01*
X134479329Y-68359030D01*
X134502429Y-68350765D01*
X134526227Y-68344804D01*
X134550496Y-68341204D01*
X134575000Y-68340000D01*
X135500000Y-68340000D01*
X135524504Y-68341204D01*
X135524504Y-68341204D01*
G37*
D11*
G04 #@! TD*
G04 #@! TO.P,C3,2*
G04 #@! TO.N,GND*
X135037500Y-69215000D03*
D12*
G04 #@! TO.P,J3,2*
G04 #@! TO.N,Net-(J3-Pad2)*
X142875000Y-85725000D03*
D13*
G04 #@! TO.P,J3,1*
G04 #@! TO.N,GND*
X145415000Y-85725000D03*
G04 #@! TD*
G04 #@! TO.P,J4,1*
G04 #@! TO.N,+9V*
X137455000Y-74040000D03*
D12*
G04 #@! TO.P,J4,2*
G04 #@! TO.N,GND*
X134915000Y-74040000D03*
G04 #@! TD*
D13*
G04 #@! TO.P,SW1,1*
G04 #@! TO.N,Net-(SW1-Pad1)*
X135255000Y-83185000D03*
D12*
G04 #@! TO.P,SW1,2*
G04 #@! TO.N,Net-(J3-Pad2)*
X135255000Y-80645000D03*
G04 #@! TO.P,SW1,3*
G04 #@! TO.N,+BATT*
X135255000Y-78105000D03*
G04 #@! TD*
D13*
G04 #@! TO.P,J2,1*
G04 #@! TO.N,Net-(C1-Pad1)*
X175635000Y-86380000D03*
D12*
G04 #@! TO.P,J2,2*
G04 #@! TO.N,Net-(J2-Pad2)*
X175635000Y-83840000D03*
G04 #@! TO.P,J2,3*
G04 #@! TO.N,Net-(J2-Pad3)*
X178175000Y-86380000D03*
G04 #@! TO.P,J2,4*
G04 #@! TO.N,Net-(J2-Pad4)*
X178175000Y-83840000D03*
G04 #@! TO.P,J2,5*
G04 #@! TO.N,GND*
X180715000Y-86380000D03*
G04 #@! TO.P,J2,6*
G04 #@! TO.N,Net-(J2-Pad6)*
X180715000Y-83840000D03*
G04 #@! TD*
D14*
G04 #@! TO.P,J1,1*
G04 #@! TO.N,Net-(C1-Pad1)*
X170210000Y-45910000D03*
G04 #@! TO.P,J1,2*
G04 #@! TO.N,Net-(J1-Pad2)*
X169560000Y-45910000D03*
G04 #@! TO.P,J1,3*
G04 #@! TO.N,Net-(J1-Pad3)*
X168910000Y-45910000D03*
G04 #@! TO.P,J1,4*
G04 #@! TO.N,Net-(J1-Pad4)*
X168260000Y-45910000D03*
G04 #@! TO.P,J1,5*
G04 #@! TO.N,GND*
X167610000Y-45910000D03*
D15*
G04 #@! TO.P,J1,6*
X171372500Y-45550000D03*
X166447500Y-45550000D03*
D16*
X171820000Y-43250000D03*
X166000000Y-43250000D03*
D17*
X169750000Y-43250000D03*
X168070000Y-43250000D03*
G04 #@! TD*
D18*
G04 #@! TO.P,D3,1*
G04 #@! TO.N,+9V*
X158115000Y-61975000D03*
G04 #@! TO.P,D3,2*
G04 #@! TO.N,Net-(D3-Pad2)*
X158115000Y-58675000D03*
G04 #@! TD*
D10*
G04 #@! TO.N,+BATT*
G04 #@! TO.C,L1*
G36*
X159955142Y-55816174D02*
X159978803Y-55819684D01*
X160002007Y-55825496D01*
X160024529Y-55833554D01*
X160046153Y-55843782D01*
X160066670Y-55856079D01*
X160085883Y-55870329D01*
X160103607Y-55886393D01*
X160119671Y-55904117D01*
X160133921Y-55923330D01*
X160146218Y-55943847D01*
X160156446Y-55965471D01*
X160164504Y-55987993D01*
X160170316Y-56011197D01*
X160173826Y-56034858D01*
X160175000Y-56058750D01*
X160175000Y-56971250D01*
X160173826Y-56995142D01*
X160170316Y-57018803D01*
X160164504Y-57042007D01*
X160156446Y-57064529D01*
X160146218Y-57086153D01*
X160133921Y-57106670D01*
X160119671Y-57125883D01*
X160103607Y-57143607D01*
X160085883Y-57159671D01*
X160066670Y-57173921D01*
X160046153Y-57186218D01*
X160024529Y-57196446D01*
X160002007Y-57204504D01*
X159978803Y-57210316D01*
X159955142Y-57213826D01*
X159931250Y-57215000D01*
X159443750Y-57215000D01*
X159419858Y-57213826D01*
X159396197Y-57210316D01*
X159372993Y-57204504D01*
X159350471Y-57196446D01*
X159328847Y-57186218D01*
X159308330Y-57173921D01*
X159289117Y-57159671D01*
X159271393Y-57143607D01*
X159255329Y-57125883D01*
X159241079Y-57106670D01*
X159228782Y-57086153D01*
X159218554Y-57064529D01*
X159210496Y-57042007D01*
X159204684Y-57018803D01*
X159201174Y-56995142D01*
X159200000Y-56971250D01*
X159200000Y-56058750D01*
X159201174Y-56034858D01*
X159204684Y-56011197D01*
X159210496Y-55987993D01*
X159218554Y-55965471D01*
X159228782Y-55943847D01*
X159241079Y-55923330D01*
X159255329Y-55904117D01*
X159271393Y-55886393D01*
X159289117Y-55870329D01*
X159308330Y-55856079D01*
X159328847Y-55843782D01*
X159350471Y-55833554D01*
X159372993Y-55825496D01*
X159396197Y-55819684D01*
X159419858Y-55816174D01*
X159443750Y-55815000D01*
X159931250Y-55815000D01*
X159955142Y-55816174D01*
X159955142Y-55816174D01*
G37*
D19*
G04 #@! TD*
G04 #@! TO.P,L1,1*
G04 #@! TO.N,+BATT*
X159687500Y-56515000D03*
D10*
G04 #@! TO.N,Net-(D3-Pad2)*
G04 #@! TO.C,L1*
G36*
X158080142Y-55816174D02*
X158103803Y-55819684D01*
X158127007Y-55825496D01*
X158149529Y-55833554D01*
X158171153Y-55843782D01*
X158191670Y-55856079D01*
X158210883Y-55870329D01*
X158228607Y-55886393D01*
X158244671Y-55904117D01*
X158258921Y-55923330D01*
X158271218Y-55943847D01*
X158281446Y-55965471D01*
X158289504Y-55987993D01*
X158295316Y-56011197D01*
X158298826Y-56034858D01*
X158300000Y-56058750D01*
X158300000Y-56971250D01*
X158298826Y-56995142D01*
X158295316Y-57018803D01*
X158289504Y-57042007D01*
X158281446Y-57064529D01*
X158271218Y-57086153D01*
X158258921Y-57106670D01*
X158244671Y-57125883D01*
X158228607Y-57143607D01*
X158210883Y-57159671D01*
X158191670Y-57173921D01*
X158171153Y-57186218D01*
X158149529Y-57196446D01*
X158127007Y-57204504D01*
X158103803Y-57210316D01*
X158080142Y-57213826D01*
X158056250Y-57215000D01*
X157568750Y-57215000D01*
X157544858Y-57213826D01*
X157521197Y-57210316D01*
X157497993Y-57204504D01*
X157475471Y-57196446D01*
X157453847Y-57186218D01*
X157433330Y-57173921D01*
X157414117Y-57159671D01*
X157396393Y-57143607D01*
X157380329Y-57125883D01*
X157366079Y-57106670D01*
X157353782Y-57086153D01*
X157343554Y-57064529D01*
X157335496Y-57042007D01*
X157329684Y-57018803D01*
X157326174Y-56995142D01*
X157325000Y-56971250D01*
X157325000Y-56058750D01*
X157326174Y-56034858D01*
X157329684Y-56011197D01*
X157335496Y-55987993D01*
X157343554Y-55965471D01*
X157353782Y-55943847D01*
X157366079Y-55923330D01*
X157380329Y-55904117D01*
X157396393Y-55886393D01*
X157414117Y-55870329D01*
X157433330Y-55856079D01*
X157453847Y-55843782D01*
X157475471Y-55833554D01*
X157497993Y-55825496D01*
X157521197Y-55819684D01*
X157544858Y-55816174D01*
X157568750Y-55815000D01*
X158056250Y-55815000D01*
X158080142Y-55816174D01*
X158080142Y-55816174D01*
G37*
D19*
G04 #@! TD*
G04 #@! TO.P,L1,2*
G04 #@! TO.N,Net-(D3-Pad2)*
X157812500Y-56515000D03*
D10*
G04 #@! TO.N,Net-(D1-Pad2)*
G04 #@! TO.C,D1*
G36*
X177735142Y-42481174D02*
X177758803Y-42484684D01*
X177782007Y-42490496D01*
X177804529Y-42498554D01*
X177826153Y-42508782D01*
X177846670Y-42521079D01*
X177865883Y-42535329D01*
X177883607Y-42551393D01*
X177899671Y-42569117D01*
X177913921Y-42588330D01*
X177926218Y-42608847D01*
X177936446Y-42630471D01*
X177944504Y-42652993D01*
X177950316Y-42676197D01*
X177953826Y-42699858D01*
X177955000Y-42723750D01*
X177955000Y-43636250D01*
X177953826Y-43660142D01*
X177950316Y-43683803D01*
X177944504Y-43707007D01*
X177936446Y-43729529D01*
X177926218Y-43751153D01*
X177913921Y-43771670D01*
X177899671Y-43790883D01*
X177883607Y-43808607D01*
X177865883Y-43824671D01*
X177846670Y-43838921D01*
X177826153Y-43851218D01*
X177804529Y-43861446D01*
X177782007Y-43869504D01*
X177758803Y-43875316D01*
X177735142Y-43878826D01*
X177711250Y-43880000D01*
X177223750Y-43880000D01*
X177199858Y-43878826D01*
X177176197Y-43875316D01*
X177152993Y-43869504D01*
X177130471Y-43861446D01*
X177108847Y-43851218D01*
X177088330Y-43838921D01*
X177069117Y-43824671D01*
X177051393Y-43808607D01*
X177035329Y-43790883D01*
X177021079Y-43771670D01*
X177008782Y-43751153D01*
X176998554Y-43729529D01*
X176990496Y-43707007D01*
X176984684Y-43683803D01*
X176981174Y-43660142D01*
X176980000Y-43636250D01*
X176980000Y-42723750D01*
X176981174Y-42699858D01*
X176984684Y-42676197D01*
X176990496Y-42652993D01*
X176998554Y-42630471D01*
X177008782Y-42608847D01*
X177021079Y-42588330D01*
X177035329Y-42569117D01*
X177051393Y-42551393D01*
X177069117Y-42535329D01*
X177088330Y-42521079D01*
X177108847Y-42508782D01*
X177130471Y-42498554D01*
X177152993Y-42490496D01*
X177176197Y-42484684D01*
X177199858Y-42481174D01*
X177223750Y-42480000D01*
X177711250Y-42480000D01*
X177735142Y-42481174D01*
X177735142Y-42481174D01*
G37*
D19*
G04 #@! TD*
G04 #@! TO.P,D1,2*
G04 #@! TO.N,Net-(D1-Pad2)*
X177467500Y-43180000D03*
D10*
G04 #@! TO.N,GND*
G04 #@! TO.C,D1*
G36*
X175860142Y-42481174D02*
X175883803Y-42484684D01*
X175907007Y-42490496D01*
X175929529Y-42498554D01*
X175951153Y-42508782D01*
X175971670Y-42521079D01*
X175990883Y-42535329D01*
X176008607Y-42551393D01*
X176024671Y-42569117D01*
X176038921Y-42588330D01*
X176051218Y-42608847D01*
X176061446Y-42630471D01*
X176069504Y-42652993D01*
X176075316Y-42676197D01*
X176078826Y-42699858D01*
X176080000Y-42723750D01*
X176080000Y-43636250D01*
X176078826Y-43660142D01*
X176075316Y-43683803D01*
X176069504Y-43707007D01*
X176061446Y-43729529D01*
X176051218Y-43751153D01*
X176038921Y-43771670D01*
X176024671Y-43790883D01*
X176008607Y-43808607D01*
X175990883Y-43824671D01*
X175971670Y-43838921D01*
X175951153Y-43851218D01*
X175929529Y-43861446D01*
X175907007Y-43869504D01*
X175883803Y-43875316D01*
X175860142Y-43878826D01*
X175836250Y-43880000D01*
X175348750Y-43880000D01*
X175324858Y-43878826D01*
X175301197Y-43875316D01*
X175277993Y-43869504D01*
X175255471Y-43861446D01*
X175233847Y-43851218D01*
X175213330Y-43838921D01*
X175194117Y-43824671D01*
X175176393Y-43808607D01*
X175160329Y-43790883D01*
X175146079Y-43771670D01*
X175133782Y-43751153D01*
X175123554Y-43729529D01*
X175115496Y-43707007D01*
X175109684Y-43683803D01*
X175106174Y-43660142D01*
X175105000Y-43636250D01*
X175105000Y-42723750D01*
X175106174Y-42699858D01*
X175109684Y-42676197D01*
X175115496Y-42652993D01*
X175123554Y-42630471D01*
X175133782Y-42608847D01*
X175146079Y-42588330D01*
X175160329Y-42569117D01*
X175176393Y-42551393D01*
X175194117Y-42535329D01*
X175213330Y-42521079D01*
X175233847Y-42508782D01*
X175255471Y-42498554D01*
X175277993Y-42490496D01*
X175301197Y-42484684D01*
X175324858Y-42481174D01*
X175348750Y-42480000D01*
X175836250Y-42480000D01*
X175860142Y-42481174D01*
X175860142Y-42481174D01*
G37*
D19*
G04 #@! TD*
G04 #@! TO.P,D1,1*
G04 #@! TO.N,GND*
X175592500Y-43180000D03*
D10*
G04 #@! TO.N,Net-(D2-Pad1)*
G04 #@! TO.C,D2*
G36*
X134465142Y-59203674D02*
X134488803Y-59207184D01*
X134512007Y-59212996D01*
X134534529Y-59221054D01*
X134556153Y-59231282D01*
X134576670Y-59243579D01*
X134595883Y-59257829D01*
X134613607Y-59273893D01*
X134629671Y-59291617D01*
X134643921Y-59310830D01*
X134656218Y-59331347D01*
X134666446Y-59352971D01*
X134674504Y-59375493D01*
X134680316Y-59398697D01*
X134683826Y-59422358D01*
X134685000Y-59446250D01*
X134685000Y-59933750D01*
X134683826Y-59957642D01*
X134680316Y-59981303D01*
X134674504Y-60004507D01*
X134666446Y-60027029D01*
X134656218Y-60048653D01*
X134643921Y-60069170D01*
X134629671Y-60088383D01*
X134613607Y-60106107D01*
X134595883Y-60122171D01*
X134576670Y-60136421D01*
X134556153Y-60148718D01*
X134534529Y-60158946D01*
X134512007Y-60167004D01*
X134488803Y-60172816D01*
X134465142Y-60176326D01*
X134441250Y-60177500D01*
X133528750Y-60177500D01*
X133504858Y-60176326D01*
X133481197Y-60172816D01*
X133457993Y-60167004D01*
X133435471Y-60158946D01*
X133413847Y-60148718D01*
X133393330Y-60136421D01*
X133374117Y-60122171D01*
X133356393Y-60106107D01*
X133340329Y-60088383D01*
X133326079Y-60069170D01*
X133313782Y-60048653D01*
X133303554Y-60027029D01*
X133295496Y-60004507D01*
X133289684Y-59981303D01*
X133286174Y-59957642D01*
X133285000Y-59933750D01*
X133285000Y-59446250D01*
X133286174Y-59422358D01*
X133289684Y-59398697D01*
X133295496Y-59375493D01*
X133303554Y-59352971D01*
X133313782Y-59331347D01*
X133326079Y-59310830D01*
X133340329Y-59291617D01*
X133356393Y-59273893D01*
X133374117Y-59257829D01*
X133393330Y-59243579D01*
X133413847Y-59231282D01*
X133435471Y-59221054D01*
X133457993Y-59212996D01*
X133481197Y-59207184D01*
X133504858Y-59203674D01*
X133528750Y-59202500D01*
X134441250Y-59202500D01*
X134465142Y-59203674D01*
X134465142Y-59203674D01*
G37*
D19*
G04 #@! TD*
G04 #@! TO.P,D2,1*
G04 #@! TO.N,Net-(D2-Pad1)*
X133985000Y-59690000D03*
D10*
G04 #@! TO.N,Net-(D2-Pad2)*
G04 #@! TO.C,D2*
G36*
X134465142Y-61078674D02*
X134488803Y-61082184D01*
X134512007Y-61087996D01*
X134534529Y-61096054D01*
X134556153Y-61106282D01*
X134576670Y-61118579D01*
X134595883Y-61132829D01*
X134613607Y-61148893D01*
X134629671Y-61166617D01*
X134643921Y-61185830D01*
X134656218Y-61206347D01*
X134666446Y-61227971D01*
X134674504Y-61250493D01*
X134680316Y-61273697D01*
X134683826Y-61297358D01*
X134685000Y-61321250D01*
X134685000Y-61808750D01*
X134683826Y-61832642D01*
X134680316Y-61856303D01*
X134674504Y-61879507D01*
X134666446Y-61902029D01*
X134656218Y-61923653D01*
X134643921Y-61944170D01*
X134629671Y-61963383D01*
X134613607Y-61981107D01*
X134595883Y-61997171D01*
X134576670Y-62011421D01*
X134556153Y-62023718D01*
X134534529Y-62033946D01*
X134512007Y-62042004D01*
X134488803Y-62047816D01*
X134465142Y-62051326D01*
X134441250Y-62052500D01*
X133528750Y-62052500D01*
X133504858Y-62051326D01*
X133481197Y-62047816D01*
X133457993Y-62042004D01*
X133435471Y-62033946D01*
X133413847Y-62023718D01*
X133393330Y-62011421D01*
X133374117Y-61997171D01*
X133356393Y-61981107D01*
X133340329Y-61963383D01*
X133326079Y-61944170D01*
X133313782Y-61923653D01*
X133303554Y-61902029D01*
X133295496Y-61879507D01*
X133289684Y-61856303D01*
X133286174Y-61832642D01*
X133285000Y-61808750D01*
X133285000Y-61321250D01*
X133286174Y-61297358D01*
X133289684Y-61273697D01*
X133295496Y-61250493D01*
X133303554Y-61227971D01*
X133313782Y-61206347D01*
X133326079Y-61185830D01*
X133340329Y-61166617D01*
X133356393Y-61148893D01*
X133374117Y-61132829D01*
X133393330Y-61118579D01*
X133413847Y-61106282D01*
X133435471Y-61096054D01*
X133457993Y-61087996D01*
X133481197Y-61082184D01*
X133504858Y-61078674D01*
X133528750Y-61077500D01*
X134441250Y-61077500D01*
X134465142Y-61078674D01*
X134465142Y-61078674D01*
G37*
D19*
G04 #@! TD*
G04 #@! TO.P,D2,2*
G04 #@! TO.N,Net-(D2-Pad2)*
X133985000Y-61565000D03*
D20*
G04 #@! TO.P,Q1,3*
G04 #@! TO.N,Net-(Q1-Pad3)*
X142875000Y-55515000D03*
G04 #@! TO.P,Q1,2*
G04 #@! TO.N,GND*
X143825000Y-57515000D03*
G04 #@! TO.P,Q1,1*
G04 #@! TO.N,Net-(Q1-Pad1)*
X141925000Y-57515000D03*
G04 #@! TD*
D21*
G04 #@! TO.P,Q2,1*
G04 #@! TO.N,Net-(Q1-Pad3)*
X145685000Y-55565000D03*
G04 #@! TO.P,Q2,2*
G04 #@! TO.N,GND*
X145685000Y-57465000D03*
G04 #@! TO.P,Q2,3*
G04 #@! TO.N,Net-(D2-Pad1)*
X147685000Y-56515000D03*
G04 #@! TD*
D22*
G04 #@! TO.P,U2,5*
G04 #@! TO.N,+BATT*
X163025000Y-59375000D03*
G04 #@! TO.P,U2,4*
X163025000Y-61275000D03*
G04 #@! TO.P,U2,3*
G04 #@! TO.N,Net-(R11-Pad2)*
X160825000Y-61275000D03*
G04 #@! TO.P,U2,2*
G04 #@! TO.N,GND*
X160825000Y-60325000D03*
G04 #@! TO.P,U2,1*
G04 #@! TO.N,Net-(D3-Pad2)*
X160825000Y-59375000D03*
G04 #@! TD*
D23*
G04 #@! TO.P,U1,1*
G04 #@! TO.N,Net-(R3-Pad1)*
X169860000Y-59225000D03*
G04 #@! TO.P,U1,2*
G04 #@! TO.N,GND*
X168910000Y-59225000D03*
G04 #@! TO.P,U1,3*
G04 #@! TO.N,+BATT*
X167960000Y-59225000D03*
G04 #@! TO.P,U1,4*
G04 #@! TO.N,Net-(C1-Pad1)*
X167960000Y-61425000D03*
G04 #@! TO.P,U1,5*
G04 #@! TO.N,Net-(R1-Pad1)*
X169860000Y-61425000D03*
G04 #@! TD*
D24*
G04 #@! TO.P,RV1,1*
G04 #@! TO.N,Net-(R5-Pad2)*
X148075000Y-47530000D03*
D25*
G04 #@! TO.P,RV1,2*
G04 #@! TO.N,Net-(Q1-Pad1)*
X149225000Y-51530000D03*
D24*
G04 #@! TO.P,RV1,3*
X150375000Y-47530000D03*
G04 #@! TD*
D10*
G04 #@! TO.N,GND*
G04 #@! TO.C,R12*
G36*
X164400142Y-64706174D02*
X164423803Y-64709684D01*
X164447007Y-64715496D01*
X164469529Y-64723554D01*
X164491153Y-64733782D01*
X164511670Y-64746079D01*
X164530883Y-64760329D01*
X164548607Y-64776393D01*
X164564671Y-64794117D01*
X164578921Y-64813330D01*
X164591218Y-64833847D01*
X164601446Y-64855471D01*
X164609504Y-64877993D01*
X164615316Y-64901197D01*
X164618826Y-64924858D01*
X164620000Y-64948750D01*
X164620000Y-65861250D01*
X164618826Y-65885142D01*
X164615316Y-65908803D01*
X164609504Y-65932007D01*
X164601446Y-65954529D01*
X164591218Y-65976153D01*
X164578921Y-65996670D01*
X164564671Y-66015883D01*
X164548607Y-66033607D01*
X164530883Y-66049671D01*
X164511670Y-66063921D01*
X164491153Y-66076218D01*
X164469529Y-66086446D01*
X164447007Y-66094504D01*
X164423803Y-66100316D01*
X164400142Y-66103826D01*
X164376250Y-66105000D01*
X163888750Y-66105000D01*
X163864858Y-66103826D01*
X163841197Y-66100316D01*
X163817993Y-66094504D01*
X163795471Y-66086446D01*
X163773847Y-66076218D01*
X163753330Y-66063921D01*
X163734117Y-66049671D01*
X163716393Y-66033607D01*
X163700329Y-66015883D01*
X163686079Y-65996670D01*
X163673782Y-65976153D01*
X163663554Y-65954529D01*
X163655496Y-65932007D01*
X163649684Y-65908803D01*
X163646174Y-65885142D01*
X163645000Y-65861250D01*
X163645000Y-64948750D01*
X163646174Y-64924858D01*
X163649684Y-64901197D01*
X163655496Y-64877993D01*
X163663554Y-64855471D01*
X163673782Y-64833847D01*
X163686079Y-64813330D01*
X163700329Y-64794117D01*
X163716393Y-64776393D01*
X163734117Y-64760329D01*
X163753330Y-64746079D01*
X163773847Y-64733782D01*
X163795471Y-64723554D01*
X163817993Y-64715496D01*
X163841197Y-64709684D01*
X163864858Y-64706174D01*
X163888750Y-64705000D01*
X164376250Y-64705000D01*
X164400142Y-64706174D01*
X164400142Y-64706174D01*
G37*
D19*
G04 #@! TD*
G04 #@! TO.P,R12,2*
G04 #@! TO.N,GND*
X164132500Y-65405000D03*
D10*
G04 #@! TO.N,Net-(R11-Pad2)*
G04 #@! TO.C,R12*
G36*
X162525142Y-64706174D02*
X162548803Y-64709684D01*
X162572007Y-64715496D01*
X162594529Y-64723554D01*
X162616153Y-64733782D01*
X162636670Y-64746079D01*
X162655883Y-64760329D01*
X162673607Y-64776393D01*
X162689671Y-64794117D01*
X162703921Y-64813330D01*
X162716218Y-64833847D01*
X162726446Y-64855471D01*
X162734504Y-64877993D01*
X162740316Y-64901197D01*
X162743826Y-64924858D01*
X162745000Y-64948750D01*
X162745000Y-65861250D01*
X162743826Y-65885142D01*
X162740316Y-65908803D01*
X162734504Y-65932007D01*
X162726446Y-65954529D01*
X162716218Y-65976153D01*
X162703921Y-65996670D01*
X162689671Y-66015883D01*
X162673607Y-66033607D01*
X162655883Y-66049671D01*
X162636670Y-66063921D01*
X162616153Y-66076218D01*
X162594529Y-66086446D01*
X162572007Y-66094504D01*
X162548803Y-66100316D01*
X162525142Y-66103826D01*
X162501250Y-66105000D01*
X162013750Y-66105000D01*
X161989858Y-66103826D01*
X161966197Y-66100316D01*
X161942993Y-66094504D01*
X161920471Y-66086446D01*
X161898847Y-66076218D01*
X161878330Y-66063921D01*
X161859117Y-66049671D01*
X161841393Y-66033607D01*
X161825329Y-66015883D01*
X161811079Y-65996670D01*
X161798782Y-65976153D01*
X161788554Y-65954529D01*
X161780496Y-65932007D01*
X161774684Y-65908803D01*
X161771174Y-65885142D01*
X161770000Y-65861250D01*
X161770000Y-64948750D01*
X161771174Y-64924858D01*
X161774684Y-64901197D01*
X161780496Y-64877993D01*
X161788554Y-64855471D01*
X161798782Y-64833847D01*
X161811079Y-64813330D01*
X161825329Y-64794117D01*
X161841393Y-64776393D01*
X161859117Y-64760329D01*
X161878330Y-64746079D01*
X161898847Y-64733782D01*
X161920471Y-64723554D01*
X161942993Y-64715496D01*
X161966197Y-64709684D01*
X161989858Y-64706174D01*
X162013750Y-64705000D01*
X162501250Y-64705000D01*
X162525142Y-64706174D01*
X162525142Y-64706174D01*
G37*
D19*
G04 #@! TD*
G04 #@! TO.P,R12,1*
G04 #@! TO.N,Net-(R11-Pad2)*
X162257500Y-65405000D03*
D10*
G04 #@! TO.N,Net-(R1-Pad2)*
G04 #@! TO.C,R2*
G36*
X173925142Y-60896174D02*
X173948803Y-60899684D01*
X173972007Y-60905496D01*
X173994529Y-60913554D01*
X174016153Y-60923782D01*
X174036670Y-60936079D01*
X174055883Y-60950329D01*
X174073607Y-60966393D01*
X174089671Y-60984117D01*
X174103921Y-61003330D01*
X174116218Y-61023847D01*
X174126446Y-61045471D01*
X174134504Y-61067993D01*
X174140316Y-61091197D01*
X174143826Y-61114858D01*
X174145000Y-61138750D01*
X174145000Y-62051250D01*
X174143826Y-62075142D01*
X174140316Y-62098803D01*
X174134504Y-62122007D01*
X174126446Y-62144529D01*
X174116218Y-62166153D01*
X174103921Y-62186670D01*
X174089671Y-62205883D01*
X174073607Y-62223607D01*
X174055883Y-62239671D01*
X174036670Y-62253921D01*
X174016153Y-62266218D01*
X173994529Y-62276446D01*
X173972007Y-62284504D01*
X173948803Y-62290316D01*
X173925142Y-62293826D01*
X173901250Y-62295000D01*
X173413750Y-62295000D01*
X173389858Y-62293826D01*
X173366197Y-62290316D01*
X173342993Y-62284504D01*
X173320471Y-62276446D01*
X173298847Y-62266218D01*
X173278330Y-62253921D01*
X173259117Y-62239671D01*
X173241393Y-62223607D01*
X173225329Y-62205883D01*
X173211079Y-62186670D01*
X173198782Y-62166153D01*
X173188554Y-62144529D01*
X173180496Y-62122007D01*
X173174684Y-62098803D01*
X173171174Y-62075142D01*
X173170000Y-62051250D01*
X173170000Y-61138750D01*
X173171174Y-61114858D01*
X173174684Y-61091197D01*
X173180496Y-61067993D01*
X173188554Y-61045471D01*
X173198782Y-61023847D01*
X173211079Y-61003330D01*
X173225329Y-60984117D01*
X173241393Y-60966393D01*
X173259117Y-60950329D01*
X173278330Y-60936079D01*
X173298847Y-60923782D01*
X173320471Y-60913554D01*
X173342993Y-60905496D01*
X173366197Y-60899684D01*
X173389858Y-60896174D01*
X173413750Y-60895000D01*
X173901250Y-60895000D01*
X173925142Y-60896174D01*
X173925142Y-60896174D01*
G37*
D19*
G04 #@! TD*
G04 #@! TO.P,R2,1*
G04 #@! TO.N,Net-(R1-Pad2)*
X173657500Y-61595000D03*
D10*
G04 #@! TO.N,GND*
G04 #@! TO.C,R2*
G36*
X172050142Y-60896174D02*
X172073803Y-60899684D01*
X172097007Y-60905496D01*
X172119529Y-60913554D01*
X172141153Y-60923782D01*
X172161670Y-60936079D01*
X172180883Y-60950329D01*
X172198607Y-60966393D01*
X172214671Y-60984117D01*
X172228921Y-61003330D01*
X172241218Y-61023847D01*
X172251446Y-61045471D01*
X172259504Y-61067993D01*
X172265316Y-61091197D01*
X172268826Y-61114858D01*
X172270000Y-61138750D01*
X172270000Y-62051250D01*
X172268826Y-62075142D01*
X172265316Y-62098803D01*
X172259504Y-62122007D01*
X172251446Y-62144529D01*
X172241218Y-62166153D01*
X172228921Y-62186670D01*
X172214671Y-62205883D01*
X172198607Y-62223607D01*
X172180883Y-62239671D01*
X172161670Y-62253921D01*
X172141153Y-62266218D01*
X172119529Y-62276446D01*
X172097007Y-62284504D01*
X172073803Y-62290316D01*
X172050142Y-62293826D01*
X172026250Y-62295000D01*
X171538750Y-62295000D01*
X171514858Y-62293826D01*
X171491197Y-62290316D01*
X171467993Y-62284504D01*
X171445471Y-62276446D01*
X171423847Y-62266218D01*
X171403330Y-62253921D01*
X171384117Y-62239671D01*
X171366393Y-62223607D01*
X171350329Y-62205883D01*
X171336079Y-62186670D01*
X171323782Y-62166153D01*
X171313554Y-62144529D01*
X171305496Y-62122007D01*
X171299684Y-62098803D01*
X171296174Y-62075142D01*
X171295000Y-62051250D01*
X171295000Y-61138750D01*
X171296174Y-61114858D01*
X171299684Y-61091197D01*
X171305496Y-61067993D01*
X171313554Y-61045471D01*
X171323782Y-61023847D01*
X171336079Y-61003330D01*
X171350329Y-60984117D01*
X171366393Y-60966393D01*
X171384117Y-60950329D01*
X171403330Y-60936079D01*
X171423847Y-60923782D01*
X171445471Y-60913554D01*
X171467993Y-60905496D01*
X171491197Y-60899684D01*
X171514858Y-60896174D01*
X171538750Y-60895000D01*
X172026250Y-60895000D01*
X172050142Y-60896174D01*
X172050142Y-60896174D01*
G37*
D19*
G04 #@! TD*
G04 #@! TO.P,R2,2*
G04 #@! TO.N,GND*
X171782500Y-61595000D03*
D10*
G04 #@! TO.N,Net-(R1-Pad2)*
G04 #@! TO.C,R1*
G36*
X173925142Y-58356174D02*
X173948803Y-58359684D01*
X173972007Y-58365496D01*
X173994529Y-58373554D01*
X174016153Y-58383782D01*
X174036670Y-58396079D01*
X174055883Y-58410329D01*
X174073607Y-58426393D01*
X174089671Y-58444117D01*
X174103921Y-58463330D01*
X174116218Y-58483847D01*
X174126446Y-58505471D01*
X174134504Y-58527993D01*
X174140316Y-58551197D01*
X174143826Y-58574858D01*
X174145000Y-58598750D01*
X174145000Y-59511250D01*
X174143826Y-59535142D01*
X174140316Y-59558803D01*
X174134504Y-59582007D01*
X174126446Y-59604529D01*
X174116218Y-59626153D01*
X174103921Y-59646670D01*
X174089671Y-59665883D01*
X174073607Y-59683607D01*
X174055883Y-59699671D01*
X174036670Y-59713921D01*
X174016153Y-59726218D01*
X173994529Y-59736446D01*
X173972007Y-59744504D01*
X173948803Y-59750316D01*
X173925142Y-59753826D01*
X173901250Y-59755000D01*
X173413750Y-59755000D01*
X173389858Y-59753826D01*
X173366197Y-59750316D01*
X173342993Y-59744504D01*
X173320471Y-59736446D01*
X173298847Y-59726218D01*
X173278330Y-59713921D01*
X173259117Y-59699671D01*
X173241393Y-59683607D01*
X173225329Y-59665883D01*
X173211079Y-59646670D01*
X173198782Y-59626153D01*
X173188554Y-59604529D01*
X173180496Y-59582007D01*
X173174684Y-59558803D01*
X173171174Y-59535142D01*
X173170000Y-59511250D01*
X173170000Y-58598750D01*
X173171174Y-58574858D01*
X173174684Y-58551197D01*
X173180496Y-58527993D01*
X173188554Y-58505471D01*
X173198782Y-58483847D01*
X173211079Y-58463330D01*
X173225329Y-58444117D01*
X173241393Y-58426393D01*
X173259117Y-58410329D01*
X173278330Y-58396079D01*
X173298847Y-58383782D01*
X173320471Y-58373554D01*
X173342993Y-58365496D01*
X173366197Y-58359684D01*
X173389858Y-58356174D01*
X173413750Y-58355000D01*
X173901250Y-58355000D01*
X173925142Y-58356174D01*
X173925142Y-58356174D01*
G37*
D19*
G04 #@! TD*
G04 #@! TO.P,R1,2*
G04 #@! TO.N,Net-(R1-Pad2)*
X173657500Y-59055000D03*
D10*
G04 #@! TO.N,Net-(R1-Pad1)*
G04 #@! TO.C,R1*
G36*
X172050142Y-58356174D02*
X172073803Y-58359684D01*
X172097007Y-58365496D01*
X172119529Y-58373554D01*
X172141153Y-58383782D01*
X172161670Y-58396079D01*
X172180883Y-58410329D01*
X172198607Y-58426393D01*
X172214671Y-58444117D01*
X172228921Y-58463330D01*
X172241218Y-58483847D01*
X172251446Y-58505471D01*
X172259504Y-58527993D01*
X172265316Y-58551197D01*
X172268826Y-58574858D01*
X172270000Y-58598750D01*
X172270000Y-59511250D01*
X172268826Y-59535142D01*
X172265316Y-59558803D01*
X172259504Y-59582007D01*
X172251446Y-59604529D01*
X172241218Y-59626153D01*
X172228921Y-59646670D01*
X172214671Y-59665883D01*
X172198607Y-59683607D01*
X172180883Y-59699671D01*
X172161670Y-59713921D01*
X172141153Y-59726218D01*
X172119529Y-59736446D01*
X172097007Y-59744504D01*
X172073803Y-59750316D01*
X172050142Y-59753826D01*
X172026250Y-59755000D01*
X171538750Y-59755000D01*
X171514858Y-59753826D01*
X171491197Y-59750316D01*
X171467993Y-59744504D01*
X171445471Y-59736446D01*
X171423847Y-59726218D01*
X171403330Y-59713921D01*
X171384117Y-59699671D01*
X171366393Y-59683607D01*
X171350329Y-59665883D01*
X171336079Y-59646670D01*
X171323782Y-59626153D01*
X171313554Y-59604529D01*
X171305496Y-59582007D01*
X171299684Y-59558803D01*
X171296174Y-59535142D01*
X171295000Y-59511250D01*
X171295000Y-58598750D01*
X171296174Y-58574858D01*
X171299684Y-58551197D01*
X171305496Y-58527993D01*
X171313554Y-58505471D01*
X171323782Y-58483847D01*
X171336079Y-58463330D01*
X171350329Y-58444117D01*
X171366393Y-58426393D01*
X171384117Y-58410329D01*
X171403330Y-58396079D01*
X171423847Y-58383782D01*
X171445471Y-58373554D01*
X171467993Y-58365496D01*
X171491197Y-58359684D01*
X171514858Y-58356174D01*
X171538750Y-58355000D01*
X172026250Y-58355000D01*
X172050142Y-58356174D01*
X172050142Y-58356174D01*
G37*
D19*
G04 #@! TD*
G04 #@! TO.P,R1,1*
G04 #@! TO.N,Net-(R1-Pad1)*
X171782500Y-59055000D03*
D10*
G04 #@! TO.N,Net-(R3-Pad1)*
G04 #@! TO.C,R3*
G36*
X172050142Y-55816174D02*
X172073803Y-55819684D01*
X172097007Y-55825496D01*
X172119529Y-55833554D01*
X172141153Y-55843782D01*
X172161670Y-55856079D01*
X172180883Y-55870329D01*
X172198607Y-55886393D01*
X172214671Y-55904117D01*
X172228921Y-55923330D01*
X172241218Y-55943847D01*
X172251446Y-55965471D01*
X172259504Y-55987993D01*
X172265316Y-56011197D01*
X172268826Y-56034858D01*
X172270000Y-56058750D01*
X172270000Y-56971250D01*
X172268826Y-56995142D01*
X172265316Y-57018803D01*
X172259504Y-57042007D01*
X172251446Y-57064529D01*
X172241218Y-57086153D01*
X172228921Y-57106670D01*
X172214671Y-57125883D01*
X172198607Y-57143607D01*
X172180883Y-57159671D01*
X172161670Y-57173921D01*
X172141153Y-57186218D01*
X172119529Y-57196446D01*
X172097007Y-57204504D01*
X172073803Y-57210316D01*
X172050142Y-57213826D01*
X172026250Y-57215000D01*
X171538750Y-57215000D01*
X171514858Y-57213826D01*
X171491197Y-57210316D01*
X171467993Y-57204504D01*
X171445471Y-57196446D01*
X171423847Y-57186218D01*
X171403330Y-57173921D01*
X171384117Y-57159671D01*
X171366393Y-57143607D01*
X171350329Y-57125883D01*
X171336079Y-57106670D01*
X171323782Y-57086153D01*
X171313554Y-57064529D01*
X171305496Y-57042007D01*
X171299684Y-57018803D01*
X171296174Y-56995142D01*
X171295000Y-56971250D01*
X171295000Y-56058750D01*
X171296174Y-56034858D01*
X171299684Y-56011197D01*
X171305496Y-55987993D01*
X171313554Y-55965471D01*
X171323782Y-55943847D01*
X171336079Y-55923330D01*
X171350329Y-55904117D01*
X171366393Y-55886393D01*
X171384117Y-55870329D01*
X171403330Y-55856079D01*
X171423847Y-55843782D01*
X171445471Y-55833554D01*
X171467993Y-55825496D01*
X171491197Y-55819684D01*
X171514858Y-55816174D01*
X171538750Y-55815000D01*
X172026250Y-55815000D01*
X172050142Y-55816174D01*
X172050142Y-55816174D01*
G37*
D19*
G04 #@! TD*
G04 #@! TO.P,R3,1*
G04 #@! TO.N,Net-(R3-Pad1)*
X171782500Y-56515000D03*
D10*
G04 #@! TO.N,Net-(D1-Pad2)*
G04 #@! TO.C,R3*
G36*
X173925142Y-55816174D02*
X173948803Y-55819684D01*
X173972007Y-55825496D01*
X173994529Y-55833554D01*
X174016153Y-55843782D01*
X174036670Y-55856079D01*
X174055883Y-55870329D01*
X174073607Y-55886393D01*
X174089671Y-55904117D01*
X174103921Y-55923330D01*
X174116218Y-55943847D01*
X174126446Y-55965471D01*
X174134504Y-55987993D01*
X174140316Y-56011197D01*
X174143826Y-56034858D01*
X174145000Y-56058750D01*
X174145000Y-56971250D01*
X174143826Y-56995142D01*
X174140316Y-57018803D01*
X174134504Y-57042007D01*
X174126446Y-57064529D01*
X174116218Y-57086153D01*
X174103921Y-57106670D01*
X174089671Y-57125883D01*
X174073607Y-57143607D01*
X174055883Y-57159671D01*
X174036670Y-57173921D01*
X174016153Y-57186218D01*
X173994529Y-57196446D01*
X173972007Y-57204504D01*
X173948803Y-57210316D01*
X173925142Y-57213826D01*
X173901250Y-57215000D01*
X173413750Y-57215000D01*
X173389858Y-57213826D01*
X173366197Y-57210316D01*
X173342993Y-57204504D01*
X173320471Y-57196446D01*
X173298847Y-57186218D01*
X173278330Y-57173921D01*
X173259117Y-57159671D01*
X173241393Y-57143607D01*
X173225329Y-57125883D01*
X173211079Y-57106670D01*
X173198782Y-57086153D01*
X173188554Y-57064529D01*
X173180496Y-57042007D01*
X173174684Y-57018803D01*
X173171174Y-56995142D01*
X173170000Y-56971250D01*
X173170000Y-56058750D01*
X173171174Y-56034858D01*
X173174684Y-56011197D01*
X173180496Y-55987993D01*
X173188554Y-55965471D01*
X173198782Y-55943847D01*
X173211079Y-55923330D01*
X173225329Y-55904117D01*
X173241393Y-55886393D01*
X173259117Y-55870329D01*
X173278330Y-55856079D01*
X173298847Y-55843782D01*
X173320471Y-55833554D01*
X173342993Y-55825496D01*
X173366197Y-55819684D01*
X173389858Y-55816174D01*
X173413750Y-55815000D01*
X173901250Y-55815000D01*
X173925142Y-55816174D01*
X173925142Y-55816174D01*
G37*
D19*
G04 #@! TD*
G04 #@! TO.P,R3,2*
G04 #@! TO.N,Net-(D1-Pad2)*
X173657500Y-56515000D03*
D10*
G04 #@! TO.N,Net-(R4-Pad2)*
G04 #@! TO.C,R4*
G36*
X139937642Y-49466174D02*
X139961303Y-49469684D01*
X139984507Y-49475496D01*
X140007029Y-49483554D01*
X140028653Y-49493782D01*
X140049170Y-49506079D01*
X140068383Y-49520329D01*
X140086107Y-49536393D01*
X140102171Y-49554117D01*
X140116421Y-49573330D01*
X140128718Y-49593847D01*
X140138946Y-49615471D01*
X140147004Y-49637993D01*
X140152816Y-49661197D01*
X140156326Y-49684858D01*
X140157500Y-49708750D01*
X140157500Y-50621250D01*
X140156326Y-50645142D01*
X140152816Y-50668803D01*
X140147004Y-50692007D01*
X140138946Y-50714529D01*
X140128718Y-50736153D01*
X140116421Y-50756670D01*
X140102171Y-50775883D01*
X140086107Y-50793607D01*
X140068383Y-50809671D01*
X140049170Y-50823921D01*
X140028653Y-50836218D01*
X140007029Y-50846446D01*
X139984507Y-50854504D01*
X139961303Y-50860316D01*
X139937642Y-50863826D01*
X139913750Y-50865000D01*
X139426250Y-50865000D01*
X139402358Y-50863826D01*
X139378697Y-50860316D01*
X139355493Y-50854504D01*
X139332971Y-50846446D01*
X139311347Y-50836218D01*
X139290830Y-50823921D01*
X139271617Y-50809671D01*
X139253893Y-50793607D01*
X139237829Y-50775883D01*
X139223579Y-50756670D01*
X139211282Y-50736153D01*
X139201054Y-50714529D01*
X139192996Y-50692007D01*
X139187184Y-50668803D01*
X139183674Y-50645142D01*
X139182500Y-50621250D01*
X139182500Y-49708750D01*
X139183674Y-49684858D01*
X139187184Y-49661197D01*
X139192996Y-49637993D01*
X139201054Y-49615471D01*
X139211282Y-49593847D01*
X139223579Y-49573330D01*
X139237829Y-49554117D01*
X139253893Y-49536393D01*
X139271617Y-49520329D01*
X139290830Y-49506079D01*
X139311347Y-49493782D01*
X139332971Y-49483554D01*
X139355493Y-49475496D01*
X139378697Y-49469684D01*
X139402358Y-49466174D01*
X139426250Y-49465000D01*
X139913750Y-49465000D01*
X139937642Y-49466174D01*
X139937642Y-49466174D01*
G37*
D19*
G04 #@! TD*
G04 #@! TO.P,R4,2*
G04 #@! TO.N,Net-(R4-Pad2)*
X139670000Y-50165000D03*
D10*
G04 #@! TO.N,+BATT*
G04 #@! TO.C,R4*
G36*
X138062642Y-49466174D02*
X138086303Y-49469684D01*
X138109507Y-49475496D01*
X138132029Y-49483554D01*
X138153653Y-49493782D01*
X138174170Y-49506079D01*
X138193383Y-49520329D01*
X138211107Y-49536393D01*
X138227171Y-49554117D01*
X138241421Y-49573330D01*
X138253718Y-49593847D01*
X138263946Y-49615471D01*
X138272004Y-49637993D01*
X138277816Y-49661197D01*
X138281326Y-49684858D01*
X138282500Y-49708750D01*
X138282500Y-50621250D01*
X138281326Y-50645142D01*
X138277816Y-50668803D01*
X138272004Y-50692007D01*
X138263946Y-50714529D01*
X138253718Y-50736153D01*
X138241421Y-50756670D01*
X138227171Y-50775883D01*
X138211107Y-50793607D01*
X138193383Y-50809671D01*
X138174170Y-50823921D01*
X138153653Y-50836218D01*
X138132029Y-50846446D01*
X138109507Y-50854504D01*
X138086303Y-50860316D01*
X138062642Y-50863826D01*
X138038750Y-50865000D01*
X137551250Y-50865000D01*
X137527358Y-50863826D01*
X137503697Y-50860316D01*
X137480493Y-50854504D01*
X137457971Y-50846446D01*
X137436347Y-50836218D01*
X137415830Y-50823921D01*
X137396617Y-50809671D01*
X137378893Y-50793607D01*
X137362829Y-50775883D01*
X137348579Y-50756670D01*
X137336282Y-50736153D01*
X137326054Y-50714529D01*
X137317996Y-50692007D01*
X137312184Y-50668803D01*
X137308674Y-50645142D01*
X137307500Y-50621250D01*
X137307500Y-49708750D01*
X137308674Y-49684858D01*
X137312184Y-49661197D01*
X137317996Y-49637993D01*
X137326054Y-49615471D01*
X137336282Y-49593847D01*
X137348579Y-49573330D01*
X137362829Y-49554117D01*
X137378893Y-49536393D01*
X137396617Y-49520329D01*
X137415830Y-49506079D01*
X137436347Y-49493782D01*
X137457971Y-49483554D01*
X137480493Y-49475496D01*
X137503697Y-49469684D01*
X137527358Y-49466174D01*
X137551250Y-49465000D01*
X138038750Y-49465000D01*
X138062642Y-49466174D01*
X138062642Y-49466174D01*
G37*
D19*
G04 #@! TD*
G04 #@! TO.P,R4,1*
G04 #@! TO.N,+BATT*
X137795000Y-50165000D03*
D10*
G04 #@! TO.N,Net-(R4-Pad2)*
G04 #@! TO.C,R5*
G36*
X141570142Y-49466174D02*
X141593803Y-49469684D01*
X141617007Y-49475496D01*
X141639529Y-49483554D01*
X141661153Y-49493782D01*
X141681670Y-49506079D01*
X141700883Y-49520329D01*
X141718607Y-49536393D01*
X141734671Y-49554117D01*
X141748921Y-49573330D01*
X141761218Y-49593847D01*
X141771446Y-49615471D01*
X141779504Y-49637993D01*
X141785316Y-49661197D01*
X141788826Y-49684858D01*
X141790000Y-49708750D01*
X141790000Y-50621250D01*
X141788826Y-50645142D01*
X141785316Y-50668803D01*
X141779504Y-50692007D01*
X141771446Y-50714529D01*
X141761218Y-50736153D01*
X141748921Y-50756670D01*
X141734671Y-50775883D01*
X141718607Y-50793607D01*
X141700883Y-50809671D01*
X141681670Y-50823921D01*
X141661153Y-50836218D01*
X141639529Y-50846446D01*
X141617007Y-50854504D01*
X141593803Y-50860316D01*
X141570142Y-50863826D01*
X141546250Y-50865000D01*
X141058750Y-50865000D01*
X141034858Y-50863826D01*
X141011197Y-50860316D01*
X140987993Y-50854504D01*
X140965471Y-50846446D01*
X140943847Y-50836218D01*
X140923330Y-50823921D01*
X140904117Y-50809671D01*
X140886393Y-50793607D01*
X140870329Y-50775883D01*
X140856079Y-50756670D01*
X140843782Y-50736153D01*
X140833554Y-50714529D01*
X140825496Y-50692007D01*
X140819684Y-50668803D01*
X140816174Y-50645142D01*
X140815000Y-50621250D01*
X140815000Y-49708750D01*
X140816174Y-49684858D01*
X140819684Y-49661197D01*
X140825496Y-49637993D01*
X140833554Y-49615471D01*
X140843782Y-49593847D01*
X140856079Y-49573330D01*
X140870329Y-49554117D01*
X140886393Y-49536393D01*
X140904117Y-49520329D01*
X140923330Y-49506079D01*
X140943847Y-49493782D01*
X140965471Y-49483554D01*
X140987993Y-49475496D01*
X141011197Y-49469684D01*
X141034858Y-49466174D01*
X141058750Y-49465000D01*
X141546250Y-49465000D01*
X141570142Y-49466174D01*
X141570142Y-49466174D01*
G37*
D19*
G04 #@! TD*
G04 #@! TO.P,R5,1*
G04 #@! TO.N,Net-(R4-Pad2)*
X141302500Y-50165000D03*
D10*
G04 #@! TO.N,Net-(R5-Pad2)*
G04 #@! TO.C,R5*
G36*
X143445142Y-49466174D02*
X143468803Y-49469684D01*
X143492007Y-49475496D01*
X143514529Y-49483554D01*
X143536153Y-49493782D01*
X143556670Y-49506079D01*
X143575883Y-49520329D01*
X143593607Y-49536393D01*
X143609671Y-49554117D01*
X143623921Y-49573330D01*
X143636218Y-49593847D01*
X143646446Y-49615471D01*
X143654504Y-49637993D01*
X143660316Y-49661197D01*
X143663826Y-49684858D01*
X143665000Y-49708750D01*
X143665000Y-50621250D01*
X143663826Y-50645142D01*
X143660316Y-50668803D01*
X143654504Y-50692007D01*
X143646446Y-50714529D01*
X143636218Y-50736153D01*
X143623921Y-50756670D01*
X143609671Y-50775883D01*
X143593607Y-50793607D01*
X143575883Y-50809671D01*
X143556670Y-50823921D01*
X143536153Y-50836218D01*
X143514529Y-50846446D01*
X143492007Y-50854504D01*
X143468803Y-50860316D01*
X143445142Y-50863826D01*
X143421250Y-50865000D01*
X142933750Y-50865000D01*
X142909858Y-50863826D01*
X142886197Y-50860316D01*
X142862993Y-50854504D01*
X142840471Y-50846446D01*
X142818847Y-50836218D01*
X142798330Y-50823921D01*
X142779117Y-50809671D01*
X142761393Y-50793607D01*
X142745329Y-50775883D01*
X142731079Y-50756670D01*
X142718782Y-50736153D01*
X142708554Y-50714529D01*
X142700496Y-50692007D01*
X142694684Y-50668803D01*
X142691174Y-50645142D01*
X142690000Y-50621250D01*
X142690000Y-49708750D01*
X142691174Y-49684858D01*
X142694684Y-49661197D01*
X142700496Y-49637993D01*
X142708554Y-49615471D01*
X142718782Y-49593847D01*
X142731079Y-49573330D01*
X142745329Y-49554117D01*
X142761393Y-49536393D01*
X142779117Y-49520329D01*
X142798330Y-49506079D01*
X142818847Y-49493782D01*
X142840471Y-49483554D01*
X142862993Y-49475496D01*
X142886197Y-49469684D01*
X142909858Y-49466174D01*
X142933750Y-49465000D01*
X143421250Y-49465000D01*
X143445142Y-49466174D01*
X143445142Y-49466174D01*
G37*
D19*
G04 #@! TD*
G04 #@! TO.P,R5,2*
G04 #@! TO.N,Net-(R5-Pad2)*
X143177500Y-50165000D03*
D10*
G04 #@! TO.N,GND*
G04 #@! TO.C,R6*
G36*
X144080142Y-58991174D02*
X144103803Y-58994684D01*
X144127007Y-59000496D01*
X144149529Y-59008554D01*
X144171153Y-59018782D01*
X144191670Y-59031079D01*
X144210883Y-59045329D01*
X144228607Y-59061393D01*
X144244671Y-59079117D01*
X144258921Y-59098330D01*
X144271218Y-59118847D01*
X144281446Y-59140471D01*
X144289504Y-59162993D01*
X144295316Y-59186197D01*
X144298826Y-59209858D01*
X144300000Y-59233750D01*
X144300000Y-60146250D01*
X144298826Y-60170142D01*
X144295316Y-60193803D01*
X144289504Y-60217007D01*
X144281446Y-60239529D01*
X144271218Y-60261153D01*
X144258921Y-60281670D01*
X144244671Y-60300883D01*
X144228607Y-60318607D01*
X144210883Y-60334671D01*
X144191670Y-60348921D01*
X144171153Y-60361218D01*
X144149529Y-60371446D01*
X144127007Y-60379504D01*
X144103803Y-60385316D01*
X144080142Y-60388826D01*
X144056250Y-60390000D01*
X143568750Y-60390000D01*
X143544858Y-60388826D01*
X143521197Y-60385316D01*
X143497993Y-60379504D01*
X143475471Y-60371446D01*
X143453847Y-60361218D01*
X143433330Y-60348921D01*
X143414117Y-60334671D01*
X143396393Y-60318607D01*
X143380329Y-60300883D01*
X143366079Y-60281670D01*
X143353782Y-60261153D01*
X143343554Y-60239529D01*
X143335496Y-60217007D01*
X143329684Y-60193803D01*
X143326174Y-60170142D01*
X143325000Y-60146250D01*
X143325000Y-59233750D01*
X143326174Y-59209858D01*
X143329684Y-59186197D01*
X143335496Y-59162993D01*
X143343554Y-59140471D01*
X143353782Y-59118847D01*
X143366079Y-59098330D01*
X143380329Y-59079117D01*
X143396393Y-59061393D01*
X143414117Y-59045329D01*
X143433330Y-59031079D01*
X143453847Y-59018782D01*
X143475471Y-59008554D01*
X143497993Y-59000496D01*
X143521197Y-58994684D01*
X143544858Y-58991174D01*
X143568750Y-58990000D01*
X144056250Y-58990000D01*
X144080142Y-58991174D01*
X144080142Y-58991174D01*
G37*
D19*
G04 #@! TD*
G04 #@! TO.P,R6,2*
G04 #@! TO.N,GND*
X143812500Y-59690000D03*
D10*
G04 #@! TO.N,Net-(Q1-Pad1)*
G04 #@! TO.C,R6*
G36*
X142205142Y-58991174D02*
X142228803Y-58994684D01*
X142252007Y-59000496D01*
X142274529Y-59008554D01*
X142296153Y-59018782D01*
X142316670Y-59031079D01*
X142335883Y-59045329D01*
X142353607Y-59061393D01*
X142369671Y-59079117D01*
X142383921Y-59098330D01*
X142396218Y-59118847D01*
X142406446Y-59140471D01*
X142414504Y-59162993D01*
X142420316Y-59186197D01*
X142423826Y-59209858D01*
X142425000Y-59233750D01*
X142425000Y-60146250D01*
X142423826Y-60170142D01*
X142420316Y-60193803D01*
X142414504Y-60217007D01*
X142406446Y-60239529D01*
X142396218Y-60261153D01*
X142383921Y-60281670D01*
X142369671Y-60300883D01*
X142353607Y-60318607D01*
X142335883Y-60334671D01*
X142316670Y-60348921D01*
X142296153Y-60361218D01*
X142274529Y-60371446D01*
X142252007Y-60379504D01*
X142228803Y-60385316D01*
X142205142Y-60388826D01*
X142181250Y-60390000D01*
X141693750Y-60390000D01*
X141669858Y-60388826D01*
X141646197Y-60385316D01*
X141622993Y-60379504D01*
X141600471Y-60371446D01*
X141578847Y-60361218D01*
X141558330Y-60348921D01*
X141539117Y-60334671D01*
X141521393Y-60318607D01*
X141505329Y-60300883D01*
X141491079Y-60281670D01*
X141478782Y-60261153D01*
X141468554Y-60239529D01*
X141460496Y-60217007D01*
X141454684Y-60193803D01*
X141451174Y-60170142D01*
X141450000Y-60146250D01*
X141450000Y-59233750D01*
X141451174Y-59209858D01*
X141454684Y-59186197D01*
X141460496Y-59162993D01*
X141468554Y-59140471D01*
X141478782Y-59118847D01*
X141491079Y-59098330D01*
X141505329Y-59079117D01*
X141521393Y-59061393D01*
X141539117Y-59045329D01*
X141558330Y-59031079D01*
X141578847Y-59018782D01*
X141600471Y-59008554D01*
X141622993Y-59000496D01*
X141646197Y-58994684D01*
X141669858Y-58991174D01*
X141693750Y-58990000D01*
X142181250Y-58990000D01*
X142205142Y-58991174D01*
X142205142Y-58991174D01*
G37*
D19*
G04 #@! TD*
G04 #@! TO.P,R6,1*
G04 #@! TO.N,Net-(Q1-Pad1)*
X141937500Y-59690000D03*
D10*
G04 #@! TO.N,+BATT*
G04 #@! TO.C,R7*
G36*
X138062642Y-51371174D02*
X138086303Y-51374684D01*
X138109507Y-51380496D01*
X138132029Y-51388554D01*
X138153653Y-51398782D01*
X138174170Y-51411079D01*
X138193383Y-51425329D01*
X138211107Y-51441393D01*
X138227171Y-51459117D01*
X138241421Y-51478330D01*
X138253718Y-51498847D01*
X138263946Y-51520471D01*
X138272004Y-51542993D01*
X138277816Y-51566197D01*
X138281326Y-51589858D01*
X138282500Y-51613750D01*
X138282500Y-52526250D01*
X138281326Y-52550142D01*
X138277816Y-52573803D01*
X138272004Y-52597007D01*
X138263946Y-52619529D01*
X138253718Y-52641153D01*
X138241421Y-52661670D01*
X138227171Y-52680883D01*
X138211107Y-52698607D01*
X138193383Y-52714671D01*
X138174170Y-52728921D01*
X138153653Y-52741218D01*
X138132029Y-52751446D01*
X138109507Y-52759504D01*
X138086303Y-52765316D01*
X138062642Y-52768826D01*
X138038750Y-52770000D01*
X137551250Y-52770000D01*
X137527358Y-52768826D01*
X137503697Y-52765316D01*
X137480493Y-52759504D01*
X137457971Y-52751446D01*
X137436347Y-52741218D01*
X137415830Y-52728921D01*
X137396617Y-52714671D01*
X137378893Y-52698607D01*
X137362829Y-52680883D01*
X137348579Y-52661670D01*
X137336282Y-52641153D01*
X137326054Y-52619529D01*
X137317996Y-52597007D01*
X137312184Y-52573803D01*
X137308674Y-52550142D01*
X137307500Y-52526250D01*
X137307500Y-51613750D01*
X137308674Y-51589858D01*
X137312184Y-51566197D01*
X137317996Y-51542993D01*
X137326054Y-51520471D01*
X137336282Y-51498847D01*
X137348579Y-51478330D01*
X137362829Y-51459117D01*
X137378893Y-51441393D01*
X137396617Y-51425329D01*
X137415830Y-51411079D01*
X137436347Y-51398782D01*
X137457971Y-51388554D01*
X137480493Y-51380496D01*
X137503697Y-51374684D01*
X137527358Y-51371174D01*
X137551250Y-51370000D01*
X138038750Y-51370000D01*
X138062642Y-51371174D01*
X138062642Y-51371174D01*
G37*
D19*
G04 #@! TD*
G04 #@! TO.P,R7,1*
G04 #@! TO.N,+BATT*
X137795000Y-52070000D03*
D10*
G04 #@! TO.N,Net-(R7-Pad2)*
G04 #@! TO.C,R7*
G36*
X139937642Y-51371174D02*
X139961303Y-51374684D01*
X139984507Y-51380496D01*
X140007029Y-51388554D01*
X140028653Y-51398782D01*
X140049170Y-51411079D01*
X140068383Y-51425329D01*
X140086107Y-51441393D01*
X140102171Y-51459117D01*
X140116421Y-51478330D01*
X140128718Y-51498847D01*
X140138946Y-51520471D01*
X140147004Y-51542993D01*
X140152816Y-51566197D01*
X140156326Y-51589858D01*
X140157500Y-51613750D01*
X140157500Y-52526250D01*
X140156326Y-52550142D01*
X140152816Y-52573803D01*
X140147004Y-52597007D01*
X140138946Y-52619529D01*
X140128718Y-52641153D01*
X140116421Y-52661670D01*
X140102171Y-52680883D01*
X140086107Y-52698607D01*
X140068383Y-52714671D01*
X140049170Y-52728921D01*
X140028653Y-52741218D01*
X140007029Y-52751446D01*
X139984507Y-52759504D01*
X139961303Y-52765316D01*
X139937642Y-52768826D01*
X139913750Y-52770000D01*
X139426250Y-52770000D01*
X139402358Y-52768826D01*
X139378697Y-52765316D01*
X139355493Y-52759504D01*
X139332971Y-52751446D01*
X139311347Y-52741218D01*
X139290830Y-52728921D01*
X139271617Y-52714671D01*
X139253893Y-52698607D01*
X139237829Y-52680883D01*
X139223579Y-52661670D01*
X139211282Y-52641153D01*
X139201054Y-52619529D01*
X139192996Y-52597007D01*
X139187184Y-52573803D01*
X139183674Y-52550142D01*
X139182500Y-52526250D01*
X139182500Y-51613750D01*
X139183674Y-51589858D01*
X139187184Y-51566197D01*
X139192996Y-51542993D01*
X139201054Y-51520471D01*
X139211282Y-51498847D01*
X139223579Y-51478330D01*
X139237829Y-51459117D01*
X139253893Y-51441393D01*
X139271617Y-51425329D01*
X139290830Y-51411079D01*
X139311347Y-51398782D01*
X139332971Y-51388554D01*
X139355493Y-51380496D01*
X139378697Y-51374684D01*
X139402358Y-51371174D01*
X139426250Y-51370000D01*
X139913750Y-51370000D01*
X139937642Y-51371174D01*
X139937642Y-51371174D01*
G37*
D19*
G04 #@! TD*
G04 #@! TO.P,R7,2*
G04 #@! TO.N,Net-(R7-Pad2)*
X139670000Y-52070000D03*
D10*
G04 #@! TO.N,Net-(R5-Pad2)*
G04 #@! TO.C,R8*
G36*
X143445142Y-51371174D02*
X143468803Y-51374684D01*
X143492007Y-51380496D01*
X143514529Y-51388554D01*
X143536153Y-51398782D01*
X143556670Y-51411079D01*
X143575883Y-51425329D01*
X143593607Y-51441393D01*
X143609671Y-51459117D01*
X143623921Y-51478330D01*
X143636218Y-51498847D01*
X143646446Y-51520471D01*
X143654504Y-51542993D01*
X143660316Y-51566197D01*
X143663826Y-51589858D01*
X143665000Y-51613750D01*
X143665000Y-52526250D01*
X143663826Y-52550142D01*
X143660316Y-52573803D01*
X143654504Y-52597007D01*
X143646446Y-52619529D01*
X143636218Y-52641153D01*
X143623921Y-52661670D01*
X143609671Y-52680883D01*
X143593607Y-52698607D01*
X143575883Y-52714671D01*
X143556670Y-52728921D01*
X143536153Y-52741218D01*
X143514529Y-52751446D01*
X143492007Y-52759504D01*
X143468803Y-52765316D01*
X143445142Y-52768826D01*
X143421250Y-52770000D01*
X142933750Y-52770000D01*
X142909858Y-52768826D01*
X142886197Y-52765316D01*
X142862993Y-52759504D01*
X142840471Y-52751446D01*
X142818847Y-52741218D01*
X142798330Y-52728921D01*
X142779117Y-52714671D01*
X142761393Y-52698607D01*
X142745329Y-52680883D01*
X142731079Y-52661670D01*
X142718782Y-52641153D01*
X142708554Y-52619529D01*
X142700496Y-52597007D01*
X142694684Y-52573803D01*
X142691174Y-52550142D01*
X142690000Y-52526250D01*
X142690000Y-51613750D01*
X142691174Y-51589858D01*
X142694684Y-51566197D01*
X142700496Y-51542993D01*
X142708554Y-51520471D01*
X142718782Y-51498847D01*
X142731079Y-51478330D01*
X142745329Y-51459117D01*
X142761393Y-51441393D01*
X142779117Y-51425329D01*
X142798330Y-51411079D01*
X142818847Y-51398782D01*
X142840471Y-51388554D01*
X142862993Y-51380496D01*
X142886197Y-51374684D01*
X142909858Y-51371174D01*
X142933750Y-51370000D01*
X143421250Y-51370000D01*
X143445142Y-51371174D01*
X143445142Y-51371174D01*
G37*
D19*
G04 #@! TD*
G04 #@! TO.P,R8,2*
G04 #@! TO.N,Net-(R5-Pad2)*
X143177500Y-52070000D03*
D10*
G04 #@! TO.N,Net-(R7-Pad2)*
G04 #@! TO.C,R8*
G36*
X141570142Y-51371174D02*
X141593803Y-51374684D01*
X141617007Y-51380496D01*
X141639529Y-51388554D01*
X141661153Y-51398782D01*
X141681670Y-51411079D01*
X141700883Y-51425329D01*
X141718607Y-51441393D01*
X141734671Y-51459117D01*
X141748921Y-51478330D01*
X141761218Y-51498847D01*
X141771446Y-51520471D01*
X141779504Y-51542993D01*
X141785316Y-51566197D01*
X141788826Y-51589858D01*
X141790000Y-51613750D01*
X141790000Y-52526250D01*
X141788826Y-52550142D01*
X141785316Y-52573803D01*
X141779504Y-52597007D01*
X141771446Y-52619529D01*
X141761218Y-52641153D01*
X141748921Y-52661670D01*
X141734671Y-52680883D01*
X141718607Y-52698607D01*
X141700883Y-52714671D01*
X141681670Y-52728921D01*
X141661153Y-52741218D01*
X141639529Y-52751446D01*
X141617007Y-52759504D01*
X141593803Y-52765316D01*
X141570142Y-52768826D01*
X141546250Y-52770000D01*
X141058750Y-52770000D01*
X141034858Y-52768826D01*
X141011197Y-52765316D01*
X140987993Y-52759504D01*
X140965471Y-52751446D01*
X140943847Y-52741218D01*
X140923330Y-52728921D01*
X140904117Y-52714671D01*
X140886393Y-52698607D01*
X140870329Y-52680883D01*
X140856079Y-52661670D01*
X140843782Y-52641153D01*
X140833554Y-52619529D01*
X140825496Y-52597007D01*
X140819684Y-52573803D01*
X140816174Y-52550142D01*
X140815000Y-52526250D01*
X140815000Y-51613750D01*
X140816174Y-51589858D01*
X140819684Y-51566197D01*
X140825496Y-51542993D01*
X140833554Y-51520471D01*
X140843782Y-51498847D01*
X140856079Y-51478330D01*
X140870329Y-51459117D01*
X140886393Y-51441393D01*
X140904117Y-51425329D01*
X140923330Y-51411079D01*
X140943847Y-51398782D01*
X140965471Y-51388554D01*
X140987993Y-51380496D01*
X141011197Y-51374684D01*
X141034858Y-51371174D01*
X141058750Y-51370000D01*
X141546250Y-51370000D01*
X141570142Y-51371174D01*
X141570142Y-51371174D01*
G37*
D19*
G04 #@! TD*
G04 #@! TO.P,R8,1*
G04 #@! TO.N,Net-(R7-Pad2)*
X141302500Y-52070000D03*
D10*
G04 #@! TO.N,+BATT*
G04 #@! TO.C,R9*
G36*
X138395142Y-53911174D02*
X138418803Y-53914684D01*
X138442007Y-53920496D01*
X138464529Y-53928554D01*
X138486153Y-53938782D01*
X138506670Y-53951079D01*
X138525883Y-53965329D01*
X138543607Y-53981393D01*
X138559671Y-53999117D01*
X138573921Y-54018330D01*
X138586218Y-54038847D01*
X138596446Y-54060471D01*
X138604504Y-54082993D01*
X138610316Y-54106197D01*
X138613826Y-54129858D01*
X138615000Y-54153750D01*
X138615000Y-55066250D01*
X138613826Y-55090142D01*
X138610316Y-55113803D01*
X138604504Y-55137007D01*
X138596446Y-55159529D01*
X138586218Y-55181153D01*
X138573921Y-55201670D01*
X138559671Y-55220883D01*
X138543607Y-55238607D01*
X138525883Y-55254671D01*
X138506670Y-55268921D01*
X138486153Y-55281218D01*
X138464529Y-55291446D01*
X138442007Y-55299504D01*
X138418803Y-55305316D01*
X138395142Y-55308826D01*
X138371250Y-55310000D01*
X137883750Y-55310000D01*
X137859858Y-55308826D01*
X137836197Y-55305316D01*
X137812993Y-55299504D01*
X137790471Y-55291446D01*
X137768847Y-55281218D01*
X137748330Y-55268921D01*
X137729117Y-55254671D01*
X137711393Y-55238607D01*
X137695329Y-55220883D01*
X137681079Y-55201670D01*
X137668782Y-55181153D01*
X137658554Y-55159529D01*
X137650496Y-55137007D01*
X137644684Y-55113803D01*
X137641174Y-55090142D01*
X137640000Y-55066250D01*
X137640000Y-54153750D01*
X137641174Y-54129858D01*
X137644684Y-54106197D01*
X137650496Y-54082993D01*
X137658554Y-54060471D01*
X137668782Y-54038847D01*
X137681079Y-54018330D01*
X137695329Y-53999117D01*
X137711393Y-53981393D01*
X137729117Y-53965329D01*
X137748330Y-53951079D01*
X137768847Y-53938782D01*
X137790471Y-53928554D01*
X137812993Y-53920496D01*
X137836197Y-53914684D01*
X137859858Y-53911174D01*
X137883750Y-53910000D01*
X138371250Y-53910000D01*
X138395142Y-53911174D01*
X138395142Y-53911174D01*
G37*
D19*
G04 #@! TD*
G04 #@! TO.P,R9,1*
G04 #@! TO.N,+BATT*
X138127500Y-54610000D03*
D10*
G04 #@! TO.N,Net-(Q1-Pad3)*
G04 #@! TO.C,R9*
G36*
X140270142Y-53911174D02*
X140293803Y-53914684D01*
X140317007Y-53920496D01*
X140339529Y-53928554D01*
X140361153Y-53938782D01*
X140381670Y-53951079D01*
X140400883Y-53965329D01*
X140418607Y-53981393D01*
X140434671Y-53999117D01*
X140448921Y-54018330D01*
X140461218Y-54038847D01*
X140471446Y-54060471D01*
X140479504Y-54082993D01*
X140485316Y-54106197D01*
X140488826Y-54129858D01*
X140490000Y-54153750D01*
X140490000Y-55066250D01*
X140488826Y-55090142D01*
X140485316Y-55113803D01*
X140479504Y-55137007D01*
X140471446Y-55159529D01*
X140461218Y-55181153D01*
X140448921Y-55201670D01*
X140434671Y-55220883D01*
X140418607Y-55238607D01*
X140400883Y-55254671D01*
X140381670Y-55268921D01*
X140361153Y-55281218D01*
X140339529Y-55291446D01*
X140317007Y-55299504D01*
X140293803Y-55305316D01*
X140270142Y-55308826D01*
X140246250Y-55310000D01*
X139758750Y-55310000D01*
X139734858Y-55308826D01*
X139711197Y-55305316D01*
X139687993Y-55299504D01*
X139665471Y-55291446D01*
X139643847Y-55281218D01*
X139623330Y-55268921D01*
X139604117Y-55254671D01*
X139586393Y-55238607D01*
X139570329Y-55220883D01*
X139556079Y-55201670D01*
X139543782Y-55181153D01*
X139533554Y-55159529D01*
X139525496Y-55137007D01*
X139519684Y-55113803D01*
X139516174Y-55090142D01*
X139515000Y-55066250D01*
X139515000Y-54153750D01*
X139516174Y-54129858D01*
X139519684Y-54106197D01*
X139525496Y-54082993D01*
X139533554Y-54060471D01*
X139543782Y-54038847D01*
X139556079Y-54018330D01*
X139570329Y-53999117D01*
X139586393Y-53981393D01*
X139604117Y-53965329D01*
X139623330Y-53951079D01*
X139643847Y-53938782D01*
X139665471Y-53928554D01*
X139687993Y-53920496D01*
X139711197Y-53914684D01*
X139734858Y-53911174D01*
X139758750Y-53910000D01*
X140246250Y-53910000D01*
X140270142Y-53911174D01*
X140270142Y-53911174D01*
G37*
D19*
G04 #@! TD*
G04 #@! TO.P,R9,2*
G04 #@! TO.N,Net-(Q1-Pad3)*
X140002500Y-54610000D03*
D10*
G04 #@! TO.N,Net-(D2-Pad2)*
G04 #@! TO.C,R10*
G36*
X138910142Y-58236174D02*
X138933803Y-58239684D01*
X138957007Y-58245496D01*
X138979529Y-58253554D01*
X139001153Y-58263782D01*
X139021670Y-58276079D01*
X139040883Y-58290329D01*
X139058607Y-58306393D01*
X139074671Y-58324117D01*
X139088921Y-58343330D01*
X139101218Y-58363847D01*
X139111446Y-58385471D01*
X139119504Y-58407993D01*
X139125316Y-58431197D01*
X139128826Y-58454858D01*
X139130000Y-58478750D01*
X139130000Y-58966250D01*
X139128826Y-58990142D01*
X139125316Y-59013803D01*
X139119504Y-59037007D01*
X139111446Y-59059529D01*
X139101218Y-59081153D01*
X139088921Y-59101670D01*
X139074671Y-59120883D01*
X139058607Y-59138607D01*
X139040883Y-59154671D01*
X139021670Y-59168921D01*
X139001153Y-59181218D01*
X138979529Y-59191446D01*
X138957007Y-59199504D01*
X138933803Y-59205316D01*
X138910142Y-59208826D01*
X138886250Y-59210000D01*
X137973750Y-59210000D01*
X137949858Y-59208826D01*
X137926197Y-59205316D01*
X137902993Y-59199504D01*
X137880471Y-59191446D01*
X137858847Y-59181218D01*
X137838330Y-59168921D01*
X137819117Y-59154671D01*
X137801393Y-59138607D01*
X137785329Y-59120883D01*
X137771079Y-59101670D01*
X137758782Y-59081153D01*
X137748554Y-59059529D01*
X137740496Y-59037007D01*
X137734684Y-59013803D01*
X137731174Y-58990142D01*
X137730000Y-58966250D01*
X137730000Y-58478750D01*
X137731174Y-58454858D01*
X137734684Y-58431197D01*
X137740496Y-58407993D01*
X137748554Y-58385471D01*
X137758782Y-58363847D01*
X137771079Y-58343330D01*
X137785329Y-58324117D01*
X137801393Y-58306393D01*
X137819117Y-58290329D01*
X137838330Y-58276079D01*
X137858847Y-58263782D01*
X137880471Y-58253554D01*
X137902993Y-58245496D01*
X137926197Y-58239684D01*
X137949858Y-58236174D01*
X137973750Y-58235000D01*
X138886250Y-58235000D01*
X138910142Y-58236174D01*
X138910142Y-58236174D01*
G37*
D19*
G04 #@! TD*
G04 #@! TO.P,R10,2*
G04 #@! TO.N,Net-(D2-Pad2)*
X138430000Y-58722500D03*
D10*
G04 #@! TO.N,+BATT*
G04 #@! TO.C,R10*
G36*
X138910142Y-56361174D02*
X138933803Y-56364684D01*
X138957007Y-56370496D01*
X138979529Y-56378554D01*
X139001153Y-56388782D01*
X139021670Y-56401079D01*
X139040883Y-56415329D01*
X139058607Y-56431393D01*
X139074671Y-56449117D01*
X139088921Y-56468330D01*
X139101218Y-56488847D01*
X139111446Y-56510471D01*
X139119504Y-56532993D01*
X139125316Y-56556197D01*
X139128826Y-56579858D01*
X139130000Y-56603750D01*
X139130000Y-57091250D01*
X139128826Y-57115142D01*
X139125316Y-57138803D01*
X139119504Y-57162007D01*
X139111446Y-57184529D01*
X139101218Y-57206153D01*
X139088921Y-57226670D01*
X139074671Y-57245883D01*
X139058607Y-57263607D01*
X139040883Y-57279671D01*
X139021670Y-57293921D01*
X139001153Y-57306218D01*
X138979529Y-57316446D01*
X138957007Y-57324504D01*
X138933803Y-57330316D01*
X138910142Y-57333826D01*
X138886250Y-57335000D01*
X137973750Y-57335000D01*
X137949858Y-57333826D01*
X137926197Y-57330316D01*
X137902993Y-57324504D01*
X137880471Y-57316446D01*
X137858847Y-57306218D01*
X137838330Y-57293921D01*
X137819117Y-57279671D01*
X137801393Y-57263607D01*
X137785329Y-57245883D01*
X137771079Y-57226670D01*
X137758782Y-57206153D01*
X137748554Y-57184529D01*
X137740496Y-57162007D01*
X137734684Y-57138803D01*
X137731174Y-57115142D01*
X137730000Y-57091250D01*
X137730000Y-56603750D01*
X137731174Y-56579858D01*
X137734684Y-56556197D01*
X137740496Y-56532993D01*
X137748554Y-56510471D01*
X137758782Y-56488847D01*
X137771079Y-56468330D01*
X137785329Y-56449117D01*
X137801393Y-56431393D01*
X137819117Y-56415329D01*
X137838330Y-56401079D01*
X137858847Y-56388782D01*
X137880471Y-56378554D01*
X137902993Y-56370496D01*
X137926197Y-56364684D01*
X137949858Y-56361174D01*
X137973750Y-56360000D01*
X138886250Y-56360000D01*
X138910142Y-56361174D01*
X138910142Y-56361174D01*
G37*
D19*
G04 #@! TD*
G04 #@! TO.P,R10,1*
G04 #@! TO.N,+BATT*
X138430000Y-56847500D03*
D10*
G04 #@! TO.N,+9V*
G04 #@! TO.C,R11*
G36*
X158715142Y-64706174D02*
X158738803Y-64709684D01*
X158762007Y-64715496D01*
X158784529Y-64723554D01*
X158806153Y-64733782D01*
X158826670Y-64746079D01*
X158845883Y-64760329D01*
X158863607Y-64776393D01*
X158879671Y-64794117D01*
X158893921Y-64813330D01*
X158906218Y-64833847D01*
X158916446Y-64855471D01*
X158924504Y-64877993D01*
X158930316Y-64901197D01*
X158933826Y-64924858D01*
X158935000Y-64948750D01*
X158935000Y-65861250D01*
X158933826Y-65885142D01*
X158930316Y-65908803D01*
X158924504Y-65932007D01*
X158916446Y-65954529D01*
X158906218Y-65976153D01*
X158893921Y-65996670D01*
X158879671Y-66015883D01*
X158863607Y-66033607D01*
X158845883Y-66049671D01*
X158826670Y-66063921D01*
X158806153Y-66076218D01*
X158784529Y-66086446D01*
X158762007Y-66094504D01*
X158738803Y-66100316D01*
X158715142Y-66103826D01*
X158691250Y-66105000D01*
X158203750Y-66105000D01*
X158179858Y-66103826D01*
X158156197Y-66100316D01*
X158132993Y-66094504D01*
X158110471Y-66086446D01*
X158088847Y-66076218D01*
X158068330Y-66063921D01*
X158049117Y-66049671D01*
X158031393Y-66033607D01*
X158015329Y-66015883D01*
X158001079Y-65996670D01*
X157988782Y-65976153D01*
X157978554Y-65954529D01*
X157970496Y-65932007D01*
X157964684Y-65908803D01*
X157961174Y-65885142D01*
X157960000Y-65861250D01*
X157960000Y-64948750D01*
X157961174Y-64924858D01*
X157964684Y-64901197D01*
X157970496Y-64877993D01*
X157978554Y-64855471D01*
X157988782Y-64833847D01*
X158001079Y-64813330D01*
X158015329Y-64794117D01*
X158031393Y-64776393D01*
X158049117Y-64760329D01*
X158068330Y-64746079D01*
X158088847Y-64733782D01*
X158110471Y-64723554D01*
X158132993Y-64715496D01*
X158156197Y-64709684D01*
X158179858Y-64706174D01*
X158203750Y-64705000D01*
X158691250Y-64705000D01*
X158715142Y-64706174D01*
X158715142Y-64706174D01*
G37*
D19*
G04 #@! TD*
G04 #@! TO.P,R11,1*
G04 #@! TO.N,+9V*
X158447500Y-65405000D03*
D10*
G04 #@! TO.N,Net-(R11-Pad2)*
G04 #@! TO.C,R11*
G36*
X160590142Y-64706174D02*
X160613803Y-64709684D01*
X160637007Y-64715496D01*
X160659529Y-64723554D01*
X160681153Y-64733782D01*
X160701670Y-64746079D01*
X160720883Y-64760329D01*
X160738607Y-64776393D01*
X160754671Y-64794117D01*
X160768921Y-64813330D01*
X160781218Y-64833847D01*
X160791446Y-64855471D01*
X160799504Y-64877993D01*
X160805316Y-64901197D01*
X160808826Y-64924858D01*
X160810000Y-64948750D01*
X160810000Y-65861250D01*
X160808826Y-65885142D01*
X160805316Y-65908803D01*
X160799504Y-65932007D01*
X160791446Y-65954529D01*
X160781218Y-65976153D01*
X160768921Y-65996670D01*
X160754671Y-66015883D01*
X160738607Y-66033607D01*
X160720883Y-66049671D01*
X160701670Y-66063921D01*
X160681153Y-66076218D01*
X160659529Y-66086446D01*
X160637007Y-66094504D01*
X160613803Y-66100316D01*
X160590142Y-66103826D01*
X160566250Y-66105000D01*
X160078750Y-66105000D01*
X160054858Y-66103826D01*
X160031197Y-66100316D01*
X160007993Y-66094504D01*
X159985471Y-66086446D01*
X159963847Y-66076218D01*
X159943330Y-66063921D01*
X159924117Y-66049671D01*
X159906393Y-66033607D01*
X159890329Y-66015883D01*
X159876079Y-65996670D01*
X159863782Y-65976153D01*
X159853554Y-65954529D01*
X159845496Y-65932007D01*
X159839684Y-65908803D01*
X159836174Y-65885142D01*
X159835000Y-65861250D01*
X159835000Y-64948750D01*
X159836174Y-64924858D01*
X159839684Y-64901197D01*
X159845496Y-64877993D01*
X159853554Y-64855471D01*
X159863782Y-64833847D01*
X159876079Y-64813330D01*
X159890329Y-64794117D01*
X159906393Y-64776393D01*
X159924117Y-64760329D01*
X159943330Y-64746079D01*
X159963847Y-64733782D01*
X159985471Y-64723554D01*
X160007993Y-64715496D01*
X160031197Y-64709684D01*
X160054858Y-64706174D01*
X160078750Y-64705000D01*
X160566250Y-64705000D01*
X160590142Y-64706174D01*
X160590142Y-64706174D01*
G37*
D19*
G04 #@! TD*
G04 #@! TO.P,R11,2*
G04 #@! TO.N,Net-(R11-Pad2)*
X160322500Y-65405000D03*
D26*
G04 #@! TO.N,*
X135015000Y-44340000D03*
X202215000Y-44340000D03*
X202215000Y-114340000D03*
X135015000Y-114340000D03*
D27*
G04 #@! TO.N,GND*
X154305000Y-76835000D03*
X151765000Y-64770000D03*
X136525000Y-64770000D03*
X146050000Y-59690000D03*
X158750000Y-48260000D03*
X174625000Y-50165000D03*
X173990000Y-64770000D03*
X155575000Y-58420000D03*
X185420000Y-74930000D03*
X154305000Y-85725000D03*
X141605000Y-71755000D03*
D28*
X158750000Y-114935000D03*
X189865000Y-114935000D03*
X189865000Y-86360000D03*
X158750000Y-86360000D03*
X197485000Y-94615000D03*
X148590000Y-94615000D03*
X148590000Y-107950000D03*
X197485000Y-107950000D03*
D27*
G04 #@! TO.N,+BATT*
X144780000Y-71755000D03*
X144780000Y-67310000D03*
G04 #@! TO.N,Net-(C1-Pad1)*
X170180000Y-50165000D03*
X165100000Y-60325000D03*
G04 #@! TD*
D29*
G04 #@! TO.N,Net-(D2-Pad2)*
X133985000Y-61565000D02*
X137825000Y-61565000D01*
X137825000Y-61565000D02*
X138430000Y-60960000D01*
X138430000Y-60960000D02*
X138430000Y-58722500D01*
G04 #@! TO.N,GND*
X167610000Y-48230000D02*
X167610000Y-45910000D01*
G04 #@! TO.N,+BATT*
X138127500Y-57150000D02*
X138127500Y-54610000D01*
X138127500Y-52402500D02*
X137795000Y-52070000D01*
X138127500Y-54610000D02*
X138127500Y-52402500D01*
X137795000Y-52070000D02*
X137795000Y-50165000D01*
X163025000Y-59375000D02*
X163025000Y-58800000D01*
X163025000Y-61275000D02*
X163025000Y-59375000D01*
X166787500Y-55880000D02*
X166016153Y-56651347D01*
X166540000Y-59225000D02*
X167960000Y-59225000D01*
X166016153Y-58701153D02*
X166540000Y-59225000D01*
X166016153Y-57785000D02*
X166016153Y-58701153D01*
X166016153Y-56651347D02*
X166016153Y-57785000D01*
X163025000Y-58800000D02*
X163025000Y-57870000D01*
X166016153Y-57785000D02*
X163025000Y-57785000D01*
X163025000Y-57785000D02*
X163025000Y-57870000D01*
X162560000Y-56515000D02*
X160275000Y-56515000D01*
X163025000Y-57785000D02*
X163025000Y-56980000D01*
X160275000Y-56515000D02*
X159687500Y-56515000D01*
X163025000Y-56980000D02*
X162560000Y-56515000D01*
X165100000Y-54192500D02*
X166787500Y-55880000D01*
X165088498Y-54180998D02*
X165100000Y-54192500D01*
X156004002Y-54180998D02*
X165088498Y-54180998D01*
X140032500Y-56847500D02*
X140335000Y-57150000D01*
X138430000Y-56847500D02*
X140032500Y-56847500D01*
X140335000Y-57150000D02*
X140335000Y-60960000D01*
X148590000Y-61595000D02*
X156004002Y-54180998D01*
X140335000Y-60960000D02*
X140970000Y-61595000D01*
X140970000Y-61595000D02*
X148590000Y-61595000D01*
X135255000Y-78105000D02*
X140335000Y-78105000D01*
X140335000Y-78105000D02*
X144780000Y-73660000D01*
X144780000Y-73660000D02*
X144780000Y-71755000D01*
X144780000Y-67310000D02*
X144780000Y-61595000D01*
G04 #@! TO.N,Net-(Q1-Pad1)*
X141925000Y-59677500D02*
X141937500Y-59690000D01*
X141925000Y-57515000D02*
X141925000Y-59677500D01*
X146170002Y-56515000D02*
X149225000Y-53460002D01*
X142875000Y-56515000D02*
X146170002Y-56515000D01*
X149225000Y-52780000D02*
X149225000Y-51530000D01*
X149225000Y-53460002D02*
X149225000Y-52780000D01*
X141925000Y-57515000D02*
X141925000Y-57465000D01*
X141925000Y-57465000D02*
X142875000Y-56515000D01*
X150375000Y-50380000D02*
X149225000Y-51530000D01*
X150375000Y-47530000D02*
X150375000Y-50380000D01*
G04 #@! TO.N,Net-(Q1-Pad3)*
X142875000Y-55465000D02*
X142875000Y-55515000D01*
X142020000Y-54610000D02*
X142875000Y-55465000D01*
X140002500Y-54610000D02*
X142020000Y-54610000D01*
X142925000Y-55565000D02*
X142875000Y-55515000D01*
X145685000Y-55565000D02*
X142925000Y-55565000D01*
G04 #@! TO.N,Net-(D1-Pad2)*
X173657500Y-56515000D02*
X175260000Y-56515000D01*
X175260000Y-56515000D02*
X177467500Y-54307500D01*
X177467500Y-54307500D02*
X177467500Y-43180000D01*
G04 #@! TO.N,Net-(R4-Pad2)*
X139670000Y-50165000D02*
X141302500Y-50165000D01*
G04 #@! TO.N,Net-(R1-Pad2)*
X173657500Y-59055000D02*
X173657500Y-61595000D01*
G04 #@! TO.N,Net-(R11-Pad2)*
X161290000Y-62315000D02*
X161290000Y-65405000D01*
X160825000Y-61850000D02*
X161290000Y-62315000D01*
X160825000Y-61275000D02*
X160825000Y-61850000D01*
X160322500Y-65405000D02*
X161290000Y-65405000D01*
X161290000Y-65405000D02*
X162257500Y-65405000D01*
G04 #@! TO.N,+9V*
X158115000Y-65072500D02*
X158447500Y-65405000D01*
X158115000Y-61975000D02*
X158115000Y-65072500D01*
X137455000Y-69772500D02*
X138012500Y-69215000D01*
X137455000Y-74040000D02*
X137455000Y-69772500D01*
X154637500Y-69215000D02*
X158447500Y-65405000D01*
X138012500Y-69215000D02*
X154637500Y-69215000D01*
G04 #@! TO.N,Net-(R7-Pad2)*
X139670000Y-52070000D02*
X141302500Y-52070000D01*
G04 #@! TO.N,Net-(R5-Pad2)*
X143177500Y-50165000D02*
X143177500Y-52070000D01*
X143177500Y-50165000D02*
X146685000Y-50165000D01*
X146685000Y-50165000D02*
X147955000Y-48895000D01*
X148075000Y-48780000D02*
X148075000Y-47530000D01*
X147960000Y-48895000D02*
X148075000Y-48780000D01*
X147955000Y-48895000D02*
X147960000Y-48895000D01*
G04 #@! TO.N,Net-(R3-Pad1)*
X169860000Y-58437500D02*
X171782500Y-56515000D01*
X169860000Y-59225000D02*
X169860000Y-58437500D01*
G04 #@! TO.N,Net-(R1-Pad1)*
X171226263Y-59611237D02*
X171782500Y-59055000D01*
X169860000Y-60977500D02*
X171226263Y-59611237D01*
X169860000Y-61425000D02*
X169860000Y-60977500D01*
G04 #@! TO.N,Net-(C1-Pad1)*
X166787500Y-62022500D02*
X167385000Y-61425000D01*
X167385000Y-61425000D02*
X167960000Y-61425000D01*
X166787500Y-64770000D02*
X166787500Y-62022500D01*
X166787500Y-64770000D02*
X166787500Y-81062500D01*
X172105000Y-86380000D02*
X175635000Y-86380000D01*
X166787500Y-81062500D02*
X172105000Y-86380000D01*
X170210000Y-45910000D02*
X170210000Y-50135000D01*
X170210000Y-50135000D02*
X170180000Y-50165000D01*
X165100000Y-63082500D02*
X166787500Y-64770000D01*
X165100000Y-60325000D02*
X165100000Y-63082500D01*
G04 #@! TO.N,Net-(D3-Pad2)*
X158115000Y-56817500D02*
X157812500Y-56515000D01*
X158115000Y-58675000D02*
X158115000Y-56817500D01*
X158815000Y-59375000D02*
X158115000Y-58675000D01*
X160825000Y-59375000D02*
X158815000Y-59375000D01*
G04 #@! TO.N,Net-(D2-Pad1)*
X148385000Y-56515000D02*
X152400000Y-52500000D01*
X152400000Y-52500000D02*
X152400000Y-45720000D01*
X152400000Y-45720000D02*
X151765000Y-45085000D01*
X147685000Y-56515000D02*
X148385000Y-56515000D01*
X151765000Y-45085000D02*
X139065000Y-45085000D01*
X139065000Y-45085000D02*
X133985000Y-50165000D01*
X133985000Y-50165000D02*
X133985000Y-59690000D01*
G04 #@! TO.N,Net-(J3-Pad2)*
X135255000Y-80645000D02*
X140970000Y-80645000D01*
X142875000Y-82550000D02*
X142875000Y-85725000D01*
X140970000Y-80645000D02*
X142875000Y-82550000D01*
G04 #@! TD*
D30*
G04 #@! TO.N,GND*
G36*
X164177500Y-42964250D02*
X164336250Y-43123000D01*
X165873000Y-43123000D01*
X165873000Y-43103000D01*
X166127000Y-43103000D01*
X166127000Y-43123000D01*
X167943000Y-43123000D01*
X167943000Y-43103000D01*
X168197000Y-43103000D01*
X168197000Y-43123000D01*
X169623000Y-43123000D01*
X169623000Y-43103000D01*
X169877000Y-43103000D01*
X169877000Y-43123000D01*
X171693000Y-43123000D01*
X171693000Y-43103000D01*
X171947000Y-43103000D01*
X171947000Y-43123000D01*
X173483750Y-43123000D01*
X173642500Y-42964250D01*
X173642500Y-42296000D01*
X174493896Y-42296000D01*
X174470000Y-42353690D01*
X174470000Y-42894250D01*
X174628750Y-43053000D01*
X175465500Y-43053000D01*
X175465500Y-43033000D01*
X175719500Y-43033000D01*
X175719500Y-43053000D01*
X175739500Y-43053000D01*
X175739500Y-43307000D01*
X175719500Y-43307000D01*
X175719500Y-44356250D01*
X175878250Y-44515000D01*
X176206309Y-44515000D01*
X176439698Y-44418327D01*
X176618327Y-44239699D01*
X176715000Y-44006310D01*
X176715000Y-43990942D01*
X176776707Y-44083293D01*
X176961501Y-44206769D01*
X176961500Y-54097908D01*
X175050409Y-56009000D01*
X174523568Y-56009000D01*
X174485340Y-55816812D01*
X174348293Y-55611707D01*
X174143188Y-55474660D01*
X173901250Y-55426536D01*
X173413750Y-55426536D01*
X173171812Y-55474660D01*
X172966707Y-55611707D01*
X172829660Y-55816812D01*
X172781536Y-56058750D01*
X172781536Y-56971250D01*
X172829660Y-57213188D01*
X172966707Y-57418293D01*
X173171812Y-57555340D01*
X173413750Y-57603464D01*
X173901250Y-57603464D01*
X174143188Y-57555340D01*
X174348293Y-57418293D01*
X174485340Y-57213188D01*
X174523568Y-57021000D01*
X175210166Y-57021000D01*
X175260000Y-57030913D01*
X175309834Y-57021000D01*
X175309835Y-57021000D01*
X175457431Y-56991641D01*
X175624806Y-56879806D01*
X175653039Y-56837552D01*
X177790056Y-54700536D01*
X177832306Y-54672306D01*
X177944141Y-54504931D01*
X177973500Y-54357335D01*
X177973500Y-54357334D01*
X177983413Y-54307501D01*
X177973500Y-54257667D01*
X177973500Y-44206768D01*
X178158293Y-44083293D01*
X178295340Y-43878188D01*
X178343464Y-43636250D01*
X178343464Y-42723750D01*
X178295340Y-42481812D01*
X178171184Y-42296000D01*
X201581081Y-42296000D01*
X201007885Y-42533425D01*
X200408425Y-43132885D01*
X200084000Y-43916118D01*
X200084000Y-44763882D01*
X200408425Y-45547115D01*
X201007885Y-46146575D01*
X201791118Y-46471000D01*
X202638882Y-46471000D01*
X203422115Y-46146575D01*
X204021575Y-45547115D01*
X204259001Y-44973917D01*
X204259000Y-113706081D01*
X204021575Y-113132885D01*
X203422115Y-112533425D01*
X202638882Y-112209000D01*
X201791118Y-112209000D01*
X201007885Y-112533425D01*
X200408425Y-113132885D01*
X200084000Y-113916118D01*
X200084000Y-114763882D01*
X200408425Y-115547115D01*
X201007885Y-116146575D01*
X201581081Y-116384000D01*
X135648919Y-116384000D01*
X136222115Y-116146575D01*
X136821575Y-115547115D01*
X137146000Y-114763882D01*
X137146000Y-113916118D01*
X136821575Y-113132885D01*
X136222115Y-112533425D01*
X135438882Y-112209000D01*
X134591118Y-112209000D01*
X133807885Y-112533425D01*
X133208425Y-113132885D01*
X133171000Y-113223237D01*
X133171000Y-82335000D01*
X134016536Y-82335000D01*
X134016536Y-84035000D01*
X134046106Y-84183659D01*
X134130314Y-84309686D01*
X134256341Y-84393894D01*
X134405000Y-84423464D01*
X136105000Y-84423464D01*
X136253659Y-84393894D01*
X136379686Y-84309686D01*
X136463894Y-84183659D01*
X136493464Y-84035000D01*
X136493464Y-82335000D01*
X136463894Y-82186341D01*
X136379686Y-82060314D01*
X136253659Y-81976106D01*
X136105000Y-81946536D01*
X134405000Y-81946536D01*
X134256341Y-81976106D01*
X134130314Y-82060314D01*
X134046106Y-82186341D01*
X134016536Y-82335000D01*
X133171000Y-82335000D01*
X133171000Y-80645000D01*
X133999884Y-80645000D01*
X134095424Y-81125312D01*
X134367499Y-81532501D01*
X134774688Y-81804576D01*
X135133761Y-81876000D01*
X135376239Y-81876000D01*
X135735312Y-81804576D01*
X136142501Y-81532501D01*
X136397412Y-81151000D01*
X140760409Y-81151000D01*
X142369000Y-82759592D01*
X142369001Y-84582588D01*
X141987499Y-84837499D01*
X141715424Y-85244688D01*
X141619884Y-85725000D01*
X141715424Y-86205312D01*
X141987499Y-86612501D01*
X142394688Y-86884576D01*
X142753761Y-86956000D01*
X142996239Y-86956000D01*
X143355312Y-86884576D01*
X143762501Y-86612501D01*
X143930000Y-86361821D01*
X143930000Y-86701309D01*
X144026673Y-86934698D01*
X144205301Y-87113327D01*
X144438690Y-87210000D01*
X145129250Y-87210000D01*
X145288000Y-87051250D01*
X145288000Y-85852000D01*
X145542000Y-85852000D01*
X145542000Y-87051250D01*
X145700750Y-87210000D01*
X146391310Y-87210000D01*
X146624699Y-87113327D01*
X146803327Y-86934698D01*
X146900000Y-86701309D01*
X146900000Y-86010750D01*
X146741250Y-85852000D01*
X145542000Y-85852000D01*
X145288000Y-85852000D01*
X145268000Y-85852000D01*
X145268000Y-85598000D01*
X145288000Y-85598000D01*
X145288000Y-84398750D01*
X145542000Y-84398750D01*
X145542000Y-85598000D01*
X146741250Y-85598000D01*
X146900000Y-85439250D01*
X146900000Y-84748691D01*
X146803327Y-84515302D01*
X146624699Y-84336673D01*
X146391310Y-84240000D01*
X145700750Y-84240000D01*
X145542000Y-84398750D01*
X145288000Y-84398750D01*
X145129250Y-84240000D01*
X144438690Y-84240000D01*
X144205301Y-84336673D01*
X144026673Y-84515302D01*
X143930000Y-84748691D01*
X143930000Y-85088179D01*
X143762501Y-84837499D01*
X143381000Y-84582588D01*
X143381000Y-82599834D01*
X143390913Y-82550000D01*
X143381000Y-82500165D01*
X143351641Y-82352569D01*
X143239806Y-82185194D01*
X143197556Y-82156964D01*
X141363039Y-80322447D01*
X141334806Y-80280194D01*
X141167431Y-80168359D01*
X141019835Y-80139000D01*
X141019834Y-80139000D01*
X140970000Y-80129087D01*
X140920166Y-80139000D01*
X136397412Y-80139000D01*
X136142501Y-79757499D01*
X135735312Y-79485424D01*
X135376239Y-79414000D01*
X135133761Y-79414000D01*
X134774688Y-79485424D01*
X134367499Y-79757499D01*
X134095424Y-80164688D01*
X133999884Y-80645000D01*
X133171000Y-80645000D01*
X133171000Y-78105000D01*
X133999884Y-78105000D01*
X134095424Y-78585312D01*
X134367499Y-78992501D01*
X134774688Y-79264576D01*
X135133761Y-79336000D01*
X135376239Y-79336000D01*
X135735312Y-79264576D01*
X136142501Y-78992501D01*
X136397412Y-78611000D01*
X140285166Y-78611000D01*
X140335000Y-78620913D01*
X140384834Y-78611000D01*
X140384835Y-78611000D01*
X140532431Y-78581641D01*
X140699806Y-78469806D01*
X140728039Y-78427552D01*
X145102556Y-74053036D01*
X145144806Y-74024806D01*
X145256641Y-73857431D01*
X145286000Y-73709835D01*
X145286000Y-73709834D01*
X145295913Y-73660001D01*
X145286000Y-73610167D01*
X145286000Y-72353501D01*
X145442100Y-72197401D01*
X145561000Y-71910351D01*
X145561000Y-71599649D01*
X145442100Y-71312599D01*
X145222401Y-71092900D01*
X144935351Y-70974000D01*
X144624649Y-70974000D01*
X144337599Y-71092900D01*
X144117900Y-71312599D01*
X143999000Y-71599649D01*
X143999000Y-71910351D01*
X144117900Y-72197401D01*
X144274001Y-72353502D01*
X144274000Y-73450408D01*
X140125409Y-77599000D01*
X136397412Y-77599000D01*
X136142501Y-77217499D01*
X135735312Y-76945424D01*
X135376239Y-76874000D01*
X135133761Y-76874000D01*
X134774688Y-76945424D01*
X134367499Y-77217499D01*
X134095424Y-77624688D01*
X133999884Y-78105000D01*
X133171000Y-78105000D01*
X133171000Y-74396892D01*
X133473514Y-74396892D01*
X133719817Y-74921358D01*
X134148076Y-75311645D01*
X134558110Y-75481476D01*
X134788000Y-75360155D01*
X134788000Y-74167000D01*
X133594181Y-74167000D01*
X133473514Y-74396892D01*
X133171000Y-74396892D01*
X133171000Y-73683108D01*
X133473514Y-73683108D01*
X133594181Y-73913000D01*
X134788000Y-73913000D01*
X134788000Y-72719845D01*
X135042000Y-72719845D01*
X135042000Y-73913000D01*
X135062000Y-73913000D01*
X135062000Y-74167000D01*
X135042000Y-74167000D01*
X135042000Y-75360155D01*
X135271890Y-75481476D01*
X135681924Y-75311645D01*
X136110183Y-74921358D01*
X136216536Y-74694895D01*
X136216536Y-74890000D01*
X136246106Y-75038659D01*
X136330314Y-75164686D01*
X136456341Y-75248894D01*
X136605000Y-75278464D01*
X138305000Y-75278464D01*
X138453659Y-75248894D01*
X138579686Y-75164686D01*
X138663894Y-75038659D01*
X138693464Y-74890000D01*
X138693464Y-73190000D01*
X138663894Y-73041341D01*
X138579686Y-72915314D01*
X138453659Y-72831106D01*
X138305000Y-72801536D01*
X137961000Y-72801536D01*
X137961000Y-70478464D01*
X138475000Y-70478464D01*
X138719330Y-70429864D01*
X138926462Y-70291462D01*
X139064864Y-70084330D01*
X139113464Y-69840000D01*
X139113464Y-69721000D01*
X154587666Y-69721000D01*
X154637500Y-69730913D01*
X154687334Y-69721000D01*
X154687335Y-69721000D01*
X154834931Y-69691641D01*
X155002306Y-69579806D01*
X155030539Y-69537552D01*
X158096050Y-66472041D01*
X158203750Y-66493464D01*
X158691250Y-66493464D01*
X158933188Y-66445340D01*
X159138293Y-66308293D01*
X159275340Y-66103188D01*
X159323464Y-65861250D01*
X159323464Y-64948750D01*
X159446536Y-64948750D01*
X159446536Y-65861250D01*
X159494660Y-66103188D01*
X159631707Y-66308293D01*
X159836812Y-66445340D01*
X160078750Y-66493464D01*
X160566250Y-66493464D01*
X160808188Y-66445340D01*
X161013293Y-66308293D01*
X161150340Y-66103188D01*
X161188568Y-65911000D01*
X161240165Y-65911000D01*
X161290000Y-65920913D01*
X161339835Y-65911000D01*
X161391432Y-65911000D01*
X161429660Y-66103188D01*
X161566707Y-66308293D01*
X161771812Y-66445340D01*
X162013750Y-66493464D01*
X162501250Y-66493464D01*
X162743188Y-66445340D01*
X162948293Y-66308293D01*
X163010000Y-66215942D01*
X163010000Y-66231310D01*
X163106673Y-66464699D01*
X163285302Y-66643327D01*
X163518691Y-66740000D01*
X163846750Y-66740000D01*
X164005500Y-66581250D01*
X164005500Y-65532000D01*
X164259500Y-65532000D01*
X164259500Y-66581250D01*
X164418250Y-66740000D01*
X164746309Y-66740000D01*
X164979698Y-66643327D01*
X165158327Y-66464699D01*
X165255000Y-66231310D01*
X165255000Y-65690750D01*
X165096250Y-65532000D01*
X164259500Y-65532000D01*
X164005500Y-65532000D01*
X163985500Y-65532000D01*
X163985500Y-65278000D01*
X164005500Y-65278000D01*
X164005500Y-64228750D01*
X164259500Y-64228750D01*
X164259500Y-65278000D01*
X165096250Y-65278000D01*
X165255000Y-65119250D01*
X165255000Y-64578690D01*
X165158327Y-64345301D01*
X164979698Y-64166673D01*
X164746309Y-64070000D01*
X164418250Y-64070000D01*
X164259500Y-64228750D01*
X164005500Y-64228750D01*
X163846750Y-64070000D01*
X163518691Y-64070000D01*
X163285302Y-64166673D01*
X163106673Y-64345301D01*
X163010000Y-64578690D01*
X163010000Y-64594058D01*
X162948293Y-64501707D01*
X162743188Y-64364660D01*
X162501250Y-64316536D01*
X162013750Y-64316536D01*
X161796000Y-64359849D01*
X161796000Y-62364833D01*
X161805913Y-62314999D01*
X161785983Y-62214806D01*
X161766641Y-62117569D01*
X161654806Y-61950194D01*
X161612556Y-61921964D01*
X161591076Y-61900484D01*
X161629686Y-61874686D01*
X161713894Y-61748659D01*
X161743464Y-61600000D01*
X161743464Y-61159561D01*
X161893327Y-61009699D01*
X161990000Y-60776310D01*
X161990000Y-60610750D01*
X161831250Y-60452000D01*
X160952000Y-60452000D01*
X160952000Y-60472000D01*
X160698000Y-60472000D01*
X160698000Y-60452000D01*
X159818750Y-60452000D01*
X159660000Y-60610750D01*
X159660000Y-60776310D01*
X159756673Y-61009699D01*
X159906536Y-61159561D01*
X159906536Y-61600000D01*
X159936106Y-61748659D01*
X160020314Y-61874686D01*
X160146341Y-61958894D01*
X160295000Y-61988464D01*
X160336630Y-61988464D01*
X160337422Y-61992442D01*
X160348360Y-62047431D01*
X160460195Y-62214806D01*
X160502445Y-62243036D01*
X160784000Y-62524592D01*
X160784001Y-64359849D01*
X160566250Y-64316536D01*
X160078750Y-64316536D01*
X159836812Y-64364660D01*
X159631707Y-64501707D01*
X159494660Y-64706812D01*
X159446536Y-64948750D01*
X159323464Y-64948750D01*
X159275340Y-64706812D01*
X159138293Y-64501707D01*
X158933188Y-64364660D01*
X158691250Y-64316536D01*
X158621000Y-64316536D01*
X158621000Y-62813464D01*
X158715000Y-62813464D01*
X158863659Y-62783894D01*
X158989686Y-62699686D01*
X159073894Y-62573659D01*
X159103464Y-62425000D01*
X159103464Y-61525000D01*
X159073894Y-61376341D01*
X158989686Y-61250314D01*
X158863659Y-61166106D01*
X158715000Y-61136536D01*
X157515000Y-61136536D01*
X157366341Y-61166106D01*
X157240314Y-61250314D01*
X157156106Y-61376341D01*
X157126536Y-61525000D01*
X157126536Y-62425000D01*
X157156106Y-62573659D01*
X157240314Y-62699686D01*
X157366341Y-62783894D01*
X157515000Y-62813464D01*
X157609000Y-62813464D01*
X157609001Y-64760399D01*
X157571536Y-64948750D01*
X157571536Y-65565372D01*
X154427909Y-68709000D01*
X139113464Y-68709000D01*
X139113464Y-68590000D01*
X139064864Y-68345670D01*
X138926462Y-68138538D01*
X138719330Y-68000136D01*
X138475000Y-67951536D01*
X137550000Y-67951536D01*
X137305670Y-68000136D01*
X137098538Y-68138538D01*
X136960136Y-68345670D01*
X136911536Y-68590000D01*
X136911536Y-69840000D01*
X136949001Y-70028350D01*
X136949000Y-72801536D01*
X136605000Y-72801536D01*
X136456341Y-72831106D01*
X136330314Y-72915314D01*
X136246106Y-73041341D01*
X136216536Y-73190000D01*
X136216536Y-73385105D01*
X136110183Y-73158642D01*
X135681924Y-72768355D01*
X135271890Y-72598524D01*
X135042000Y-72719845D01*
X134788000Y-72719845D01*
X134558110Y-72598524D01*
X134148076Y-72768355D01*
X133719817Y-73158642D01*
X133473514Y-73683108D01*
X133171000Y-73683108D01*
X133171000Y-69500750D01*
X133690000Y-69500750D01*
X133690000Y-70216310D01*
X133786673Y-70449699D01*
X133965302Y-70628327D01*
X134198691Y-70725000D01*
X134751750Y-70725000D01*
X134910500Y-70566250D01*
X134910500Y-69342000D01*
X135164500Y-69342000D01*
X135164500Y-70566250D01*
X135323250Y-70725000D01*
X135876309Y-70725000D01*
X136109698Y-70628327D01*
X136288327Y-70449699D01*
X136385000Y-70216310D01*
X136385000Y-69500750D01*
X136226250Y-69342000D01*
X135164500Y-69342000D01*
X134910500Y-69342000D01*
X133848750Y-69342000D01*
X133690000Y-69500750D01*
X133171000Y-69500750D01*
X133171000Y-68213690D01*
X133690000Y-68213690D01*
X133690000Y-68929250D01*
X133848750Y-69088000D01*
X134910500Y-69088000D01*
X134910500Y-67863750D01*
X135164500Y-67863750D01*
X135164500Y-69088000D01*
X136226250Y-69088000D01*
X136385000Y-68929250D01*
X136385000Y-68213690D01*
X136288327Y-67980301D01*
X136109698Y-67801673D01*
X135876309Y-67705000D01*
X135323250Y-67705000D01*
X135164500Y-67863750D01*
X134910500Y-67863750D01*
X134751750Y-67705000D01*
X134198691Y-67705000D01*
X133965302Y-67801673D01*
X133786673Y-67980301D01*
X133690000Y-68213690D01*
X133171000Y-68213690D01*
X133171000Y-62315457D01*
X133286812Y-62392840D01*
X133528750Y-62440964D01*
X134441250Y-62440964D01*
X134683188Y-62392840D01*
X134888293Y-62255793D01*
X135011768Y-62071000D01*
X137775166Y-62071000D01*
X137825000Y-62080913D01*
X137874834Y-62071000D01*
X137874835Y-62071000D01*
X138022431Y-62041641D01*
X138189806Y-61929806D01*
X138218038Y-61887553D01*
X138752556Y-61353036D01*
X138794806Y-61324806D01*
X138906641Y-61157431D01*
X138936000Y-61009835D01*
X138936000Y-61009834D01*
X138945913Y-60960001D01*
X138936000Y-60910167D01*
X138936000Y-59588568D01*
X139128188Y-59550340D01*
X139333293Y-59413293D01*
X139470340Y-59208188D01*
X139518464Y-58966250D01*
X139518464Y-58478750D01*
X139470340Y-58236812D01*
X139333293Y-58031707D01*
X139128188Y-57894660D01*
X138886250Y-57846536D01*
X137973750Y-57846536D01*
X137731812Y-57894660D01*
X137526707Y-58031707D01*
X137389660Y-58236812D01*
X137341536Y-58478750D01*
X137341536Y-58966250D01*
X137389660Y-59208188D01*
X137526707Y-59413293D01*
X137731812Y-59550340D01*
X137924001Y-59588568D01*
X137924000Y-60750408D01*
X137615409Y-61059000D01*
X135011768Y-61059000D01*
X134888293Y-60874207D01*
X134683188Y-60737160D01*
X134441250Y-60689036D01*
X133528750Y-60689036D01*
X133286812Y-60737160D01*
X133171000Y-60814543D01*
X133171000Y-60440457D01*
X133286812Y-60517840D01*
X133528750Y-60565964D01*
X134441250Y-60565964D01*
X134683188Y-60517840D01*
X134888293Y-60380793D01*
X135025340Y-60175688D01*
X135073464Y-59933750D01*
X135073464Y-59446250D01*
X135025340Y-59204312D01*
X134888293Y-58999207D01*
X134683188Y-58862160D01*
X134491000Y-58823932D01*
X134491000Y-50374591D01*
X135156841Y-49708750D01*
X136919036Y-49708750D01*
X136919036Y-50621250D01*
X136967160Y-50863188D01*
X137104207Y-51068293D01*
X137177850Y-51117500D01*
X137104207Y-51166707D01*
X136967160Y-51371812D01*
X136919036Y-51613750D01*
X136919036Y-52526250D01*
X136967160Y-52768188D01*
X137104207Y-52973293D01*
X137309312Y-53110340D01*
X137551250Y-53158464D01*
X137621501Y-53158464D01*
X137621500Y-53583232D01*
X137436707Y-53706707D01*
X137299660Y-53911812D01*
X137251536Y-54153750D01*
X137251536Y-55066250D01*
X137299660Y-55308188D01*
X137436707Y-55513293D01*
X137621501Y-55636768D01*
X137621500Y-56093368D01*
X137526707Y-56156707D01*
X137389660Y-56361812D01*
X137341536Y-56603750D01*
X137341536Y-57091250D01*
X137389660Y-57333188D01*
X137526707Y-57538293D01*
X137731812Y-57675340D01*
X137973750Y-57723464D01*
X138886250Y-57723464D01*
X139128188Y-57675340D01*
X139333293Y-57538293D01*
X139456768Y-57353500D01*
X139822909Y-57353500D01*
X139829000Y-57359591D01*
X139829001Y-60910161D01*
X139819087Y-60960000D01*
X139854204Y-61136536D01*
X139858360Y-61157431D01*
X139970195Y-61324806D01*
X140012445Y-61353036D01*
X140576963Y-61917555D01*
X140605194Y-61959806D01*
X140717781Y-62035033D01*
X140772568Y-62071641D01*
X140970000Y-62110913D01*
X141019835Y-62101000D01*
X144274001Y-62101000D01*
X144274000Y-66711499D01*
X144117900Y-66867599D01*
X143999000Y-67154649D01*
X143999000Y-67465351D01*
X144117900Y-67752401D01*
X144337599Y-67972100D01*
X144624649Y-68091000D01*
X144935351Y-68091000D01*
X145222401Y-67972100D01*
X145442100Y-67752401D01*
X145561000Y-67465351D01*
X145561000Y-67154649D01*
X145442100Y-66867599D01*
X145286000Y-66711499D01*
X145286000Y-62101000D01*
X148540166Y-62101000D01*
X148590000Y-62110913D01*
X148639834Y-62101000D01*
X148639835Y-62101000D01*
X148787431Y-62071641D01*
X148954806Y-61959806D01*
X148983039Y-61917552D01*
X154841841Y-56058750D01*
X156936536Y-56058750D01*
X156936536Y-56971250D01*
X156984660Y-57213188D01*
X157121707Y-57418293D01*
X157326812Y-57555340D01*
X157568750Y-57603464D01*
X157609001Y-57603464D01*
X157609000Y-57836536D01*
X157515000Y-57836536D01*
X157366341Y-57866106D01*
X157240314Y-57950314D01*
X157156106Y-58076341D01*
X157126536Y-58225000D01*
X157126536Y-59125000D01*
X157156106Y-59273659D01*
X157240314Y-59399686D01*
X157366341Y-59483894D01*
X157515000Y-59513464D01*
X158237872Y-59513464D01*
X158421963Y-59697555D01*
X158450194Y-59739806D01*
X158617569Y-59851641D01*
X158765165Y-59881000D01*
X158814999Y-59890913D01*
X158864833Y-59881000D01*
X159660000Y-59881000D01*
X159660000Y-60039250D01*
X159818750Y-60198000D01*
X160698000Y-60198000D01*
X160698000Y-60178000D01*
X160952000Y-60178000D01*
X160952000Y-60198000D01*
X161831250Y-60198000D01*
X161990000Y-60039250D01*
X161990000Y-59873690D01*
X161893327Y-59640301D01*
X161743464Y-59490439D01*
X161743464Y-59050000D01*
X161713894Y-58901341D01*
X161629686Y-58775314D01*
X161503659Y-58691106D01*
X161355000Y-58661536D01*
X160295000Y-58661536D01*
X160146341Y-58691106D01*
X160020314Y-58775314D01*
X159957715Y-58869000D01*
X159103464Y-58869000D01*
X159103464Y-58225000D01*
X159073894Y-58076341D01*
X158989686Y-57950314D01*
X158863659Y-57866106D01*
X158715000Y-57836536D01*
X158621000Y-57836536D01*
X158621000Y-57242132D01*
X158640340Y-57213188D01*
X158688464Y-56971250D01*
X158688464Y-56058750D01*
X158640340Y-55816812D01*
X158503293Y-55611707D01*
X158298188Y-55474660D01*
X158056250Y-55426536D01*
X157568750Y-55426536D01*
X157326812Y-55474660D01*
X157121707Y-55611707D01*
X156984660Y-55816812D01*
X156936536Y-56058750D01*
X154841841Y-56058750D01*
X156213594Y-54686998D01*
X164878907Y-54686998D01*
X165686536Y-55494628D01*
X165686536Y-56263029D01*
X165651347Y-56286541D01*
X165539512Y-56453917D01*
X165529351Y-56505000D01*
X165500240Y-56651347D01*
X165510153Y-56701181D01*
X165510154Y-57279000D01*
X163531000Y-57279000D01*
X163531000Y-57029833D01*
X163540913Y-56979999D01*
X163520983Y-56879806D01*
X163501641Y-56782569D01*
X163389806Y-56615194D01*
X163347555Y-56586963D01*
X162953038Y-56192447D01*
X162924806Y-56150194D01*
X162757431Y-56038359D01*
X162609835Y-56009000D01*
X162609834Y-56009000D01*
X162560000Y-55999087D01*
X162510166Y-56009000D01*
X160553568Y-56009000D01*
X160515340Y-55816812D01*
X160378293Y-55611707D01*
X160173188Y-55474660D01*
X159931250Y-55426536D01*
X159443750Y-55426536D01*
X159201812Y-55474660D01*
X158996707Y-55611707D01*
X158859660Y-55816812D01*
X158811536Y-56058750D01*
X158811536Y-56971250D01*
X158859660Y-57213188D01*
X158996707Y-57418293D01*
X159201812Y-57555340D01*
X159443750Y-57603464D01*
X159931250Y-57603464D01*
X160173188Y-57555340D01*
X160378293Y-57418293D01*
X160515340Y-57213188D01*
X160553568Y-57021000D01*
X162350409Y-57021000D01*
X162519001Y-57189592D01*
X162519000Y-57735164D01*
X162509087Y-57785000D01*
X162519000Y-57834834D01*
X162519000Y-57919835D01*
X162519001Y-57919840D01*
X162519000Y-58661536D01*
X162495000Y-58661536D01*
X162346341Y-58691106D01*
X162220314Y-58775314D01*
X162136106Y-58901341D01*
X162106536Y-59050000D01*
X162106536Y-59700000D01*
X162136106Y-59848659D01*
X162220314Y-59974686D01*
X162346341Y-60058894D01*
X162495000Y-60088464D01*
X162519001Y-60088464D01*
X162519000Y-60561536D01*
X162495000Y-60561536D01*
X162346341Y-60591106D01*
X162220314Y-60675314D01*
X162136106Y-60801341D01*
X162106536Y-60950000D01*
X162106536Y-61600000D01*
X162136106Y-61748659D01*
X162220314Y-61874686D01*
X162346341Y-61958894D01*
X162495000Y-61988464D01*
X163555000Y-61988464D01*
X163703659Y-61958894D01*
X163829686Y-61874686D01*
X163913894Y-61748659D01*
X163943464Y-61600000D01*
X163943464Y-60950000D01*
X163913894Y-60801341D01*
X163829686Y-60675314D01*
X163703659Y-60591106D01*
X163555000Y-60561536D01*
X163531000Y-60561536D01*
X163531000Y-60169649D01*
X164319000Y-60169649D01*
X164319000Y-60480351D01*
X164437900Y-60767401D01*
X164594000Y-60923501D01*
X164594001Y-63032661D01*
X164584087Y-63082500D01*
X164619395Y-63260000D01*
X164623360Y-63279931D01*
X164735195Y-63447306D01*
X164777445Y-63475537D01*
X165686536Y-64384628D01*
X165686536Y-65395000D01*
X165735136Y-65639330D01*
X165873538Y-65846462D01*
X166080670Y-65984864D01*
X166281500Y-66024811D01*
X166281501Y-81012661D01*
X166271587Y-81062500D01*
X166310860Y-81259931D01*
X166422695Y-81427306D01*
X166464946Y-81455537D01*
X171711963Y-86702555D01*
X171740194Y-86744806D01*
X171852781Y-86820033D01*
X171907568Y-86856641D01*
X172105000Y-86895913D01*
X172154835Y-86886000D01*
X174396536Y-86886000D01*
X174396536Y-87230000D01*
X174426106Y-87378659D01*
X174510314Y-87504686D01*
X174636341Y-87588894D01*
X174785000Y-87618464D01*
X176485000Y-87618464D01*
X176633659Y-87588894D01*
X176759686Y-87504686D01*
X176843894Y-87378659D01*
X176873464Y-87230000D01*
X176873464Y-86380000D01*
X176919884Y-86380000D01*
X177015424Y-86860312D01*
X177287499Y-87267501D01*
X177694688Y-87539576D01*
X178053761Y-87611000D01*
X178296239Y-87611000D01*
X178655312Y-87539576D01*
X179062501Y-87267501D01*
X179332755Y-86863037D01*
X179519817Y-87261358D01*
X179948076Y-87651645D01*
X180358110Y-87821476D01*
X180588000Y-87700155D01*
X180588000Y-86507000D01*
X180842000Y-86507000D01*
X180842000Y-87700155D01*
X181071890Y-87821476D01*
X181481924Y-87651645D01*
X181910183Y-87261358D01*
X182156486Y-86736892D01*
X182035819Y-86507000D01*
X180842000Y-86507000D01*
X180588000Y-86507000D01*
X180568000Y-86507000D01*
X180568000Y-86253000D01*
X180588000Y-86253000D01*
X180588000Y-86233000D01*
X180842000Y-86233000D01*
X180842000Y-86253000D01*
X182035819Y-86253000D01*
X182156486Y-86023108D01*
X181910183Y-85498642D01*
X181481924Y-85108355D01*
X181204488Y-84993445D01*
X181602501Y-84727501D01*
X181874576Y-84320312D01*
X181970116Y-83840000D01*
X181874576Y-83359688D01*
X181602501Y-82952499D01*
X181195312Y-82680424D01*
X180836239Y-82609000D01*
X180593761Y-82609000D01*
X180234688Y-82680424D01*
X179827499Y-82952499D01*
X179555424Y-83359688D01*
X179459884Y-83840000D01*
X179555424Y-84320312D01*
X179827499Y-84727501D01*
X180225512Y-84993445D01*
X179948076Y-85108355D01*
X179519817Y-85498642D01*
X179332755Y-85896963D01*
X179062501Y-85492499D01*
X178655312Y-85220424D01*
X178296239Y-85149000D01*
X178053761Y-85149000D01*
X177694688Y-85220424D01*
X177287499Y-85492499D01*
X177015424Y-85899688D01*
X176919884Y-86380000D01*
X176873464Y-86380000D01*
X176873464Y-85530000D01*
X176843894Y-85381341D01*
X176759686Y-85255314D01*
X176633659Y-85171106D01*
X176485000Y-85141536D01*
X174785000Y-85141536D01*
X174636341Y-85171106D01*
X174510314Y-85255314D01*
X174426106Y-85381341D01*
X174396536Y-85530000D01*
X174396536Y-85874000D01*
X172314592Y-85874000D01*
X170280592Y-83840000D01*
X174379884Y-83840000D01*
X174475424Y-84320312D01*
X174747499Y-84727501D01*
X175154688Y-84999576D01*
X175513761Y-85071000D01*
X175756239Y-85071000D01*
X176115312Y-84999576D01*
X176522501Y-84727501D01*
X176794576Y-84320312D01*
X176890116Y-83840000D01*
X176919884Y-83840000D01*
X177015424Y-84320312D01*
X177287499Y-84727501D01*
X177694688Y-84999576D01*
X178053761Y-85071000D01*
X178296239Y-85071000D01*
X178655312Y-84999576D01*
X179062501Y-84727501D01*
X179334576Y-84320312D01*
X179430116Y-83840000D01*
X179334576Y-83359688D01*
X179062501Y-82952499D01*
X178655312Y-82680424D01*
X178296239Y-82609000D01*
X178053761Y-82609000D01*
X177694688Y-82680424D01*
X177287499Y-82952499D01*
X177015424Y-83359688D01*
X176919884Y-83840000D01*
X176890116Y-83840000D01*
X176794576Y-83359688D01*
X176522501Y-82952499D01*
X176115312Y-82680424D01*
X175756239Y-82609000D01*
X175513761Y-82609000D01*
X175154688Y-82680424D01*
X174747499Y-82952499D01*
X174475424Y-83359688D01*
X174379884Y-83840000D01*
X170280592Y-83840000D01*
X167293500Y-80852909D01*
X167293500Y-66024811D01*
X167494330Y-65984864D01*
X167701462Y-65846462D01*
X167839864Y-65639330D01*
X167888464Y-65395000D01*
X167888464Y-65055750D01*
X168415000Y-65055750D01*
X168415000Y-65771310D01*
X168511673Y-66004699D01*
X168690302Y-66183327D01*
X168923691Y-66280000D01*
X169476750Y-66280000D01*
X169635500Y-66121250D01*
X169635500Y-64897000D01*
X169889500Y-64897000D01*
X169889500Y-66121250D01*
X170048250Y-66280000D01*
X170601309Y-66280000D01*
X170834698Y-66183327D01*
X171013327Y-66004699D01*
X171110000Y-65771310D01*
X171110000Y-65055750D01*
X170951250Y-64897000D01*
X169889500Y-64897000D01*
X169635500Y-64897000D01*
X168573750Y-64897000D01*
X168415000Y-65055750D01*
X167888464Y-65055750D01*
X167888464Y-64145000D01*
X167839864Y-63900670D01*
X167751678Y-63768690D01*
X168415000Y-63768690D01*
X168415000Y-64484250D01*
X168573750Y-64643000D01*
X169635500Y-64643000D01*
X169635500Y-63418750D01*
X169889500Y-63418750D01*
X169889500Y-64643000D01*
X170951250Y-64643000D01*
X171110000Y-64484250D01*
X171110000Y-63768690D01*
X171013327Y-63535301D01*
X170834698Y-63356673D01*
X170601309Y-63260000D01*
X170048250Y-63260000D01*
X169889500Y-63418750D01*
X169635500Y-63418750D01*
X169476750Y-63260000D01*
X168923691Y-63260000D01*
X168690302Y-63356673D01*
X168511673Y-63535301D01*
X168415000Y-63768690D01*
X167751678Y-63768690D01*
X167701462Y-63693538D01*
X167494330Y-63555136D01*
X167293500Y-63515189D01*
X167293500Y-62232091D01*
X167334516Y-62191076D01*
X167360314Y-62229686D01*
X167486341Y-62313894D01*
X167635000Y-62343464D01*
X168285000Y-62343464D01*
X168433659Y-62313894D01*
X168559686Y-62229686D01*
X168643894Y-62103659D01*
X168673464Y-61955000D01*
X168673464Y-60895000D01*
X168643894Y-60746341D01*
X168559686Y-60620314D01*
X168433659Y-60536106D01*
X168285000Y-60506536D01*
X167635000Y-60506536D01*
X167486341Y-60536106D01*
X167360314Y-60620314D01*
X167276106Y-60746341D01*
X167246536Y-60895000D01*
X167246536Y-60936629D01*
X167187568Y-60948359D01*
X167170145Y-60960001D01*
X167020194Y-61060194D01*
X166991963Y-61102445D01*
X166464945Y-61629464D01*
X166422695Y-61657694D01*
X166321764Y-61808750D01*
X166310860Y-61825069D01*
X166271587Y-62022500D01*
X166281501Y-62072339D01*
X166281500Y-63515189D01*
X166253792Y-63520700D01*
X165606000Y-62872909D01*
X165606000Y-60923501D01*
X165762100Y-60767401D01*
X165881000Y-60480351D01*
X165881000Y-60169649D01*
X165762100Y-59882599D01*
X165542401Y-59662900D01*
X165255351Y-59544000D01*
X164944649Y-59544000D01*
X164657599Y-59662900D01*
X164437900Y-59882599D01*
X164319000Y-60169649D01*
X163531000Y-60169649D01*
X163531000Y-60088464D01*
X163555000Y-60088464D01*
X163703659Y-60058894D01*
X163829686Y-59974686D01*
X163913894Y-59848659D01*
X163943464Y-59700000D01*
X163943464Y-59050000D01*
X163913894Y-58901341D01*
X163829686Y-58775314D01*
X163703659Y-58691106D01*
X163555000Y-58661536D01*
X163531000Y-58661536D01*
X163531000Y-58291000D01*
X165510154Y-58291000D01*
X165510154Y-58651314D01*
X165500240Y-58701153D01*
X165534311Y-58872431D01*
X165539513Y-58898584D01*
X165651348Y-59065959D01*
X165693598Y-59094189D01*
X166146965Y-59547558D01*
X166175194Y-59589806D01*
X166217442Y-59618035D01*
X166342569Y-59701641D01*
X166540000Y-59740913D01*
X166589835Y-59731000D01*
X167246536Y-59731000D01*
X167246536Y-59755000D01*
X167276106Y-59903659D01*
X167360314Y-60029686D01*
X167486341Y-60113894D01*
X167635000Y-60143464D01*
X168075439Y-60143464D01*
X168225301Y-60293327D01*
X168458690Y-60390000D01*
X168624250Y-60390000D01*
X168783000Y-60231250D01*
X168783000Y-59352000D01*
X168763000Y-59352000D01*
X168763000Y-59098000D01*
X168783000Y-59098000D01*
X168783000Y-58218750D01*
X169037000Y-58218750D01*
X169037000Y-59098000D01*
X169057000Y-59098000D01*
X169057000Y-59352000D01*
X169037000Y-59352000D01*
X169037000Y-60231250D01*
X169195750Y-60390000D01*
X169361310Y-60390000D01*
X169594699Y-60293327D01*
X169744561Y-60143464D01*
X169978445Y-60143464D01*
X169615373Y-60506536D01*
X169535000Y-60506536D01*
X169386341Y-60536106D01*
X169260314Y-60620314D01*
X169176106Y-60746341D01*
X169146536Y-60895000D01*
X169146536Y-61955000D01*
X169176106Y-62103659D01*
X169260314Y-62229686D01*
X169386341Y-62313894D01*
X169535000Y-62343464D01*
X170185000Y-62343464D01*
X170333659Y-62313894D01*
X170459686Y-62229686D01*
X170543894Y-62103659D01*
X170573464Y-61955000D01*
X170573464Y-61880750D01*
X170660000Y-61880750D01*
X170660000Y-62421310D01*
X170756673Y-62654699D01*
X170935302Y-62833327D01*
X171168691Y-62930000D01*
X171496750Y-62930000D01*
X171655500Y-62771250D01*
X171655500Y-61722000D01*
X170818750Y-61722000D01*
X170660000Y-61880750D01*
X170573464Y-61880750D01*
X170573464Y-60979627D01*
X170660000Y-60893091D01*
X170660000Y-61309250D01*
X170818750Y-61468000D01*
X171655500Y-61468000D01*
X171655500Y-60418750D01*
X171909500Y-60418750D01*
X171909500Y-61468000D01*
X171929500Y-61468000D01*
X171929500Y-61722000D01*
X171909500Y-61722000D01*
X171909500Y-62771250D01*
X172068250Y-62930000D01*
X172396309Y-62930000D01*
X172629698Y-62833327D01*
X172808327Y-62654699D01*
X172905000Y-62421310D01*
X172905000Y-62405942D01*
X172966707Y-62498293D01*
X173171812Y-62635340D01*
X173413750Y-62683464D01*
X173901250Y-62683464D01*
X174143188Y-62635340D01*
X174348293Y-62498293D01*
X174485340Y-62293188D01*
X174533464Y-62051250D01*
X174533464Y-61138750D01*
X174485340Y-60896812D01*
X174348293Y-60691707D01*
X174163500Y-60568232D01*
X174163500Y-60081768D01*
X174348293Y-59958293D01*
X174485340Y-59753188D01*
X174533464Y-59511250D01*
X174533464Y-58598750D01*
X174485340Y-58356812D01*
X174348293Y-58151707D01*
X174143188Y-58014660D01*
X173901250Y-57966536D01*
X173413750Y-57966536D01*
X173171812Y-58014660D01*
X172966707Y-58151707D01*
X172829660Y-58356812D01*
X172781536Y-58598750D01*
X172781536Y-59511250D01*
X172829660Y-59753188D01*
X172966707Y-59958293D01*
X173151500Y-60081768D01*
X173151501Y-60568232D01*
X172966707Y-60691707D01*
X172905000Y-60784058D01*
X172905000Y-60768690D01*
X172808327Y-60535301D01*
X172629698Y-60356673D01*
X172396309Y-60260000D01*
X172068250Y-60260000D01*
X171909500Y-60418750D01*
X171655500Y-60418750D01*
X171496750Y-60260000D01*
X171293092Y-60260000D01*
X171431050Y-60122041D01*
X171538750Y-60143464D01*
X172026250Y-60143464D01*
X172268188Y-60095340D01*
X172473293Y-59958293D01*
X172610340Y-59753188D01*
X172658464Y-59511250D01*
X172658464Y-58598750D01*
X172610340Y-58356812D01*
X172473293Y-58151707D01*
X172268188Y-58014660D01*
X172026250Y-57966536D01*
X171538750Y-57966536D01*
X171296812Y-58014660D01*
X171091707Y-58151707D01*
X170954660Y-58356812D01*
X170906536Y-58598750D01*
X170906536Y-59215373D01*
X170903708Y-59218201D01*
X170903705Y-59218203D01*
X170573464Y-59548444D01*
X170573464Y-58695000D01*
X170543894Y-58546341D01*
X170512995Y-58500097D01*
X171431050Y-57582041D01*
X171538750Y-57603464D01*
X172026250Y-57603464D01*
X172268188Y-57555340D01*
X172473293Y-57418293D01*
X172610340Y-57213188D01*
X172658464Y-56971250D01*
X172658464Y-56058750D01*
X172610340Y-55816812D01*
X172473293Y-55611707D01*
X172268188Y-55474660D01*
X172026250Y-55426536D01*
X171538750Y-55426536D01*
X171296812Y-55474660D01*
X171094226Y-55610024D01*
X171110000Y-55594250D01*
X171110000Y-54878690D01*
X171013327Y-54645301D01*
X170834698Y-54466673D01*
X170601309Y-54370000D01*
X170048250Y-54370000D01*
X169889500Y-54528750D01*
X169889500Y-55753000D01*
X169909500Y-55753000D01*
X169909500Y-56007000D01*
X169889500Y-56007000D01*
X169889500Y-57231250D01*
X170048250Y-57390000D01*
X170191909Y-57390000D01*
X169537445Y-58044463D01*
X169495195Y-58072694D01*
X169472816Y-58106187D01*
X169361310Y-58060000D01*
X169195750Y-58060000D01*
X169037000Y-58218750D01*
X168783000Y-58218750D01*
X168624250Y-58060000D01*
X168458690Y-58060000D01*
X168225301Y-58156673D01*
X168075439Y-58306536D01*
X167635000Y-58306536D01*
X167486341Y-58336106D01*
X167360314Y-58420314D01*
X167276106Y-58546341D01*
X167246536Y-58695000D01*
X167246536Y-58719000D01*
X166749592Y-58719000D01*
X166522153Y-58491561D01*
X166522153Y-57834834D01*
X166532066Y-57785000D01*
X166522153Y-57735165D01*
X166522153Y-57143464D01*
X167250000Y-57143464D01*
X167494330Y-57094864D01*
X167701462Y-56956462D01*
X167839864Y-56749330D01*
X167888464Y-56505000D01*
X167888464Y-56165750D01*
X168415000Y-56165750D01*
X168415000Y-56881310D01*
X168511673Y-57114699D01*
X168690302Y-57293327D01*
X168923691Y-57390000D01*
X169476750Y-57390000D01*
X169635500Y-57231250D01*
X169635500Y-56007000D01*
X168573750Y-56007000D01*
X168415000Y-56165750D01*
X167888464Y-56165750D01*
X167888464Y-55255000D01*
X167839864Y-55010670D01*
X167751678Y-54878690D01*
X168415000Y-54878690D01*
X168415000Y-55594250D01*
X168573750Y-55753000D01*
X169635500Y-55753000D01*
X169635500Y-54528750D01*
X169476750Y-54370000D01*
X168923691Y-54370000D01*
X168690302Y-54466673D01*
X168511673Y-54645301D01*
X168415000Y-54878690D01*
X167751678Y-54878690D01*
X167701462Y-54803538D01*
X167494330Y-54665136D01*
X167250000Y-54616536D01*
X166325000Y-54616536D01*
X166253792Y-54630700D01*
X165481537Y-53858445D01*
X165453304Y-53816192D01*
X165285929Y-53704357D01*
X165138333Y-53674998D01*
X165138332Y-53674998D01*
X165088498Y-53665085D01*
X165038664Y-53674998D01*
X156053835Y-53674998D01*
X156004001Y-53665085D01*
X155954167Y-53674998D01*
X155806571Y-53704357D01*
X155639196Y-53816192D01*
X155610965Y-53858443D01*
X148380409Y-61089000D01*
X144829835Y-61089000D01*
X144780000Y-61079087D01*
X144730165Y-61089000D01*
X141179592Y-61089000D01*
X140841000Y-60750409D01*
X140841000Y-57199834D01*
X140850913Y-57150000D01*
X140811641Y-56952568D01*
X140781884Y-56908034D01*
X140699806Y-56785194D01*
X140657553Y-56756962D01*
X140425539Y-56524948D01*
X140397306Y-56482694D01*
X140229931Y-56370859D01*
X140082335Y-56341500D01*
X140082334Y-56341500D01*
X140032500Y-56331587D01*
X139982666Y-56341500D01*
X139456768Y-56341500D01*
X139333293Y-56156707D01*
X139128188Y-56019660D01*
X138886250Y-55971536D01*
X138633500Y-55971536D01*
X138633500Y-55636768D01*
X138818293Y-55513293D01*
X138955340Y-55308188D01*
X139003464Y-55066250D01*
X139003464Y-54153750D01*
X138955340Y-53911812D01*
X138818293Y-53706707D01*
X138633500Y-53583232D01*
X138633500Y-52714596D01*
X138670964Y-52526250D01*
X138670964Y-51613750D01*
X138622840Y-51371812D01*
X138485793Y-51166707D01*
X138412150Y-51117500D01*
X138485793Y-51068293D01*
X138622840Y-50863188D01*
X138670964Y-50621250D01*
X138670964Y-49708750D01*
X138794036Y-49708750D01*
X138794036Y-50621250D01*
X138842160Y-50863188D01*
X138979207Y-51068293D01*
X139052850Y-51117500D01*
X138979207Y-51166707D01*
X138842160Y-51371812D01*
X138794036Y-51613750D01*
X138794036Y-52526250D01*
X138842160Y-52768188D01*
X138979207Y-52973293D01*
X139184312Y-53110340D01*
X139426250Y-53158464D01*
X139913750Y-53158464D01*
X140155688Y-53110340D01*
X140360793Y-52973293D01*
X140486250Y-52785534D01*
X140611707Y-52973293D01*
X140816812Y-53110340D01*
X141058750Y-53158464D01*
X141546250Y-53158464D01*
X141788188Y-53110340D01*
X141993293Y-52973293D01*
X142130340Y-52768188D01*
X142178464Y-52526250D01*
X142178464Y-51613750D01*
X142130340Y-51371812D01*
X141993293Y-51166707D01*
X141919650Y-51117500D01*
X141993293Y-51068293D01*
X142130340Y-50863188D01*
X142178464Y-50621250D01*
X142178464Y-49708750D01*
X142301536Y-49708750D01*
X142301536Y-50621250D01*
X142349660Y-50863188D01*
X142486707Y-51068293D01*
X142560350Y-51117500D01*
X142486707Y-51166707D01*
X142349660Y-51371812D01*
X142301536Y-51613750D01*
X142301536Y-52526250D01*
X142349660Y-52768188D01*
X142486707Y-52973293D01*
X142691812Y-53110340D01*
X142933750Y-53158464D01*
X143421250Y-53158464D01*
X143663188Y-53110340D01*
X143868293Y-52973293D01*
X144005340Y-52768188D01*
X144053464Y-52526250D01*
X144053464Y-51613750D01*
X144005340Y-51371812D01*
X143868293Y-51166707D01*
X143794650Y-51117500D01*
X143868293Y-51068293D01*
X144005340Y-50863188D01*
X144043568Y-50671000D01*
X146635166Y-50671000D01*
X146685000Y-50680913D01*
X146734834Y-50671000D01*
X146734835Y-50671000D01*
X146882431Y-50641641D01*
X147049806Y-50529806D01*
X147078038Y-50487553D01*
X148267487Y-49298105D01*
X148324806Y-49259806D01*
X148353038Y-49217554D01*
X148397555Y-49173037D01*
X148439806Y-49144806D01*
X148551641Y-48977431D01*
X148563370Y-48918464D01*
X148725000Y-48918464D01*
X148873659Y-48888894D01*
X148999686Y-48804686D01*
X149083894Y-48678659D01*
X149113464Y-48530000D01*
X149113464Y-46530000D01*
X149083894Y-46381341D01*
X148999686Y-46255314D01*
X148873659Y-46171106D01*
X148725000Y-46141536D01*
X147425000Y-46141536D01*
X147276341Y-46171106D01*
X147150314Y-46255314D01*
X147066106Y-46381341D01*
X147036536Y-46530000D01*
X147036536Y-48530000D01*
X147066106Y-48678659D01*
X147150314Y-48804686D01*
X147257862Y-48876547D01*
X146475409Y-49659000D01*
X144043568Y-49659000D01*
X144005340Y-49466812D01*
X143868293Y-49261707D01*
X143663188Y-49124660D01*
X143421250Y-49076536D01*
X142933750Y-49076536D01*
X142691812Y-49124660D01*
X142486707Y-49261707D01*
X142349660Y-49466812D01*
X142301536Y-49708750D01*
X142178464Y-49708750D01*
X142130340Y-49466812D01*
X141993293Y-49261707D01*
X141788188Y-49124660D01*
X141546250Y-49076536D01*
X141058750Y-49076536D01*
X140816812Y-49124660D01*
X140611707Y-49261707D01*
X140486250Y-49449466D01*
X140360793Y-49261707D01*
X140155688Y-49124660D01*
X139913750Y-49076536D01*
X139426250Y-49076536D01*
X139184312Y-49124660D01*
X138979207Y-49261707D01*
X138842160Y-49466812D01*
X138794036Y-49708750D01*
X138670964Y-49708750D01*
X138622840Y-49466812D01*
X138485793Y-49261707D01*
X138280688Y-49124660D01*
X138038750Y-49076536D01*
X137551250Y-49076536D01*
X137309312Y-49124660D01*
X137104207Y-49261707D01*
X136967160Y-49466812D01*
X136919036Y-49708750D01*
X135156841Y-49708750D01*
X139274592Y-45591000D01*
X151555409Y-45591000D01*
X151894001Y-45929593D01*
X151894000Y-52290408D01*
X148370367Y-55814042D01*
X148283659Y-55756106D01*
X148135000Y-55726536D01*
X147674057Y-55726536D01*
X149547556Y-53853038D01*
X149589806Y-53824808D01*
X149689905Y-53674998D01*
X149701641Y-53657434D01*
X149740913Y-53460002D01*
X149731000Y-53410167D01*
X149731000Y-52918464D01*
X150225000Y-52918464D01*
X150373659Y-52888894D01*
X150499686Y-52804686D01*
X150583894Y-52678659D01*
X150613464Y-52530000D01*
X150613464Y-50857128D01*
X150697555Y-50773037D01*
X150739806Y-50744806D01*
X150851641Y-50577431D01*
X150881000Y-50429835D01*
X150890913Y-50380000D01*
X150881000Y-50330165D01*
X150881000Y-48918464D01*
X151025000Y-48918464D01*
X151173659Y-48888894D01*
X151299686Y-48804686D01*
X151383894Y-48678659D01*
X151413464Y-48530000D01*
X151413464Y-46530000D01*
X151383894Y-46381341D01*
X151299686Y-46255314D01*
X151173659Y-46171106D01*
X151025000Y-46141536D01*
X149725000Y-46141536D01*
X149576341Y-46171106D01*
X149450314Y-46255314D01*
X149366106Y-46381341D01*
X149336536Y-46530000D01*
X149336536Y-48530000D01*
X149366106Y-48678659D01*
X149450314Y-48804686D01*
X149576341Y-48888894D01*
X149725000Y-48918464D01*
X149869000Y-48918464D01*
X149869001Y-50141536D01*
X148225000Y-50141536D01*
X148076341Y-50171106D01*
X147950314Y-50255314D01*
X147866106Y-50381341D01*
X147836536Y-50530000D01*
X147836536Y-52530000D01*
X147866106Y-52678659D01*
X147950314Y-52804686D01*
X148076341Y-52888894D01*
X148225000Y-52918464D01*
X148719001Y-52918464D01*
X148719000Y-53250410D01*
X146523464Y-55445947D01*
X146523464Y-55165000D01*
X146493894Y-55016341D01*
X146409686Y-54890314D01*
X146283659Y-54806106D01*
X146135000Y-54776536D01*
X145235000Y-54776536D01*
X145086341Y-54806106D01*
X144960314Y-54890314D01*
X144876106Y-55016341D01*
X144867621Y-55059000D01*
X143662271Y-55059000D01*
X143633894Y-54916341D01*
X143549686Y-54790314D01*
X143423659Y-54706106D01*
X143275000Y-54676536D01*
X142802127Y-54676536D01*
X142413038Y-54287447D01*
X142384806Y-54245194D01*
X142217431Y-54133359D01*
X142069835Y-54104000D01*
X142069834Y-54104000D01*
X142020000Y-54094087D01*
X141970166Y-54104000D01*
X140868568Y-54104000D01*
X140830340Y-53911812D01*
X140693293Y-53706707D01*
X140488188Y-53569660D01*
X140246250Y-53521536D01*
X139758750Y-53521536D01*
X139516812Y-53569660D01*
X139311707Y-53706707D01*
X139174660Y-53911812D01*
X139126536Y-54153750D01*
X139126536Y-55066250D01*
X139174660Y-55308188D01*
X139311707Y-55513293D01*
X139516812Y-55650340D01*
X139758750Y-55698464D01*
X140246250Y-55698464D01*
X140488188Y-55650340D01*
X140693293Y-55513293D01*
X140830340Y-55308188D01*
X140868568Y-55116000D01*
X141810409Y-55116000D01*
X142086536Y-55392127D01*
X142086536Y-55965000D01*
X142116106Y-56113659D01*
X142200314Y-56239686D01*
X142326341Y-56323894D01*
X142346504Y-56327905D01*
X141997873Y-56676536D01*
X141525000Y-56676536D01*
X141376341Y-56706106D01*
X141250314Y-56790314D01*
X141166106Y-56916341D01*
X141136536Y-57065000D01*
X141136536Y-57965000D01*
X141166106Y-58113659D01*
X141250314Y-58239686D01*
X141376341Y-58323894D01*
X141419000Y-58332379D01*
X141419001Y-58671584D01*
X141246707Y-58786707D01*
X141109660Y-58991812D01*
X141061536Y-59233750D01*
X141061536Y-60146250D01*
X141109660Y-60388188D01*
X141246707Y-60593293D01*
X141451812Y-60730340D01*
X141693750Y-60778464D01*
X142181250Y-60778464D01*
X142423188Y-60730340D01*
X142628293Y-60593293D01*
X142690000Y-60500942D01*
X142690000Y-60516310D01*
X142786673Y-60749699D01*
X142965302Y-60928327D01*
X143198691Y-61025000D01*
X143526750Y-61025000D01*
X143685500Y-60866250D01*
X143685500Y-59817000D01*
X143939500Y-59817000D01*
X143939500Y-60866250D01*
X144098250Y-61025000D01*
X144426309Y-61025000D01*
X144659698Y-60928327D01*
X144838327Y-60749699D01*
X144935000Y-60516310D01*
X144935000Y-59975750D01*
X144776250Y-59817000D01*
X143939500Y-59817000D01*
X143685500Y-59817000D01*
X143665500Y-59817000D01*
X143665500Y-59563000D01*
X143685500Y-59563000D01*
X143685500Y-58513750D01*
X143939500Y-58513750D01*
X143939500Y-59563000D01*
X144776250Y-59563000D01*
X144935000Y-59404250D01*
X144935000Y-58863690D01*
X144838327Y-58630301D01*
X144659698Y-58451673D01*
X144643190Y-58444835D01*
X144763327Y-58324698D01*
X144773094Y-58301119D01*
X144875302Y-58403327D01*
X145108691Y-58500000D01*
X145399250Y-58500000D01*
X145558000Y-58341250D01*
X145558000Y-57592000D01*
X145812000Y-57592000D01*
X145812000Y-58341250D01*
X145970750Y-58500000D01*
X146261309Y-58500000D01*
X146494698Y-58403327D01*
X146673327Y-58224699D01*
X146770000Y-57991310D01*
X146770000Y-57750750D01*
X146611250Y-57592000D01*
X145812000Y-57592000D01*
X145558000Y-57592000D01*
X144758750Y-57592000D01*
X144705000Y-57645750D01*
X144701250Y-57642000D01*
X143952000Y-57642000D01*
X143952000Y-58441250D01*
X143982000Y-58471250D01*
X143939500Y-58513750D01*
X143685500Y-58513750D01*
X143655500Y-58483750D01*
X143698000Y-58441250D01*
X143698000Y-57642000D01*
X142948750Y-57642000D01*
X142790000Y-57800750D01*
X142790000Y-58091309D01*
X142886673Y-58324698D01*
X142999487Y-58437513D01*
X142965302Y-58451673D01*
X142786673Y-58630301D01*
X142690000Y-58863690D01*
X142690000Y-58879058D01*
X142628293Y-58786707D01*
X142431000Y-58654880D01*
X142431000Y-58332379D01*
X142473659Y-58323894D01*
X142599686Y-58239686D01*
X142683894Y-58113659D01*
X142713464Y-57965000D01*
X142713464Y-57392127D01*
X142833171Y-57272421D01*
X142948750Y-57388000D01*
X143698000Y-57388000D01*
X143698000Y-57368000D01*
X143952000Y-57368000D01*
X143952000Y-57388000D01*
X144701250Y-57388000D01*
X144755000Y-57334250D01*
X144758750Y-57338000D01*
X145558000Y-57338000D01*
X145558000Y-57318000D01*
X145812000Y-57318000D01*
X145812000Y-57338000D01*
X146611250Y-57338000D01*
X146770000Y-57179250D01*
X146770000Y-56938690D01*
X146679760Y-56720833D01*
X146846536Y-56554057D01*
X146846536Y-56915000D01*
X146876106Y-57063659D01*
X146960314Y-57189686D01*
X147086341Y-57273894D01*
X147235000Y-57303464D01*
X148135000Y-57303464D01*
X148283659Y-57273894D01*
X148409686Y-57189686D01*
X148493894Y-57063659D01*
X148505162Y-57007011D01*
X148582431Y-56991641D01*
X148749806Y-56879806D01*
X148778039Y-56837552D01*
X152722556Y-52893036D01*
X152764806Y-52864806D01*
X152876641Y-52697431D01*
X152906000Y-52549835D01*
X152906000Y-52549834D01*
X152915913Y-52500001D01*
X152906000Y-52450167D01*
X152906000Y-45835750D01*
X165075000Y-45835750D01*
X165075000Y-46726310D01*
X165171673Y-46959699D01*
X165350302Y-47138327D01*
X165583691Y-47235000D01*
X166161750Y-47235000D01*
X166320500Y-47076250D01*
X166320500Y-45677000D01*
X165233750Y-45677000D01*
X165075000Y-45835750D01*
X152906000Y-45835750D01*
X152906000Y-45769835D01*
X152915913Y-45720000D01*
X152876641Y-45522568D01*
X152828023Y-45449806D01*
X152764806Y-45355194D01*
X152722555Y-45326963D01*
X152158038Y-44762447D01*
X152129806Y-44720194D01*
X151962431Y-44608359D01*
X151814835Y-44579000D01*
X151814834Y-44579000D01*
X151765000Y-44569087D01*
X151715166Y-44579000D01*
X139114834Y-44579000D01*
X139065000Y-44569087D01*
X139015166Y-44579000D01*
X139015165Y-44579000D01*
X138867569Y-44608359D01*
X138700194Y-44720194D01*
X138671963Y-44762445D01*
X133662448Y-49771961D01*
X133620194Y-49800194D01*
X133508359Y-49967570D01*
X133499989Y-50009649D01*
X133469087Y-50165000D01*
X133479000Y-50214834D01*
X133479001Y-58823932D01*
X133286812Y-58862160D01*
X133171000Y-58939543D01*
X133171000Y-45456763D01*
X133208425Y-45547115D01*
X133807885Y-46146575D01*
X134591118Y-46471000D01*
X135438882Y-46471000D01*
X136222115Y-46146575D01*
X136821575Y-45547115D01*
X137146000Y-44763882D01*
X137146000Y-43916118D01*
X136988447Y-43535750D01*
X164177500Y-43535750D01*
X164177500Y-44326310D01*
X164274173Y-44559699D01*
X164452802Y-44738327D01*
X164686191Y-44835000D01*
X165075000Y-44835000D01*
X165075000Y-45264250D01*
X165233750Y-45423000D01*
X166320500Y-45423000D01*
X166320500Y-45403000D01*
X166574500Y-45403000D01*
X166574500Y-45423000D01*
X166594500Y-45423000D01*
X166594500Y-45677000D01*
X166574500Y-45677000D01*
X166574500Y-47076250D01*
X166733250Y-47235000D01*
X167338750Y-47235000D01*
X167358154Y-47215596D01*
X167544698Y-47138327D01*
X167722500Y-46960526D01*
X167722500Y-47076250D01*
X167881250Y-47235000D01*
X167961309Y-47235000D01*
X168194698Y-47138327D01*
X168344562Y-46988464D01*
X168485000Y-46988464D01*
X168585000Y-46968573D01*
X168685000Y-46988464D01*
X169135000Y-46988464D01*
X169235000Y-46968573D01*
X169335000Y-46988464D01*
X169704000Y-46988464D01*
X169704001Y-49536498D01*
X169517900Y-49722599D01*
X169399000Y-50009649D01*
X169399000Y-50320351D01*
X169517900Y-50607401D01*
X169737599Y-50827100D01*
X170024649Y-50946000D01*
X170335351Y-50946000D01*
X170622401Y-50827100D01*
X170842100Y-50607401D01*
X170961000Y-50320351D01*
X170961000Y-50009649D01*
X170842100Y-49722599D01*
X170716000Y-49596499D01*
X170716000Y-47235000D01*
X171086750Y-47235000D01*
X171245500Y-47076250D01*
X171245500Y-45677000D01*
X171499500Y-45677000D01*
X171499500Y-47076250D01*
X171658250Y-47235000D01*
X172236309Y-47235000D01*
X172469698Y-47138327D01*
X172648327Y-46959699D01*
X172745000Y-46726310D01*
X172745000Y-45835750D01*
X172586250Y-45677000D01*
X171499500Y-45677000D01*
X171245500Y-45677000D01*
X171225500Y-45677000D01*
X171225500Y-45423000D01*
X171245500Y-45423000D01*
X171245500Y-45403000D01*
X171499500Y-45403000D01*
X171499500Y-45423000D01*
X172586250Y-45423000D01*
X172745000Y-45264250D01*
X172745000Y-44835000D01*
X173133809Y-44835000D01*
X173367198Y-44738327D01*
X173545827Y-44559699D01*
X173642500Y-44326310D01*
X173642500Y-43535750D01*
X173572500Y-43465750D01*
X174470000Y-43465750D01*
X174470000Y-44006310D01*
X174566673Y-44239699D01*
X174745302Y-44418327D01*
X174978691Y-44515000D01*
X175306750Y-44515000D01*
X175465500Y-44356250D01*
X175465500Y-43307000D01*
X174628750Y-43307000D01*
X174470000Y-43465750D01*
X173572500Y-43465750D01*
X173483750Y-43377000D01*
X171947000Y-43377000D01*
X171947000Y-43397000D01*
X171693000Y-43397000D01*
X171693000Y-43377000D01*
X169877000Y-43377000D01*
X169877000Y-43397000D01*
X169623000Y-43397000D01*
X169623000Y-43377000D01*
X168197000Y-43377000D01*
X168197000Y-43397000D01*
X167943000Y-43397000D01*
X167943000Y-43377000D01*
X166127000Y-43377000D01*
X166127000Y-43397000D01*
X165873000Y-43397000D01*
X165873000Y-43377000D01*
X164336250Y-43377000D01*
X164177500Y-43535750D01*
X136988447Y-43535750D01*
X136821575Y-43132885D01*
X136222115Y-42533425D01*
X135648919Y-42296000D01*
X164177500Y-42296000D01*
X164177500Y-42964250D01*
X164177500Y-42964250D01*
G37*
X164177500Y-42964250D02*
X164336250Y-43123000D01*
X165873000Y-43123000D01*
X165873000Y-43103000D01*
X166127000Y-43103000D01*
X166127000Y-43123000D01*
X167943000Y-43123000D01*
X167943000Y-43103000D01*
X168197000Y-43103000D01*
X168197000Y-43123000D01*
X169623000Y-43123000D01*
X169623000Y-43103000D01*
X169877000Y-43103000D01*
X169877000Y-43123000D01*
X171693000Y-43123000D01*
X171693000Y-43103000D01*
X171947000Y-43103000D01*
X171947000Y-43123000D01*
X173483750Y-43123000D01*
X173642500Y-42964250D01*
X173642500Y-42296000D01*
X174493896Y-42296000D01*
X174470000Y-42353690D01*
X174470000Y-42894250D01*
X174628750Y-43053000D01*
X175465500Y-43053000D01*
X175465500Y-43033000D01*
X175719500Y-43033000D01*
X175719500Y-43053000D01*
X175739500Y-43053000D01*
X175739500Y-43307000D01*
X175719500Y-43307000D01*
X175719500Y-44356250D01*
X175878250Y-44515000D01*
X176206309Y-44515000D01*
X176439698Y-44418327D01*
X176618327Y-44239699D01*
X176715000Y-44006310D01*
X176715000Y-43990942D01*
X176776707Y-44083293D01*
X176961501Y-44206769D01*
X176961500Y-54097908D01*
X175050409Y-56009000D01*
X174523568Y-56009000D01*
X174485340Y-55816812D01*
X174348293Y-55611707D01*
X174143188Y-55474660D01*
X173901250Y-55426536D01*
X173413750Y-55426536D01*
X173171812Y-55474660D01*
X172966707Y-55611707D01*
X172829660Y-55816812D01*
X172781536Y-56058750D01*
X172781536Y-56971250D01*
X172829660Y-57213188D01*
X172966707Y-57418293D01*
X173171812Y-57555340D01*
X173413750Y-57603464D01*
X173901250Y-57603464D01*
X174143188Y-57555340D01*
X174348293Y-57418293D01*
X174485340Y-57213188D01*
X174523568Y-57021000D01*
X175210166Y-57021000D01*
X175260000Y-57030913D01*
X175309834Y-57021000D01*
X175309835Y-57021000D01*
X175457431Y-56991641D01*
X175624806Y-56879806D01*
X175653039Y-56837552D01*
X177790056Y-54700536D01*
X177832306Y-54672306D01*
X177944141Y-54504931D01*
X177973500Y-54357335D01*
X177973500Y-54357334D01*
X177983413Y-54307501D01*
X177973500Y-54257667D01*
X177973500Y-44206768D01*
X178158293Y-44083293D01*
X178295340Y-43878188D01*
X178343464Y-43636250D01*
X178343464Y-42723750D01*
X178295340Y-42481812D01*
X178171184Y-42296000D01*
X201581081Y-42296000D01*
X201007885Y-42533425D01*
X200408425Y-43132885D01*
X200084000Y-43916118D01*
X200084000Y-44763882D01*
X200408425Y-45547115D01*
X201007885Y-46146575D01*
X201791118Y-46471000D01*
X202638882Y-46471000D01*
X203422115Y-46146575D01*
X204021575Y-45547115D01*
X204259001Y-44973917D01*
X204259000Y-113706081D01*
X204021575Y-113132885D01*
X203422115Y-112533425D01*
X202638882Y-112209000D01*
X201791118Y-112209000D01*
X201007885Y-112533425D01*
X200408425Y-113132885D01*
X200084000Y-113916118D01*
X200084000Y-114763882D01*
X200408425Y-115547115D01*
X201007885Y-116146575D01*
X201581081Y-116384000D01*
X135648919Y-116384000D01*
X136222115Y-116146575D01*
X136821575Y-115547115D01*
X137146000Y-114763882D01*
X137146000Y-113916118D01*
X136821575Y-113132885D01*
X136222115Y-112533425D01*
X135438882Y-112209000D01*
X134591118Y-112209000D01*
X133807885Y-112533425D01*
X133208425Y-113132885D01*
X133171000Y-113223237D01*
X133171000Y-82335000D01*
X134016536Y-82335000D01*
X134016536Y-84035000D01*
X134046106Y-84183659D01*
X134130314Y-84309686D01*
X134256341Y-84393894D01*
X134405000Y-84423464D01*
X136105000Y-84423464D01*
X136253659Y-84393894D01*
X136379686Y-84309686D01*
X136463894Y-84183659D01*
X136493464Y-84035000D01*
X136493464Y-82335000D01*
X136463894Y-82186341D01*
X136379686Y-82060314D01*
X136253659Y-81976106D01*
X136105000Y-81946536D01*
X134405000Y-81946536D01*
X134256341Y-81976106D01*
X134130314Y-82060314D01*
X134046106Y-82186341D01*
X134016536Y-82335000D01*
X133171000Y-82335000D01*
X133171000Y-80645000D01*
X133999884Y-80645000D01*
X134095424Y-81125312D01*
X134367499Y-81532501D01*
X134774688Y-81804576D01*
X135133761Y-81876000D01*
X135376239Y-81876000D01*
X135735312Y-81804576D01*
X136142501Y-81532501D01*
X136397412Y-81151000D01*
X140760409Y-81151000D01*
X142369000Y-82759592D01*
X142369001Y-84582588D01*
X141987499Y-84837499D01*
X141715424Y-85244688D01*
X141619884Y-85725000D01*
X141715424Y-86205312D01*
X141987499Y-86612501D01*
X142394688Y-86884576D01*
X142753761Y-86956000D01*
X142996239Y-86956000D01*
X143355312Y-86884576D01*
X143762501Y-86612501D01*
X143930000Y-86361821D01*
X143930000Y-86701309D01*
X144026673Y-86934698D01*
X144205301Y-87113327D01*
X144438690Y-87210000D01*
X145129250Y-87210000D01*
X145288000Y-87051250D01*
X145288000Y-85852000D01*
X145542000Y-85852000D01*
X145542000Y-87051250D01*
X145700750Y-87210000D01*
X146391310Y-87210000D01*
X146624699Y-87113327D01*
X146803327Y-86934698D01*
X146900000Y-86701309D01*
X146900000Y-86010750D01*
X146741250Y-85852000D01*
X145542000Y-85852000D01*
X145288000Y-85852000D01*
X145268000Y-85852000D01*
X145268000Y-85598000D01*
X145288000Y-85598000D01*
X145288000Y-84398750D01*
X145542000Y-84398750D01*
X145542000Y-85598000D01*
X146741250Y-85598000D01*
X146900000Y-85439250D01*
X146900000Y-84748691D01*
X146803327Y-84515302D01*
X146624699Y-84336673D01*
X146391310Y-84240000D01*
X145700750Y-84240000D01*
X145542000Y-84398750D01*
X145288000Y-84398750D01*
X145129250Y-84240000D01*
X144438690Y-84240000D01*
X144205301Y-84336673D01*
X144026673Y-84515302D01*
X143930000Y-84748691D01*
X143930000Y-85088179D01*
X143762501Y-84837499D01*
X143381000Y-84582588D01*
X143381000Y-82599834D01*
X143390913Y-82550000D01*
X143381000Y-82500165D01*
X143351641Y-82352569D01*
X143239806Y-82185194D01*
X143197556Y-82156964D01*
X141363039Y-80322447D01*
X141334806Y-80280194D01*
X141167431Y-80168359D01*
X141019835Y-80139000D01*
X141019834Y-80139000D01*
X140970000Y-80129087D01*
X140920166Y-80139000D01*
X136397412Y-80139000D01*
X136142501Y-79757499D01*
X135735312Y-79485424D01*
X135376239Y-79414000D01*
X135133761Y-79414000D01*
X134774688Y-79485424D01*
X134367499Y-79757499D01*
X134095424Y-80164688D01*
X133999884Y-80645000D01*
X133171000Y-80645000D01*
X133171000Y-78105000D01*
X133999884Y-78105000D01*
X134095424Y-78585312D01*
X134367499Y-78992501D01*
X134774688Y-79264576D01*
X135133761Y-79336000D01*
X135376239Y-79336000D01*
X135735312Y-79264576D01*
X136142501Y-78992501D01*
X136397412Y-78611000D01*
X140285166Y-78611000D01*
X140335000Y-78620913D01*
X140384834Y-78611000D01*
X140384835Y-78611000D01*
X140532431Y-78581641D01*
X140699806Y-78469806D01*
X140728039Y-78427552D01*
X145102556Y-74053036D01*
X145144806Y-74024806D01*
X145256641Y-73857431D01*
X145286000Y-73709835D01*
X145286000Y-73709834D01*
X145295913Y-73660001D01*
X145286000Y-73610167D01*
X145286000Y-72353501D01*
X145442100Y-72197401D01*
X145561000Y-71910351D01*
X145561000Y-71599649D01*
X145442100Y-71312599D01*
X145222401Y-71092900D01*
X144935351Y-70974000D01*
X144624649Y-70974000D01*
X144337599Y-71092900D01*
X144117900Y-71312599D01*
X143999000Y-71599649D01*
X143999000Y-71910351D01*
X144117900Y-72197401D01*
X144274001Y-72353502D01*
X144274000Y-73450408D01*
X140125409Y-77599000D01*
X136397412Y-77599000D01*
X136142501Y-77217499D01*
X135735312Y-76945424D01*
X135376239Y-76874000D01*
X135133761Y-76874000D01*
X134774688Y-76945424D01*
X134367499Y-77217499D01*
X134095424Y-77624688D01*
X133999884Y-78105000D01*
X133171000Y-78105000D01*
X133171000Y-74396892D01*
X133473514Y-74396892D01*
X133719817Y-74921358D01*
X134148076Y-75311645D01*
X134558110Y-75481476D01*
X134788000Y-75360155D01*
X134788000Y-74167000D01*
X133594181Y-74167000D01*
X133473514Y-74396892D01*
X133171000Y-74396892D01*
X133171000Y-73683108D01*
X133473514Y-73683108D01*
X133594181Y-73913000D01*
X134788000Y-73913000D01*
X134788000Y-72719845D01*
X135042000Y-72719845D01*
X135042000Y-73913000D01*
X135062000Y-73913000D01*
X135062000Y-74167000D01*
X135042000Y-74167000D01*
X135042000Y-75360155D01*
X135271890Y-75481476D01*
X135681924Y-75311645D01*
X136110183Y-74921358D01*
X136216536Y-74694895D01*
X136216536Y-74890000D01*
X136246106Y-75038659D01*
X136330314Y-75164686D01*
X136456341Y-75248894D01*
X136605000Y-75278464D01*
X138305000Y-75278464D01*
X138453659Y-75248894D01*
X138579686Y-75164686D01*
X138663894Y-75038659D01*
X138693464Y-74890000D01*
X138693464Y-73190000D01*
X138663894Y-73041341D01*
X138579686Y-72915314D01*
X138453659Y-72831106D01*
X138305000Y-72801536D01*
X137961000Y-72801536D01*
X137961000Y-70478464D01*
X138475000Y-70478464D01*
X138719330Y-70429864D01*
X138926462Y-70291462D01*
X139064864Y-70084330D01*
X139113464Y-69840000D01*
X139113464Y-69721000D01*
X154587666Y-69721000D01*
X154637500Y-69730913D01*
X154687334Y-69721000D01*
X154687335Y-69721000D01*
X154834931Y-69691641D01*
X155002306Y-69579806D01*
X155030539Y-69537552D01*
X158096050Y-66472041D01*
X158203750Y-66493464D01*
X158691250Y-66493464D01*
X158933188Y-66445340D01*
X159138293Y-66308293D01*
X159275340Y-66103188D01*
X159323464Y-65861250D01*
X159323464Y-64948750D01*
X159446536Y-64948750D01*
X159446536Y-65861250D01*
X159494660Y-66103188D01*
X159631707Y-66308293D01*
X159836812Y-66445340D01*
X160078750Y-66493464D01*
X160566250Y-66493464D01*
X160808188Y-66445340D01*
X161013293Y-66308293D01*
X161150340Y-66103188D01*
X161188568Y-65911000D01*
X161240165Y-65911000D01*
X161290000Y-65920913D01*
X161339835Y-65911000D01*
X161391432Y-65911000D01*
X161429660Y-66103188D01*
X161566707Y-66308293D01*
X161771812Y-66445340D01*
X162013750Y-66493464D01*
X162501250Y-66493464D01*
X162743188Y-66445340D01*
X162948293Y-66308293D01*
X163010000Y-66215942D01*
X163010000Y-66231310D01*
X163106673Y-66464699D01*
X163285302Y-66643327D01*
X163518691Y-66740000D01*
X163846750Y-66740000D01*
X164005500Y-66581250D01*
X164005500Y-65532000D01*
X164259500Y-65532000D01*
X164259500Y-66581250D01*
X164418250Y-66740000D01*
X164746309Y-66740000D01*
X164979698Y-66643327D01*
X165158327Y-66464699D01*
X165255000Y-66231310D01*
X165255000Y-65690750D01*
X165096250Y-65532000D01*
X164259500Y-65532000D01*
X164005500Y-65532000D01*
X163985500Y-65532000D01*
X163985500Y-65278000D01*
X164005500Y-65278000D01*
X164005500Y-64228750D01*
X164259500Y-64228750D01*
X164259500Y-65278000D01*
X165096250Y-65278000D01*
X165255000Y-65119250D01*
X165255000Y-64578690D01*
X165158327Y-64345301D01*
X164979698Y-64166673D01*
X164746309Y-64070000D01*
X164418250Y-64070000D01*
X164259500Y-64228750D01*
X164005500Y-64228750D01*
X163846750Y-64070000D01*
X163518691Y-64070000D01*
X163285302Y-64166673D01*
X163106673Y-64345301D01*
X163010000Y-64578690D01*
X163010000Y-64594058D01*
X162948293Y-64501707D01*
X162743188Y-64364660D01*
X162501250Y-64316536D01*
X162013750Y-64316536D01*
X161796000Y-64359849D01*
X161796000Y-62364833D01*
X161805913Y-62314999D01*
X161785983Y-62214806D01*
X161766641Y-62117569D01*
X161654806Y-61950194D01*
X161612556Y-61921964D01*
X161591076Y-61900484D01*
X161629686Y-61874686D01*
X161713894Y-61748659D01*
X161743464Y-61600000D01*
X161743464Y-61159561D01*
X161893327Y-61009699D01*
X161990000Y-60776310D01*
X161990000Y-60610750D01*
X161831250Y-60452000D01*
X160952000Y-60452000D01*
X160952000Y-60472000D01*
X160698000Y-60472000D01*
X160698000Y-60452000D01*
X159818750Y-60452000D01*
X159660000Y-60610750D01*
X159660000Y-60776310D01*
X159756673Y-61009699D01*
X159906536Y-61159561D01*
X159906536Y-61600000D01*
X159936106Y-61748659D01*
X160020314Y-61874686D01*
X160146341Y-61958894D01*
X160295000Y-61988464D01*
X160336630Y-61988464D01*
X160337422Y-61992442D01*
X160348360Y-62047431D01*
X160460195Y-62214806D01*
X160502445Y-62243036D01*
X160784000Y-62524592D01*
X160784001Y-64359849D01*
X160566250Y-64316536D01*
X160078750Y-64316536D01*
X159836812Y-64364660D01*
X159631707Y-64501707D01*
X159494660Y-64706812D01*
X159446536Y-64948750D01*
X159323464Y-64948750D01*
X159275340Y-64706812D01*
X159138293Y-64501707D01*
X158933188Y-64364660D01*
X158691250Y-64316536D01*
X158621000Y-64316536D01*
X158621000Y-62813464D01*
X158715000Y-62813464D01*
X158863659Y-62783894D01*
X158989686Y-62699686D01*
X159073894Y-62573659D01*
X159103464Y-62425000D01*
X159103464Y-61525000D01*
X159073894Y-61376341D01*
X158989686Y-61250314D01*
X158863659Y-61166106D01*
X158715000Y-61136536D01*
X157515000Y-61136536D01*
X157366341Y-61166106D01*
X157240314Y-61250314D01*
X157156106Y-61376341D01*
X157126536Y-61525000D01*
X157126536Y-62425000D01*
X157156106Y-62573659D01*
X157240314Y-62699686D01*
X157366341Y-62783894D01*
X157515000Y-62813464D01*
X157609000Y-62813464D01*
X157609001Y-64760399D01*
X157571536Y-64948750D01*
X157571536Y-65565372D01*
X154427909Y-68709000D01*
X139113464Y-68709000D01*
X139113464Y-68590000D01*
X139064864Y-68345670D01*
X138926462Y-68138538D01*
X138719330Y-68000136D01*
X138475000Y-67951536D01*
X137550000Y-67951536D01*
X137305670Y-68000136D01*
X137098538Y-68138538D01*
X136960136Y-68345670D01*
X136911536Y-68590000D01*
X136911536Y-69840000D01*
X136949001Y-70028350D01*
X136949000Y-72801536D01*
X136605000Y-72801536D01*
X136456341Y-72831106D01*
X136330314Y-72915314D01*
X136246106Y-73041341D01*
X136216536Y-73190000D01*
X136216536Y-73385105D01*
X136110183Y-73158642D01*
X135681924Y-72768355D01*
X135271890Y-72598524D01*
X135042000Y-72719845D01*
X134788000Y-72719845D01*
X134558110Y-72598524D01*
X134148076Y-72768355D01*
X133719817Y-73158642D01*
X133473514Y-73683108D01*
X133171000Y-73683108D01*
X133171000Y-69500750D01*
X133690000Y-69500750D01*
X133690000Y-70216310D01*
X133786673Y-70449699D01*
X133965302Y-70628327D01*
X134198691Y-70725000D01*
X134751750Y-70725000D01*
X134910500Y-70566250D01*
X134910500Y-69342000D01*
X135164500Y-69342000D01*
X135164500Y-70566250D01*
X135323250Y-70725000D01*
X135876309Y-70725000D01*
X136109698Y-70628327D01*
X136288327Y-70449699D01*
X136385000Y-70216310D01*
X136385000Y-69500750D01*
X136226250Y-69342000D01*
X135164500Y-69342000D01*
X134910500Y-69342000D01*
X133848750Y-69342000D01*
X133690000Y-69500750D01*
X133171000Y-69500750D01*
X133171000Y-68213690D01*
X133690000Y-68213690D01*
X133690000Y-68929250D01*
X133848750Y-69088000D01*
X134910500Y-69088000D01*
X134910500Y-67863750D01*
X135164500Y-67863750D01*
X135164500Y-69088000D01*
X136226250Y-69088000D01*
X136385000Y-68929250D01*
X136385000Y-68213690D01*
X136288327Y-67980301D01*
X136109698Y-67801673D01*
X135876309Y-67705000D01*
X135323250Y-67705000D01*
X135164500Y-67863750D01*
X134910500Y-67863750D01*
X134751750Y-67705000D01*
X134198691Y-67705000D01*
X133965302Y-67801673D01*
X133786673Y-67980301D01*
X133690000Y-68213690D01*
X133171000Y-68213690D01*
X133171000Y-62315457D01*
X133286812Y-62392840D01*
X133528750Y-62440964D01*
X134441250Y-62440964D01*
X134683188Y-62392840D01*
X134888293Y-62255793D01*
X135011768Y-62071000D01*
X137775166Y-62071000D01*
X137825000Y-62080913D01*
X137874834Y-62071000D01*
X137874835Y-62071000D01*
X138022431Y-62041641D01*
X138189806Y-61929806D01*
X138218038Y-61887553D01*
X138752556Y-61353036D01*
X138794806Y-61324806D01*
X138906641Y-61157431D01*
X138936000Y-61009835D01*
X138936000Y-61009834D01*
X138945913Y-60960001D01*
X138936000Y-60910167D01*
X138936000Y-59588568D01*
X139128188Y-59550340D01*
X139333293Y-59413293D01*
X139470340Y-59208188D01*
X139518464Y-58966250D01*
X139518464Y-58478750D01*
X139470340Y-58236812D01*
X139333293Y-58031707D01*
X139128188Y-57894660D01*
X138886250Y-57846536D01*
X137973750Y-57846536D01*
X137731812Y-57894660D01*
X137526707Y-58031707D01*
X137389660Y-58236812D01*
X137341536Y-58478750D01*
X137341536Y-58966250D01*
X137389660Y-59208188D01*
X137526707Y-59413293D01*
X137731812Y-59550340D01*
X137924001Y-59588568D01*
X137924000Y-60750408D01*
X137615409Y-61059000D01*
X135011768Y-61059000D01*
X134888293Y-60874207D01*
X134683188Y-60737160D01*
X134441250Y-60689036D01*
X133528750Y-60689036D01*
X133286812Y-60737160D01*
X133171000Y-60814543D01*
X133171000Y-60440457D01*
X133286812Y-60517840D01*
X133528750Y-60565964D01*
X134441250Y-60565964D01*
X134683188Y-60517840D01*
X134888293Y-60380793D01*
X135025340Y-60175688D01*
X135073464Y-59933750D01*
X135073464Y-59446250D01*
X135025340Y-59204312D01*
X134888293Y-58999207D01*
X134683188Y-58862160D01*
X134491000Y-58823932D01*
X134491000Y-50374591D01*
X135156841Y-49708750D01*
X136919036Y-49708750D01*
X136919036Y-50621250D01*
X136967160Y-50863188D01*
X137104207Y-51068293D01*
X137177850Y-51117500D01*
X137104207Y-51166707D01*
X136967160Y-51371812D01*
X136919036Y-51613750D01*
X136919036Y-52526250D01*
X136967160Y-52768188D01*
X137104207Y-52973293D01*
X137309312Y-53110340D01*
X137551250Y-53158464D01*
X137621501Y-53158464D01*
X137621500Y-53583232D01*
X137436707Y-53706707D01*
X137299660Y-53911812D01*
X137251536Y-54153750D01*
X137251536Y-55066250D01*
X137299660Y-55308188D01*
X137436707Y-55513293D01*
X137621501Y-55636768D01*
X137621500Y-56093368D01*
X137526707Y-56156707D01*
X137389660Y-56361812D01*
X137341536Y-56603750D01*
X137341536Y-57091250D01*
X137389660Y-57333188D01*
X137526707Y-57538293D01*
X137731812Y-57675340D01*
X137973750Y-57723464D01*
X138886250Y-57723464D01*
X139128188Y-57675340D01*
X139333293Y-57538293D01*
X139456768Y-57353500D01*
X139822909Y-57353500D01*
X139829000Y-57359591D01*
X139829001Y-60910161D01*
X139819087Y-60960000D01*
X139854204Y-61136536D01*
X139858360Y-61157431D01*
X139970195Y-61324806D01*
X140012445Y-61353036D01*
X140576963Y-61917555D01*
X140605194Y-61959806D01*
X140717781Y-62035033D01*
X140772568Y-62071641D01*
X140970000Y-62110913D01*
X141019835Y-62101000D01*
X144274001Y-62101000D01*
X144274000Y-66711499D01*
X144117900Y-66867599D01*
X143999000Y-67154649D01*
X143999000Y-67465351D01*
X144117900Y-67752401D01*
X144337599Y-67972100D01*
X144624649Y-68091000D01*
X144935351Y-68091000D01*
X145222401Y-67972100D01*
X145442100Y-67752401D01*
X145561000Y-67465351D01*
X145561000Y-67154649D01*
X145442100Y-66867599D01*
X145286000Y-66711499D01*
X145286000Y-62101000D01*
X148540166Y-62101000D01*
X148590000Y-62110913D01*
X148639834Y-62101000D01*
X148639835Y-62101000D01*
X148787431Y-62071641D01*
X148954806Y-61959806D01*
X148983039Y-61917552D01*
X154841841Y-56058750D01*
X156936536Y-56058750D01*
X156936536Y-56971250D01*
X156984660Y-57213188D01*
X157121707Y-57418293D01*
X157326812Y-57555340D01*
X157568750Y-57603464D01*
X157609001Y-57603464D01*
X157609000Y-57836536D01*
X157515000Y-57836536D01*
X157366341Y-57866106D01*
X157240314Y-57950314D01*
X157156106Y-58076341D01*
X157126536Y-58225000D01*
X157126536Y-59125000D01*
X157156106Y-59273659D01*
X157240314Y-59399686D01*
X157366341Y-59483894D01*
X157515000Y-59513464D01*
X158237872Y-59513464D01*
X158421963Y-59697555D01*
X158450194Y-59739806D01*
X158617569Y-59851641D01*
X158765165Y-59881000D01*
X158814999Y-59890913D01*
X158864833Y-59881000D01*
X159660000Y-59881000D01*
X159660000Y-60039250D01*
X159818750Y-60198000D01*
X160698000Y-60198000D01*
X160698000Y-60178000D01*
X160952000Y-60178000D01*
X160952000Y-60198000D01*
X161831250Y-60198000D01*
X161990000Y-60039250D01*
X161990000Y-59873690D01*
X161893327Y-59640301D01*
X161743464Y-59490439D01*
X161743464Y-59050000D01*
X161713894Y-58901341D01*
X161629686Y-58775314D01*
X161503659Y-58691106D01*
X161355000Y-58661536D01*
X160295000Y-58661536D01*
X160146341Y-58691106D01*
X160020314Y-58775314D01*
X159957715Y-58869000D01*
X159103464Y-58869000D01*
X159103464Y-58225000D01*
X159073894Y-58076341D01*
X158989686Y-57950314D01*
X158863659Y-57866106D01*
X158715000Y-57836536D01*
X158621000Y-57836536D01*
X158621000Y-57242132D01*
X158640340Y-57213188D01*
X158688464Y-56971250D01*
X158688464Y-56058750D01*
X158640340Y-55816812D01*
X158503293Y-55611707D01*
X158298188Y-55474660D01*
X158056250Y-55426536D01*
X157568750Y-55426536D01*
X157326812Y-55474660D01*
X157121707Y-55611707D01*
X156984660Y-55816812D01*
X156936536Y-56058750D01*
X154841841Y-56058750D01*
X156213594Y-54686998D01*
X164878907Y-54686998D01*
X165686536Y-55494628D01*
X165686536Y-56263029D01*
X165651347Y-56286541D01*
X165539512Y-56453917D01*
X165529351Y-56505000D01*
X165500240Y-56651347D01*
X165510153Y-56701181D01*
X165510154Y-57279000D01*
X163531000Y-57279000D01*
X163531000Y-57029833D01*
X163540913Y-56979999D01*
X163520983Y-56879806D01*
X163501641Y-56782569D01*
X163389806Y-56615194D01*
X163347555Y-56586963D01*
X162953038Y-56192447D01*
X162924806Y-56150194D01*
X162757431Y-56038359D01*
X162609835Y-56009000D01*
X162609834Y-56009000D01*
X162560000Y-55999087D01*
X162510166Y-56009000D01*
X160553568Y-56009000D01*
X160515340Y-55816812D01*
X160378293Y-55611707D01*
X160173188Y-55474660D01*
X159931250Y-55426536D01*
X159443750Y-55426536D01*
X159201812Y-55474660D01*
X158996707Y-55611707D01*
X158859660Y-55816812D01*
X158811536Y-56058750D01*
X158811536Y-56971250D01*
X158859660Y-57213188D01*
X158996707Y-57418293D01*
X159201812Y-57555340D01*
X159443750Y-57603464D01*
X159931250Y-57603464D01*
X160173188Y-57555340D01*
X160378293Y-57418293D01*
X160515340Y-57213188D01*
X160553568Y-57021000D01*
X162350409Y-57021000D01*
X162519001Y-57189592D01*
X162519000Y-57735164D01*
X162509087Y-57785000D01*
X162519000Y-57834834D01*
X162519000Y-57919835D01*
X162519001Y-57919840D01*
X162519000Y-58661536D01*
X162495000Y-58661536D01*
X162346341Y-58691106D01*
X162220314Y-58775314D01*
X162136106Y-58901341D01*
X162106536Y-59050000D01*
X162106536Y-59700000D01*
X162136106Y-59848659D01*
X162220314Y-59974686D01*
X162346341Y-60058894D01*
X162495000Y-60088464D01*
X162519001Y-60088464D01*
X162519000Y-60561536D01*
X162495000Y-60561536D01*
X162346341Y-60591106D01*
X162220314Y-60675314D01*
X162136106Y-60801341D01*
X162106536Y-60950000D01*
X162106536Y-61600000D01*
X162136106Y-61748659D01*
X162220314Y-61874686D01*
X162346341Y-61958894D01*
X162495000Y-61988464D01*
X163555000Y-61988464D01*
X163703659Y-61958894D01*
X163829686Y-61874686D01*
X163913894Y-61748659D01*
X163943464Y-61600000D01*
X163943464Y-60950000D01*
X163913894Y-60801341D01*
X163829686Y-60675314D01*
X163703659Y-60591106D01*
X163555000Y-60561536D01*
X163531000Y-60561536D01*
X163531000Y-60169649D01*
X164319000Y-60169649D01*
X164319000Y-60480351D01*
X164437900Y-60767401D01*
X164594000Y-60923501D01*
X164594001Y-63032661D01*
X164584087Y-63082500D01*
X164619395Y-63260000D01*
X164623360Y-63279931D01*
X164735195Y-63447306D01*
X164777445Y-63475537D01*
X165686536Y-64384628D01*
X165686536Y-65395000D01*
X165735136Y-65639330D01*
X165873538Y-65846462D01*
X166080670Y-65984864D01*
X166281500Y-66024811D01*
X166281501Y-81012661D01*
X166271587Y-81062500D01*
X166310860Y-81259931D01*
X166422695Y-81427306D01*
X166464946Y-81455537D01*
X171711963Y-86702555D01*
X171740194Y-86744806D01*
X171852781Y-86820033D01*
X171907568Y-86856641D01*
X172105000Y-86895913D01*
X172154835Y-86886000D01*
X174396536Y-86886000D01*
X174396536Y-87230000D01*
X174426106Y-87378659D01*
X174510314Y-87504686D01*
X174636341Y-87588894D01*
X174785000Y-87618464D01*
X176485000Y-87618464D01*
X176633659Y-87588894D01*
X176759686Y-87504686D01*
X176843894Y-87378659D01*
X176873464Y-87230000D01*
X176873464Y-86380000D01*
X176919884Y-86380000D01*
X177015424Y-86860312D01*
X177287499Y-87267501D01*
X177694688Y-87539576D01*
X178053761Y-87611000D01*
X178296239Y-87611000D01*
X178655312Y-87539576D01*
X179062501Y-87267501D01*
X179332755Y-86863037D01*
X179519817Y-87261358D01*
X179948076Y-87651645D01*
X180358110Y-87821476D01*
X180588000Y-87700155D01*
X180588000Y-86507000D01*
X180842000Y-86507000D01*
X180842000Y-87700155D01*
X181071890Y-87821476D01*
X181481924Y-87651645D01*
X181910183Y-87261358D01*
X182156486Y-86736892D01*
X182035819Y-86507000D01*
X180842000Y-86507000D01*
X180588000Y-86507000D01*
X180568000Y-86507000D01*
X180568000Y-86253000D01*
X180588000Y-86253000D01*
X180588000Y-86233000D01*
X180842000Y-86233000D01*
X180842000Y-86253000D01*
X182035819Y-86253000D01*
X182156486Y-86023108D01*
X181910183Y-85498642D01*
X181481924Y-85108355D01*
X181204488Y-84993445D01*
X181602501Y-84727501D01*
X181874576Y-84320312D01*
X181970116Y-83840000D01*
X181874576Y-83359688D01*
X181602501Y-82952499D01*
X181195312Y-82680424D01*
X180836239Y-82609000D01*
X180593761Y-82609000D01*
X180234688Y-82680424D01*
X179827499Y-82952499D01*
X179555424Y-83359688D01*
X179459884Y-83840000D01*
X179555424Y-84320312D01*
X179827499Y-84727501D01*
X180225512Y-84993445D01*
X179948076Y-85108355D01*
X179519817Y-85498642D01*
X179332755Y-85896963D01*
X179062501Y-85492499D01*
X178655312Y-85220424D01*
X178296239Y-85149000D01*
X178053761Y-85149000D01*
X177694688Y-85220424D01*
X177287499Y-85492499D01*
X177015424Y-85899688D01*
X176919884Y-86380000D01*
X176873464Y-86380000D01*
X176873464Y-85530000D01*
X176843894Y-85381341D01*
X176759686Y-85255314D01*
X176633659Y-85171106D01*
X176485000Y-85141536D01*
X174785000Y-85141536D01*
X174636341Y-85171106D01*
X174510314Y-85255314D01*
X174426106Y-85381341D01*
X174396536Y-85530000D01*
X174396536Y-85874000D01*
X172314592Y-85874000D01*
X170280592Y-83840000D01*
X174379884Y-83840000D01*
X174475424Y-84320312D01*
X174747499Y-84727501D01*
X175154688Y-84999576D01*
X175513761Y-85071000D01*
X175756239Y-85071000D01*
X176115312Y-84999576D01*
X176522501Y-84727501D01*
X176794576Y-84320312D01*
X176890116Y-83840000D01*
X176919884Y-83840000D01*
X177015424Y-84320312D01*
X177287499Y-84727501D01*
X177694688Y-84999576D01*
X178053761Y-85071000D01*
X178296239Y-85071000D01*
X178655312Y-84999576D01*
X179062501Y-84727501D01*
X179334576Y-84320312D01*
X179430116Y-83840000D01*
X179334576Y-83359688D01*
X179062501Y-82952499D01*
X178655312Y-82680424D01*
X178296239Y-82609000D01*
X178053761Y-82609000D01*
X177694688Y-82680424D01*
X177287499Y-82952499D01*
X177015424Y-83359688D01*
X176919884Y-83840000D01*
X176890116Y-83840000D01*
X176794576Y-83359688D01*
X176522501Y-82952499D01*
X176115312Y-82680424D01*
X175756239Y-82609000D01*
X175513761Y-82609000D01*
X175154688Y-82680424D01*
X174747499Y-82952499D01*
X174475424Y-83359688D01*
X174379884Y-83840000D01*
X170280592Y-83840000D01*
X167293500Y-80852909D01*
X167293500Y-66024811D01*
X167494330Y-65984864D01*
X167701462Y-65846462D01*
X167839864Y-65639330D01*
X167888464Y-65395000D01*
X167888464Y-65055750D01*
X168415000Y-65055750D01*
X168415000Y-65771310D01*
X168511673Y-66004699D01*
X168690302Y-66183327D01*
X168923691Y-66280000D01*
X169476750Y-66280000D01*
X169635500Y-66121250D01*
X169635500Y-64897000D01*
X169889500Y-64897000D01*
X169889500Y-66121250D01*
X170048250Y-66280000D01*
X170601309Y-66280000D01*
X170834698Y-66183327D01*
X171013327Y-66004699D01*
X171110000Y-65771310D01*
X171110000Y-65055750D01*
X170951250Y-64897000D01*
X169889500Y-64897000D01*
X169635500Y-64897000D01*
X168573750Y-64897000D01*
X168415000Y-65055750D01*
X167888464Y-65055750D01*
X167888464Y-64145000D01*
X167839864Y-63900670D01*
X167751678Y-63768690D01*
X168415000Y-63768690D01*
X168415000Y-64484250D01*
X168573750Y-64643000D01*
X169635500Y-64643000D01*
X169635500Y-63418750D01*
X169889500Y-63418750D01*
X169889500Y-64643000D01*
X170951250Y-64643000D01*
X171110000Y-64484250D01*
X171110000Y-63768690D01*
X171013327Y-63535301D01*
X170834698Y-63356673D01*
X170601309Y-63260000D01*
X170048250Y-63260000D01*
X169889500Y-63418750D01*
X169635500Y-63418750D01*
X169476750Y-63260000D01*
X168923691Y-63260000D01*
X168690302Y-63356673D01*
X168511673Y-63535301D01*
X168415000Y-63768690D01*
X167751678Y-63768690D01*
X167701462Y-63693538D01*
X167494330Y-63555136D01*
X167293500Y-63515189D01*
X167293500Y-62232091D01*
X167334516Y-62191076D01*
X167360314Y-62229686D01*
X167486341Y-62313894D01*
X167635000Y-62343464D01*
X168285000Y-62343464D01*
X168433659Y-62313894D01*
X168559686Y-62229686D01*
X168643894Y-62103659D01*
X168673464Y-61955000D01*
X168673464Y-60895000D01*
X168643894Y-60746341D01*
X168559686Y-60620314D01*
X168433659Y-60536106D01*
X168285000Y-60506536D01*
X167635000Y-60506536D01*
X167486341Y-60536106D01*
X167360314Y-60620314D01*
X167276106Y-60746341D01*
X167246536Y-60895000D01*
X167246536Y-60936629D01*
X167187568Y-60948359D01*
X167170145Y-60960001D01*
X167020194Y-61060194D01*
X166991963Y-61102445D01*
X166464945Y-61629464D01*
X166422695Y-61657694D01*
X166321764Y-61808750D01*
X166310860Y-61825069D01*
X166271587Y-62022500D01*
X166281501Y-62072339D01*
X166281500Y-63515189D01*
X166253792Y-63520700D01*
X165606000Y-62872909D01*
X165606000Y-60923501D01*
X165762100Y-60767401D01*
X165881000Y-60480351D01*
X165881000Y-60169649D01*
X165762100Y-59882599D01*
X165542401Y-59662900D01*
X165255351Y-59544000D01*
X164944649Y-59544000D01*
X164657599Y-59662900D01*
X164437900Y-59882599D01*
X164319000Y-60169649D01*
X163531000Y-60169649D01*
X163531000Y-60088464D01*
X163555000Y-60088464D01*
X163703659Y-60058894D01*
X163829686Y-59974686D01*
X163913894Y-59848659D01*
X163943464Y-59700000D01*
X163943464Y-59050000D01*
X163913894Y-58901341D01*
X163829686Y-58775314D01*
X163703659Y-58691106D01*
X163555000Y-58661536D01*
X163531000Y-58661536D01*
X163531000Y-58291000D01*
X165510154Y-58291000D01*
X165510154Y-58651314D01*
X165500240Y-58701153D01*
X165534311Y-58872431D01*
X165539513Y-58898584D01*
X165651348Y-59065959D01*
X165693598Y-59094189D01*
X166146965Y-59547558D01*
X166175194Y-59589806D01*
X166217442Y-59618035D01*
X166342569Y-59701641D01*
X166540000Y-59740913D01*
X166589835Y-59731000D01*
X167246536Y-59731000D01*
X167246536Y-59755000D01*
X167276106Y-59903659D01*
X167360314Y-60029686D01*
X167486341Y-60113894D01*
X167635000Y-60143464D01*
X168075439Y-60143464D01*
X168225301Y-60293327D01*
X168458690Y-60390000D01*
X168624250Y-60390000D01*
X168783000Y-60231250D01*
X168783000Y-59352000D01*
X168763000Y-59352000D01*
X168763000Y-59098000D01*
X168783000Y-59098000D01*
X168783000Y-58218750D01*
X169037000Y-58218750D01*
X169037000Y-59098000D01*
X169057000Y-59098000D01*
X169057000Y-59352000D01*
X169037000Y-59352000D01*
X169037000Y-60231250D01*
X169195750Y-60390000D01*
X169361310Y-60390000D01*
X169594699Y-60293327D01*
X169744561Y-60143464D01*
X169978445Y-60143464D01*
X169615373Y-60506536D01*
X169535000Y-60506536D01*
X169386341Y-60536106D01*
X169260314Y-60620314D01*
X169176106Y-60746341D01*
X169146536Y-60895000D01*
X169146536Y-61955000D01*
X169176106Y-62103659D01*
X169260314Y-62229686D01*
X169386341Y-62313894D01*
X169535000Y-62343464D01*
X170185000Y-62343464D01*
X170333659Y-62313894D01*
X170459686Y-62229686D01*
X170543894Y-62103659D01*
X170573464Y-61955000D01*
X170573464Y-61880750D01*
X170660000Y-61880750D01*
X170660000Y-62421310D01*
X170756673Y-62654699D01*
X170935302Y-62833327D01*
X171168691Y-62930000D01*
X171496750Y-62930000D01*
X171655500Y-62771250D01*
X171655500Y-61722000D01*
X170818750Y-61722000D01*
X170660000Y-61880750D01*
X170573464Y-61880750D01*
X170573464Y-60979627D01*
X170660000Y-60893091D01*
X170660000Y-61309250D01*
X170818750Y-61468000D01*
X171655500Y-61468000D01*
X171655500Y-60418750D01*
X171909500Y-60418750D01*
X171909500Y-61468000D01*
X171929500Y-61468000D01*
X171929500Y-61722000D01*
X171909500Y-61722000D01*
X171909500Y-62771250D01*
X172068250Y-62930000D01*
X172396309Y-62930000D01*
X172629698Y-62833327D01*
X172808327Y-62654699D01*
X172905000Y-62421310D01*
X172905000Y-62405942D01*
X172966707Y-62498293D01*
X173171812Y-62635340D01*
X173413750Y-62683464D01*
X173901250Y-62683464D01*
X174143188Y-62635340D01*
X174348293Y-62498293D01*
X174485340Y-62293188D01*
X174533464Y-62051250D01*
X174533464Y-61138750D01*
X174485340Y-60896812D01*
X174348293Y-60691707D01*
X174163500Y-60568232D01*
X174163500Y-60081768D01*
X174348293Y-59958293D01*
X174485340Y-59753188D01*
X174533464Y-59511250D01*
X174533464Y-58598750D01*
X174485340Y-58356812D01*
X174348293Y-58151707D01*
X174143188Y-58014660D01*
X173901250Y-57966536D01*
X173413750Y-57966536D01*
X173171812Y-58014660D01*
X172966707Y-58151707D01*
X172829660Y-58356812D01*
X172781536Y-58598750D01*
X172781536Y-59511250D01*
X172829660Y-59753188D01*
X172966707Y-59958293D01*
X173151500Y-60081768D01*
X173151501Y-60568232D01*
X172966707Y-60691707D01*
X172905000Y-60784058D01*
X172905000Y-60768690D01*
X172808327Y-60535301D01*
X172629698Y-60356673D01*
X172396309Y-60260000D01*
X172068250Y-60260000D01*
X171909500Y-60418750D01*
X171655500Y-60418750D01*
X171496750Y-60260000D01*
X171293092Y-60260000D01*
X171431050Y-60122041D01*
X171538750Y-60143464D01*
X172026250Y-60143464D01*
X172268188Y-60095340D01*
X172473293Y-59958293D01*
X172610340Y-59753188D01*
X172658464Y-59511250D01*
X172658464Y-58598750D01*
X172610340Y-58356812D01*
X172473293Y-58151707D01*
X172268188Y-58014660D01*
X172026250Y-57966536D01*
X171538750Y-57966536D01*
X171296812Y-58014660D01*
X171091707Y-58151707D01*
X170954660Y-58356812D01*
X170906536Y-58598750D01*
X170906536Y-59215373D01*
X170903708Y-59218201D01*
X170903705Y-59218203D01*
X170573464Y-59548444D01*
X170573464Y-58695000D01*
X170543894Y-58546341D01*
X170512995Y-58500097D01*
X171431050Y-57582041D01*
X171538750Y-57603464D01*
X172026250Y-57603464D01*
X172268188Y-57555340D01*
X172473293Y-57418293D01*
X172610340Y-57213188D01*
X172658464Y-56971250D01*
X172658464Y-56058750D01*
X172610340Y-55816812D01*
X172473293Y-55611707D01*
X172268188Y-55474660D01*
X172026250Y-55426536D01*
X171538750Y-55426536D01*
X171296812Y-55474660D01*
X171094226Y-55610024D01*
X171110000Y-55594250D01*
X171110000Y-54878690D01*
X171013327Y-54645301D01*
X170834698Y-54466673D01*
X170601309Y-54370000D01*
X170048250Y-54370000D01*
X169889500Y-54528750D01*
X169889500Y-55753000D01*
X169909500Y-55753000D01*
X169909500Y-56007000D01*
X169889500Y-56007000D01*
X169889500Y-57231250D01*
X170048250Y-57390000D01*
X170191909Y-57390000D01*
X169537445Y-58044463D01*
X169495195Y-58072694D01*
X169472816Y-58106187D01*
X169361310Y-58060000D01*
X169195750Y-58060000D01*
X169037000Y-58218750D01*
X168783000Y-58218750D01*
X168624250Y-58060000D01*
X168458690Y-58060000D01*
X168225301Y-58156673D01*
X168075439Y-58306536D01*
X167635000Y-58306536D01*
X167486341Y-58336106D01*
X167360314Y-58420314D01*
X167276106Y-58546341D01*
X167246536Y-58695000D01*
X167246536Y-58719000D01*
X166749592Y-58719000D01*
X166522153Y-58491561D01*
X166522153Y-57834834D01*
X166532066Y-57785000D01*
X166522153Y-57735165D01*
X166522153Y-57143464D01*
X167250000Y-57143464D01*
X167494330Y-57094864D01*
X167701462Y-56956462D01*
X167839864Y-56749330D01*
X167888464Y-56505000D01*
X167888464Y-56165750D01*
X168415000Y-56165750D01*
X168415000Y-56881310D01*
X168511673Y-57114699D01*
X168690302Y-57293327D01*
X168923691Y-57390000D01*
X169476750Y-57390000D01*
X169635500Y-57231250D01*
X169635500Y-56007000D01*
X168573750Y-56007000D01*
X168415000Y-56165750D01*
X167888464Y-56165750D01*
X167888464Y-55255000D01*
X167839864Y-55010670D01*
X167751678Y-54878690D01*
X168415000Y-54878690D01*
X168415000Y-55594250D01*
X168573750Y-55753000D01*
X169635500Y-55753000D01*
X169635500Y-54528750D01*
X169476750Y-54370000D01*
X168923691Y-54370000D01*
X168690302Y-54466673D01*
X168511673Y-54645301D01*
X168415000Y-54878690D01*
X167751678Y-54878690D01*
X167701462Y-54803538D01*
X167494330Y-54665136D01*
X167250000Y-54616536D01*
X166325000Y-54616536D01*
X166253792Y-54630700D01*
X165481537Y-53858445D01*
X165453304Y-53816192D01*
X165285929Y-53704357D01*
X165138333Y-53674998D01*
X165138332Y-53674998D01*
X165088498Y-53665085D01*
X165038664Y-53674998D01*
X156053835Y-53674998D01*
X156004001Y-53665085D01*
X155954167Y-53674998D01*
X155806571Y-53704357D01*
X155639196Y-53816192D01*
X155610965Y-53858443D01*
X148380409Y-61089000D01*
X144829835Y-61089000D01*
X144780000Y-61079087D01*
X144730165Y-61089000D01*
X141179592Y-61089000D01*
X140841000Y-60750409D01*
X140841000Y-57199834D01*
X140850913Y-57150000D01*
X140811641Y-56952568D01*
X140781884Y-56908034D01*
X140699806Y-56785194D01*
X140657553Y-56756962D01*
X140425539Y-56524948D01*
X140397306Y-56482694D01*
X140229931Y-56370859D01*
X140082335Y-56341500D01*
X140082334Y-56341500D01*
X140032500Y-56331587D01*
X139982666Y-56341500D01*
X139456768Y-56341500D01*
X139333293Y-56156707D01*
X139128188Y-56019660D01*
X138886250Y-55971536D01*
X138633500Y-55971536D01*
X138633500Y-55636768D01*
X138818293Y-55513293D01*
X138955340Y-55308188D01*
X139003464Y-55066250D01*
X139003464Y-54153750D01*
X138955340Y-53911812D01*
X138818293Y-53706707D01*
X138633500Y-53583232D01*
X138633500Y-52714596D01*
X138670964Y-52526250D01*
X138670964Y-51613750D01*
X138622840Y-51371812D01*
X138485793Y-51166707D01*
X138412150Y-51117500D01*
X138485793Y-51068293D01*
X138622840Y-50863188D01*
X138670964Y-50621250D01*
X138670964Y-49708750D01*
X138794036Y-49708750D01*
X138794036Y-50621250D01*
X138842160Y-50863188D01*
X138979207Y-51068293D01*
X139052850Y-51117500D01*
X138979207Y-51166707D01*
X138842160Y-51371812D01*
X138794036Y-51613750D01*
X138794036Y-52526250D01*
X138842160Y-52768188D01*
X138979207Y-52973293D01*
X139184312Y-53110340D01*
X139426250Y-53158464D01*
X139913750Y-53158464D01*
X140155688Y-53110340D01*
X140360793Y-52973293D01*
X140486250Y-52785534D01*
X140611707Y-52973293D01*
X140816812Y-53110340D01*
X141058750Y-53158464D01*
X141546250Y-53158464D01*
X141788188Y-53110340D01*
X141993293Y-52973293D01*
X142130340Y-52768188D01*
X142178464Y-52526250D01*
X142178464Y-51613750D01*
X142130340Y-51371812D01*
X141993293Y-51166707D01*
X141919650Y-51117500D01*
X141993293Y-51068293D01*
X142130340Y-50863188D01*
X142178464Y-50621250D01*
X142178464Y-49708750D01*
X142301536Y-49708750D01*
X142301536Y-50621250D01*
X142349660Y-50863188D01*
X142486707Y-51068293D01*
X142560350Y-51117500D01*
X142486707Y-51166707D01*
X142349660Y-51371812D01*
X142301536Y-51613750D01*
X142301536Y-52526250D01*
X142349660Y-52768188D01*
X142486707Y-52973293D01*
X142691812Y-53110340D01*
X142933750Y-53158464D01*
X143421250Y-53158464D01*
X143663188Y-53110340D01*
X143868293Y-52973293D01*
X144005340Y-52768188D01*
X144053464Y-52526250D01*
X144053464Y-51613750D01*
X144005340Y-51371812D01*
X143868293Y-51166707D01*
X143794650Y-51117500D01*
X143868293Y-51068293D01*
X144005340Y-50863188D01*
X144043568Y-50671000D01*
X146635166Y-50671000D01*
X146685000Y-50680913D01*
X146734834Y-50671000D01*
X146734835Y-50671000D01*
X146882431Y-50641641D01*
X147049806Y-50529806D01*
X147078038Y-50487553D01*
X148267487Y-49298105D01*
X148324806Y-49259806D01*
X148353038Y-49217554D01*
X148397555Y-49173037D01*
X148439806Y-49144806D01*
X148551641Y-48977431D01*
X148563370Y-48918464D01*
X148725000Y-48918464D01*
X148873659Y-48888894D01*
X148999686Y-48804686D01*
X149083894Y-48678659D01*
X149113464Y-48530000D01*
X149113464Y-46530000D01*
X149083894Y-46381341D01*
X148999686Y-46255314D01*
X148873659Y-46171106D01*
X148725000Y-46141536D01*
X147425000Y-46141536D01*
X147276341Y-46171106D01*
X147150314Y-46255314D01*
X147066106Y-46381341D01*
X147036536Y-46530000D01*
X147036536Y-48530000D01*
X147066106Y-48678659D01*
X147150314Y-48804686D01*
X147257862Y-48876547D01*
X146475409Y-49659000D01*
X144043568Y-49659000D01*
X144005340Y-49466812D01*
X143868293Y-49261707D01*
X143663188Y-49124660D01*
X143421250Y-49076536D01*
X142933750Y-49076536D01*
X142691812Y-49124660D01*
X142486707Y-49261707D01*
X142349660Y-49466812D01*
X142301536Y-49708750D01*
X142178464Y-49708750D01*
X142130340Y-49466812D01*
X141993293Y-49261707D01*
X141788188Y-49124660D01*
X141546250Y-49076536D01*
X141058750Y-49076536D01*
X140816812Y-49124660D01*
X140611707Y-49261707D01*
X140486250Y-49449466D01*
X140360793Y-49261707D01*
X140155688Y-49124660D01*
X139913750Y-49076536D01*
X139426250Y-49076536D01*
X139184312Y-49124660D01*
X138979207Y-49261707D01*
X138842160Y-49466812D01*
X138794036Y-49708750D01*
X138670964Y-49708750D01*
X138622840Y-49466812D01*
X138485793Y-49261707D01*
X138280688Y-49124660D01*
X138038750Y-49076536D01*
X137551250Y-49076536D01*
X137309312Y-49124660D01*
X137104207Y-49261707D01*
X136967160Y-49466812D01*
X136919036Y-49708750D01*
X135156841Y-49708750D01*
X139274592Y-45591000D01*
X151555409Y-45591000D01*
X151894001Y-45929593D01*
X151894000Y-52290408D01*
X148370367Y-55814042D01*
X148283659Y-55756106D01*
X148135000Y-55726536D01*
X147674057Y-55726536D01*
X149547556Y-53853038D01*
X149589806Y-53824808D01*
X149689905Y-53674998D01*
X149701641Y-53657434D01*
X149740913Y-53460002D01*
X149731000Y-53410167D01*
X149731000Y-52918464D01*
X150225000Y-52918464D01*
X150373659Y-52888894D01*
X150499686Y-52804686D01*
X150583894Y-52678659D01*
X150613464Y-52530000D01*
X150613464Y-50857128D01*
X150697555Y-50773037D01*
X150739806Y-50744806D01*
X150851641Y-50577431D01*
X150881000Y-50429835D01*
X150890913Y-50380000D01*
X150881000Y-50330165D01*
X150881000Y-48918464D01*
X151025000Y-48918464D01*
X151173659Y-48888894D01*
X151299686Y-48804686D01*
X151383894Y-48678659D01*
X151413464Y-48530000D01*
X151413464Y-46530000D01*
X151383894Y-46381341D01*
X151299686Y-46255314D01*
X151173659Y-46171106D01*
X151025000Y-46141536D01*
X149725000Y-46141536D01*
X149576341Y-46171106D01*
X149450314Y-46255314D01*
X149366106Y-46381341D01*
X149336536Y-46530000D01*
X149336536Y-48530000D01*
X149366106Y-48678659D01*
X149450314Y-48804686D01*
X149576341Y-48888894D01*
X149725000Y-48918464D01*
X149869000Y-48918464D01*
X149869001Y-50141536D01*
X148225000Y-50141536D01*
X148076341Y-50171106D01*
X147950314Y-50255314D01*
X147866106Y-50381341D01*
X147836536Y-50530000D01*
X147836536Y-52530000D01*
X147866106Y-52678659D01*
X147950314Y-52804686D01*
X148076341Y-52888894D01*
X148225000Y-52918464D01*
X148719001Y-52918464D01*
X148719000Y-53250410D01*
X146523464Y-55445947D01*
X146523464Y-55165000D01*
X146493894Y-55016341D01*
X146409686Y-54890314D01*
X146283659Y-54806106D01*
X146135000Y-54776536D01*
X145235000Y-54776536D01*
X145086341Y-54806106D01*
X144960314Y-54890314D01*
X144876106Y-55016341D01*
X144867621Y-55059000D01*
X143662271Y-55059000D01*
X143633894Y-54916341D01*
X143549686Y-54790314D01*
X143423659Y-54706106D01*
X143275000Y-54676536D01*
X142802127Y-54676536D01*
X142413038Y-54287447D01*
X142384806Y-54245194D01*
X142217431Y-54133359D01*
X142069835Y-54104000D01*
X142069834Y-54104000D01*
X142020000Y-54094087D01*
X141970166Y-54104000D01*
X140868568Y-54104000D01*
X140830340Y-53911812D01*
X140693293Y-53706707D01*
X140488188Y-53569660D01*
X140246250Y-53521536D01*
X139758750Y-53521536D01*
X139516812Y-53569660D01*
X139311707Y-53706707D01*
X139174660Y-53911812D01*
X139126536Y-54153750D01*
X139126536Y-55066250D01*
X139174660Y-55308188D01*
X139311707Y-55513293D01*
X139516812Y-55650340D01*
X139758750Y-55698464D01*
X140246250Y-55698464D01*
X140488188Y-55650340D01*
X140693293Y-55513293D01*
X140830340Y-55308188D01*
X140868568Y-55116000D01*
X141810409Y-55116000D01*
X142086536Y-55392127D01*
X142086536Y-55965000D01*
X142116106Y-56113659D01*
X142200314Y-56239686D01*
X142326341Y-56323894D01*
X142346504Y-56327905D01*
X141997873Y-56676536D01*
X141525000Y-56676536D01*
X141376341Y-56706106D01*
X141250314Y-56790314D01*
X141166106Y-56916341D01*
X141136536Y-57065000D01*
X141136536Y-57965000D01*
X141166106Y-58113659D01*
X141250314Y-58239686D01*
X141376341Y-58323894D01*
X141419000Y-58332379D01*
X141419001Y-58671584D01*
X141246707Y-58786707D01*
X141109660Y-58991812D01*
X141061536Y-59233750D01*
X141061536Y-60146250D01*
X141109660Y-60388188D01*
X141246707Y-60593293D01*
X141451812Y-60730340D01*
X141693750Y-60778464D01*
X142181250Y-60778464D01*
X142423188Y-60730340D01*
X142628293Y-60593293D01*
X142690000Y-60500942D01*
X142690000Y-60516310D01*
X142786673Y-60749699D01*
X142965302Y-60928327D01*
X143198691Y-61025000D01*
X143526750Y-61025000D01*
X143685500Y-60866250D01*
X143685500Y-59817000D01*
X143939500Y-59817000D01*
X143939500Y-60866250D01*
X144098250Y-61025000D01*
X144426309Y-61025000D01*
X144659698Y-60928327D01*
X144838327Y-60749699D01*
X144935000Y-60516310D01*
X144935000Y-59975750D01*
X144776250Y-59817000D01*
X143939500Y-59817000D01*
X143685500Y-59817000D01*
X143665500Y-59817000D01*
X143665500Y-59563000D01*
X143685500Y-59563000D01*
X143685500Y-58513750D01*
X143939500Y-58513750D01*
X143939500Y-59563000D01*
X144776250Y-59563000D01*
X144935000Y-59404250D01*
X144935000Y-58863690D01*
X144838327Y-58630301D01*
X144659698Y-58451673D01*
X144643190Y-58444835D01*
X144763327Y-58324698D01*
X144773094Y-58301119D01*
X144875302Y-58403327D01*
X145108691Y-58500000D01*
X145399250Y-58500000D01*
X145558000Y-58341250D01*
X145558000Y-57592000D01*
X145812000Y-57592000D01*
X145812000Y-58341250D01*
X145970750Y-58500000D01*
X146261309Y-58500000D01*
X146494698Y-58403327D01*
X146673327Y-58224699D01*
X146770000Y-57991310D01*
X146770000Y-57750750D01*
X146611250Y-57592000D01*
X145812000Y-57592000D01*
X145558000Y-57592000D01*
X144758750Y-57592000D01*
X144705000Y-57645750D01*
X144701250Y-57642000D01*
X143952000Y-57642000D01*
X143952000Y-58441250D01*
X143982000Y-58471250D01*
X143939500Y-58513750D01*
X143685500Y-58513750D01*
X143655500Y-58483750D01*
X143698000Y-58441250D01*
X143698000Y-57642000D01*
X142948750Y-57642000D01*
X142790000Y-57800750D01*
X142790000Y-58091309D01*
X142886673Y-58324698D01*
X142999487Y-58437513D01*
X142965302Y-58451673D01*
X142786673Y-58630301D01*
X142690000Y-58863690D01*
X142690000Y-58879058D01*
X142628293Y-58786707D01*
X142431000Y-58654880D01*
X142431000Y-58332379D01*
X142473659Y-58323894D01*
X142599686Y-58239686D01*
X142683894Y-58113659D01*
X142713464Y-57965000D01*
X142713464Y-57392127D01*
X142833171Y-57272421D01*
X142948750Y-57388000D01*
X143698000Y-57388000D01*
X143698000Y-57368000D01*
X143952000Y-57368000D01*
X143952000Y-57388000D01*
X144701250Y-57388000D01*
X144755000Y-57334250D01*
X144758750Y-57338000D01*
X145558000Y-57338000D01*
X145558000Y-57318000D01*
X145812000Y-57318000D01*
X145812000Y-57338000D01*
X146611250Y-57338000D01*
X146770000Y-57179250D01*
X146770000Y-56938690D01*
X146679760Y-56720833D01*
X146846536Y-56554057D01*
X146846536Y-56915000D01*
X146876106Y-57063659D01*
X146960314Y-57189686D01*
X147086341Y-57273894D01*
X147235000Y-57303464D01*
X148135000Y-57303464D01*
X148283659Y-57273894D01*
X148409686Y-57189686D01*
X148493894Y-57063659D01*
X148505162Y-57007011D01*
X148582431Y-56991641D01*
X148749806Y-56879806D01*
X148778039Y-56837552D01*
X152722556Y-52893036D01*
X152764806Y-52864806D01*
X152876641Y-52697431D01*
X152906000Y-52549835D01*
X152906000Y-52549834D01*
X152915913Y-52500001D01*
X152906000Y-52450167D01*
X152906000Y-45835750D01*
X165075000Y-45835750D01*
X165075000Y-46726310D01*
X165171673Y-46959699D01*
X165350302Y-47138327D01*
X165583691Y-47235000D01*
X166161750Y-47235000D01*
X166320500Y-47076250D01*
X166320500Y-45677000D01*
X165233750Y-45677000D01*
X165075000Y-45835750D01*
X152906000Y-45835750D01*
X152906000Y-45769835D01*
X152915913Y-45720000D01*
X152876641Y-45522568D01*
X152828023Y-45449806D01*
X152764806Y-45355194D01*
X152722555Y-45326963D01*
X152158038Y-44762447D01*
X152129806Y-44720194D01*
X151962431Y-44608359D01*
X151814835Y-44579000D01*
X151814834Y-44579000D01*
X151765000Y-44569087D01*
X151715166Y-44579000D01*
X139114834Y-44579000D01*
X139065000Y-44569087D01*
X139015166Y-44579000D01*
X139015165Y-44579000D01*
X138867569Y-44608359D01*
X138700194Y-44720194D01*
X138671963Y-44762445D01*
X133662448Y-49771961D01*
X133620194Y-49800194D01*
X133508359Y-49967570D01*
X133499989Y-50009649D01*
X133469087Y-50165000D01*
X133479000Y-50214834D01*
X133479001Y-58823932D01*
X133286812Y-58862160D01*
X133171000Y-58939543D01*
X133171000Y-45456763D01*
X133208425Y-45547115D01*
X133807885Y-46146575D01*
X134591118Y-46471000D01*
X135438882Y-46471000D01*
X136222115Y-46146575D01*
X136821575Y-45547115D01*
X137146000Y-44763882D01*
X137146000Y-43916118D01*
X136988447Y-43535750D01*
X164177500Y-43535750D01*
X164177500Y-44326310D01*
X164274173Y-44559699D01*
X164452802Y-44738327D01*
X164686191Y-44835000D01*
X165075000Y-44835000D01*
X165075000Y-45264250D01*
X165233750Y-45423000D01*
X166320500Y-45423000D01*
X166320500Y-45403000D01*
X166574500Y-45403000D01*
X166574500Y-45423000D01*
X166594500Y-45423000D01*
X166594500Y-45677000D01*
X166574500Y-45677000D01*
X166574500Y-47076250D01*
X166733250Y-47235000D01*
X167338750Y-47235000D01*
X167358154Y-47215596D01*
X167544698Y-47138327D01*
X167722500Y-46960526D01*
X167722500Y-47076250D01*
X167881250Y-47235000D01*
X167961309Y-47235000D01*
X168194698Y-47138327D01*
X168344562Y-46988464D01*
X168485000Y-46988464D01*
X168585000Y-46968573D01*
X168685000Y-46988464D01*
X169135000Y-46988464D01*
X169235000Y-46968573D01*
X169335000Y-46988464D01*
X169704000Y-46988464D01*
X169704001Y-49536498D01*
X169517900Y-49722599D01*
X169399000Y-50009649D01*
X169399000Y-50320351D01*
X169517900Y-50607401D01*
X169737599Y-50827100D01*
X170024649Y-50946000D01*
X170335351Y-50946000D01*
X170622401Y-50827100D01*
X170842100Y-50607401D01*
X170961000Y-50320351D01*
X170961000Y-50009649D01*
X170842100Y-49722599D01*
X170716000Y-49596499D01*
X170716000Y-47235000D01*
X171086750Y-47235000D01*
X171245500Y-47076250D01*
X171245500Y-45677000D01*
X171499500Y-45677000D01*
X171499500Y-47076250D01*
X171658250Y-47235000D01*
X172236309Y-47235000D01*
X172469698Y-47138327D01*
X172648327Y-46959699D01*
X172745000Y-46726310D01*
X172745000Y-45835750D01*
X172586250Y-45677000D01*
X171499500Y-45677000D01*
X171245500Y-45677000D01*
X171225500Y-45677000D01*
X171225500Y-45423000D01*
X171245500Y-45423000D01*
X171245500Y-45403000D01*
X171499500Y-45403000D01*
X171499500Y-45423000D01*
X172586250Y-45423000D01*
X172745000Y-45264250D01*
X172745000Y-44835000D01*
X173133809Y-44835000D01*
X173367198Y-44738327D01*
X173545827Y-44559699D01*
X173642500Y-44326310D01*
X173642500Y-43535750D01*
X173572500Y-43465750D01*
X174470000Y-43465750D01*
X174470000Y-44006310D01*
X174566673Y-44239699D01*
X174745302Y-44418327D01*
X174978691Y-44515000D01*
X175306750Y-44515000D01*
X175465500Y-44356250D01*
X175465500Y-43307000D01*
X174628750Y-43307000D01*
X174470000Y-43465750D01*
X173572500Y-43465750D01*
X173483750Y-43377000D01*
X171947000Y-43377000D01*
X171947000Y-43397000D01*
X171693000Y-43397000D01*
X171693000Y-43377000D01*
X169877000Y-43377000D01*
X169877000Y-43397000D01*
X169623000Y-43397000D01*
X169623000Y-43377000D01*
X168197000Y-43377000D01*
X168197000Y-43397000D01*
X167943000Y-43397000D01*
X167943000Y-43377000D01*
X166127000Y-43377000D01*
X166127000Y-43397000D01*
X165873000Y-43397000D01*
X165873000Y-43377000D01*
X164336250Y-43377000D01*
X164177500Y-43535750D01*
X136988447Y-43535750D01*
X136821575Y-43132885D01*
X136222115Y-42533425D01*
X135648919Y-42296000D01*
X164177500Y-42296000D01*
X164177500Y-42964250D01*
G04 #@! TD*
M02*
