M48
INCH,TZ
T1C0.0157
T2C0.0276
T3C0.0394
T4C0.1181
%
G90
G05
T1
X53750Y-25500
X55750Y-28250
X57000Y-26500
X57000Y-28250
X57500Y-23500
X59750Y-25500
X60750Y-30250
X60750Y-33750
X61250Y-23000
X62500Y-19000
X65000Y-23750
X67000Y-19750
X68500Y-25500
X68750Y-19750
X73000Y-29500
T2
X58500Y-37250
X58500Y-42500
X62500Y-34000
X62500Y-45250
X74750Y-34000
X74750Y-45250
X77750Y-37250
X77750Y-42500
T3
X69148Y-33008
X69148Y-34008
X70148Y-33008
X70148Y-34008
X71148Y-33008
X71148Y-34008
X56250Y-33750
X57250Y-33750
X53116Y-29150
X54116Y-29150
X53250Y-30750
X53250Y-31750
X53250Y-32750
T4
X53156Y-17457
X53156Y-45016
X79612Y-17457
X79612Y-45016
T0
M30
